<svg enable-background="new 0 0 2240.9 1410" viewBox="0 0 2240.9 1410" xmlns="http://www.w3.org/2000/svg"><path d="m0 0h2240.9v1410h-2240.9z" fill="#f2d95f"/><circle cx="1753" cy="682" fill="#2ebd59" r="240.7"/><path d="m1753 922.7c-132.7 0-240.7-108-240.7-240.7s108-240.7 240.7-240.7 240.7 108 240.7 240.7-108 240.7-240.7 240.7zm0-467.5c-125.1 0-226.8 101.8-226.8 226.8s101.8 226.8 226.8 226.8 226.8-101.8 226.8-226.8-101.7-226.8-226.8-226.8z" fill="#fff" opacity=".5"/><path d="m1824.2 640.6c-3.8-8.7-9.6-16.2-15.1-23.9-5.4-7.5-10.8-15.1-16.1-22.6-5.4-7.6-10.8-15.2-16.2-22.8s-10.8-15.2-16.2-22.8c-1.4-1.9-2.7-3.9-4.1-5.8-1.3-1.8-3.1-2.9-5.3-2.5-2.3.4-3.4 2.2-4.7 4-1.4 1.9-2.7 3.9-4.1 5.8-5.4 7.6-10.8 15.2-16.3 22.8-5.4 7.6-10.8 15.2-16.2 22.8-5.4 7.5-10.8 15.1-16.1 22.6-2.7 3.8-5.5 7.5-8.1 11.4-2.6 4-4.9 8.3-6.7 12.7-3.7 9.2-5.6 19-5.4 28.9.2 9.2 2.1 18.3 5.6 26.8 3.5 8.3 8.4 16 14.6 22.5 3.2 3.4 6.8 6.6 10.2 9.8 3.6 3.3 7.1 6.7 10.7 10 7.3 6.8 15.1 13.7 22.4 20.5 3 2.8 7.5 5.6 9.5 8.5v52c0 1.9.6 2.5 2.5 2.5h6.1c1.9 0 2.4-.7 2.4-2.5v-52c7-6.8 15-13.6 22.2-20.4 3.5-3.3 7.2-6.6 10.7-9.8h.2c3.6-3.3 7.2-6.7 10.8-10.1 3.4-3.2 6.9-6.3 10-9.8 6-6.7 10.8-14.5 14.1-22.9 3.4-8.7 5-17.9 4.9-27.2-.2-9.7-2.3-19.5-6.3-28.5z" fill="#eac300"/><path d="m1790.7 739.2c-.1 0-.1.1 0 0-.1.1 0 0 0 0z" fill="#fff"/><path d="m1753.4 540.2c-3 0-1.3 0-1.6.1-2.3.4-3.8 2.2-5.1 4-1.4 1.9-2.9 3.9-4.3 5.8-5.4 7.6-10.9 15.2-16.3 22.8s-10.8 15.2-16.3 22.8c-5.4 7.5-10.8 15.1-16.2 22.6-2.7 3.8-5.5 7.5-8.1 11.4-2.6 4-4.9 8.3-6.7 12.7-3.7 9.2-5.6 19-5.4 28.9.2 9.2 2.1 18.3 5.6 26.8 3.5 8.3 8.4 16 14.6 22.5 3.2 3.4 6.8 6.6 10.2 9.8 3.6 3.3 7.1 6.7 10.7 10 7.3 6.8 15.1 13.7 22.4 20.5 3 2.8 7.5 5.6 9.5 8.5v52c0 1.9.6 2.5 2.5 2.5h4.5z" fill="#fff" opacity=".5"/><path d="m1862.9 748.7h9.3c3.6 0 6.5-.8 8.7-2.3s3.3-4 3.3-7.5v-34.8c0-3.9.9-7.7 2.7-11.5s5.4-6.7 10.8-8.6c-5.4-1.9-9-4.8-10.8-8.6s-2.7-7.6-2.7-11.5v-34.8c0-3.5-1.1-5.9-3.3-7.5-2.2-1.5-5.1-2.3-8.7-2.3h-9.3v-24.3h18.7c9 0 16.2 2.5 21.7 7.6 5.5 5 8.2 12.7 8.2 23.1v31.7c0 4.4 1.1 7.9 3.4 10.6 2.3 2.6 5.5 3.9 9.6 3.9h1.9v24h-1.9c-4.1 0-7.4 1.3-9.6 3.9-2.3 2.6-3.4 6.1-3.4 10.6v31.7c0 10.4-2.7 18.1-8.2 23.1s-12.7 7.6-21.7 7.6h-18.7z" fill="#fff"/><path d="m1596.7 710.6c0-4.4-1.1-7.9-3.2-10.6-2.1-2.6-5.4-3.9-9.8-3.9h-1.9v-24h1.9c4.4 0 7.7-1.3 9.8-3.9s3.2-6.1 3.2-10.6v-31.7c0-10.4 2.8-18.1 8.3-23.1s12.7-7.6 21.6-7.6h18.7v24.3h-9.3c-3.6 0-6.5.8-8.7 2.3s-3.3 4-3.3 7.5v34.7c0 3.9-.9 7.7-2.7 11.5s-5.3 6.7-10.4 8.6c5.1 1.9 8.6 4.8 10.4 8.6s2.7 7.6 2.7 11.5v34.8c0 3.5 1.1 5.9 3.3 7.5 2.2 1.5 5.1 2.3 8.7 2.3h9.3v24.2h-18.7c-8.8 0-16-2.5-21.6-7.6-5.5-5-8.3-12.7-8.3-23.1z" fill="#fff"/><circle cx="451.9" cy="682" fill="#e24f4b" r="240.7"/><path d="m448.5 922.6c-132.7-1.9-239.1-111.4-237.2-244.1s111.4-239.1 244.1-237.2 239.1 111.4 237.2 244.1-111.4 239.1-244.1 237.2zm6.6-467.4c-125.1-1.8-228.2 98.5-230 223.6s98.5 228.2 223.6 230 228.2-98.5 230-223.6-98.5-228.2-223.6-230z" fill="#fff" opacity=".5"/><g fill="#fff" opacity=".5"><path d="m402.7 655.5c-3.3-7.5-8.3-14-13-20.6-4.6-6.5-9.3-13-13.9-19.5-4.7-6.5-9.3-13.1-14-19.6-4.7-6.6-9.3-13.1-14-19.7-1.2-1.7-2.4-3.3-3.6-5-1.1-1.5-2.7-2.5-4.6-2.2-2 .3-2.9 1.9-4.1 3.4-1.2 1.6-2.4 3.3-3.5 5-4.6 6.6-9.3 13.1-14 19.7-4.7 6.5-9.3 13.1-14 19.6s-9.3 13-13.9 19.5c-2.3 3.3-4.8 6.5-7 9.9-2.3 3.4-4.2 7.1-5.8 10.9-3.2 7.9-4.8 16.4-4.7 24.9.1 7.9 1.8 15.8 4.8 23.1 3 7.2 7.3 13.8 12.6 19.4 2.8 3 5.8 5.7 8.8 8.4 3.1 2.9 6.2 5.8 9.2 8.7 6.3 5.9 12.9 11.8 19.2 17.7 2.6 2.4 6.1 4.9 8.1 7.3v44.8c0 1.6.7 1.5 2.3 1.5h5.3c1.6 0 2.4.1 2.4-1.5v-44.8c7-5.9 12.8-11.7 19-17.6 3-2.8 6.2-5.7 9.2-8.5h.1l9.3-8.7c2.9-2.7 5.9-5.4 8.6-8.4 5.2-5.8 9.3-12.5 12.1-19.7 2.9-7.5 4.3-15.5 4.3-23.5 0-8.2-1.8-16.7-5.2-24.5z"/><path d="m373.8 740.6s.1-.1 0 0z"/></g><path d="m339.4 568.9s0 0-.2.1c-2 .3-2.7 1.9-3.8 3.4-1.2 1.6-2.2 3.3-3.4 5-4.6 6.6-9.3 13.1-14 19.7-4.7 6.5-9.3 13.1-13.9 19.6-4.7 6.5-9.3 13-13.9 19.5-2.3 3.3-4.8 6.5-7 9.9-2.3 3.4-4.2 7.1-5.8 10.9-3.2 7.9-4.8 16.4-4.7 24.9.1 7.9 1.8 15.8 4.8 23.1 3 7.2 7.3 13.8 12.6 19.4 2.8 3 5.8 5.7 8.8 8.4 3.1 2.9 6.2 5.8 9.2 8.7 6.3 5.9 12.9 11.8 19.2 17.7 2.6 2.4 6.1 4.9 8.1 7.3v44.8c0 1.6.7 1.5 2.3 1.5h1.7z" fill="#fff"/><path d="m625.9 655.5c-3.3-7.5-8.3-14-13-20.6-4.6-6.5-9.3-13-13.9-19.5-4.7-6.5-9.3-13.1-14-19.6-4.7-6.6-9.3-13.1-14-19.7-1.2-1.7-2.4-3.3-3.6-5-1.1-1.5-2.7-2.5-4.6-2.2-2 .3-2.9 1.9-4.1 3.4-1.2 1.6-2.4 3.3-3.5 5-4.6 6.6-9.3 13.1-14 19.7-4.7 6.5-9.3 13.1-14 19.6s-9.3 13-13.9 19.5c-2.3 3.3-4.8 6.5-7 9.9-2.3 3.4-4.2 7.1-5.8 10.9-3.2 7.9-4.8 16.4-4.7 24.9.1 7.9 1.8 15.8 4.8 23.1 3 7.2 7.3 13.8 12.6 19.4 2.8 3 5.8 5.7 8.8 8.4 3.1 2.9 6.2 5.8 9.2 8.7 6.3 5.9 13.3 11.8 19.6 17.7 2.6 2.4 6.5 4.9 8.5 7.3v44.8c0 1.6-.1 1.5 1.5 1.5h5.3c1.6 0 5.2.1 5.2-1.5v-44.8c2-5.9 11.3-11.7 17.6-17.6 3-2.8 5.5-5.7 8.5-8.5h-.3c3.1-2.9 6-5.8 9.1-8.7 2.9-2.7 5.9-5.4 8.5-8.4 5.2-5.8 9.3-12.5 12.1-19.7 2.9-7.5 4.3-15.5 4.2-23.5.1-8.2-1.7-16.7-5.1-24.5z" fill="#eac300"/><path d="m596.9 740.6s.1-.1 0 0z" fill="#fff"/><path d="m566.4 568.9c-3 0-1.9 0-2.2.1-2 .3-3.7 1.9-4.8 3.4-1.2 1.6-2.7 3.3-3.9 5-4.6 6.6-9.5 13.1-14.2 19.7-4.7 6.5-9.4 13.1-14.1 19.6s-9.3 13-14 19.5c-2.3 3.3-4.8 6.5-7 9.9-2.3 3.4-4.2 7.1-5.8 10.9-3.2 7.9-4.8 16.4-4.7 24.9.1 7.9 1.8 15.8 4.8 23.1 3 7.2 7.3 13.8 12.6 19.4 2.8 3 5.8 5.7 8.8 8.4 3.1 2.9 6.2 5.8 9.2 8.7 6.3 5.9 13.3 11.8 19.6 17.7 2.6 2.4 6.5 4.9 8.5 7.3v44.8c0 1.6-.1 1.5 1.5 1.5h5.5v-243.9z" fill="#fff" opacity=".5"/><path d="m456.4 772.5h-8.9c-1.9 0-3.4-1.5-3.4-3.4v-155.7c0-1.9 1.5-3.4 3.4-3.4h8.9c1.9 0 3.4 1.5 3.4 3.4v155.7c0 1.8-1.5 3.4-3.4 3.4z" fill="#fff"/><circle cx="1102.5" cy="682" fill="#1eacf4" r="240.7"/><path d="m1099.1 922.6c-132.7-1.9-239.1-111.4-237.2-244.1s111.4-239.1 244.1-237.2 239.1 111.4 237.2 244.1-111.4 239.1-244.1 237.2zm6.6-467.4c-125.1-1.8-228.2 98.5-230 223.6s98.5 228.2 223.6 230 228.2-98.5 230-223.6c1.7-125.1-98.6-228.2-223.6-230z" fill="#fff" opacity=".5"/><path d="m1177.4 710.5c3.5-8.9 4.7-18.3 6.2-27.7 1.5-9.2 3.1-18.4 4.6-27.6 1.6-9.2 3.1-18.5 4.7-27.7 1.6-9.3 3.1-18.5 4.7-27.8.4-2.3.8-4.7 1.2-7 .4-2.2-.2-4.3-2-5.6-1.9-1.4-4-.8-6.2-.5-2.4.4-4.7.8-7 1.2-9.2 1.6-18.5 3.1-27.8 4.7-9.2 1.5-18.5 3.1-27.7 4.7-9.2 1.5-18.4 3.1-27.6 4.6-4.6.8-9.3 1.4-13.9 2.4-4.7 1-9.3 2.4-13.8 4.3-9.2 3.8-17.5 9.6-24.4 16.7-6.4 6.7-11.6 14.5-15.1 23.1-3.5 8.4-5.3 17.4-5.6 26.4-.2 4.7.1 9.5.3 14.2.2 4.9.3 9.8.5 14.8.3 10.1.9 20.4 1.2 30.5.1 4.1.8 8.8.7 12.7l-37 37c-1.3 1.3-1.2 2.2.2 3.5l4.3 4.3c1.3 1.3 3.6 3 5 1.6l37-37c6.8-3 19.5.2 29.5.5 4.8.2 9.4.1 14.2.2 0 0-.1-.1-.1-.1 4.9.2 9.8.3 14.8.4 4.7.1 9.3.4 14 .1 9-.5 18-2.6 26.3-6.3 8.5-3.8 16.3-9.2 22.8-15.9 7-7 12.4-15.5 16-24.7z" fill="#eac300"/><g fill="#fff"><path d="m1199.1 589.3c-1.9-1.9-1.3-1.2-1.5-1.4-1.9-1.4-4.4-1.3-6.6-.9-2.4.4-4.9.6-7.3 1-9.2 1.6-18.6 3-27.9 4.5-9.2 1.5-18.5 3.1-27.8 4.6-9.2 1.5-18.4 3.1-27.6 4.6-4.6.8-9.3 1.4-13.9 2.4-4.7 1-9.3 2.4-13.8 4.3-9.2 3.8-17.5 9.6-24.4 16.7-6.4 6.7-11.6 14.5-15.1 23.1-3.5 8.4-5.3 17.4-5.6 26.4-.2 4.7.1 9.5.3 14.2.2 4.9.3 9.8.5 14.8.3 10.1.9 20.4 1.2 30.5.1 4.1.8 8.8.7 12.7l-37 37c-1.3 1.3-1.2 2.2.2 3.5l3.8 3.8z" opacity=".5"/><path d="m1106.9 519.6h-8.9c-1.9 0-3.4-1.5-3.4-3.4v-48.7c0-1.9 1.5-3.4 3.4-3.4h8.9c1.9 0 3.4 1.5 3.4 3.4v48.7c0 1.9-1.5 3.4-3.4 3.4z"/><path d="m1106.9 899.9h-8.9c-1.9 0-3.4-1.5-3.4-3.4v-48.7c0-1.9 1.5-3.4 3.4-3.4h8.9c1.9 0 3.4 1.5 3.4 3.4v48.7c0 1.9-1.5 3.4-3.4 3.4z"/><path d="m961.5 816.6 6.3 6.3c1.3 1.3 1.3 3.5 0 4.8l-11.5 11.5c-1.3 1.3-3.5 1.3-4.8 0l-6.3-6.3c-1.3-1.3-1.3-3.5 0-4.8l11.5-11.5c1.3-1.3 3.5-1.3 4.8 0z"/><path d="m1253.4 524.7 6.3 6.3c1.3 1.3 1.3 3.5 0 4.8l-11.5 11.5c-1.3 1.3-3.5 1.3-4.8 0l-6.3-6.3c-1.3-1.3-1.3-3.5 0-4.8l11.5-11.5c1.3-1.3 3.5-1.3 4.8 0z"/><path d="m940.1 677.5v8.9c0 1.9-1.5 3.4-3.4 3.4h-48.7c-1.9 0-3.4-1.5-3.4-3.4v-8.9c0-1.9 1.5-3.4 3.4-3.4h48.7c1.8 0 3.4 1.6 3.4 3.4z"/><path d="m1320.4 677.5v8.9c0 1.9-1.5 3.4-3.4 3.4h-48.7c-1.9 0-3.4-1.5-3.4-3.4v-8.9c0-1.9 1.5-3.4 3.4-3.4h48.7c1.9 0 3.4 1.6 3.4 3.4z"/><path d="m1237.1 822.9 6.3-6.3c1.3-1.3 3.5-1.3 4.8 0l11.5 11.5c1.3 1.3 1.3 3.5 0 4.8l-6.3 6.3c-1.3 1.3-3.5 1.3-4.8 0l-11.5-11.5c-1.3-1.3-1.3-3.4 0-4.8z"/><path d="m945.2 531 6.3-6.3c1.3-1.3 3.5-1.3 4.8 0l11.5 11.5c1.3 1.3 1.3 3.5 0 4.8l-6.3 6.3c-1.3 1.3-3.5 1.3-4.8 0l-11.5-11.5c-1.3-1.3-1.3-3.4 0-4.8z"/></g></svg>