<?xml version="1.0" encoding="utf-8"?>
<!-- Generator: Adobe Illustrator 19.1.0, SVG Export Plug-In . SVG Version: 6.00 Build 0)  -->
<svg version="1.1" id="Layer_1" xmlns="http://www.w3.org/2000/svg" xmlns:xlink="http://www.w3.org/1999/xlink" x="0px" y="0px"
	 viewBox="0 0 2240.9 1410" enable-background="new 0 0 2240.9 1410" xml:space="preserve">
<rect y="0" fill="#F2D95F" width="2240.9" height="1410"/>
<g>
	<g>
		<circle fill="#2EBD59" cx="1753" cy="682" r="240.7"/>
		<path opacity="0.5" fill="#FFFFFF" d="M1753,922.7c-132.7,0-240.7-108-240.7-240.7s108-240.7,240.7-240.7s240.7,108,240.7,240.7
			S1885.7,922.7,1753,922.7z M1753,455.2c-125.1,0-226.8,101.8-226.8,226.8s101.8,226.8,226.8,226.8s226.8-101.8,226.8-226.8
			S1878.1,455.2,1753,455.2z"/>
		<g>
			<path fill="#EAC300" d="M1824.2,640.6c-3.8-8.7-9.6-16.2-15.1-23.9c-5.4-7.5-10.8-15.1-16.1-22.6c-5.4-7.6-10.8-15.2-16.2-22.8
				c-5.4-7.6-10.8-15.2-16.2-22.8c-1.4-1.9-2.7-3.9-4.1-5.8c-1.3-1.8-3.1-2.9-5.3-2.5c-2.3,0.4-3.4,2.2-4.7,4
				c-1.4,1.9-2.7,3.9-4.1,5.8c-5.4,7.6-10.8,15.2-16.3,22.8c-5.4,7.6-10.8,15.2-16.2,22.8c-5.4,7.5-10.8,15.1-16.1,22.6
				c-2.7,3.8-5.5,7.5-8.1,11.4c-2.6,4-4.9,8.3-6.7,12.7c-3.7,9.2-5.6,19-5.4,28.9c0.2,9.2,2.1,18.3,5.6,26.8
				c3.5,8.3,8.4,16,14.6,22.5c3.2,3.4,6.8,6.6,10.2,9.8c3.6,3.3,7.1,6.7,10.7,10c7.3,6.8,15.1,13.7,22.4,20.5c3,2.8,7.5,5.6,9.5,8.5
				v52c0,1.9,0.6,2.5,2.5,2.5h6.1c1.9,0,2.4-0.7,2.4-2.5v-52c7-6.8,15-13.6,22.2-20.4c3.5-3.3,7.2-6.6,10.7-9.8c0,0,0.1,0,0.2,0
				c3.6-3.3,7.2-6.7,10.8-10.1c3.4-3.2,6.9-6.3,10-9.8c6-6.7,10.8-14.5,14.1-22.9c3.4-8.7,5-17.9,4.9-27.2
				C1830.3,659.4,1828.2,649.6,1824.2,640.6z"/>
			<path fill="#FFFFFF" d="M1790.7,739.2C1790.6,739.2,1790.6,739.3,1790.7,739.2C1790.6,739.3,1790.7,739.2,1790.7,739.2z"/>
		</g>
		<path opacity="0.5" fill="#FFFFFF" d="M1753.4,540.2c-3,0-1.3,0-1.6,0.1c-2.3,0.4-3.8,2.2-5.1,4c-1.4,1.9-2.9,3.9-4.3,5.8
			c-5.4,7.6-10.9,15.2-16.3,22.8c-5.4,7.6-10.8,15.2-16.3,22.8c-5.4,7.5-10.8,15.1-16.2,22.6c-2.7,3.8-5.5,7.5-8.1,11.4
			c-2.6,4-4.9,8.3-6.7,12.7c-3.7,9.2-5.6,19-5.4,28.9c0.2,9.2,2.1,18.3,5.6,26.8c3.5,8.3,8.4,16,14.6,22.5c3.2,3.4,6.8,6.6,10.2,9.8
			c3.6,3.3,7.1,6.7,10.7,10c7.3,6.8,15.1,13.7,22.4,20.5c3,2.8,7.5,5.6,9.5,8.5v52c0,1.9,0.6,2.5,2.5,2.5h4.5V540.2z"/>
		<g>
			<g>
				<g>
					<path fill="#FFFFFF" d="M1862.9,748.7h9.3c3.6,0,6.5-0.8,8.7-2.3c2.2-1.5,3.3-4,3.3-7.5v-34.8c0-3.9,0.9-7.7,2.7-11.5
						c1.8-3.8,5.4-6.7,10.8-8.6c-5.4-1.9-9-4.8-10.8-8.6c-1.8-3.8-2.7-7.6-2.7-11.5v-34.8c0-3.5-1.1-5.9-3.3-7.5
						c-2.2-1.5-5.1-2.3-8.7-2.3h-9.3v-24.3h18.7c9,0,16.2,2.5,21.7,7.6c5.5,5,8.2,12.7,8.2,23.1v31.7c0,4.4,1.1,7.9,3.4,10.6
						c2.3,2.6,5.5,3.9,9.6,3.9h1.9v24h-1.9c-4.1,0-7.4,1.3-9.6,3.9c-2.3,2.6-3.4,6.1-3.4,10.6v31.7c0,10.4-2.7,18.1-8.2,23.1
						c-5.5,5-12.7,7.6-21.7,7.6h-18.7V748.7z"/>
				</g>
			</g>
			<g>
				<g>
					<path fill="#FFFFFF" d="M1596.7,710.6c0-4.4-1.1-7.9-3.2-10.6c-2.1-2.6-5.4-3.9-9.8-3.9h-1.9v-24h1.9c4.4,0,7.7-1.3,9.8-3.9
						c2.1-2.6,3.2-6.1,3.2-10.6v-31.7c0-10.4,2.8-18.1,8.3-23.1c5.5-5,12.7-7.6,21.6-7.6h18.7v24.3h-9.3c-3.6,0-6.5,0.8-8.7,2.3
						c-2.2,1.5-3.3,4-3.3,7.5V664c0,3.9-0.9,7.7-2.7,11.5c-1.8,3.8-5.3,6.7-10.4,8.6c5.1,1.9,8.6,4.8,10.4,8.6
						c1.8,3.8,2.7,7.6,2.7,11.5V739c0,3.5,1.1,5.9,3.3,7.5c2.2,1.5,5.1,2.3,8.7,2.3h9.3V773h-18.7c-8.8,0-16-2.5-21.6-7.6
						c-5.5-5-8.3-12.7-8.3-23.1V710.6z"/>
				</g>
			</g>
		</g>
	</g>
	<g>
		<g>
			<circle fill="#E24F4B" cx="451.9" cy="682" r="240.7"/>
			<path opacity="0.5" fill="#FFFFFF" d="M448.5,922.6c-132.7-1.9-239.1-111.4-237.2-244.1s111.4-239.1,244.1-237.2
				c132.7,1.9,239.1,111.4,237.2,244.1C690.7,818.1,581.2,924.5,448.5,922.6z M455.1,455.2c-125.1-1.8-228.2,98.5-230,223.6
				c-1.8,125.1,98.5,228.2,223.6,230c125.1,1.8,228.2-98.5,230-223.6C680.5,560.1,580.2,457,455.1,455.2z"/>
			<g>
				<g>
					<g opacity="0.5">
						<path fill="#FFFFFF" d="M402.7,655.5c-3.3-7.5-8.3-14-13-20.6c-4.6-6.5-9.3-13-13.9-19.5c-4.7-6.5-9.3-13.1-14-19.6
							c-4.7-6.6-9.3-13.1-14-19.7c-1.2-1.7-2.4-3.3-3.6-5c-1.1-1.5-2.7-2.5-4.6-2.2c-2,0.3-2.9,1.9-4.1,3.4c-1.2,1.6-2.4,3.3-3.5,5
							c-4.6,6.6-9.3,13.1-14,19.7c-4.7,6.5-9.3,13.1-14,19.6c-4.7,6.5-9.3,13-13.9,19.5c-2.3,3.3-4.8,6.5-7,9.9
							c-2.3,3.4-4.2,7.1-5.8,10.9c-3.2,7.9-4.8,16.4-4.7,24.9c0.1,7.9,1.8,15.8,4.8,23.1c3,7.2,7.3,13.8,12.6,19.4
							c2.8,3,5.8,5.7,8.8,8.4c3.1,2.9,6.2,5.8,9.2,8.7c6.3,5.9,12.9,11.8,19.2,17.7c2.6,2.4,6.1,4.9,8.1,7.3v44.8
							c0,1.6,0.7,1.5,2.3,1.5h5.3c1.6,0,2.4,0.1,2.4-1.5v-44.8c7-5.9,12.8-11.7,19-17.6c3-2.8,6.2-5.7,9.2-8.5c0,0,0.1,0,0.1,0
							c3.1-2.9,6.2-5.8,9.3-8.7c2.9-2.7,5.9-5.4,8.6-8.4c5.2-5.8,9.3-12.5,12.1-19.7c2.9-7.5,4.3-15.5,4.3-23.5
							C407.9,671.8,406.1,663.3,402.7,655.5z"/>
						<path fill="#FFFFFF" d="M373.8,740.6C373.8,740.6,373.8,740.6,373.8,740.6C373.8,740.6,373.9,740.5,373.8,740.6z"/>
					</g>
					<path fill="#FFFFFF" d="M339.4,568.9c0,0,0,0-0.2,0.1c-2,0.3-2.7,1.9-3.8,3.4c-1.2,1.6-2.2,3.3-3.4,5
						c-4.6,6.6-9.3,13.1-14,19.7c-4.7,6.5-9.3,13.1-13.9,19.6c-4.7,6.5-9.3,13-13.9,19.5c-2.3,3.3-4.8,6.5-7,9.9
						c-2.3,3.4-4.2,7.1-5.8,10.9c-3.2,7.9-4.8,16.4-4.7,24.9c0.1,7.9,1.8,15.8,4.8,23.1c3,7.2,7.3,13.8,12.6,19.4
						c2.8,3,5.8,5.7,8.8,8.4c3.1,2.9,6.2,5.8,9.2,8.7c6.3,5.9,12.9,11.8,19.2,17.7c2.6,2.4,6.1,4.9,8.1,7.3v44.8
						c0,1.6,0.7,1.5,2.3,1.5h1.7V568.9z"/>
				</g>
				<g>
					<g>
						<path fill="#EAC300" d="M625.9,655.5c-3.3-7.5-8.3-14-13-20.6c-4.6-6.5-9.3-13-13.9-19.5c-4.7-6.5-9.3-13.1-14-19.6
							c-4.7-6.6-9.3-13.1-14-19.7c-1.2-1.7-2.4-3.3-3.6-5c-1.1-1.5-2.7-2.5-4.6-2.2c-2,0.3-2.9,1.9-4.1,3.4c-1.2,1.6-2.4,3.3-3.5,5
							c-4.6,6.6-9.3,13.1-14,19.7c-4.7,6.5-9.3,13.1-14,19.6c-4.7,6.5-9.3,13-13.9,19.5c-2.3,3.3-4.8,6.5-7,9.9
							c-2.3,3.4-4.2,7.1-5.8,10.9c-3.2,7.9-4.8,16.4-4.7,24.9c0.1,7.9,1.8,15.8,4.8,23.1c3,7.2,7.3,13.8,12.6,19.4
							c2.8,3,5.8,5.7,8.8,8.4c3.1,2.9,6.2,5.8,9.2,8.7c6.3,5.9,13.3,11.8,19.6,17.7c2.6,2.4,6.5,4.9,8.5,7.3v44.8
							c0,1.6-0.1,1.5,1.5,1.5h5.3c1.6,0,5.2,0.1,5.2-1.5v-44.8c2-5.9,11.3-11.7,17.6-17.6c3-2.8,5.5-5.7,8.5-8.5c0,0-0.3,0-0.3,0
							c3.1-2.9,6-5.8,9.1-8.7c2.9-2.7,5.9-5.4,8.5-8.4c5.2-5.8,9.3-12.5,12.1-19.7c2.9-7.5,4.3-15.5,4.2-23.5
							C631.1,671.8,629.3,663.3,625.9,655.5z"/>
						<path fill="#FFFFFF" d="M596.9,740.6C596.9,740.6,596.9,740.6,596.9,740.6C596.9,740.6,597,740.5,596.9,740.6z"/>
					</g>
					<path opacity="0.5" fill="#FFFFFF" d="M566.4,568.9c-3,0-1.9,0-2.2,0.1c-2,0.3-3.7,1.9-4.8,3.4c-1.2,1.6-2.7,3.3-3.9,5
						c-4.6,6.6-9.5,13.1-14.2,19.7c-4.7,6.5-9.4,13.1-14.1,19.6c-4.7,6.5-9.3,13-14,19.5c-2.3,3.3-4.8,6.5-7,9.9
						c-2.3,3.4-4.2,7.1-5.8,10.9c-3.2,7.9-4.8,16.4-4.7,24.9c0.1,7.9,1.8,15.8,4.8,23.1c3,7.2,7.3,13.8,12.6,19.4
						c2.8,3,5.8,5.7,8.8,8.4c3.1,2.9,6.2,5.8,9.2,8.7c6.3,5.9,13.3,11.8,19.6,17.7c2.6,2.4,6.5,4.9,8.5,7.3v44.8
						c0,1.6-0.1,1.5,1.5,1.5h5.5V568.9z"/>
				</g>
			</g>
			<path fill="#FFFFFF" d="M456.4,772.5h-8.9c-1.9,0-3.4-1.5-3.4-3.4V613.4c0-1.9,1.5-3.4,3.4-3.4h8.9c1.9,0,3.4,1.5,3.4,3.4v155.7
				C459.8,770.9,458.3,772.5,456.4,772.5z"/>
		</g>
	</g>
	<g>
		<circle fill="#1EACF4" cx="1102.5" cy="682" r="240.7"/>
		<path opacity="0.5" fill="#FFFFFF" d="M1099.1,922.6c-132.7-1.9-239.1-111.4-237.2-244.1s111.4-239.1,244.1-237.2
			c132.7,1.9,239.1,111.4,237.2,244.1S1231.8,924.5,1099.1,922.6z M1105.7,455.2c-125.1-1.8-228.2,98.5-230,223.6
			s98.5,228.2,223.6,230c125.1,1.8,228.2-98.5,230-223.6C1331,560.1,1230.7,457,1105.7,455.2z"/>
		<g>
			<g>
				<path fill="#EAC300" d="M1177.4,710.5c3.5-8.9,4.7-18.3,6.2-27.7c1.5-9.2,3.1-18.4,4.6-27.6c1.6-9.2,3.1-18.5,4.7-27.7
					c1.6-9.3,3.1-18.5,4.7-27.8c0.4-2.3,0.8-4.7,1.2-7c0.4-2.2-0.2-4.3-2-5.6c-1.9-1.4-4-0.8-6.2-0.5c-2.4,0.4-4.7,0.8-7,1.2
					c-9.2,1.6-18.5,3.1-27.8,4.7c-9.2,1.5-18.5,3.1-27.7,4.7c-9.2,1.5-18.4,3.1-27.6,4.6c-4.6,0.8-9.3,1.4-13.9,2.4
					c-4.7,1-9.3,2.4-13.8,4.3c-9.2,3.8-17.5,9.6-24.4,16.7c-6.4,6.7-11.6,14.5-15.1,23.1c-3.5,8.4-5.3,17.4-5.6,26.4
					c-0.2,4.7,0.1,9.5,0.3,14.2c0.2,4.9,0.3,9.8,0.5,14.8c0.3,10.1,0.9,20.4,1.2,30.5c0.1,4.1,0.8,8.8,0.7,12.7l-37,37
					c-1.3,1.3-1.2,2.2,0.2,3.5l4.3,4.3c1.3,1.3,3.6,3,5,1.6l37-37c6.8-3,19.5,0.2,29.5,0.5c4.8,0.2,9.4,0.1,14.2,0.2
					c0,0-0.1-0.1-0.1-0.1c4.9,0.2,9.8,0.3,14.8,0.4c4.7,0.1,9.3,0.4,14,0.1c9-0.5,18-2.6,26.3-6.3c8.5-3.8,16.3-9.2,22.8-15.9
					C1168.4,728.2,1173.8,719.7,1177.4,710.5z"/>
			</g>
			<path opacity="0.5" fill="#FFFFFF" d="M1199.1,589.3c-1.9-1.9-1.3-1.2-1.5-1.4c-1.9-1.4-4.4-1.3-6.6-0.9c-2.4,0.4-4.9,0.6-7.3,1
				c-9.2,1.6-18.6,3-27.9,4.5c-9.2,1.5-18.5,3.1-27.8,4.6c-9.2,1.5-18.4,3.1-27.6,4.6c-4.6,0.8-9.3,1.4-13.9,2.4
				c-4.7,1-9.3,2.4-13.8,4.3c-9.2,3.8-17.5,9.6-24.4,16.7c-6.4,6.7-11.6,14.5-15.1,23.1c-3.5,8.4-5.3,17.4-5.6,26.4
				c-0.2,4.7,0.1,9.5,0.3,14.2c0.2,4.9,0.3,9.8,0.5,14.8c0.3,10.1,0.9,20.4,1.2,30.5c0.1,4.1,0.8,8.8,0.7,12.7l-37,37
				c-1.3,1.3-1.2,2.2,0.2,3.5l3.8,3.8L1199.1,589.3z"/>
		</g>
		<g>
			<path fill="#FFFFFF" d="M1106.9,519.6h-8.9c-1.9,0-3.4-1.5-3.4-3.4v-48.7c0-1.9,1.5-3.4,3.4-3.4h8.9c1.9,0,3.4,1.5,3.4,3.4v48.7
				C1110.3,518.1,1108.8,519.6,1106.9,519.6z"/>
			<path fill="#FFFFFF" d="M1106.9,899.9h-8.9c-1.9,0-3.4-1.5-3.4-3.4v-48.7c0-1.9,1.5-3.4,3.4-3.4h8.9c1.9,0,3.4,1.5,3.4,3.4v48.7
				C1110.3,898.4,1108.8,899.9,1106.9,899.9z"/>
		</g>
		<g>
			<path fill="#FFFFFF" d="M961.5,816.6l6.3,6.3c1.3,1.3,1.3,3.5,0,4.8l-11.5,11.5c-1.3,1.3-3.5,1.3-4.8,0l-6.3-6.3
				c-1.3-1.3-1.3-3.5,0-4.8l11.5-11.5C958,815.3,960.2,815.3,961.5,816.6z"/>
			<path fill="#FFFFFF" d="M1253.4,524.7l6.3,6.3c1.3,1.3,1.3,3.5,0,4.8l-11.5,11.5c-1.3,1.3-3.5,1.3-4.8,0l-6.3-6.3
				c-1.3-1.3-1.3-3.5,0-4.8l11.5-11.5C1249.9,523.4,1252.1,523.4,1253.4,524.7z"/>
		</g>
		<g>
			<path fill="#FFFFFF" d="M940.1,677.5v8.9c0,1.9-1.5,3.4-3.4,3.4h-48.7c-1.9,0-3.4-1.5-3.4-3.4v-8.9c0-1.9,1.5-3.4,3.4-3.4h48.7
				C938.5,674.1,940.1,675.7,940.1,677.5z"/>
			<path fill="#FFFFFF" d="M1320.4,677.5v8.9c0,1.9-1.5,3.4-3.4,3.4h-48.7c-1.9,0-3.4-1.5-3.4-3.4v-8.9c0-1.9,1.5-3.4,3.4-3.4h48.7
				C1318.9,674.1,1320.4,675.7,1320.4,677.5z"/>
		</g>
		<g>
			<path fill="#FFFFFF" d="M1237.1,822.9l6.3-6.3c1.3-1.3,3.5-1.3,4.8,0l11.5,11.5c1.3,1.3,1.3,3.5,0,4.8l-6.3,6.3
				c-1.3,1.3-3.5,1.3-4.8,0l-11.5-11.5C1235.8,826.4,1235.8,824.3,1237.1,822.9z"/>
			<path fill="#FFFFFF" d="M945.2,531l6.3-6.3c1.3-1.3,3.5-1.3,4.8,0l11.5,11.5c1.3,1.3,1.3,3.5,0,4.8l-6.3,6.3
				c-1.3,1.3-3.5,1.3-4.8,0l-11.5-11.5C943.9,534.5,943.9,532.4,945.2,531z"/>
		</g>
	</g>
</g>
</svg>
