<?xml version="1.0" encoding="UTF-8"?>
<svg width="1170px" height="659px" viewBox="0 0 1170 659" version="1.1" xmlns="http://www.w3.org/2000/svg" xmlns:xlink="http://www.w3.org/1999/xlink">
    <!-- Generator: Sketch 44.1 (41455) - http://www.bohemiancoding.com/sketch -->
    <title>3T Graphic</title>
    <desc>Created with Sketch.</desc>
    <defs></defs>
    <g id="Mockups" stroke="none" stroke-width="1" fill="none" fill-rule="evenodd">
        <g id="3T-Graphic">
            <rect id="Rectangle-5" fill="#F2D95F" x="0" y="0" width="1170" height="658"></rect>
            <g id="3t-overview" transform="translate(161.000000, 215.000000)" fill-rule="nonzero">
                <g id="Group" transform="translate(0.474926, 0.814159)">
                    <g transform="translate(617.879056, 0.000000)">
                        <circle id="Oval" fill="#2EBD59" cx="114.457227" cy="114.457227" r="114.314749"></circle>
                        <path d="M114.457227,228.771976 C51.4345133,228.771976 0.142477876,177.479941 0.142477876,114.457227 C0.142477876,51.4345133 51.4345133,0.142477876 114.457227,0.142477876 C177.479941,0.142477876 228.771976,51.4345133 228.771976,114.457227 C228.771976,177.479941 177.479941,228.771976 114.457227,228.771976 Z M114.457227,6.7439528 C55.0439528,6.7439528 6.7439528,55.0914454 6.7439528,114.457227 C6.7439528,173.823009 55.0914454,222.170501 114.457227,222.170501 C173.823009,222.170501 222.170501,173.823009 222.170501,114.457227 C222.170501,55.0914454 173.870501,6.7439528 114.457227,6.7439528 Z" id="Shape" fill="#FFFFFF" opacity="0.5"></path>
                        <g transform="translate(76.463127, 47.017699)" id="Shape" fill="#EAC300">
                            <path d="M71.8088496,47.7775811 C70.0041298,43.6457227 67.2495575,40.0837758 64.6374631,36.4268437 C62.0728614,32.8648968 59.5082596,29.2554572 56.9911504,25.6935103 C54.4265487,22.0840708 51.8619469,18.4746313 49.2973451,14.8651917 C46.7327434,11.2557522 44.1681416,7.64631268 41.6035398,4.03687316 C40.9386431,3.13451327 40.3212389,2.18466077 39.6563422,1.28230088 C39.0389381,0.427433628 38.1840708,-0.0949852507 37.139233,0.0949852507 C36.0469027,0.284955752 35.5244838,1.13982301 34.9070796,1.99469027 C34.2421829,2.89705015 33.6247788,3.84690265 32.959882,4.74926254 C30.3952802,8.35870206 27.8306785,11.9681416 25.2185841,15.5775811 C22.6539823,19.1870206 20.0893805,22.7964602 17.5247788,26.4058997 C14.960177,29.9678466 12.3955752,33.5772861 9.87846608,37.139233 C8.59616519,38.9439528 7.26637168,40.7011799 6.03156342,42.5533923 C4.79675516,44.4530973 3.70442478,46.4952802 2.84955752,48.5849558 C1.09233038,52.9542773 0.189970501,57.6085546 0.284955752,62.3103245 C0.379941003,66.679646 1.28230088,71.0014749 2.94454277,75.0383481 C4.60678466,78.980236 6.9339233,82.6371681 9.87846608,85.7241888 C11.3982301,87.3389381 13.1079646,88.8587021 14.7227139,90.3784661 C16.4324484,91.9457227 18.0946903,93.560472 19.8044248,95.1277286 C23.2713864,98.3572271 26.9758112,101.634218 30.4427729,104.863717 C31.8675516,106.19351 34.0047198,107.523304 34.9545723,108.90059 L34.9545723,133.596755 C34.9545723,134.499115 35.239528,134.784071 36.1418879,134.784071 L39.0389381,134.784071 C39.9412979,134.784071 40.1787611,134.451622 40.1787611,133.596755 L40.1787611,108.90059 C43.5032448,105.671091 47.3026549,102.441593 50.7221239,99.2120944 C52.3843658,97.6448378 54.1415929,96.0775811 55.8038348,94.5578171 C55.8038348,94.5578171 55.8513274,94.5578171 55.8988201,94.5578171 C57.6085546,92.9905605 59.3182891,91.3758112 61.0280236,89.7610619 C62.6427729,88.2412979 64.3050147,86.7690265 65.7772861,85.1067847 C68.6268437,81.9247788 70.9064897,78.220354 72.4737463,74.2309735 C74.0884956,70.099115 74.8483776,65.7297935 74.800885,61.3129794 C74.7058997,56.7061947 73.7085546,52.0519174 71.8088496,47.7775811 Z"></path>
                        </g>
                        <path d="M114.647198,47.1126844 C113.222419,47.1126844 114.029794,47.1126844 113.887316,47.160177 C112.794985,47.3501475 112.082596,48.2050147 111.465192,49.059882 C110.800295,49.9622419 110.087906,50.9120944 109.423009,51.8144543 C106.858407,55.4238938 104.246313,59.0333333 101.681711,62.6427729 C99.1171091,66.2522124 96.5525074,69.8616519 93.940413,73.4710914 C91.3758112,77.0330383 88.8112094,80.6424779 86.2466077,84.2044248 C84.9643068,86.0091445 83.6345133,87.7663717 82.399705,89.6185841 C81.1648968,91.5182891 80.0725664,93.560472 79.2176991,95.6501475 C77.460472,100.019469 76.5581121,104.673746 76.6530973,109.375516 C76.7480826,113.744838 77.6504425,118.066667 79.3126844,122.10354 C80.9749263,126.045428 83.3020649,129.70236 86.2466077,132.789381 C87.7663717,134.40413 89.4761062,135.923894 91.0908555,137.443658 C92.80059,139.010914 94.4628319,140.625664 96.1725664,142.19292 C99.639528,145.422419 103.343953,148.69941 106.810914,151.928909 C108.235693,153.258702 110.372861,154.588496 111.322714,155.965782 L111.322714,180.661947 C111.322714,181.564307 111.60767,181.849263 112.510029,181.849263 L114.647198,181.849263 L114.647198,47.1126844 L114.647198,47.1126844 Z" id="Shape" fill="#FFFFFF" opacity="0.5"></path>
                        <g transform="translate(32.769912, 73.138643)" id="Shape" fill="#FFFFFF">
                            <path d="M133.881711,72.9961652 L138.298525,72.9961652 C140.00826,72.9961652 141.385546,72.6162242 142.430383,71.9038348 C143.475221,71.1914454 143.99764,70.0041298 143.99764,68.3418879 L143.99764,51.8144543 C143.99764,49.9622419 144.425074,48.1575221 145.279941,46.3528024 C146.134808,44.5480826 147.844543,43.1707965 150.409145,42.2684366 C147.844543,41.3660767 146.134808,39.9887906 145.279941,38.1840708 C144.425074,36.379351 143.99764,34.5746313 143.99764,32.7224189 L143.99764,16.1949853 C143.99764,14.5327434 143.475221,13.3929204 142.430383,12.6330383 C141.385546,11.920649 140.00826,11.540708 138.298525,11.540708 L133.881711,11.540708 L133.881711,2.27373675e-13 L142.762832,2.27373675e-13 C147.037168,2.27373675e-13 150.456637,1.18731563 153.068732,3.60943953 C155.680826,5.9840708 156.963127,9.64100295 156.963127,14.580236 L156.963127,29.6353982 C156.963127,31.7250737 157.485546,33.3873156 158.577876,34.6696165 C159.670206,35.9044248 161.189971,36.5218289 163.137168,36.5218289 L164.039528,36.5218289 L164.039528,47.920059 L163.137168,47.920059 C161.189971,47.920059 159.622714,48.5374631 158.577876,49.7722714 C157.485546,51.0070796 156.963127,52.6693215 156.963127,54.8064897 L156.963127,69.8616519 C156.963127,74.800885 155.680826,78.4578171 153.068732,80.8324484 C150.456637,83.2070796 147.037168,84.4418879 142.762832,84.4418879 L133.881711,84.4418879 L133.881711,72.9961652 Z"></path>
                            <path d="M7.45634218,54.9014749 C7.45634218,52.8117994 6.9339233,51.1495575 5.93657817,49.8672566 C4.93923304,48.6324484 3.3719764,48.0150442 1.28230088,48.0150442 L0.379941003,48.0150442 L0.379941003,36.6168142 L1.28230088,36.6168142 C3.3719764,36.6168142 4.93923304,35.99941 5.93657817,34.7646018 C6.9339233,33.5297935 7.45634218,31.8675516 7.45634218,29.7303835 L7.45634218,14.6752212 C7.45634218,9.7359882 8.78613569,6.07905605 11.3982301,3.70442478 C14.0103245,1.32979351 17.4297935,0.0949852507 21.6566372,0.0949852507 L30.5377581,0.0949852507 L30.5377581,11.6356932 L26.120944,11.6356932 C24.4112094,11.6356932 23.0339233,12.0156342 21.9890855,12.7280236 C20.9442478,13.440413 20.4218289,14.6277286 20.4218289,16.2899705 L20.4218289,32.7699115 C20.4218289,34.6221239 19.9943953,36.4268437 19.139528,38.2315634 C18.2846608,40.0362832 16.6224189,41.4135693 14.200295,42.3159292 C16.6224189,43.2182891 18.2846608,44.5955752 19.139528,46.400295 C19.9943953,48.2050147 20.4218289,50.0097345 20.4218289,51.8619469 L20.4218289,68.3893805 C20.4218289,70.0516224 20.9442478,71.1914454 21.9890855,71.9513274 C23.0339233,72.6637168 24.4112094,73.0436578 26.120944,73.0436578 L30.5377581,73.0436578 L30.5377581,84.5368732 L21.6566372,84.5368732 C17.4772861,84.5368732 14.0578171,83.3495575 11.3982301,80.9274336 C8.78613569,78.5528024 7.45634218,74.8958702 7.45634218,69.9566372 L7.45634218,54.9014749 Z"></path>
                        </g>
                    </g>
                    <g>
                        <circle id="Oval" fill="#E24F4B" cx="114.409735" cy="114.457227" r="114.314749"></circle>
                        <path d="M112.794985,228.724484 C49.7722714,227.822124 -0.759882006,175.817699 0.142477876,112.794985 C1.04483776,49.7722714 53.0492625,-0.759882006 116.071976,0.142477876 C179.09469,1.04483776 229.626844,53.0492625 228.724484,116.071976 C227.822124,179.09469 175.817699,229.626844 112.794985,228.724484 Z M115.929499,6.7439528 C56.5162242,5.88908555 7.55132743,53.5241888 6.69646018,112.937463 C5.84159292,172.350737 53.4766962,221.315634 112.889971,222.170501 C172.303245,223.025369 221.268142,175.390265 222.123009,115.976991 C222.977876,56.5637168 175.342773,7.59882006 115.929499,6.7439528 Z" id="Shape" fill="#FFFFFF" opacity="0.5"></path>
                        <g transform="translate(28.970501, 60.315634)" id="Shape">
                            <g fill="#FFFFFF">
                                <g opacity="0.5">
                                    <path d="M62.0728614,41.5560472 C60.5056047,37.9941003 58.1309735,34.9070796 55.8988201,31.7725664 C53.7141593,28.6855457 51.4820059,25.5985251 49.2973451,22.5115044 C47.0651917,19.4244838 44.880531,16.2899705 42.6483776,13.2029499 C40.4162242,10.0684366 38.2315634,6.98141593 35.99941,3.84690265 C35.4294985,3.03952802 34.859587,2.27964602 34.2896755,1.47227139 C33.7672566,0.759882006 33.0073746,0.284955752 32.1050147,0.427433628 C31.1551622,0.569911504 30.7277286,1.32979351 30.1578171,2.04218289 C29.5879056,2.8020649 29.0179941,3.60943953 28.4955752,4.41681416 C26.3109145,7.55132743 24.0787611,10.6383481 21.8466077,13.7728614 C19.6144543,16.859882 17.4297935,19.9943953 15.1976401,23.0814159 C12.9654867,26.1684366 10.780826,29.2554572 8.59616519,32.3424779 C7.50383481,33.9097345 6.31651917,35.4294985 5.27168142,37.0442478 C4.17935103,38.6589971 3.27699115,40.4162242 2.51710914,42.220944 C0.997345133,45.9728614 0.237463127,50.0097345 0.284955752,54.0466077 C0.332448378,57.7985251 1.13982301,61.5504425 2.56460177,65.0174041 C3.98938053,68.4368732 6.03156342,71.5713864 8.54867257,74.2309735 C9.87846608,75.6557522 11.3032448,76.9380531 12.7280236,78.220354 C14.200295,79.5976401 15.6725664,80.9749263 17.0973451,82.3522124 C20.0893805,85.1542773 23.2238938,87.9563422 26.2159292,90.7584071 C27.4507375,91.8982301 29.1129794,93.0855457 30.0628319,94.2253687 L30.0628319,115.502065 C30.0628319,116.261947 30.3952802,116.214454 31.1551622,116.214454 L33.6722714,116.214454 C34.4321534,116.214454 34.8120944,116.261947 34.8120944,115.502065 L34.8120944,94.2253687 C38.1365782,91.4233038 40.8911504,88.6687316 43.8356932,85.8666667 C45.260472,84.5368732 46.780236,83.159587 48.2050147,81.8297935 C48.2050147,81.8297935 48.2525074,81.8297935 48.2525074,81.8297935 C49.7247788,80.4525074 51.1970501,79.0752212 52.6693215,77.6979351 C54.0466077,76.4156342 55.4713864,75.1333333 56.7536873,73.7085546 C59.2233038,70.9539823 61.1705015,67.7719764 62.500295,64.3525074 C63.8775811,60.7905605 64.5424779,56.9911504 64.5424779,53.1917404 C64.5424779,49.2973451 63.6876106,45.260472 62.0728614,41.5560472 Z"></path>
                                </g>
                                <path d="M32.0100295,0.427433628 C32.0100295,0.427433628 32.0100295,0.427433628 31.9150442,0.474926254 C30.9651917,0.61740413 30.6327434,1.37728614 30.1103245,2.08967552 C29.540413,2.84955752 29.0654867,3.65693215 28.4955752,4.46430678 C26.3109145,7.59882006 24.0787611,10.6858407 21.8466077,13.820354 C19.6144543,16.9073746 17.4297935,20.0418879 15.2451327,23.1289086 C13.0129794,26.2159292 10.8283186,29.3029499 8.64365782,32.3899705 C7.55132743,33.9572271 6.3640118,35.4769912 5.31917404,37.0917404 C4.22684366,38.7064897 3.32448378,40.4637168 2.56460177,42.2684366 C1.04483776,46.020354 0.284955752,50.0572271 0.332448378,54.0941003 C0.379941003,57.8460177 1.18731563,61.5979351 2.6120944,65.0648968 C4.03687316,68.4843658 6.07905605,71.6188791 8.59616519,74.2784661 C9.9259587,75.7032448 11.3507375,76.9855457 12.7755162,78.2678466 C14.2477876,79.6451327 15.720059,81.0224189 17.1448378,82.399705 C20.1368732,85.2017699 23.2713864,88.0038348 26.2634218,90.8058997 C27.4982301,91.9457227 29.160472,93.1330383 30.1103245,94.2728614 L30.1103245,115.549558 C30.1103245,116.30944 30.4427729,116.261947 31.2026549,116.261947 L32.0100295,116.261947 L32.0100295,0.427433628 L32.0100295,0.427433628 Z"></path>
                            </g>
                            <g transform="translate(105.908555, 0.000000)">
                                <g fill="#EAC300">
                                    <path d="M62.1678466,41.5560472 C60.60059,37.9941003 58.2259587,34.9070796 55.9938053,31.7725664 C53.8091445,28.6855457 51.5769912,25.5985251 49.3923304,22.5115044 C47.160177,19.4244838 44.9755162,16.2899705 42.7433628,13.2029499 C40.5112094,10.0684366 38.3265487,6.98141593 36.0943953,3.84690265 C35.5244838,3.03952802 34.9545723,2.27964602 34.3846608,1.47227139 C33.8622419,0.759882006 33.1023599,0.284955752 32.2,0.427433628 C31.2501475,0.569911504 30.8227139,1.32979351 30.2528024,2.04218289 C29.6828909,2.8020649 29.1129794,3.60943953 28.5905605,4.41681416 C26.4058997,7.55132743 24.1737463,10.6383481 21.9415929,13.7728614 C19.7094395,16.859882 17.5247788,19.9943953 15.2926254,23.0814159 C13.060472,26.1684366 10.8758112,29.2554572 8.69115044,32.3424779 C7.59882006,33.9097345 6.41150442,35.4294985 5.36666667,37.0442478 C4.27433628,38.6589971 3.3719764,40.4162242 2.6120944,42.220944 C1.09233038,45.9728614 0.332448378,50.0097345 0.379941003,54.0466077 C0.427433628,57.7985251 1.23480826,61.5504425 2.65958702,65.0174041 C4.08436578,68.4368732 6.12654867,71.5713864 8.64365782,74.2309735 C9.97345133,75.6557522 11.3982301,76.9380531 12.8230088,78.220354 C14.2952802,79.5976401 15.7675516,80.9749263 17.1923304,82.3522124 C20.1843658,85.1542773 23.5088496,87.9563422 26.500885,90.7584071 C27.7356932,91.8982301 29.5879056,93.0855457 30.5377581,94.2253687 L30.5377581,115.502065 C30.5377581,116.261947 30.4902655,116.214454 31.2501475,116.214454 L33.7672566,116.214454 C34.5271386,116.214454 36.2368732,116.261947 36.2368732,115.502065 L36.2368732,94.2253687 C37.1867257,91.4233038 41.6035398,88.6687316 44.5955752,85.8666667 C46.020354,84.5368732 47.2076696,83.159587 48.6324484,81.8297935 C48.6324484,81.8297935 48.4899705,81.8297935 48.4899705,81.8297935 C49.9622419,80.4525074 51.339528,79.0752212 52.8117994,77.6979351 C54.1890855,76.4156342 55.6138643,75.1333333 56.8486726,73.7085546 C59.3182891,70.9539823 61.2654867,67.7719764 62.5952802,64.3525074 C63.9725664,60.7905605 64.6374631,56.9911504 64.5899705,53.1917404 C64.6374631,49.2973451 63.7825959,45.260472 62.1678466,41.5560472 Z"></path>
                                </g>
                                <path d="M33.9097345,0.427433628 C32.4849558,0.427433628 33.0073746,0.427433628 32.8648968,0.474926254 C31.9150442,0.61740413 31.1076696,1.37728614 30.5852507,2.08967552 C30.0153392,2.84955752 29.3029499,3.65693215 28.7330383,4.46430678 C26.5483776,7.59882006 24.2212389,10.6858407 21.9890855,13.820354 C19.7569322,16.9073746 17.5247788,20.0418879 15.2926254,23.1289086 C13.060472,26.2159292 10.8758112,29.3029499 8.64365782,32.3899705 C7.55132743,33.9572271 6.3640118,35.4769912 5.31917404,37.0917404 C4.22684366,38.7064897 3.32448378,40.4637168 2.56460177,42.2684366 C1.04483776,46.020354 0.284955752,50.0572271 0.332448378,54.0941003 C0.379941003,57.8460177 1.18731563,61.5979351 2.6120944,65.0648968 C4.03687316,68.4843658 6.07905605,71.6188791 8.59616519,74.2784661 C9.9259587,75.7032448 11.3507375,76.9855457 12.7755162,78.2678466 C14.2477876,79.6451327 15.720059,81.0224189 17.1448378,82.399705 C20.1368732,85.2017699 23.4613569,88.0038348 26.4533923,90.8058997 C27.6882006,91.9457227 29.540413,93.1330383 30.4902655,94.2728614 L30.4902655,115.549558 C30.4902655,116.30944 30.4427729,116.261947 31.2026549,116.261947 L33.8147493,116.261947 L33.8147493,0.427433628 L33.9097345,0.427433628 Z" fill="#FFFFFF" opacity="0.5"></path>
                            </g>
                        </g>
                        <path d="M116.546903,157.438053 L112.320059,157.438053 C111.417699,157.438053 110.70531,156.725664 110.70531,155.823304 L110.70531,81.8772861 C110.70531,80.9749263 111.417699,80.2625369 112.320059,80.2625369 L116.546903,80.2625369 C117.449263,80.2625369 118.161652,80.9749263 118.161652,81.8772861 L118.161652,155.823304 C118.161652,156.678171 117.449263,157.438053 116.546903,157.438053 Z" id="Shape" fill="#FFFFFF"></path>
                    </g>
                    <g transform="translate(308.702065, 0.000000)">
                        <circle id="Oval" fill="#1EACF4" cx="114.69469" cy="114.457227" r="114.314749"></circle>
                        <path d="M113.079941,228.724484 C50.0572271,227.822124 -0.474926254,175.817699 0.427433628,112.794985 C1.32979351,49.7722714 53.3342183,-0.759882006 116.356932,0.142477876 C179.379646,1.04483776 229.911799,53.0492625 229.00944,116.071976 C228.10708,179.09469 176.102655,229.626844 113.079941,228.724484 Z M116.214454,6.7439528 C56.8011799,5.88908555 7.83628319,53.5241888 6.98141593,112.937463 C6.12654867,172.350737 53.7616519,221.315634 113.174926,222.170501 C172.588201,223.025369 221.553097,175.390265 222.407965,115.976991 C223.215339,56.5637168 175.580236,7.59882006 116.214454,6.7439528 Z" id="Shape" fill="#FFFFFF" opacity="0.5"></path>
                        <g transform="translate(62.215339, 68.864307)" id="Shape">
                            <path d="M88.0513274,59.1283186 C89.7135693,54.9014749 90.2834808,50.4371681 90.9958702,45.9728614 C91.7082596,41.6035398 92.4681416,37.2342183 93.180531,32.8648968 C93.940413,28.4955752 94.6528024,24.0787611 95.4126844,19.7094395 C96.1725664,15.2926254 96.8849558,10.9233038 97.6448378,6.50648968 C97.8348083,5.41415929 98.0247788,4.27433628 98.2147493,3.1820059 C98.4047198,2.13716814 98.119764,1.13982301 97.2648968,0.522418879 C96.3625369,-0.142477876 95.3651917,0.142477876 94.320354,0.284955752 C93.180531,0.474926254 92.0882006,0.664896755 90.9958702,0.854867257 C86.6265487,1.61474926 82.2097345,2.32713864 77.7929204,3.08702065 C73.4235988,3.79941003 69.0067847,4.55929204 64.6374631,5.31917404 C60.2681416,6.03156342 55.8988201,6.79144543 51.5294985,7.50383481 C49.3448378,7.88377581 47.1126844,8.16873156 44.9280236,8.64365782 C42.6958702,9.11858407 40.5112094,9.78348083 38.3740413,10.6858407 C34.0047198,12.4905605 30.0628319,15.2451327 26.7858407,18.6171091 C23.7463127,21.799115 21.2766962,25.5035398 19.6144543,29.5879056 C17.9522124,33.5772861 17.0973451,37.8516224 16.9548673,42.1259587 C16.859882,44.3581121 17.0023599,46.6377581 17.0973451,48.8699115 C17.1923304,51.1970501 17.239823,53.5241888 17.3348083,55.8988201 C17.4772861,60.6955752 17.7622419,65.5873156 17.9047198,70.3840708 C17.9522124,72.3312684 18.2846608,74.5634218 18.2371681,76.4156342 L0.664896755,93.9879056 C0.0474926254,94.6053097 0.0949852507,95.0327434 0.759882006,95.6501475 L2.8020649,97.6923304 C3.41946903,98.3097345 4.51179941,99.1171091 5.17669617,98.4522124 L22.7489676,80.879941 C25.9784661,79.4551622 32.0100295,80.9749263 36.759292,81.1174041 C39.0389381,81.2123894 41.2235988,81.1648968 43.5032448,81.2123894 C43.5032448,81.2123894 43.4557522,81.1648968 43.4557522,81.1648968 C45.7828909,81.259882 48.1100295,81.3073746 50.4846608,81.3548673 C52.7168142,81.4023599 54.9014749,81.5448378 57.1336283,81.4023599 C61.4079646,81.1648968 65.6823009,80.1675516 69.6241888,78.4103245 C73.6610619,76.6056047 77.3654867,74.0410029 80.4525074,70.8589971 C83.7769912,67.5345133 86.3415929,63.4976401 88.0513274,59.1283186 Z" fill="#EAC300"></path>
                            <path d="M98.3572271,1.56725664 C97.4548673,0.664896755 97.739823,0.997345133 97.6448378,0.902359882 C96.7424779,0.237463127 95.5551622,0.284955752 94.5103245,0.474926254 C93.3705015,0.664896755 92.1831858,0.759882006 91.0433628,0.949852507 C86.6740413,1.70973451 82.2097345,2.37463127 77.7929204,3.08702065 C73.4235988,3.79941003 69.0067847,4.55929204 64.5899705,5.27168142 C60.220649,5.9840708 55.8513274,6.7439528 51.4820059,7.45634218 C49.2973451,7.83628319 47.0651917,8.12123894 44.880531,8.59616519 C42.6483776,9.07109145 40.4637168,9.7359882 38.3265487,10.6383481 C33.9572271,12.4430678 30.0153392,15.1976401 26.7383481,18.5696165 C23.6988201,21.7516224 21.2292035,25.4560472 19.5669617,29.540413 C17.9047198,33.5297935 17.0498525,37.8041298 16.9073746,42.0784661 C16.8123894,44.3106195 16.9548673,46.5902655 17.0498525,48.8224189 C17.1448378,51.1495575 17.1923304,53.4766962 17.2873156,55.8513274 C17.4297935,60.6480826 17.7147493,65.539823 17.8572271,70.3365782 C17.9047198,72.2837758 18.2371681,74.5159292 18.1896755,76.3681416 L0.61740413,93.940413 C1.31256117e-13,94.5578171 0.0474926254,94.9852507 0.712389381,95.6026549 L2.51710914,97.4073746 L98.3572271,1.56725664 Z" fill="#FFFFFF" opacity="0.5"></path>
                        </g>
                        <g transform="translate(110.657817, 10.923304)" id="Shape" fill="#FFFFFF">
                            <path d="M6.12654867,26.4058997 L1.89970501,26.4058997 C0.997345133,26.4058997 0.284955752,25.6935103 0.284955752,24.7911504 L0.284955752,1.66224189 C0.284955752,0.759882006 0.997345133,0.0474926254 1.89970501,0.0474926254 L6.12654867,0.0474926254 C7.02890855,0.0474926254 7.74129794,0.759882006 7.74129794,1.66224189 L7.74129794,24.7911504 C7.74129794,25.6935103 7.02890855,26.4058997 6.12654867,26.4058997 Z"></path>
                            <path d="M6.12654867,207.020354 L1.89970501,207.020354 C0.997345133,207.020354 0.284955752,206.307965 0.284955752,205.405605 L0.284955752,182.276696 C0.284955752,181.374336 0.997345133,180.661947 1.89970501,180.661947 L6.12654867,180.661947 C7.02890855,180.661947 7.74129794,181.374336 7.74129794,182.276696 L7.74129794,205.405605 C7.74129794,206.307965 7.02890855,207.020354 6.12654867,207.020354 Z"></path>
                        </g>
                        <g transform="translate(39.418879, 38.943953)" id="Shape" fill="#FFFFFF">
                            <path d="M8.31120944,139.438348 L11.3032448,142.430383 C11.920649,143.047788 11.920649,144.092625 11.3032448,144.710029 L5.84159292,150.171681 C5.22418879,150.789086 4.17935103,150.789086 3.5619469,150.171681 L0.569911504,147.179646 C-0.0474926254,146.562242 -0.0474926254,145.517404 0.569911504,144.9 L6.03156342,139.438348 C6.64896755,138.820944 7.69380531,138.820944 8.31120944,139.438348 Z"></path>
                            <path d="M146.942183,0.807374631 L149.934218,3.79941003 C150.551622,4.41681416 150.551622,5.46165192 149.934218,6.07905605 L144.472566,11.540708 C143.855162,12.1581121 142.810324,12.1581121 142.19292,11.540708 L139.200885,8.54867257 C138.583481,7.93126844 138.583481,6.88643068 139.200885,6.26902655 L144.662537,0.807374631 C145.279941,0.189970501 146.324779,0.189970501 146.942183,0.807374631 Z"></path>
                        </g>
                        <g transform="translate(10.923304, 110.657817)" id="Shape" fill="#FFFFFF">
                            <path d="M26.6433628,1.66224189 L26.6433628,5.88908555 C26.6433628,6.79144543 25.9309735,7.50383481 25.0286136,7.50383481 L1.89970501,7.50383481 C0.997345133,7.50383481 0.284955752,6.79144543 0.284955752,5.88908555 L0.284955752,1.66224189 C0.284955752,0.759882006 0.997345133,0.0474926254 1.89970501,0.0474926254 L25.0286136,0.0474926254 C25.8834808,0.0474926254 26.6433628,0.807374631 26.6433628,1.66224189 Z"></path>
                            <path d="M207.257817,1.66224189 L207.257817,5.88908555 C207.257817,6.79144543 206.545428,7.50383481 205.643068,7.50383481 L182.514159,7.50383481 C181.611799,7.50383481 180.89941,6.79144543 180.89941,5.88908555 L180.89941,1.66224189 C180.89941,0.759882006 181.611799,0.0474926254 182.514159,0.0474926254 L205.643068,0.0474926254 C206.545428,0.0474926254 207.257817,0.807374631 207.257817,1.66224189 Z"></path>
                        </g>
                        <g transform="translate(39.418879, 38.943953)" id="Shape" fill="#FFFFFF">
                            <path d="M139.200885,142.430383 L142.19292,139.438348 C142.810324,138.820944 143.855162,138.820944 144.472566,139.438348 L149.934218,144.9 C150.551622,145.517404 150.551622,146.562242 149.934218,147.179646 L146.942183,150.171681 C146.324779,150.789086 145.279941,150.789086 144.662537,150.171681 L139.200885,144.710029 C138.583481,144.092625 138.583481,143.09528 139.200885,142.430383 Z"></path>
                            <path d="M0.569911504,3.79941003 L3.5619469,0.807374631 C4.17935103,0.189970501 5.22418879,0.189970501 5.84159292,0.807374631 L11.3032448,6.26902655 C11.920649,6.88643068 11.920649,7.93126844 11.3032448,8.54867257 L8.31120944,11.540708 C7.69380531,12.1581121 6.64896755,12.1581121 6.03156342,11.540708 L0.569911504,6.07905605 C-0.0474926254,5.46165192 -0.0474926254,4.46430678 0.569911504,3.79941003 Z"></path>
                        </g>
                    </g>
                </g>
            </g>
        </g>
    </g>
</svg>