<svg height="659" viewBox="0 0 1170 659" width="1170" xmlns="http://www.w3.org/2000/svg"><g fill="none" fill-rule="evenodd"><path d="m.5.5h1169v657h-1169z" stroke="#dcdcdc"/><g fill-rule="nonzero"><g transform="translate(779.353982 215.814159)"><circle cx="114.457227" cy="114.457227" fill="#2ebd59" r="114.314749"/><path d="m114.457227 228.771976c-63.0227137 0-114.31474912-51.292035-114.31474912-114.314749 0-63.0227137 51.29203542-114.31474912 114.31474912-114.31474912 63.022714 0 114.314749 51.29203542 114.314749 114.31474912 0 63.022714-51.292035 114.314749-114.314749 114.314749zm0-222.0280232c-59.4132742 0-107.7132742 48.3474926-107.7132742 107.7132742 0 59.365782 48.3474926 107.713274 107.7132742 107.713274 59.365782 0 107.713274-48.347492 107.713274-107.713274 0-59.3657816-48.3-107.7132742-107.713274-107.7132742z" fill="#fff" opacity=".5"/><path d="m71.8088496 47.7775811c-1.8047198-4.1318584-4.5592921-7.6938053-7.1713865-11.3507374-2.5646017-3.5619469-5.1292035-7.1713865-7.6463127-10.7333334-2.5646017-3.6094395-5.1292035-7.218879-7.6938053-10.8283186-2.5646017-3.6094395-5.1292035-7.21887902-7.6938053-10.82831854-.6648967-.90235989-1.2823009-1.85221239-1.9471976-2.75457228-.6174041-.85486725-1.4722714-1.37728613-2.5171092-1.18731563-1.0923303.1899705-1.6147492 1.04483776-2.2321534 1.89970502-.6648967.90235988-1.2823008 1.85221238-1.9471976 2.75457227-2.5646018 3.60943952-5.1292035 7.21887906-7.7412979 10.82831856-2.5646018 3.6094395-5.1292036 7.2188791-7.6938053 10.8283186-2.5646018 3.5619469-5.1292036 7.1713864-7.64631272 10.7333333-1.28230089 1.8047198-2.6120944 3.5619469-3.84690266 5.4141593-1.23480826 1.899705-2.32713864 3.9418879-3.1820059 6.0315635-1.75722714 4.3693215-2.65958702 9.0235988-2.56460177 13.7253687.09498525 4.3693215.99734513 8.6911504 2.65958702 12.7280236 1.66224189 3.9418879 3.98938053 7.59882 6.93392331 10.6858407 1.51976402 1.6147493 3.22949852 3.1345133 4.84424782 4.6542773 1.7097345 1.5672566 3.3719764 3.1820059 5.0817109 4.7492625 3.4669616 3.2294985 7.1713864 6.5064894 10.6383481 9.7359884 1.4247787 1.329793 3.5619469 2.659587 4.5117994 4.036873v24.696165c0 .90236.2849557 1.187316 1.1873156 1.187316h2.8970502c.9023598 0 1.139823-.332449 1.139823-1.187316v-24.696165c3.3244837-3.229499 7.1238938-6.458997 10.5433628-9.6884956 1.6622419-1.5672566 3.419469-3.1345133 5.0817109-4.6542773h.0949853c1.7097345-1.5672566 3.419469-3.1820059 5.1292035-4.7967552 1.6147493-1.519764 3.2769911-2.9920354 4.7492625-4.6542772 2.8495576-3.1820059 5.1292036-6.8864307 6.6964602-10.8758112 1.6147493-4.1318585 2.3746313-8.50118 2.3271387-12.9179941-.0949853-4.6067847-1.0923304-9.261062-2.9920354-13.5353983z" fill="#eac300" transform="translate(76.463127 47.017699)"/><g fill="#fff"><path d="m114.647198 47.1126844c-1.424779 0-.617404 0-.759882.0474926-1.092331.1899705-1.80472 1.0448377-2.422124 1.899705-.664897.9023599-1.377286 1.8522124-2.042183 2.7545723-2.564602 3.6094395-5.176696 7.218879-7.741298 10.8283186-2.5646019 3.6094395-5.1292036 7.218879-7.741298 10.8283185-2.5646018 3.5619469-5.1292036 7.1713865-7.6938053 10.7333334-1.2823009 1.8047197-2.6120944 3.5619469-3.8469027 5.4141593-1.2348082 1.899705-2.3271386 3.9418879-3.1820059 6.0315634-1.7572271 4.3693215-2.659587 9.0235985-2.5646018 13.7253685.0949853 4.369322.9973452 8.691151 2.6595871 12.728024 1.6622419 3.941888 3.9893805 7.59882 6.9339233 10.685841 1.519764 1.614749 3.2294985 3.134513 4.8442478 4.654277 1.7097345 1.567256 3.3719764 3.182006 5.0817109 4.749262 3.4669616 3.229499 7.1713866 6.50649 10.6383476 9.735989 1.424779 1.329793 3.561947 2.659587 4.5118 4.036873v24.696165c0 .90236.284956 1.187316 1.187315 1.187316h2.137169z" opacity=".5"/><g transform="translate(32.769912 73.138643)"><path d="m133.881711 72.9961652h4.416814c1.709735 0 3.087021-.379941 4.131858-1.0923304 1.044838-.7123894 1.567257-1.899705 1.567257-3.5619469v-16.5274336c0-1.8522124.427434-3.6569322 1.282301-5.4616519.854867-1.8047198 2.564602-3.1820059 5.129204-4.0843658-2.564602-.9023599-4.274337-2.279646-5.129204-4.0843658s-1.282301-3.6094395-1.282301-5.4616519v-16.5274336c0-1.6622419-.522419-2.8020649-1.567257-3.561947-1.044837-.7123893-2.422123-1.0923303-4.131858-1.0923303h-4.416814v-11.540708h8.881121c4.274336 0 7.693805 1.18731563 10.3059 3.60943953 2.612094 2.37463127 3.894395 6.03156342 3.894395 10.97079647v15.0551622c0 2.0896755.522419 3.7519174 1.614749 5.0342183 1.09233 1.2348083 2.612095 1.8522124 4.559292 1.8522124h.90236v11.3982301h-.90236c-1.947197 0-3.514454.6174041-4.559292 1.8522124-1.09233 1.2348082-1.614749 2.8970501-1.614749 5.0342183v15.0551622c0 4.9392331-1.282301 8.5961652-3.894395 10.9707965-2.612095 2.3746312-6.031564 3.6094395-10.3059 3.6094395h-8.881121z"/><path d="m7.45634218 54.9014749c0-2.0896755-.52241888-3.7519174-1.51976401-5.0342183-.99734513-1.2348082-2.56460177-1.8522124-4.65427729-1.8522124h-.90235988v-11.39823h.90235988c2.08967552 0 3.65693216-.6174042 4.65427729-1.8522124.99734513-1.2348083 1.51976401-2.8970502 1.51976401-5.0342183v-15.0551623c0-4.939233 1.32979351-8.59616515 3.94188792-10.97079642 2.6120944-2.37463127 6.0315634-3.60943953 10.2584071-3.60943953h8.8811209v11.54070795h-4.4168141c-1.7097346 0-3.0870207.379941-4.1318585 1.0923304-1.0448377.7123894-1.5672566 1.899705-1.5672566 3.5619469v16.479941c0 1.8522124-.4274336 3.6569322-1.2823009 5.4616519-.8548672 1.8047198-2.5171091 3.1820059-4.939233 4.0843658 2.4221239.9023599 4.0843658 2.279646 4.939233 4.0843658.8548673 1.8047197 1.2823009 3.6094395 1.2823009 5.4616519v16.5274336c0 1.6622419.5224189 2.8020649 1.5672566 3.5619469 1.0448378.7123894 2.4221239 1.0923304 4.1318585 1.0923304h4.4168141v11.4932154h-8.8811209c-4.1793511 0-7.5988201-1.1873157-10.2584071-3.6094396-2.61209441-2.3746312-3.94188792-6.0315634-3.94188792-10.9707964z"/></g></g></g><g transform="translate(161.474926 215.814159)"><circle cx="114.409735" cy="114.457227" fill="#e24f4b" r="114.314749"/><path d="m112.794985 228.724484c-63.0227136-.90236-113.55486701-52.906785-112.65250712-115.929499.90235988-63.0227136 52.90678462-113.55486701 115.92949812-112.65250712 63.022714.90235988 113.554868 52.90678462 112.652508 115.92949812-.90236 63.022714-52.906785 113.554868-115.929499 112.652508zm3.134514-221.9805312c-59.4132748-.85486725-108.37817157 46.780236-109.23303882 106.1935102-.85486726 59.413274 46.78023602 108.378171 106.19351082 109.233038 59.413274.854868 108.378171-46.780236 109.233038-106.19351.854867-59.4132742-46.780236-108.37817094-106.19351-109.2330382z" fill="#fff" opacity=".5"/><g fill="#fff" transform="translate(28.970501 60.315634)"><path d="m62.0728614 41.5560472c-1.5672567-3.5619469-3.9418879-6.6489676-6.1740413-9.7834808-2.1846608-3.0870207-4.4168142-6.1740413-6.601475-9.261062-2.2321534-3.0870206-4.4168141-6.2215339-6.6489675-9.3085545-2.2321534-3.1345133-4.4168142-6.22153397-6.6489676-9.35604725-.5699115-.80737463-1.139823-1.56725663-1.7097345-2.37463126-.5224189-.71238938-1.2823009-1.18731564-2.1846608-1.04483776-.9498525.14247787-1.3772861.90235988-1.9471976 1.61474926-.5699115.75988201-1.139823 1.56725664-1.6622419 2.37463127-2.1846607 3.13451327-4.4168141 6.22153394-6.6489675 9.35604724-2.2321534 3.0870206-4.4168142 6.2215339-6.6489676 9.3085545-2.2321534 3.0870207-4.4168141 6.1740413-6.60147491 9.261062-1.09233038 1.5672566-2.27964602 3.0870206-3.32448377 4.7017699-1.09233039 1.6147493-1.99469027 3.3719764-2.75457228 5.1766962-1.51976401 3.7519174-2.27964601 7.7887905-2.23215339 11.8256637.04749263 3.7519174.85486726 7.5038348 2.27964602 10.9707964 1.42477876 3.4194691 3.46696165 6.5539823 5.9840708 9.2135694 1.32979351 1.4247787 2.75457223 2.7070796 4.17935103 3.9893805 1.4722714 1.3772861 2.9445428 2.7545723 4.3693215 4.1318584 2.9920354 2.8020649 6.1265487 5.6041298 9.1185841 8.4061947 1.2348083 1.139823 2.8970502 2.3271386 3.8469027 3.4669616v21.2766963c0 .759882.3324483.712389 1.0923303.712389h2.5171092c.759882 0 1.139823.047493 1.139823-.712389v-21.2766963c3.3244838-2.8020649 6.079056-5.5566371 9.0235988-8.358702 1.4247788-1.3297935 2.9445428-2.7070797 4.3693215-4.0368732h.0474927c1.4722714-1.3772861 2.9445427-2.7545723 4.4168141-4.1318584 1.3772862-1.2823009 2.8020649-2.5646018 4.0843658-3.9893805 2.4696165-2.7545723 4.4168142-5.9365782 5.7466077-9.3560472 1.3772861-3.5619469 2.0421829-7.361357 2.0421829-11.160767 0-3.8943953-.8548673-7.9312684-2.4696165-11.6356932z" opacity=".5"/><path d="m32.0100295.42743363s0 0-.0949853.04749262c-.9498525.14247788-1.2823008.90235989-1.8047197 1.61474927-.5699115.759882-1.0448378 1.56725663-1.6147493 2.37463126-2.1846607 3.13451328-4.4168141 6.22153392-6.6489675 9.35604722-2.2321534 3.0870206-4.4168142 6.2215339-6.601475 9.3085546-2.2321533 3.0870206-4.4168141 6.1740413-6.60147488 9.2610619-1.09233039 1.5672566-2.27964602 3.0870207-3.32448378 4.7017699-1.09233038 1.6147493-1.99469026 3.3719764-2.75457227 5.1766962-1.51976401 3.7519174-2.27964602 7.7887905-2.23215339 11.8256637.04749262 3.7519174.85486725 7.5038348 2.27964602 10.9707965 1.42477876 3.419469 3.46696165 6.5539823 5.98407079 9.2135693 1.32979351 1.4247787 2.75457231 2.7070796 4.17935101 3.9893805 1.4722714 1.3772861 2.9445428 2.7545723 4.3693216 4.1318584 2.9920354 2.8020649 6.1265486 5.6041298 9.118584 8.4061947 1.2348083 1.139823 2.8970502 2.3271386 3.8469027 3.4669617v21.2766966c0 .759882.3324484.712389 1.0923304.712389h.8073746z"/></g><g transform="translate(134.879056 60.315634)"><path d="m62.1678466 41.5560472c-1.5672566-3.5619469-3.9418879-6.6489676-6.1740413-9.7834808-2.1846608-3.0870207-4.4168141-6.1740413-6.6014749-9.261062-2.2321534-3.0870206-4.4168142-6.2215339-6.6489676-9.3085545-2.2321534-3.1345133-4.4168141-6.22153397-6.6489675-9.35604725-.5699115-.80737463-1.139823-1.56725663-1.7097345-2.37463126-.5224189-.71238938-1.2823009-1.18731564-2.1846608-1.04483776-.9498525.14247787-1.3772861.90235988-1.9471976 1.61474926-.5699115.75988201-1.139823 1.56725664-1.6622419 2.37463127-2.1846608 3.13451327-4.4168142 6.22153394-6.6489676 9.35604724-2.2321534 3.0870206-4.4168141 6.2215339-6.6489675 9.3085545-2.2321534 3.0870207-4.4168142 6.1740413-6.60147496 9.261062-1.09233038 1.5672566-2.27964602 3.0870206-3.32448377 4.7017699-1.09233039 1.6147493-1.99469027 3.3719764-2.75457227 5.1766962-1.51976402 3.7519174-2.27964602 7.7887905-2.2321534 11.8256637.04749263 3.7519174.85486726 7.5038348 2.27964602 10.9707964 1.42477876 3.4194691 3.46696165 6.5539823 5.9840708 9.2135694 1.32979351 1.4247787 2.75457228 2.7070796 4.17935098 3.9893805 1.4722714 1.3772861 2.9445428 2.7545723 4.3693216 4.1318584 2.9920354 2.8020649 6.3165192 5.6041298 9.3085546 8.4061947 1.2348082 1.139823 3.0870206 2.3271386 4.0368731 3.4669616v21.2766963c0 .759882-.0474926.712389.7123894.712389h2.5171091c.759882 0 2.4696166.047493 2.4696166-.712389v-21.2766963c.9498525-2.8020649 5.3666666-5.5566371 8.358702-8.358702 1.4247788-1.3297935 2.6120944-2.7070797 4.0368732-4.0368732h-.1424779c1.4722714-1.3772861 2.8495575-2.7545723 4.3218289-4.1318584 1.3772861-1.2823009 2.8020649-2.5646018 4.0368732-3.9893805 2.4696165-2.7545723 4.4168141-5.9365782 5.7466076-9.3560472 1.3772862-3.5619469 2.0421829-7.361357 1.9946903-11.160767.0474926-3.8943953-.8073746-7.9312684-2.4221239-11.6356932z" fill="#eac300"/><path d="m33.9097345.42743363c-1.4247787 0-.9023599 0-1.0448377.04749262-.9498526.14247788-1.7572272.90235989-2.2796461 1.61474927-.5699115.759882-1.2823008 1.56725663-1.8522124 2.37463126-2.1846607 3.13451328-4.5117994 6.22153392-6.7439528 9.35604722-2.2321533 3.0870206-4.4643067 6.2215339-6.6964601 9.3085546-2.2321534 3.0870206-4.4168142 6.1740413-6.64896758 9.2610619-1.09233039 1.5672566-2.27964602 3.0870207-3.32448378 4.7017699-1.09233038 1.6147493-1.99469026 3.3719764-2.75457227 5.1766962-1.51976401 3.7519174-2.27964602 7.7887905-2.23215339 11.8256637.04749262 3.7519174.85486725 7.5038348 2.27964602 10.9707965 1.42477876 3.419469 3.46696165 6.5539823 5.98407079 9.2135693 1.32979351 1.4247787 2.75457231 2.7070796 4.17935101 3.9893805 1.4722714 1.3772861 2.9445428 2.7545723 4.3693216 4.1318584 2.9920354 2.8020649 6.3165191 5.6041298 9.3085545 8.4061947 1.2348083 1.139823 3.0870207 2.3271386 4.0368732 3.4669617v21.2766966c0 .759882-.0474926.712389.7123894.712389h2.6120944v-115.83451337z" fill="#fff" opacity=".5"/></g><path d="m116.546903 157.438053h-4.226844c-.90236 0-1.614749-.712389-1.614749-1.614749v-73.9460179c0-.9023598.712389-1.6147492 1.614749-1.6147492h4.226844c.90236 0 1.614749.7123894 1.614749 1.6147492v73.9460179c0 .854867-.712389 1.614749-1.614749 1.614749z" fill="#fff"/></g><g transform="translate(470.176991 215.814159)"><circle cx="114.69469" cy="114.457227" fill="#1eacf4" r="114.314749"/><path d="m113.079941 228.724484c-63.0227139-.90236-113.55486725-52.906785-112.65250737-115.929499.90235988-63.0227136 52.90678467-113.55486701 115.92949837-112.65250712 63.022714.90235988 113.554867 52.90678462 112.652508 115.92949812-.90236 63.022714-52.906785 113.554868-115.929499 112.652508zm3.134513-221.9805312c-59.4132741-.85486725-108.37817081 46.780236-109.23303807 106.1935102-.85486726 59.413274 46.78023597 108.378171 106.19351007 109.233038 59.413275.854868 108.378171-46.780236 109.233039-106.19351.807374-59.4132742-46.827729-108.37817094-106.193511-109.2330382z" fill="#fff" opacity=".5"/><g transform="translate(62.215339 68.864307)"><path d="m88.0513274 59.1283186c1.6622419-4.2268437 2.2321534-8.6911505 2.9445428-13.1554572.7123894-4.3693216 1.4722714-8.7386431 2.1846608-13.1079646.759882-4.3693216 1.4722714-8.7861357 2.2321534-13.1554573.759882-4.4168141 1.4722714-8.7861357 2.2321534-13.20294982.1899705-1.09233039.379941-2.2321534.5699115-3.32448378.1899705-1.04483776-.0949853-2.04218289-.9498525-2.65958702-.9023599-.66489676-1.8997051-.379941-2.9445428-.23746313-1.139823.1899705-2.2321534.37994101-3.3244838.56991151-4.3693215.759882-8.7861357 1.47227138-13.2029498 2.23215339-4.3693216.71238938-8.7861357 1.47227139-13.1554573 2.23215339-4.3693215.71238938-8.738643 1.47227139-13.1079646 2.18466077-2.1846607.379941-4.4168141.66489675-6.6014749 1.13982301-2.2321534.47492625-4.4168142 1.13982301-6.5539823 2.04218288-4.3693215 1.8047198-8.3112094 4.559292-11.5882006 7.9312684-3.039528 3.1820059-5.5091445 6.8864307-7.1713864 10.9707965-1.6622419 3.9893805-2.5171092 8.2637168-2.659587 12.5380531-.0949853 2.2321534.0474926 4.5117994.1424778 6.7439528.0949853 2.3271386.1424779 4.6542773.2374632 7.0289086.1424778 4.7967551.4274336 9.6884955.5699115 14.4852507.0474926 1.9471976.379941 4.179351.3324483 6.0315634l-17.57227134 17.5722714c-.61740413.6174041-.56991151 1.0448378.09498525 1.6622419l2.04218289 2.0421829c.61740413.6174041 1.70973451 1.4247787 2.37463127.759882l17.57227143-17.5722714c3.2294985-1.4247788 9.2610619.0949853 14.0103244.2374631 2.2796461.0949853 4.4643068.0474927 6.7439528.0949853 0 0-.0474926-.0474926-.0474926-.0474926 2.3271387.0949852 4.6542773.1424778 7.0289086.1899705 2.2321534.0474926 4.4168141.1899705 6.6489675.0474926 4.2743363-.2374631 8.5486726-1.2348083 12.4905605-2.9920354 4.0368731-1.8047198 7.7412979-4.3693216 10.8283186-7.5513274 3.3244838-3.3244838 5.8890855-7.361357 7.59882-11.7306785z" fill="#eac300"/><path d="m98.3572271 1.56725664c-.9023598-.90235988-.6174041-.56991151-.7123893-.66489676-.9023599-.66489675-2.0896756-.61740413-3.1345133-.42743363-1.139823.18997051-2.3271387.28495576-3.4669617.47492626-4.3693215.759882-8.8336283 1.42477876-13.2504424 2.13716814-4.3693216.71238938-8.7861357 1.47227139-13.2029499 2.18466077-4.3693215.71238938-8.7386431 1.47227138-13.1079646 2.18466076-2.1846608.37994101-4.4168142.66489676-6.6014749 1.13982301-2.2321534.47492626-4.4168142 1.13982301-6.5539823 2.04218291-4.3693216 1.8047197-8.3112095 4.559292-11.5882006 7.9312684-3.039528 3.1820059-5.5091446 6.8864307-7.1713864 10.9707965-1.6622419 3.9893805-2.5171092 8.2637168-2.6595871 12.5380531-.0949852 2.2321534.0474927 4.5117994.1424779 6.7439528.0949853 2.3271386.1424779 4.6542773.2374631 7.0289085.1424779 4.7967552.4274337 9.6884956.5699115 14.4852508.0474927 1.9471976.379941 4.179351.3324484 6.0315634l-17.57227137 17.5722714c-.61740413.6174041-.5699115 1.0448377.09498525 1.6622419l1.80471976 1.8047197z" fill="#fff" opacity=".5"/></g><g fill="#fff"><g transform="translate(110.657817 10.923304)"><path d="m6.12654867 26.4058997h-4.22684366c-.90235988 0-1.61474926-.7123894-1.61474926-1.6147493v-23.12890851c0-.90235988.71238938-1.61474926 1.61474926-1.61474926h4.22684366c.90235988 0 1.61474927.71238938 1.61474927 1.61474926v23.12890851c0 .9023599-.71238939 1.6147493-1.61474927 1.6147493z"/><path d="m6.12654867 207.020354h-4.22684366c-.90235988 0-1.61474926-.712389-1.61474926-1.614749v-23.128909c0-.90236.71238938-1.614749 1.61474926-1.614749h4.22684366c.90235988 0 1.61474927.712389 1.61474927 1.614749v23.128909c0 .90236-.71238939 1.614749-1.61474927 1.614749z"/></g><g transform="translate(39.418879 38.943953)"><path d="m8.31120944 139.438348 2.99203536 2.992035c.6174042.617405.6174042 1.662242 0 2.279646l-5.46165188 5.461652c-.61740413.617405-1.66224189.617405-2.27964602 0l-2.9920354-2.992035c-.61740413-.617404-.61740413-1.662242 0-2.279646l5.46165192-5.461652c.61740413-.617404 1.66224189-.617404 2.27964602 0z"/><path d="m146.942183.80737463 2.992035 2.9920354c.617404.61740413.617404 1.66224189 0 2.27964602l-5.461652 5.46165195c-.617404.6174041-1.662242.6174041-2.279646 0l-2.992035-2.99203543c-.617404-.61740413-.617404-1.66224189 0-2.27964602l5.461652-5.46165192c.617404-.61740413 1.662242-.61740413 2.279646 0z"/></g><g transform="translate(10.923304 110.657817)"><path d="m26.6433628 1.66224189v4.22684366c0 .90235988-.7123893 1.61474926-1.6147492 1.61474926h-23.12890859c-.90235988 0-1.61474926-.71238938-1.61474926-1.61474926v-4.22684366c0-.90235988.71238938-1.61474926 1.61474926-1.61474926h23.12890859c.8548672 0 1.6147492.759882 1.6147492 1.61474926z"/><path d="m207.257817 1.66224189v4.22684366c0 .90235988-.712389 1.61474926-1.614749 1.61474926h-23.128909c-.90236 0-1.614749-.71238938-1.614749-1.61474926v-4.22684366c0-.90235988.712389-1.61474926 1.614749-1.61474926h23.128909c.90236 0 1.614749.759882 1.614749 1.61474926z"/></g><g transform="translate(39.418879 38.943953)"><path d="m139.200885 142.430383 2.992035-2.992035c.617404-.617404 1.662242-.617404 2.279646 0l5.461652 5.461652c.617404.617404.617404 1.662242 0 2.279646l-2.992035 2.992035c-.617404.617405-1.662242.617405-2.279646 0l-5.461652-5.461652c-.617404-.617404-.617404-1.614749 0-2.279646z"/><path d="m.5699115 3.79941003 2.9920354-2.9920354c.61740413-.61740413 1.66224189-.61740413 2.27964602 0l5.46165188 5.46165192c.6174042.61740413.6174042 1.66224189 0 2.27964602l-2.99203536 2.99203543c-.61740413.6174041-1.66224189.6174041-2.27964602 0l-5.46165192-5.46165195c-.61740413-.61740413-.61740413-1.61474927 0-2.27964602z"/></g></g></g></g></g></svg>