<svg enable-background="new 0 0 2240.9 1410" viewBox="0 0 2240.9 1410" xmlns="http://www.w3.org/2000/svg"><circle cx="2747.7" cy="-527.9" fill="#e24f4b" r="569.5"/><path d="m2739.6 41.6c-314-4.4-565.9-263.5-561.4-577.5s263.5-565.9 577.5-561.4 565.9 263.5 561.4 577.5c-4.4 313.9-263.5 565.8-577.5 561.4zm15.6-1106.2c-295.9-4.2-540.1 233.2-544.3 529.1s233.2 540.1 529.1 544.3 540.1-233.2 544.3-529.1c4.2-296-233.1-540.1-529.1-544.3z" fill="#fff" opacity=".5"/><path d="m.9-2.5h2239.2v1414.9h-2239.2z" fill="#6c6b96"/><circle cx="173.5" cy="998.6" fill="#e24f4b" r="44.5"/><g fill="#fff"><path d="m172.8 1043.1c-24.6-.3-44.2-20.6-43.9-45.2s20.6-44.2 45.2-43.9 44.2 20.6 43.9 45.2-20.6 44.3-45.2 43.9zm1.3-86.4c-23.1-.3-42.2 18.2-42.6 41.4-.3 23.1 18.2 42.2 41.4 42.6s42.2-18.2 42.6-41.4c.3-23.2-18.3-42.3-41.4-42.6z" opacity=".5"/><path d="m164.4 993.7c-.6-1.4-1.5-2.6-2.4-3.8s-1.7-2.4-2.6-3.6-1.7-2.4-2.6-3.6-1.7-2.4-2.6-3.6c-.2-.3-.4-.6-.7-.9-.2-.3-.5-.5-.9-.4s-.5.4-.8.6c-.2.3-.4.6-.7.9-.9 1.2-1.7 2.4-2.6 3.6s-1.7 2.4-2.6 3.6-1.7 2.4-2.6 3.6c-.4.6-.9 1.2-1.3 1.8s-.8 1.3-1.1 2c-.6 1.5-.9 3-.9 4.6 0 1.5.3 2.9.9 4.3.6 1.3 1.3 2.5 2.3 3.6.5.5 1.1 1 1.6 1.6.6.5 1.1 1.1 1.7 1.6 1.2 1.1 1.9 2.2 3.1 3.3.5.5 1 .9 1 1.4v8.3c0 .3 1 1.4 1.3 1.4h1c.3 0-1.3-1.1-1.3-1.4v-8.3c2-1.1 3.2-2.2 4.4-3.3.6-.5 1.6-1 2.1-1.6h.2c.6-.5 1.3-1.1 1.8-1.6s1.2-1 1.7-1.6c1-1.1 1.8-2.3 2.3-3.6.5-1.4.8-2.9.8-4.3.4-1.6.1-3.1-.5-4.6z" opacity=".5"/><path d="m152 977.7h.3c-.4.1-.3.4-.5.6-.2.3-.3.6-.6.9-.9 1.2-1.7 2.4-2.5 3.6-.9 1.2-1.7 2.4-2.6 3.6s-1.7 2.4-2.6 3.6c-.4.6-.9 1.2-1.3 1.8s-.8 1.3-1.1 2c-.6 1.5-.9 3-.9 4.6 0 1.5.3 2.9.9 4.3.6 1.3 1.3 2.5 2.3 3.6.5.5 1.1 1 1.6 1.6.6.5 1.1 1.1 1.7 1.6 1.2 1.1 1.9 2.2 3.1 3.3.5.5 1 .9 1 1.4v8.3c0 .3 1 1.4 1.3 1.4h-.1z"/></g><path d="m205.6 993.7c-.6-1.4-1.5-2.6-2.4-3.8s-1.7-2.4-2.6-3.6-1.7-2.4-2.6-3.6-1.7-2.4-2.6-3.6c-.2-.3-.4-.6-.7-.9-.2-.3-.5-.5-.9-.4s-.5.4-.8.6c-.2.3-.4.6-.7.9-.9 1.2-1.7 2.4-2.6 3.6s-1.7 2.4-2.6 3.6-1.7 2.4-2.6 3.6c-.4.6-.9 1.2-1.3 1.8s-.8 1.3-1.1 2c-.6 1.5-.9 3-.9 4.6 0 1.5.3 2.9.9 4.3.6 1.3 1.3 2.5 2.3 3.6.5.5 1.1 1 1.6 1.6.6.5 1.1 1.1 1.7 1.6 1.2 1.1 2.3 2.2 3.5 3.3.5.5.4.9 1.4 1.4v8.3c0 .3.3 1.4.6 1.4h1c.3 0 .4-1.1.4-1.4v-8.3c1-1.1 2.4-2.2 3.5-3.3.6-.5 1.2-1 1.7-1.6.6-.5 1.2-1.1 1.7-1.6s1.1-1 1.6-1.6c1-1.1 1.7-2.3 2.2-3.6.5-1.4.8-2.9.8-4.3.5-1.6.2-3.1-.5-4.6z" fill="#eac300"/><path d="m194 977.7c-.5.1-.6.4-.8.6-.2.3-.4.6-.6.9-.9 1.2-1.7 2.4-2.6 3.6s-1.7 2.4-2.6 3.6-1.7 2.4-2.6 3.6c-.4.6-.9 1.2-1.3 1.8s-.8 1.3-1.1 2c-.6 1.5-.9 3-.9 4.6 0 1.5.3 2.9.9 4.3.6 1.3 1.3 2.5 2.3 3.6.5.5 1.1 1 1.6 1.6.6.5 1.1 1.1 1.7 1.6 1.2 1.1 2.3 2.2 3.5 3.3.5.5.4.9 1.4 1.4v8.3c0 .3.3 1.4.6 1.4h.4v-46.2z" fill="#fff" opacity=".5"/><path d="m173.5 1015.4c-.8 0-1.5-.7-1.5-1.5v-27.2c0-.8.7-1.5 1.5-1.5.8 0 1.5.7 1.5 1.5v27.2c-.1.8-.7 1.5-1.5 1.5z" fill="#fff"/><circle cx="311.2" cy="976.4" fill="#e24f4b" r="66.8"/><path d="m310.3 1043.1c-36.8-.5-66.4-30.9-65.8-67.7.5-36.8 30.9-66.4 67.7-65.8s66.4 30.9 65.8 67.7-30.9 66.4-67.7 65.8zm1.8-129.7c-34.7-.5-63.3 27.3-63.8 62.1s27.3 63.3 62.1 63.8c34.7.5 63.3-27.3 63.8-62.1.5-34.7-27.4-63.3-62.1-63.8z" fill="#fff" opacity=".5"/><path d="m297.6 969c-.9-2.1-2.3-3.9-3.6-5.7s-2.6-3.6-3.9-5.4-2.6-3.6-3.9-5.4-2.6-3.6-3.9-5.5c-.3-.5-.7-.9-1-1.4-.3-.4-.7-.7-1.3-.6s-.8.5-1.1 1-.7.9-1 1.4c-1.3 1.8-2.6 3.6-3.9 5.5-1.3 1.8-2.6 3.6-3.9 5.4s-2.6 3.6-3.9 5.4c-.6.9-1.3 1.8-1.9 2.7-.6 1-1.2 2-1.6 3-.9 2.2-1.3 4.6-1.3 6.9 0 2.2.5 4.4 1.3 6.4s2 3.8 3.5 5.4c.8.8 1.6 1.6 2.4 2.3.9.8 1.7 1.6 2.6 2.4 1.7 1.6 3.1 3.3 4.9 4.9.7.7 1.8 1.4 1.8 2v12.4c0 .5 1.1 1.7 1.6 1.7h1.5c.5 0-1-1.3-1-1.7v-12.4c2-1.6 4.4-3.3 6.1-4.9.8-.8 2.1-1.6 3-2.4h.2c.9-.8 1.8-1.6 2.7-2.4.8-.8 1.7-1.5 2.4-2.3 1.4-1.6 2.6-3.5 3.4-5.5.8-2.1 1.2-4.3 1.2-6.5s-.5-4.5-1.4-6.7z" fill="#fff" opacity=".5"/><path d="m279 945s.5 0 .4 0c-.6.1-.5.5-.8 1s-.5.9-.8 1.4c-1.3 1.8-2.5 3.6-3.8 5.5-1.3 1.8-2.5 3.6-3.8 5.4s-2.6 3.6-3.8 5.4c-.6.9-1.3 1.8-1.9 2.7-.6 1-1.2 2-1.6 3-.9 2.2-1.3 4.6-1.3 6.9 0 2.2.5 4.4 1.3 6.4s2 3.8 3.5 5.4c.8.8 1.6 1.6 2.4 2.3.9.8 1.7 1.6 2.6 2.4 1.7 1.6 3.1 3.3 4.9 4.9.7.7 1.8 1.4 1.8 2v12.4c0 .5 1.1 1.7 1.6 1.7h-.7z" fill="#fff"/><path d="m359.5 969c-.9-2.1-2.3-3.9-3.6-5.7s-2.6-3.6-3.9-5.4-2.6-3.6-3.9-5.4-2.6-3.6-3.9-5.5c-.3-.5-.7-.9-1-1.4-.3-.4-.7-.7-1.3-.6s-.8.5-1.1 1-.7.9-1 1.4c-1.3 1.8-2.6 3.6-3.9 5.5-1.3 1.8-2.6 3.6-3.9 5.4s-2.6 3.6-3.9 5.4c-.6.9-1.3 1.8-1.9 2.7-.6 1-1.2 2-1.6 3-.9 2.2-1.3 4.6-1.3 6.9 0 2.2.5 4.4 1.3 6.4s2 3.8 3.5 5.4c.8.8 1.6 1.6 2.4 2.3.9.8 1.7 1.6 2.6 2.4 1.7 1.6 3.7 3.3 5.4 4.9.7.7 1.3 1.4 2.3 2v12.4c0 .5 0 1.7.5 1.7h1.5c.5 0 .1-1.3.1-1.7v-12.4c1-1.6 3.9-3.3 5.6-4.9.8-.8 1.9-1.6 2.7-2.4h.1c.9-.8 1.8-1.6 2.6-2.4s1.7-1.5 2.4-2.3c1.4-1.6 2.6-3.5 3.4-5.5.8-2.1 1.2-4.3 1.2-6.5.1-2.2-.4-4.5-1.4-6.7z" fill="#eac300"/><path d="m342 945c-.7.1-.9.6-1.2 1-.3.5-.6.9-1 1.4-1.3 1.8-2.6 3.6-3.9 5.5-1.3 1.8-2.6 3.6-3.9 5.4s-2.6 3.6-3.9 5.4c-.6.9-1.3 1.8-1.9 2.7-.6 1-1.2 2-1.6 3-.9 2.2-1.3 4.6-1.3 6.9 0 2.2.5 4.4 1.3 6.4s2 3.8 3.5 5.4c.8.8 1.6 1.6 2.4 2.3.9.8 1.7 1.6 2.6 2.4 1.7 1.6 3.7 3.3 5.4 4.9.7.7 1.3 1.4 2.3 2v12.4c0 .5 0 1.7.5 1.7h.5v-68.8z" fill="#fff" opacity=".5"/><path d="m311.8 1001.5h-1.1c-.9 0-1.6-.7-1.6-1.6v-41.9c0-.9.7-1.6 1.6-1.6h1.1c.9 0 1.6.7 1.6 1.6v41.8c0 .9-.7 1.7-1.6 1.7z" fill="#fff"/><circle cx="504.7" cy="943" fill="#e24f4b" r="100.2"/><path d="m503.3 1043.1c-55.2-.8-99.5-46.4-98.8-101.6.8-55.2 46.4-99.5 101.6-98.8s99.5 46.4 98.8 101.6c-.8 55.3-46.4 99.6-101.6 98.8zm2.7-194.6c-52.1-.7-95 41-95.8 93.1-.7 52.1 41 95 93.1 95.8s95-41 95.8-93.1-41-95-93.1-95.8z" fill="#fff" opacity=".5"/><path d="m484.2 931.9c-1.4-3.1-3.4-5.8-5.4-8.6-1.9-2.7-3.9-5.4-5.8-8.1s-3.9-5.4-5.8-8.2c-1.9-2.7-3.9-5.5-5.8-8.2-.5-.7-1-1.4-1.5-2.1-.5-.6-1.1-1-1.9-.9s-1.2.8-1.7 1.4c-.5.7-1 1.4-1.5 2.1-1.9 2.7-3.9 5.5-5.8 8.2s-3.9 5.5-5.8 8.2-3.9 5.4-5.8 8.1c-1 1.4-2 2.7-2.9 4.1s-1.7 3-2.4 4.6c-1.3 3.3-2 6.8-1.9 10.4.1 3.3.7 6.6 2 9.6 1.2 3 3 5.7 5.2 8.1 1.2 1.2 2.4 2.4 3.7 3.5 1.3 1.2 2.6 2.4 3.8 3.6 2.6 2.5 5.3 4.9 7.9 7.4 1.1 1 3.3 2 3.3 3v18.7c0 .7.5 1.1 1.2 1.1h2.2c.7 0 .6-.5.6-1.1v-18.7c5-2.5 5.5-4.9 8.1-7.3 1.3-1.2 2.7-2.4 3.9-3.5h.1c1.3-1.2 2.6-2.4 3.9-3.6 1.2-1.1 2.5-2.3 3.6-3.5 2.2-2.4 3.9-5.2 5.1-8.2 1.2-3.1 1.8-6.4 1.8-9.8-.2-3.5-1-7-2.4-10.3z" fill="#fff" opacity=".5"/><path d="m457 895.9s.4 0 .3 0c-.8.1-.9.8-1.4 1.4-.5.7-.8 1.4-1.3 2.1-1.9 2.7-3.8 5.5-5.8 8.2-1.9 2.7-3.8 5.5-5.8 8.2-1.9 2.7-3.8 5.4-5.8 8.1-1 1.4-2 2.7-2.9 4.1s-1.7 3-2.4 4.6c-1.3 3.3-2 6.8-1.9 10.4.1 3.3.7 6.6 2 9.6 1.2 3 3 5.7 5.2 8.1 1.2 1.2 2.4 2.4 3.7 3.5 1.3 1.2 2.6 2.4 3.8 3.6 2.6 2.5 5.3 4.9 7.9 7.4 1.1 1 3.3 2 3.3 3v18.7c0 .7.5 1.1 1.2 1.1h-.1z" fill="#fff"/><path d="m577.1 931.9c-1.4-3.1-3.4-5.8-5.4-8.6-1.9-2.7-3.9-5.4-5.8-8.1s-3.9-5.4-5.8-8.2c-1.9-2.7-3.9-5.5-5.8-8.2-.5-.7-1-1.4-1.5-2.1-.5-.6-1.1-1-1.9-.9s-1.2.8-1.7 1.4c-.5.7-1 1.4-1.5 2.1-1.9 2.7-3.9 5.5-5.8 8.2s-3.9 5.5-5.8 8.2-3.9 5.4-5.8 8.1c-1 1.4-2 2.7-2.9 4.1s-1.7 3-2.4 4.6c-1.3 3.3-2 6.8-1.9 10.4.1 3.3.7 6.6 2 9.6 1.2 3 3 5.7 5.2 8.1 1.2 1.2 2.4 2.4 3.7 3.5 1.3 1.2 2.6 2.4 3.8 3.6 2.6 2.5 6.3 4.9 8.9 7.4 1.1 1 2.3 2 4.3 3v18.7c0 .7-1.6 1.1-.9 1.1h2.2c.7 0 .7-.5.7-1.1v-18.7c3-2.5 5.4-4.9 8-7.3 1.3-1.2 2.6-2.4 3.9-3.5h.1c1.3-1.2 2.6-2.4 3.9-3.6 1.2-1.1 2.5-2.3 3.6-3.5 2.2-2.4 3.9-5.2 5.1-8.2 1.2-3.1 1.8-6.4 1.8-9.8-.1-3.5-.9-7-2.3-10.3z" fill="#eac300"/><path d="m565.1 967.3c-.1 0 0 0 0 0z" fill="#fff"/><path d="m552 895.9s-.6 0-.7 0c-.8.1-1.4.8-1.9 1.4-.5.7-1.1 1.4-1.6 2.1-1.9 2.7-3.9 5.5-5.9 8.2-1.9 2.7-3.9 5.5-5.8 8.2s-3.9 5.4-5.8 8.1c-1 1.4-2 2.7-2.9 4.1s-1.8 3-2.4 4.6c-1.3 3.3-2 6.8-1.9 10.4.1 3.3.7 6.6 2 9.6 1.2 3 3 5.7 5.2 8.1 1.2 1.2 2.4 2.4 3.7 3.5 1.3 1.2 2.6 2.4 3.8 3.6 2.6 2.5 6.3 4.9 8.9 7.4 1.1 1 2.3 2 4.3 3v18.7c0 .7-1.6 1.1-.9 1.1h1.9z" fill="#fff" opacity=".5"/><path d="m506.3 980.6h-3.3c-.9 0-1.6-.7-1.6-1.6v-64.4c0-.9.7-1.6 1.6-1.6h3.3c.9 0 1.6.7 1.6 1.6v64.4c.1.9-.7 1.6-1.6 1.6z" fill="#fff"/><circle cx="781.6" cy="892.9" fill="#e24f4b" r="150.3"/><path d="m779.5 1043.1c-82.9-1.2-149.3-69.5-148.1-152.4s69.5-149.3 152.4-148.1 149.3 69.5 148.1 152.4-69.5 149.3-152.4 148.1zm4.1-291.9c-78.1-1.1-142.5 61.5-143.6 139.6s61.5 142.5 139.6 143.6 142.6-61.4 143.7-139.5-61.6-142.6-139.7-143.7z" fill="#fff" opacity=".5"/><g fill="#fff" opacity=".5"><path d="m750.9 876.3c-2.1-4.7-5.2-8.7-8.1-12.8s-5.8-8.1-8.7-12.2-5.8-8.2-8.7-12.3-5.8-8.2-8.7-12.3c-.7-1-1.5-2.1-2.2-3.1s-1.7-1.5-2.9-1.3c-1.3.2-1.8 1.2-2.5 2.2-.8 1-1.5 2.1-2.2 3.1-2.9 4.1-5.8 8.2-8.8 12.3-2.9 4.1-5.8 8.2-8.7 12.3s-5.8 8.1-8.7 12.2c-1.5 2-3 4.1-4.3 6.2-1.4 2.2-2.6 4.4-3.6 6.8-2 4.9-3 10.3-2.9 15.6.1 5 1.1 9.9 3 14.4s4.5 8.6 7.9 12.1c1.7 1.8 3.6 3.5 5.5 5.3s3.8 3.6 5.8 5.4c3.9 3.7 7.6 7.4 11.5 11.1 1.6 1.5 4.6 3 4.6 4.6v28c0 1 1.3 2.3 2.3 2.3h3.3c1 0-.6-1.3-.6-2.3v-28c6-3.7 9-7.3 12.9-11 1.9-1.8 4.4-3.5 6.3-5.3h.3c1.9-1.8 4-3.6 5.9-5.4 1.8-1.7 3.8-3.4 5.5-5.3 3.2-3.6 5.9-7.8 7.6-12.3 1.8-4.7 2.7-9.7 2.7-14.7-.2-5.4-1.4-10.7-3.5-15.6z"/><path d="m732.8 929.4s.1 0 0 0z"/></g><path d="m709 822.3s1.2 0 1 0c-1.3.2-1.1 1.2-1.8 2.2-.8 1-1.1 2.1-1.8 3.1-2.9 4.1-5.6 8.2-8.6 12.3-2.9 4.1-5.7 8.2-8.6 12.3s-5.7 8.1-8.6 12.2c-1.5 2-2.9 4.1-4.3 6.2-1.4 2.2-2.6 4.4-3.6 6.8-2 4.9-3 10.3-2.9 15.6.1 5 1.1 9.9 3 14.4s4.5 8.6 7.9 12.1c1.7 1.8 3.6 3.5 5.5 5.3s3.8 3.6 5.8 5.4c3.9 3.7 7.6 7.4 11.5 11.1 1.6 1.5 4.6 3 4.6 4.6v28c0 1 1.3 2.3 2.3 2.3h-1.4z" fill="#fff"/><path d="m890.3 876.3c-2.1-4.7-5.2-8.7-8.1-12.8s-5.8-8.1-8.7-12.2-5.8-8.2-8.7-12.3-5.8-8.2-8.7-12.3c-.7-1-1.5-2.1-2.2-3.1s-1.7-1.5-2.9-1.3c-1.3.2-1.8 1.2-2.5 2.2-.8 1-1.5 2.1-2.2 3.1-2.9 4.1-5.8 8.2-8.8 12.3-2.9 4.1-5.8 8.2-8.7 12.3s-5.8 8.1-8.7 12.2c-1.5 2-3 4.1-4.3 6.2-1.4 2.2-2.6 4.4-3.6 6.8-2 4.9-3 10.3-2.9 15.6.1 5 1.1 9.9 3 14.4s4.5 8.6 7.9 12.1c1.7 1.8 3.6 3.5 5.5 5.3s3.8 3.6 5.8 5.4c3.9 3.7 7.9 7.4 11.9 11.1 1.6 1.5 1.9 3 4.9 4.6v28c0 1 .7 2.3 1.7 2.3h3.3c1 0 1-1.3 1-2.3v-28c3-3.7 8.2-7.3 12.1-11 1.9-1.8 4-3.5 5.9-5.3h.1c1.9-1.8 3.9-3.6 5.8-5.4 1.8-1.7 3.7-3.4 5.4-5.3 3.2-3.6 5.8-7.8 7.6-12.3 1.8-4.7 2.7-9.7 2.7-14.7-.4-5.4-1.5-10.7-3.6-15.6z" fill="#eac300"/><path d="m853 822.3s-1.1 0-1.3 0c-1.3.2-2.3 1.2-3 2.2-.8 1-1.7 2.1-2.4 3.1-2.9 4.1-5.9 8.2-8.9 12.3-2.9 4.1-5.9 8.2-8.8 12.3s-5.8 8.1-8.7 12.2c-1.5 2-3 4.1-4.4 6.2-1.4 2.2-2.6 4.4-3.6 6.8-2 4.9-3 10.3-2.9 15.6.1 5 1.1 9.9 3 14.4s4.5 8.6 7.9 12.1c1.7 1.8 3.6 3.5 5.5 5.3s3.8 3.6 5.8 5.4c3.9 3.7 7.9 7.4 11.9 11.1 1.6 1.5 1.9 3 4.9 4.6v28c0 1 .7 2.3 1.7 2.3h3.3z" fill="#fff" opacity=".5"/><path d="m784.9 949.4h-6.6c-.9 0-1.6-.7-1.6-1.6v-98.2c0-.9.7-1.6 1.6-1.6h6.6c.9 0 1.6.7 1.6 1.6v98.2c.1.8-.7 1.6-1.6 1.6z" fill="#fff"/><circle cx="1183.8" cy="817.7" fill="#e24f4b" r="225.4"/><path d="m1180.6 1043.1c-124.3-1.8-224-104.3-222.2-228.6s104.3-224 228.6-222.2 224 104.3 222.2 228.6-104.3 224-228.6 222.2zm6.2-437.8c-117.1-1.7-213.8 92.3-215.4 209.4-1.7 117.1 92.3 213.8 209.4 215.4 117.1 1.7 213.8-92.3 215.4-209.4 1.7-117.1-92.2-213.8-209.4-215.4z" fill="#fff" opacity=".5"/><g fill="#fff" opacity=".5"><path d="m1137.7 792.9c-3.1-7-7.8-13.1-12.2-19.3-4.3-6.1-8.7-12.2-13-18.3-4.4-6.1-8.7-12.3-13.1-18.4s-8.8-12.3-13.1-18.4c-1.1-1.6-2.2-3.1-3.3-4.7-1-1.4-2.5-2.3-4.3-2-1.9.3-2.8 1.8-3.8 3.2-1.1 1.5-2.2 3.1-3.3 4.7-4.4 6.2-8.7 12.3-13.1 18.4s-8.7 12.3-13.1 18.4-8.7 12.2-13 18.3c-2.2 3.1-4.5 6.1-6.5 9.2-2.1 3.2-3.9 6.7-5.4 10.2-3 7.4-4.5 15.4-4.4 23.4.1 7.4 1.7 14.8 4.5 21.7 2.8 6.7 6.8 12.9 11.8 18.2 2.6 2.8 5.5 5.3 8.2 7.9 2.9 2.7 5.8 5.4 8.6 8.1 5.9 5.5 12.2 11.1 18.1 16.6 2.4 2.3 7.7 4.6 7.7 6.8v42c0 1.5.3 4 1.9 4h4.9c1.5 0 1.2-2.4 1.2-4v-42c10-5.5 12.5-11 18.3-16.5 2.8-2.7 6-5.3 8.9-8h.2c2.9-2.7 5.9-5.4 8.8-8.2 2.7-2.6 5.6-5.1 8.1-7.9 4.8-5.4 8.8-11.7 11.4-18.5 2.7-7 4.1-14.5 4-22-.1-7.7-1.8-15.6-5-22.9z"/><path d="m1110.6 872.6s.1-.1 0 0z"/></g><path d="m1077 711.8s.7 0 .5.1c-1.9.3-2.2 1.8-3.2 3.2-1.1 1.5-1.9 3.1-3 4.7-4.4 6.2-8.6 12.3-13 18.4s-8.6 12.3-13 18.4-8.7 12.2-13 18.3c-2.2 3.1-4.4 6.1-6.5 9.2-2.1 3.2-3.9 6.7-5.4 10.2-3 7.4-4.5 15.4-4.4 23.4.1 7.4 1.7 14.8 4.5 21.7 2.8 6.7 6.8 12.9 11.8 18.2 2.6 2.8 5.5 5.3 8.2 7.9 2.9 2.7 5.8 5.4 8.6 8.1 5.9 5.5 12.2 11.1 18.1 16.6 2.4 2.3 7.7 4.6 7.7 6.8v42c0 1.5.3 4 1.9 4h.1v-231.2z" fill="#fff"/><path d="m1346.7 792.9c-3.1-7-7.8-13.1-12.2-19.3-4.3-6.1-8.7-12.2-13-18.3-4.4-6.1-8.7-12.3-13.1-18.4s-8.8-12.3-13.1-18.4c-1.1-1.6-2.2-3.1-3.3-4.7-1-1.4-2.5-2.3-4.3-2-1.9.3-2.8 1.8-3.8 3.2-1.1 1.5-2.2 3.1-3.3 4.7-4.4 6.2-8.7 12.3-13.1 18.4s-8.7 12.3-13.1 18.4-8.7 12.2-13 18.3c-2.2 3.1-4.5 6.1-6.5 9.2-2.1 3.2-3.9 6.7-5.4 10.2-3 7.4-4.5 15.4-4.4 23.4.1 7.4 1.7 14.8 4.5 21.7 2.8 6.7 6.8 12.9 11.8 18.2 2.6 2.8 5.5 5.3 8.2 7.9 2.9 2.7 5.8 5.4 8.6 8.1 5.9 5.5 12.7 11.1 18.6 16.6 2.4 2.3 4.2 4.6 8.2 6.8v42c0 1.5-.6 4 .9 4h4.9c1.5 0 2.2-2.4 2.2-4v-42c6-5.5 12-11 17.8-16.5 2.8-2.7 5.8-5.3 8.6-8h.1c2.9-2.7 5.8-5.4 8.7-8.2 2.7-2.6 5.6-5.1 8.1-7.9 4.8-5.4 8.7-11.7 11.4-18.5 2.7-7 4.1-14.5 4-22-.1-7.7-1.8-15.6-5-22.9z" fill="#eac300"/><path d="m1319.6 872.6s.1-.1 0 0z" fill="#fff"/><path d="m1292 711.8s-2.3 0-2.5.1c-1.9.3-3.7 1.8-4.7 3.2-1.1 1.5-2.7 3.1-3.8 4.7-4.4 6.2-9 12.3-13.4 18.4s-8.8 12.3-13.2 18.4-8.7 12.2-13.1 18.3c-2.2 3.1-4.5 6.1-6.6 9.2-2.1 3.2-4 6.7-5.4 10.2-3 7.4-4.5 15.4-4.4 23.4.1 7.4 1.7 14.8 4.5 21.7 2.8 6.7 6.8 12.9 11.8 18.2 2.6 2.8 5.5 5.3 8.2 7.9 2.9 2.7 5.8 5.4 8.6 8.1 5.9 5.5 12.7 11.1 18.6 16.6 2.4 2.3 4.2 4.6 8.2 6.8v42c0 1.5-.6 4 .9 4h6.1v-231.2z" fill="#fff" opacity=".5"/><path d="m1189.6 902.5h-11.5c-.9 0-1.6-.7-1.6-1.6v-149c0-.9.7-1.6 1.6-1.6h11.5c.9 0 1.6.7 1.6 1.6v148.9c0 .9-.7 1.7-1.6 1.7z" fill="#fff"/><circle cx="1773.9" cy="705" fill="#e24f4b" r="338.1"/><path d="m1769.1 1043.1c-186.4-2.6-336-156.5-333.3-342.9s156.5-336 342.9-333.3c186.4 2.6 336 156.5 333.3 342.9s-156.5 335.9-342.9 333.3zm9.3-656.8c-175.7-2.5-320.7 138.4-323.2 314.2-2.5 175.7 138.4 320.7 314.2 323.2s320.7-138.4 323.2-314.2-138.5-320.7-314.2-323.2z" fill="#fff" opacity=".5"/><g fill="#fff" opacity=".5"><path d="m1704.7 667.8c-4.6-10.5-11.6-19.6-18.3-28.9-6.5-9.1-13-18.3-19.6-27.4-6.5-9.2-13.1-18.4-19.6-27.6-6.6-9.2-13.1-18.4-19.7-27.6-1.7-2.3-3.3-4.7-5-7-1.5-2.1-3.8-3.5-6.5-3-2.8.5-4.1 2.7-5.7 4.8-1.7 2.3-3.3 4.7-5 7-6.5 9.2-13.1 18.4-19.7 27.6s-13.1 18.4-19.6 27.6c-6.5 9.1-13 18.3-19.6 27.4-3.3 4.6-6.7 9.1-9.8 13.9-3.2 4.8-5.9 10-8.1 15.4-4.5 11.1-6.8 23.1-6.6 35.1.2 11.1 2.5 22.2 6.8 32.5 4.2 10.1 10.2 19.3 17.7 27.3 3.9 4.2 8.2 8 12.3 11.9 4.3 4.1 8.6 8.1 13 12.2 8.8 8.3 18 16.6 26.9 24.9 3.6 3.4 11.3 6.8 11.3 10.3v63c0 2.3 1.2 5 3.4 5h7.4c2.3 0 .2-2.7.2-5v-63c15-8.3 19.5-16.5 28.3-24.7 4.2-4 9.5-8 13.7-11.9h.5c4.4-4 8.9-8.2 13.3-12.2 4.1-3.9 8.5-7.6 12.2-11.8 7.3-8.1 13.2-17.5 17.1-27.7 4.1-10.5 6.1-21.7 6-33 0-12.3-2.5-24.2-7.3-35.1z"/><path d="m1664.1 787.3c-.1 0 .1-.1 0 0z"/></g><path d="m1613 546.2s1.4 0 1 .1c-2.8.5-3.1 2.7-4.7 4.8-1.7 2.3-2.8 4.7-4.5 7-6.5 9.2-12.9 18.4-19.4 27.6-6.6 9.2-12.9 18.4-19.5 27.6-6.5 9.1-13 18.3-19.5 27.4-3.3 4.6-6.7 9.1-9.8 13.9-3.2 4.8-5.9 10-8.1 15.4-4.5 11.1-6.8 23.1-6.6 35.1.2 11.1 2.5 22.2 6.8 32.5 4.2 10.1 10.2 19.3 17.7 27.3 3.9 4.2 8.2 8 12.4 11.9 4.3 4.1 8.6 8.1 13 12.2 8.8 8.3 18 16.6 26.9 24.9 3.6 3.4 11.3 6.8 11.3 10.3v63c0 2.3 1.2 5 3.4 5h-.4z" fill="#fff"/><path d="m2018.2 667.8c-4.6-10.5-11.6-19.6-18.3-28.9-6.5-9.1-13-18.3-19.6-27.4-6.5-9.2-13.1-18.4-19.6-27.6-6.6-9.2-13.1-18.4-19.7-27.6-1.7-2.3-3.3-4.7-5-7-1.5-2.1-3.8-3.5-6.5-3-2.8.5-4.1 2.7-5.7 4.8-1.7 2.3-3.3 4.7-5 7-6.5 9.2-13.1 18.4-19.7 27.6s-13.1 18.4-19.6 27.6c-6.5 9.1-13 18.3-19.6 27.4-3.3 4.6-6.7 9.1-9.8 13.9-3.2 4.8-5.9 10-8.1 15.4-4.5 11.1-6.8 23.1-6.6 35.1.2 11.1 2.5 22.2 6.8 32.5 4.2 10.1 10.2 19.3 17.7 27.3 3.9 4.2 8.2 8 12.3 11.9 4.3 4.1 8.6 8.1 13 12.2 8.8 8.3 18.8 16.6 27.6 24.9 3.6 3.4 5 6.8 12 10.3v63c0 2.3-.3 5 2 5h7.4c2.3 0 2.6-2.7 2.6-5v-63c10-8.3 18.3-16.5 27.1-24.7 4.2-4 8.8-8 13.1-11.9h.2c4.4-4 8.8-8.2 13.1-12.2 4.1-3.9 8.4-7.6 12.1-11.8 7.3-8.1 13.1-17.5 17.1-27.7 4.1-10.5 6.1-21.7 6-33 .1-12.3-2.5-24.2-7.3-35.1z" fill="#eac300"/><path d="m1977.6 787.3s.1-.1 0 0z" fill="#fff"/><path d="m1935 546.2s-2.9 0-3.2.1c-2.8.5-5.2 2.7-6.8 4.8-1.7 2.3-3.9 4.7-5.5 7-6.5 9.2-13.4 18.4-20 27.6s-13.2 18.4-19.8 27.6c-6.5 9.1-13.1 18.3-19.6 27.4-3.3 4.6-6.7 9.1-9.8 13.9-3.2 4.8-5.9 10-8.1 15.4-4.5 11.1-6.8 23.1-6.6 35.1.2 11.1 2.5 22.2 6.8 32.5 4.2 10.1 10.2 19.3 17.7 27.3 3.9 4.2 8.2 8 12.3 11.9 4.3 4.1 8.6 8.1 13 12.2 8.8 8.3 18.8 16.6 27.6 24.9 3.6 3.4 5 6.8 12 10.3v63c0 2.3-.3 5 2 5h8z" fill="#fff" opacity=".5"/><path d="m1783.3 832.1h-18.8c-.9 0-1.6-.7-1.6-1.6v-225c0-.9.7-1.6 1.6-1.6h18.8c.9 0 1.6.7 1.6 1.6v225c0 .9-.7 1.6-1.6 1.6z" fill="#fff"/></svg>