<?xml version="1.0" encoding="utf-8"?>
<!-- Generator: Adobe Illustrator 19.1.0, SVG Export Plug-In . SVG Version: 6.00 Build 0)  -->
<svg version="1.1" id="Layer_1" xmlns="http://www.w3.org/2000/svg" xmlns:xlink="http://www.w3.org/1999/xlink" x="0px" y="0px"
	 viewBox="0 0 2240.9 1410" enable-background="new 0 0 2240.9 1410" xml:space="preserve">
<g>
	<circle fill="#E24F4B" cx="2747.7" cy="-527.9" r="569.5"/>
	<path opacity="0.5" fill="#FFFFFF" d="M2739.6,41.6c-314-4.4-565.9-263.5-561.4-577.5s263.5-565.9,577.5-561.4
		s565.9,263.5,561.4,577.5C3312.7-205.9,3053.6,46,2739.6,41.6z M2755.2-1064.6c-295.9-4.2-540.1,233.2-544.3,529.1
		c-4.2,295.9,233.2,540.1,529.1,544.3s540.1-233.2,544.3-529.1C3288.5-816.3,3051.2-1060.4,2755.2-1064.6z"/>
</g>
<g>
	<rect x="0.9" y="-2.5" fill="#6C6B96" width="2239.2" height="1414.9"/>
	<g>
		<g>
			<circle fill="#E24F4B" cx="173.5" cy="998.6" r="44.5"/>
			<path opacity="0.5" fill="#FFFFFF" d="M172.8,1043.1c-24.6-0.3-44.2-20.6-43.9-45.2s20.6-44.2,45.2-43.9
				c24.6,0.3,44.2,20.6,43.9,45.2S197.4,1043.5,172.8,1043.1z M174.1,956.7c-23.1-0.3-42.2,18.2-42.6,41.4
				c-0.3,23.1,18.2,42.2,41.4,42.6s42.2-18.2,42.6-41.4C215.8,976.1,197.2,957,174.1,956.7z"/>
			<g>
				<g>
					<g opacity="0.5">
						<path fill="#FFFFFF" d="M164.4,993.7c-0.6-1.4-1.5-2.6-2.4-3.8c-0.9-1.2-1.7-2.4-2.6-3.6c-0.9-1.2-1.7-2.4-2.6-3.6
							c-0.9-1.2-1.7-2.4-2.6-3.6c-0.2-0.3-0.4-0.6-0.7-0.9c-0.2-0.3-0.5-0.5-0.9-0.4c-0.4,0.1-0.5,0.4-0.8,0.6
							c-0.2,0.3-0.4,0.6-0.7,0.9c-0.9,1.2-1.7,2.4-2.6,3.6c-0.9,1.2-1.7,2.4-2.6,3.6c-0.9,1.2-1.7,2.4-2.6,3.6
							c-0.4,0.6-0.9,1.2-1.3,1.8c-0.4,0.6-0.8,1.3-1.1,2c-0.6,1.5-0.9,3-0.9,4.6c0,1.5,0.3,2.9,0.9,4.3c0.6,1.3,1.3,2.5,2.3,3.6
							c0.5,0.5,1.1,1,1.6,1.6c0.6,0.5,1.1,1.1,1.7,1.6c1.2,1.1,1.9,2.2,3.1,3.3c0.5,0.5,1,0.9,1,1.4v8.3c0,0.3,1,1.4,1.3,1.4h1
							c0.3,0-1.3-1.1-1.3-1.4v-8.3c2-1.1,3.2-2.2,4.4-3.3c0.6-0.5,1.6-1,2.1-1.6c0,0,0.2,0,0.2,0c0.6-0.5,1.3-1.1,1.8-1.6
							c0.5-0.5,1.2-1,1.7-1.6c1-1.1,1.8-2.3,2.3-3.6c0.5-1.4,0.8-2.9,0.8-4.3C165.3,996.7,165,995.2,164.4,993.7z"/>
						<path fill="#FFFFFF" d="M159,1009.5C159,1009.5,159,1009.5,159,1009.5C159,1009.5,159,1009.4,159,1009.5z"/>
					</g>
					<path fill="#FFFFFF" d="M152,977.7c0,0,0.3,0,0.3,0c-0.4,0.1-0.3,0.4-0.5,0.6c-0.2,0.3-0.3,0.6-0.6,0.9
						c-0.9,1.2-1.7,2.4-2.5,3.6c-0.9,1.2-1.7,2.4-2.6,3.6c-0.9,1.2-1.7,2.4-2.6,3.6c-0.4,0.6-0.9,1.2-1.3,1.8
						c-0.4,0.6-0.8,1.3-1.1,2c-0.6,1.5-0.9,3-0.9,4.6c0,1.5,0.3,2.9,0.9,4.3c0.6,1.3,1.3,2.5,2.3,3.6c0.5,0.5,1.1,1,1.6,1.6
						c0.6,0.5,1.1,1.1,1.7,1.6c1.2,1.1,1.9,2.2,3.1,3.3c0.5,0.5,1,0.9,1,1.4v8.3c0,0.3,1,1.4,1.3,1.4H152V977.7z"/>
				</g>
				<g>
					<g>
						<path fill="#EAC300" d="M205.6,993.7c-0.6-1.4-1.5-2.6-2.4-3.8c-0.9-1.2-1.7-2.4-2.6-3.6c-0.9-1.2-1.7-2.4-2.6-3.6
							c-0.9-1.2-1.7-2.4-2.6-3.6c-0.2-0.3-0.4-0.6-0.7-0.9c-0.2-0.3-0.5-0.5-0.9-0.4c-0.4,0.1-0.5,0.4-0.8,0.6
							c-0.2,0.3-0.4,0.6-0.7,0.9c-0.9,1.2-1.7,2.4-2.6,3.6c-0.9,1.2-1.7,2.4-2.6,3.6c-0.9,1.2-1.7,2.4-2.6,3.6
							c-0.4,0.6-0.9,1.2-1.3,1.8c-0.4,0.6-0.8,1.3-1.1,2c-0.6,1.5-0.9,3-0.9,4.6c0,1.5,0.3,2.9,0.9,4.3c0.6,1.3,1.3,2.5,2.3,3.6
							c0.5,0.5,1.1,1,1.6,1.6c0.6,0.5,1.1,1.1,1.7,1.6c1.2,1.1,2.3,2.2,3.5,3.3c0.5,0.5,0.4,0.9,1.4,1.4v8.3c0,0.3,0.3,1.4,0.6,1.4
							h1c0.3,0,0.4-1.1,0.4-1.4v-8.3c1-1.1,2.4-2.2,3.5-3.3c0.6-0.5,1.2-1,1.7-1.6c0,0,0,0,0,0c0.6-0.5,1.2-1.1,1.7-1.6
							c0.5-0.5,1.1-1,1.6-1.6c1-1.1,1.7-2.3,2.2-3.6c0.5-1.4,0.8-2.9,0.8-4.3C206.6,996.7,206.3,995.2,205.6,993.7z"/>
						<path fill="#FFFFFF" d="M200.3,1009.5C200.3,1009.5,200.3,1009.5,200.3,1009.5C200.3,1009.5,200.3,1009.4,200.3,1009.5z"/>
					</g>
					<path opacity="0.5" fill="#FFFFFF" d="M194,977.7C194,977.7,194,977.7,194,977.7c-0.5,0.1-0.6,0.4-0.8,0.6
						c-0.2,0.3-0.4,0.6-0.6,0.9c-0.9,1.2-1.7,2.4-2.6,3.6c-0.9,1.2-1.7,2.4-2.6,3.6c-0.9,1.2-1.7,2.4-2.6,3.6
						c-0.4,0.6-0.9,1.2-1.3,1.8c-0.4,0.6-0.8,1.3-1.1,2c-0.6,1.5-0.9,3-0.9,4.6c0,1.5,0.3,2.9,0.9,4.3c0.6,1.3,1.3,2.5,2.3,3.6
						c0.5,0.5,1.1,1,1.6,1.6c0.6,0.5,1.1,1.1,1.7,1.6c1.2,1.1,2.3,2.2,3.5,3.3c0.5,0.5,0.4,0.9,1.4,1.4v8.3c0,0.3,0.3,1.4,0.6,1.4
						h0.4V977.7z"/>
				</g>
			</g>
			<path fill="#FFFFFF" d="M173.5,1015.4L173.5,1015.4c-0.8,0-1.5-0.7-1.5-1.5v-27.2c0-0.8,0.7-1.5,1.5-1.5l0,0
				c0.8,0,1.5,0.7,1.5,1.5v27.2C174.9,1014.7,174.3,1015.4,173.5,1015.4z"/>
		</g>
		<g>
			<circle fill="#E24F4B" cx="311.2" cy="976.4" r="66.8"/>
			<path opacity="0.5" fill="#FFFFFF" d="M310.3,1043.1c-36.8-0.5-66.4-30.9-65.8-67.7c0.5-36.8,30.9-66.4,67.7-65.8
				s66.4,30.9,65.8,67.7S347.1,1043.7,310.3,1043.1z M312.1,913.4c-34.7-0.5-63.3,27.3-63.8,62.1s27.3,63.3,62.1,63.8
				c34.7,0.5,63.3-27.3,63.8-62.1C374.7,942.5,346.8,913.9,312.1,913.4z"/>
			<g>
				<g>
					<g opacity="0.5">
						<path fill="#FFFFFF" d="M297.6,969c-0.9-2.1-2.3-3.9-3.6-5.7c-1.3-1.8-2.6-3.6-3.9-5.4c-1.3-1.8-2.6-3.6-3.9-5.4
							c-1.3-1.8-2.6-3.6-3.9-5.5c-0.3-0.5-0.7-0.9-1-1.4c-0.3-0.4-0.7-0.7-1.3-0.6c-0.6,0.1-0.8,0.5-1.1,1c-0.3,0.5-0.7,0.9-1,1.4
							c-1.3,1.8-2.6,3.6-3.9,5.5c-1.3,1.8-2.6,3.6-3.9,5.4c-1.3,1.8-2.6,3.6-3.9,5.4c-0.6,0.9-1.3,1.8-1.9,2.7c-0.6,1-1.2,2-1.6,3
							c-0.9,2.2-1.3,4.6-1.3,6.9c0,2.2,0.5,4.4,1.3,6.4c0.8,2,2,3.8,3.5,5.4c0.8,0.8,1.6,1.6,2.4,2.3c0.9,0.8,1.7,1.6,2.6,2.4
							c1.7,1.6,3.1,3.3,4.9,4.9c0.7,0.7,1.8,1.4,1.8,2v12.4c0,0.5,1.1,1.7,1.6,1.7h1.5c0.5,0-1-1.3-1-1.7v-12.4
							c2-1.6,4.4-3.3,6.1-4.9c0.8-0.8,2.1-1.6,3-2.4c0,0,0.2,0,0.2,0c0.9-0.8,1.8-1.6,2.7-2.4c0.8-0.8,1.7-1.5,2.4-2.3
							c1.4-1.6,2.6-3.5,3.4-5.5c0.8-2.1,1.2-4.3,1.2-6.5C299,973.5,298.5,971.2,297.6,969z"/>
						<path fill="#FFFFFF" d="M289.6,992.6C289.6,992.6,289.6,992.6,289.6,992.6C289.6,992.6,289.6,992.6,289.6,992.6z"/>
					</g>
					<path fill="#FFFFFF" d="M279,945c0,0,0.5,0,0.4,0c-0.6,0.1-0.5,0.5-0.8,1c-0.3,0.5-0.5,0.9-0.8,1.4c-1.3,1.8-2.5,3.6-3.8,5.5
						c-1.3,1.8-2.5,3.6-3.8,5.4c-1.3,1.8-2.6,3.6-3.8,5.4c-0.6,0.9-1.3,1.8-1.9,2.7c-0.6,1-1.2,2-1.6,3c-0.9,2.2-1.3,4.6-1.3,6.9
						c0,2.2,0.5,4.4,1.3,6.4c0.8,2,2,3.8,3.5,5.4c0.8,0.8,1.6,1.6,2.4,2.3c0.9,0.8,1.7,1.6,2.6,2.4c1.7,1.6,3.1,3.3,4.9,4.9
						c0.7,0.7,1.8,1.4,1.8,2v12.4c0,0.5,1.1,1.7,1.6,1.7H279V945z"/>
				</g>
				<g>
					<g>
						<path fill="#EAC300" d="M359.5,969c-0.9-2.1-2.3-3.9-3.6-5.7c-1.3-1.8-2.6-3.6-3.9-5.4c-1.3-1.8-2.6-3.6-3.9-5.4
							c-1.3-1.8-2.6-3.6-3.9-5.5c-0.3-0.5-0.7-0.9-1-1.4c-0.3-0.4-0.7-0.7-1.3-0.6c-0.6,0.1-0.8,0.5-1.1,1c-0.3,0.5-0.7,0.9-1,1.4
							c-1.3,1.8-2.6,3.6-3.9,5.5c-1.3,1.8-2.6,3.6-3.9,5.4c-1.3,1.8-2.6,3.6-3.9,5.4c-0.6,0.9-1.3,1.8-1.9,2.7c-0.6,1-1.2,2-1.6,3
							c-0.9,2.2-1.3,4.6-1.3,6.9c0,2.2,0.5,4.4,1.3,6.4c0.8,2,2,3.8,3.5,5.4c0.8,0.8,1.6,1.6,2.4,2.3c0.9,0.8,1.7,1.6,2.6,2.4
							c1.7,1.6,3.7,3.3,5.4,4.9c0.7,0.7,1.3,1.4,2.3,2v12.4c0,0.5,0,1.7,0.5,1.7h1.5c0.5,0,0.1-1.3,0.1-1.7v-12.4
							c1-1.6,3.9-3.3,5.6-4.9c0.8-0.8,1.9-1.6,2.7-2.4c0,0,0.1,0,0.1,0c0.9-0.8,1.8-1.6,2.6-2.4c0.8-0.8,1.7-1.5,2.4-2.3
							c1.4-1.6,2.6-3.5,3.4-5.5c0.8-2.1,1.2-4.3,1.2-6.5C361,973.5,360.5,971.2,359.5,969z"/>
						<path fill="#FFFFFF" d="M351.5,992.6C351.5,992.6,351.5,992.6,351.5,992.6C351.5,992.6,351.5,992.6,351.5,992.6z"/>
					</g>
					<path opacity="0.5" fill="#FFFFFF" d="M342,945C342,945,342,945,342,945c-0.7,0.1-0.9,0.6-1.2,1c-0.3,0.5-0.6,0.9-1,1.4
						c-1.3,1.8-2.6,3.6-3.9,5.5c-1.3,1.8-2.6,3.6-3.9,5.4c-1.3,1.8-2.6,3.6-3.9,5.4c-0.6,0.9-1.3,1.8-1.9,2.7c-0.6,1-1.2,2-1.6,3
						c-0.9,2.2-1.3,4.6-1.3,6.9c0,2.2,0.5,4.4,1.3,6.4c0.8,2,2,3.8,3.5,5.4c0.8,0.8,1.6,1.6,2.4,2.3c0.9,0.8,1.7,1.6,2.6,2.4
						c1.7,1.6,3.7,3.3,5.4,4.9c0.7,0.7,1.3,1.4,2.3,2v12.4c0,0.5,0,1.7,0.5,1.7h0.5V945z"/>
				</g>
			</g>
			<path fill="#FFFFFF" d="M311.8,1001.5h-1.1c-0.9,0-1.6-0.7-1.6-1.6V958c0-0.9,0.7-1.6,1.6-1.6h1.1c0.9,0,1.6,0.7,1.6,1.6v41.8
				C313.4,1000.7,312.7,1001.5,311.8,1001.5z"/>
		</g>
		<g>
			<circle fill="#E24F4B" cx="504.7" cy="943" r="100.2"/>
			<path opacity="0.5" fill="#FFFFFF" d="M503.3,1043.1c-55.2-0.8-99.5-46.4-98.8-101.6c0.8-55.2,46.4-99.5,101.6-98.8
				s99.5,46.4,98.8,101.6C604.1,999.6,558.5,1043.9,503.3,1043.1z M506,848.5c-52.1-0.7-95,41-95.8,93.1c-0.7,52.1,41,95,93.1,95.8
				s95-41,95.8-93.1C599.9,892.2,558.1,849.3,506,848.5z"/>
			<g>
				<g>
					<g opacity="0.5">
						<path fill="#FFFFFF" d="M484.2,931.9c-1.4-3.1-3.4-5.8-5.4-8.6c-1.9-2.7-3.9-5.4-5.8-8.1c-1.9-2.7-3.9-5.4-5.8-8.2
							c-1.9-2.7-3.9-5.5-5.8-8.2c-0.5-0.7-1-1.4-1.5-2.1c-0.5-0.6-1.1-1-1.9-0.9c-0.8,0.1-1.2,0.8-1.7,1.4c-0.5,0.7-1,1.4-1.5,2.1
							c-1.9,2.7-3.9,5.5-5.8,8.2c-1.9,2.7-3.9,5.5-5.8,8.2c-1.9,2.7-3.9,5.4-5.8,8.1c-1,1.4-2,2.7-2.9,4.1c-0.9,1.4-1.7,3-2.4,4.6
							c-1.3,3.3-2,6.8-1.9,10.4c0.1,3.3,0.7,6.6,2,9.6c1.2,3,3,5.7,5.2,8.1c1.2,1.2,2.4,2.4,3.7,3.5c1.3,1.2,2.6,2.4,3.8,3.6
							c2.6,2.5,5.3,4.9,7.9,7.4c1.1,1,3.3,2,3.3,3v18.7c0,0.7,0.5,1.1,1.2,1.1h2.2c0.7,0,0.6-0.5,0.6-1.1v-18.7
							c5-2.5,5.5-4.9,8.1-7.3c1.3-1.2,2.7-2.4,3.9-3.5c0,0,0.1,0,0.1,0c1.3-1.2,2.6-2.4,3.9-3.6c1.2-1.1,2.5-2.3,3.6-3.5
							c2.2-2.4,3.9-5.2,5.1-8.2c1.2-3.1,1.8-6.4,1.8-9.8C486.4,938.7,485.6,935.2,484.2,931.9z"/>
						<path fill="#FFFFFF" d="M472.2,967.3C472.2,967.3,472.2,967.3,472.2,967.3C472.2,967.3,472.2,967.3,472.2,967.3z"/>
					</g>
					<path fill="#FFFFFF" d="M457,895.9c0,0,0.4,0,0.3,0c-0.8,0.1-0.9,0.8-1.4,1.4c-0.5,0.7-0.8,1.4-1.3,2.1
						c-1.9,2.7-3.8,5.5-5.8,8.2c-1.9,2.7-3.8,5.5-5.8,8.2c-1.9,2.7-3.8,5.4-5.8,8.1c-1,1.4-2,2.7-2.9,4.1c-0.9,1.4-1.7,3-2.4,4.6
						c-1.3,3.3-2,6.8-1.9,10.4c0.1,3.3,0.7,6.6,2,9.6c1.2,3,3,5.7,5.2,8.1c1.2,1.2,2.4,2.4,3.7,3.5c1.3,1.2,2.6,2.4,3.8,3.6
						c2.6,2.5,5.3,4.9,7.9,7.4c1.1,1,3.3,2,3.3,3v18.7c0,0.7,0.5,1.1,1.2,1.1H457V895.9z"/>
				</g>
				<g>
					<g>
						<path fill="#EAC300" d="M577.1,931.9c-1.4-3.1-3.4-5.8-5.4-8.6c-1.9-2.7-3.9-5.4-5.8-8.1c-1.9-2.7-3.9-5.4-5.8-8.2
							c-1.9-2.7-3.9-5.5-5.8-8.2c-0.5-0.7-1-1.4-1.5-2.1c-0.5-0.6-1.1-1-1.9-0.9c-0.8,0.1-1.2,0.8-1.7,1.4c-0.5,0.7-1,1.4-1.5,2.1
							c-1.9,2.7-3.9,5.5-5.8,8.2c-1.9,2.7-3.9,5.5-5.8,8.2c-1.9,2.7-3.9,5.4-5.8,8.1c-1,1.4-2,2.7-2.9,4.1c-0.9,1.4-1.7,3-2.4,4.6
							c-1.3,3.3-2,6.8-1.9,10.4c0.1,3.3,0.7,6.6,2,9.6c1.2,3,3,5.7,5.2,8.1c1.2,1.2,2.4,2.4,3.7,3.5c1.3,1.2,2.6,2.4,3.8,3.6
							c2.6,2.5,6.3,4.9,8.9,7.4c1.1,1,2.3,2,4.3,3v18.7c0,0.7-1.6,1.1-0.9,1.1h2.2c0.7,0,0.7-0.5,0.7-1.1v-18.7c3-2.5,5.4-4.9,8-7.3
							c1.3-1.2,2.6-2.4,3.9-3.5c0,0,0.1,0,0.1,0c1.3-1.2,2.6-2.4,3.9-3.6c1.2-1.1,2.5-2.3,3.6-3.5c2.2-2.4,3.9-5.2,5.1-8.2
							c1.2-3.1,1.8-6.4,1.8-9.8C579.3,938.7,578.5,935.2,577.1,931.9z"/>
						<path fill="#FFFFFF" d="M565.1,967.3C565.1,967.3,565.1,967.3,565.1,967.3C565,967.3,565.1,967.3,565.1,967.3z"/>
					</g>
					<path opacity="0.5" fill="#FFFFFF" d="M552,895.9c0,0-0.6,0-0.7,0c-0.8,0.1-1.4,0.8-1.9,1.4c-0.5,0.7-1.1,1.4-1.6,2.1
						c-1.9,2.7-3.9,5.5-5.9,8.2c-1.9,2.7-3.9,5.5-5.8,8.2c-1.9,2.7-3.9,5.4-5.8,8.1c-1,1.4-2,2.7-2.9,4.1c-0.9,1.4-1.8,3-2.4,4.6
						c-1.3,3.3-2,6.8-1.9,10.4c0.1,3.3,0.7,6.6,2,9.6c1.2,3,3,5.7,5.2,8.1c1.2,1.2,2.4,2.4,3.7,3.5c1.3,1.2,2.6,2.4,3.8,3.6
						c2.6,2.5,6.3,4.9,8.9,7.4c1.1,1,2.3,2,4.3,3v18.7c0,0.7-1.6,1.1-0.9,1.1h1.9V895.9z"/>
				</g>
			</g>
			<path fill="#FFFFFF" d="M506.3,980.6h-3.3c-0.9,0-1.6-0.7-1.6-1.6v-64.4c0-0.9,0.7-1.6,1.6-1.6h3.3c0.9,0,1.6,0.7,1.6,1.6V979
				C508,979.9,507.2,980.6,506.3,980.6z"/>
		</g>
		<g>
			<circle fill="#E24F4B" cx="781.6" cy="892.9" r="150.3"/>
			<path opacity="0.5" fill="#FFFFFF" d="M779.5,1043.1c-82.9-1.2-149.3-69.5-148.1-152.4c1.2-82.9,69.5-149.3,152.4-148.1
				S933.1,812.1,931.9,895S862.4,1044.3,779.5,1043.1z M783.6,751.2c-78.1-1.1-142.5,61.5-143.6,139.6
				c-1.1,78.1,61.5,142.5,139.6,143.6S922.2,973,923.3,894.9S861.7,752.3,783.6,751.2z"/>
			<g>
				<g>
					<g opacity="0.5">
						<path fill="#FFFFFF" d="M750.9,876.3c-2.1-4.7-5.2-8.7-8.1-12.8c-2.9-4.1-5.8-8.1-8.7-12.2c-2.9-4.1-5.8-8.2-8.7-12.3
							c-2.9-4.1-5.8-8.2-8.7-12.3c-0.7-1-1.5-2.1-2.2-3.1c-0.7-1-1.7-1.5-2.9-1.3c-1.3,0.2-1.8,1.2-2.5,2.2c-0.8,1-1.5,2.1-2.2,3.1
							c-2.9,4.1-5.8,8.2-8.8,12.3c-2.9,4.1-5.8,8.2-8.7,12.3c-2.9,4.1-5.8,8.1-8.7,12.2c-1.5,2-3,4.1-4.3,6.2
							c-1.4,2.2-2.6,4.4-3.6,6.8c-2,4.9-3,10.3-2.9,15.6c0.1,5,1.1,9.9,3,14.4c1.9,4.5,4.5,8.6,7.9,12.1c1.7,1.8,3.6,3.5,5.5,5.3
							c1.9,1.8,3.8,3.6,5.8,5.4c3.9,3.7,7.6,7.4,11.5,11.1c1.6,1.5,4.6,3,4.6,4.6v28c0,1,1.3,2.3,2.3,2.3h3.3c1,0-0.6-1.3-0.6-2.3
							v-28c6-3.7,9-7.3,12.9-11c1.9-1.8,4.4-3.5,6.3-5.3c0,0,0.3,0,0.3,0c1.9-1.8,4-3.6,5.9-5.4c1.8-1.7,3.8-3.4,5.5-5.3
							c3.2-3.6,5.9-7.8,7.6-12.3c1.8-4.7,2.7-9.7,2.7-14.7C754.2,886.5,753,881.2,750.9,876.3z"/>
						<path fill="#FFFFFF" d="M732.8,929.4C732.8,929.4,732.8,929.4,732.8,929.4C732.8,929.4,732.9,929.4,732.8,929.4z"/>
					</g>
					<path fill="#FFFFFF" d="M709,822.3c0,0,1.2,0,1,0c-1.3,0.2-1.1,1.2-1.8,2.2c-0.8,1-1.1,2.1-1.8,3.1c-2.9,4.1-5.6,8.2-8.6,12.3
						c-2.9,4.1-5.7,8.2-8.6,12.3c-2.9,4.1-5.7,8.1-8.6,12.2c-1.5,2-2.9,4.1-4.3,6.2c-1.4,2.2-2.6,4.4-3.6,6.8
						c-2,4.9-3,10.3-2.9,15.6c0.1,5,1.1,9.9,3,14.4c1.9,4.5,4.5,8.6,7.9,12.1c1.7,1.8,3.6,3.5,5.5,5.3c1.9,1.8,3.8,3.6,5.8,5.4
						c3.9,3.7,7.6,7.4,11.5,11.1c1.6,1.5,4.6,3,4.6,4.6v28c0,1,1.3,2.3,2.3,2.3H709V822.3z"/>
				</g>
				<g>
					<g>
						<path fill="#EAC300" d="M890.3,876.3c-2.1-4.7-5.2-8.7-8.1-12.8c-2.9-4.1-5.8-8.1-8.7-12.2c-2.9-4.1-5.8-8.2-8.7-12.3
							c-2.9-4.1-5.8-8.2-8.7-12.3c-0.7-1-1.5-2.1-2.2-3.1c-0.7-1-1.7-1.5-2.9-1.3c-1.3,0.2-1.8,1.2-2.5,2.2c-0.8,1-1.5,2.1-2.2,3.1
							c-2.9,4.1-5.8,8.2-8.8,12.3c-2.9,4.1-5.8,8.2-8.7,12.3c-2.9,4.1-5.8,8.1-8.7,12.2c-1.5,2-3,4.1-4.3,6.2
							c-1.4,2.2-2.6,4.4-3.6,6.8c-2,4.9-3,10.3-2.9,15.6c0.1,5,1.1,9.9,3,14.4c1.9,4.5,4.5,8.6,7.9,12.1c1.7,1.8,3.6,3.5,5.5,5.3
							c1.9,1.8,3.8,3.6,5.8,5.4c3.9,3.7,7.9,7.4,11.9,11.1c1.6,1.5,1.9,3,4.9,4.6v28c0,1,0.7,2.3,1.7,2.3h3.3c1,0,1-1.3,1-2.3v-28
							c3-3.7,8.2-7.3,12.1-11c1.9-1.8,4-3.5,5.9-5.3c0,0,0.1,0,0.1,0c1.9-1.8,3.9-3.6,5.8-5.4c1.8-1.7,3.7-3.4,5.4-5.3
							c3.2-3.6,5.8-7.8,7.6-12.3c1.8-4.7,2.7-9.7,2.7-14.7C893.5,886.5,892.4,881.2,890.3,876.3z"/>
						<path fill="#FFFFFF" d="M872.2,929.4C872.2,929.4,872.2,929.4,872.2,929.4C872.2,929.4,872.2,929.4,872.2,929.4z"/>
					</g>
					<path opacity="0.5" fill="#FFFFFF" d="M853,822.3c0,0-1.1,0-1.3,0c-1.3,0.2-2.3,1.2-3,2.2c-0.8,1-1.7,2.1-2.4,3.1
						c-2.9,4.1-5.9,8.2-8.9,12.3c-2.9,4.1-5.9,8.2-8.8,12.3c-2.9,4.1-5.8,8.1-8.7,12.2c-1.5,2-3,4.1-4.4,6.2
						c-1.4,2.2-2.6,4.4-3.6,6.8c-2,4.9-3,10.3-2.9,15.6c0.1,5,1.1,9.9,3,14.4c1.9,4.5,4.5,8.6,7.9,12.1c1.7,1.8,3.6,3.5,5.5,5.3
						c1.9,1.8,3.8,3.6,5.8,5.4c3.9,3.7,7.9,7.4,11.9,11.1c1.6,1.5,1.9,3,4.9,4.6v28c0,1,0.7,2.3,1.7,2.3h3.3V822.3z"/>
				</g>
			</g>
			<path fill="#FFFFFF" d="M784.9,949.4h-6.6c-0.9,0-1.6-0.7-1.6-1.6v-98.2c0-0.9,0.7-1.6,1.6-1.6h6.6c0.9,0,1.6,0.7,1.6,1.6v98.2
				C786.6,948.6,785.8,949.4,784.9,949.4z"/>
		</g>
		<g>
			<circle fill="#E24F4B" cx="1183.8" cy="817.7" r="225.4"/>
			<path opacity="0.5" fill="#FFFFFF" d="M1180.6,1043.1c-124.3-1.8-224-104.3-222.2-228.6s104.3-224,228.6-222.2
				s224,104.3,222.2,228.6S1304.9,1044.9,1180.6,1043.1z M1186.8,605.3c-117.1-1.7-213.8,92.3-215.4,209.4
				c-1.7,117.1,92.3,213.8,209.4,215.4c117.1,1.7,213.8-92.3,215.4-209.4C1397.9,703.6,1304,606.9,1186.8,605.3z"/>
			<g>
				<g>
					<g opacity="0.5">
						<path fill="#FFFFFF" d="M1137.7,792.9c-3.1-7-7.8-13.1-12.2-19.3c-4.3-6.1-8.7-12.2-13-18.3c-4.4-6.1-8.7-12.3-13.1-18.4
							c-4.4-6.1-8.8-12.3-13.1-18.4c-1.1-1.6-2.2-3.1-3.3-4.7c-1-1.4-2.5-2.3-4.3-2c-1.9,0.3-2.8,1.8-3.8,3.2
							c-1.1,1.5-2.2,3.1-3.3,4.7c-4.4,6.2-8.7,12.3-13.1,18.4c-4.4,6.1-8.7,12.3-13.1,18.4c-4.4,6.1-8.7,12.2-13,18.3
							c-2.2,3.1-4.5,6.1-6.5,9.2c-2.1,3.2-3.9,6.7-5.4,10.2c-3,7.4-4.5,15.4-4.4,23.4c0.1,7.4,1.7,14.8,4.5,21.7
							c2.8,6.7,6.8,12.9,11.8,18.2c2.6,2.8,5.5,5.3,8.2,7.9c2.9,2.7,5.8,5.4,8.6,8.1c5.9,5.5,12.2,11.1,18.1,16.6
							c2.4,2.3,7.7,4.6,7.7,6.8v42c0,1.5,0.3,4,1.9,4h4.9c1.5,0,1.2-2.4,1.2-4v-42c10-5.5,12.5-11,18.3-16.5c2.8-2.7,6-5.3,8.9-8
							c0,0,0.2,0,0.2,0c2.9-2.7,5.9-5.4,8.8-8.2c2.7-2.6,5.6-5.1,8.1-7.9c4.8-5.4,8.8-11.7,11.4-18.5c2.7-7,4.1-14.5,4-22
							C1142.6,808.1,1140.9,800.2,1137.7,792.9z"/>
						<path fill="#FFFFFF" d="M1110.6,872.6C1110.6,872.6,1110.6,872.6,1110.6,872.6C1110.6,872.6,1110.7,872.5,1110.6,872.6z"/>
					</g>
					<path fill="#FFFFFF" d="M1077,711.8c0,0,0.7,0,0.5,0.1c-1.9,0.3-2.2,1.8-3.2,3.2c-1.1,1.5-1.9,3.1-3,4.7
						c-4.4,6.2-8.6,12.3-13,18.4c-4.4,6.1-8.6,12.3-13,18.4c-4.4,6.1-8.7,12.2-13,18.3c-2.2,3.1-4.4,6.1-6.5,9.2
						c-2.1,3.2-3.9,6.7-5.4,10.2c-3,7.4-4.5,15.4-4.4,23.4c0.1,7.4,1.7,14.8,4.5,21.7c2.8,6.7,6.8,12.9,11.8,18.2
						c2.6,2.8,5.5,5.3,8.2,7.9c2.9,2.7,5.8,5.4,8.6,8.1c5.9,5.5,12.2,11.1,18.1,16.6c2.4,2.3,7.7,4.6,7.7,6.8v42c0,1.5,0.3,4,1.9,4
						h0.1V711.8z"/>
				</g>
				<g>
					<g>
						<path fill="#EAC300" d="M1346.7,792.9c-3.1-7-7.8-13.1-12.2-19.3c-4.3-6.1-8.7-12.2-13-18.3c-4.4-6.1-8.7-12.3-13.1-18.4
							c-4.4-6.1-8.8-12.3-13.1-18.4c-1.1-1.6-2.2-3.1-3.3-4.7c-1-1.4-2.5-2.3-4.3-2c-1.9,0.3-2.8,1.8-3.8,3.2
							c-1.1,1.5-2.2,3.1-3.3,4.7c-4.4,6.2-8.7,12.3-13.1,18.4c-4.4,6.1-8.7,12.3-13.1,18.4c-4.4,6.1-8.7,12.2-13,18.3
							c-2.2,3.1-4.5,6.1-6.5,9.2c-2.1,3.2-3.9,6.7-5.4,10.2c-3,7.4-4.5,15.4-4.4,23.4c0.1,7.4,1.7,14.8,4.5,21.7
							c2.8,6.7,6.8,12.9,11.8,18.2c2.6,2.8,5.5,5.3,8.2,7.9c2.9,2.7,5.8,5.4,8.6,8.1c5.9,5.5,12.7,11.1,18.6,16.6
							c2.4,2.3,4.2,4.6,8.2,6.8v42c0,1.5-0.6,4,0.9,4h4.9c1.5,0,2.2-2.4,2.2-4v-42c6-5.5,12-11,17.8-16.5c2.8-2.7,5.8-5.3,8.6-8
							c0,0,0.1,0,0.1,0c2.9-2.7,5.8-5.4,8.7-8.2c2.7-2.6,5.6-5.1,8.1-7.9c4.8-5.4,8.7-11.7,11.4-18.5c2.7-7,4.1-14.5,4-22
							C1351.6,808.1,1349.9,800.2,1346.7,792.9z"/>
						<path fill="#FFFFFF" d="M1319.6,872.6C1319.6,872.6,1319.6,872.6,1319.6,872.6C1319.6,872.6,1319.7,872.5,1319.6,872.6z"/>
					</g>
					<path opacity="0.5" fill="#FFFFFF" d="M1292,711.8c0,0-2.3,0-2.5,0.1c-1.9,0.3-3.7,1.8-4.7,3.2c-1.1,1.5-2.7,3.1-3.8,4.7
						c-4.4,6.2-9,12.3-13.4,18.4c-4.4,6.1-8.8,12.3-13.2,18.4c-4.4,6.1-8.7,12.2-13.1,18.3c-2.2,3.1-4.5,6.1-6.6,9.2
						c-2.1,3.2-4,6.7-5.4,10.2c-3,7.4-4.5,15.4-4.4,23.4c0.1,7.4,1.7,14.8,4.5,21.7c2.8,6.7,6.8,12.9,11.8,18.2
						c2.6,2.8,5.5,5.3,8.2,7.9c2.9,2.7,5.8,5.4,8.6,8.1c5.9,5.5,12.7,11.1,18.6,16.6c2.4,2.3,4.2,4.6,8.2,6.8v42c0,1.5-0.6,4,0.9,4
						h6.1V711.8z"/>
				</g>
			</g>
			<path fill="#FFFFFF" d="M1189.6,902.5h-11.5c-0.9,0-1.6-0.7-1.6-1.6V751.9c0-0.9,0.7-1.6,1.6-1.6h11.5c0.9,0,1.6,0.7,1.6,1.6
				v148.9C1191.2,901.7,1190.5,902.5,1189.6,902.5z"/>
		</g>
		<g>
			<circle fill="#E24F4B" cx="1773.9" cy="705" r="338.1"/>
			<path opacity="0.5" fill="#FFFFFF" d="M1769.1,1043.1c-186.4-2.6-336-156.5-333.3-342.9s156.5-336,342.9-333.3
				c186.4,2.6,336,156.5,333.3,342.9S1955.5,1045.7,1769.1,1043.1z M1778.4,386.3c-175.7-2.5-320.7,138.4-323.2,314.2
				c-2.5,175.7,138.4,320.7,314.2,323.2s320.7-138.4,323.2-314.2S1954.1,388.8,1778.4,386.3z"/>
			<g>
				<g>
					<g opacity="0.5">
						<path fill="#FFFFFF" d="M1704.7,667.8c-4.6-10.5-11.6-19.6-18.3-28.9c-6.5-9.1-13-18.3-19.6-27.4
							c-6.5-9.2-13.1-18.4-19.6-27.6c-6.6-9.2-13.1-18.4-19.7-27.6c-1.7-2.3-3.3-4.7-5-7c-1.5-2.1-3.8-3.5-6.5-3
							c-2.8,0.5-4.1,2.7-5.7,4.8c-1.7,2.3-3.3,4.7-5,7c-6.5,9.2-13.1,18.4-19.7,27.6c-6.6,9.2-13.1,18.4-19.6,27.6
							c-6.5,9.1-13,18.3-19.6,27.4c-3.3,4.6-6.7,9.1-9.8,13.9c-3.2,4.8-5.9,10-8.1,15.4c-4.5,11.1-6.8,23.1-6.6,35.1
							c0.2,11.1,2.5,22.2,6.8,32.5c4.2,10.1,10.2,19.3,17.7,27.3c3.9,4.2,8.2,8,12.3,11.9c4.3,4.1,8.6,8.1,13,12.2
							c8.8,8.3,18,16.6,26.9,24.9c3.6,3.4,11.3,6.8,11.3,10.3v63c0,2.3,1.2,5,3.4,5h7.4c2.3,0,0.2-2.7,0.2-5v-63
							c15-8.3,19.5-16.5,28.3-24.7c4.2-4,9.5-8,13.7-11.9c0,0,0.5,0,0.5,0c4.4-4,8.9-8.2,13.3-12.2c4.1-3.9,8.5-7.6,12.2-11.8
							c7.3-8.1,13.2-17.5,17.1-27.7c4.1-10.5,6.1-21.7,6-33C1712,690.6,1709.5,678.7,1704.7,667.8z"/>
						<path fill="#FFFFFF" d="M1664.1,787.3C1664.1,787.3,1664,787.3,1664.1,787.3C1664,787.3,1664.2,787.2,1664.1,787.3z"/>
					</g>
					<path fill="#FFFFFF" d="M1613,546.2c0,0,1.4,0,1,0.1c-2.8,0.5-3.1,2.7-4.7,4.8c-1.7,2.3-2.8,4.7-4.5,7
						c-6.5,9.2-12.9,18.4-19.4,27.6c-6.6,9.2-12.9,18.4-19.5,27.6c-6.5,9.1-13,18.3-19.5,27.4c-3.3,4.6-6.7,9.1-9.8,13.9
						c-3.2,4.8-5.9,10-8.1,15.4c-4.5,11.1-6.8,23.1-6.6,35.1c0.2,11.1,2.5,22.2,6.8,32.5c4.2,10.1,10.2,19.3,17.7,27.3
						c3.9,4.2,8.2,8,12.4,11.9c4.3,4.1,8.6,8.1,13,12.2c8.8,8.3,18,16.6,26.9,24.9c3.6,3.4,11.3,6.8,11.3,10.3v63c0,2.3,1.2,5,3.4,5
						h-0.4V546.2z"/>
				</g>
				<g>
					<g>
						<path fill="#EAC300" d="M2018.2,667.8c-4.6-10.5-11.6-19.6-18.3-28.9c-6.5-9.1-13-18.3-19.6-27.4
							c-6.5-9.2-13.1-18.4-19.6-27.6c-6.6-9.2-13.1-18.4-19.7-27.6c-1.7-2.3-3.3-4.7-5-7c-1.5-2.1-3.8-3.5-6.5-3
							c-2.8,0.5-4.1,2.7-5.7,4.8c-1.7,2.3-3.3,4.7-5,7c-6.5,9.2-13.1,18.4-19.7,27.6c-6.6,9.2-13.1,18.4-19.6,27.6
							c-6.5,9.1-13,18.3-19.6,27.4c-3.3,4.6-6.7,9.1-9.8,13.9c-3.2,4.8-5.9,10-8.1,15.4c-4.5,11.1-6.8,23.1-6.6,35.1
							c0.2,11.1,2.5,22.2,6.8,32.5c4.2,10.1,10.2,19.3,17.7,27.3c3.9,4.2,8.2,8,12.3,11.9c4.3,4.1,8.6,8.1,13,12.2
							c8.8,8.3,18.8,16.6,27.6,24.9c3.6,3.4,5,6.8,12,10.3v63c0,2.3-0.3,5,2,5h7.4c2.3,0,2.6-2.7,2.6-5v-63
							c10-8.3,18.3-16.5,27.1-24.7c4.2-4,8.8-8,13.1-11.9c0,0,0.2,0,0.2,0c4.4-4,8.8-8.2,13.1-12.2c4.1-3.9,8.4-7.6,12.1-11.8
							c7.3-8.1,13.1-17.5,17.1-27.7c4.1-10.5,6.1-21.7,6-33C2025.6,690.6,2023,678.7,2018.2,667.8z"/>
						<path fill="#FFFFFF" d="M1977.6,787.3C1977.6,787.3,1977.6,787.3,1977.6,787.3C1977.6,787.3,1977.7,787.2,1977.6,787.3z"/>
					</g>
					<path opacity="0.5" fill="#FFFFFF" d="M1935,546.2c0,0-2.9,0-3.2,0.1c-2.8,0.5-5.2,2.7-6.8,4.8c-1.7,2.3-3.9,4.7-5.5,7
						c-6.5,9.2-13.4,18.4-20,27.6c-6.6,9.2-13.2,18.4-19.8,27.6c-6.5,9.1-13.1,18.3-19.6,27.4c-3.3,4.6-6.7,9.1-9.8,13.9
						c-3.2,4.8-5.9,10-8.1,15.4c-4.5,11.1-6.8,23.1-6.6,35.1c0.2,11.1,2.5,22.2,6.8,32.5c4.2,10.1,10.2,19.3,17.7,27.3
						c3.9,4.2,8.2,8,12.3,11.9c4.3,4.1,8.6,8.1,13,12.2c8.8,8.3,18.8,16.6,27.6,24.9c3.6,3.4,5,6.8,12,10.3v63c0,2.3-0.3,5,2,5h8
						V546.2z"/>
				</g>
			</g>
			<path fill="#FFFFFF" d="M1783.3,832.1h-18.8c-0.9,0-1.6-0.7-1.6-1.6v-225c0-0.9,0.7-1.6,1.6-1.6h18.8c0.9,0,1.6,0.7,1.6,1.6v225
				C1784.9,831.4,1784.2,832.1,1783.3,832.1z"/>
		</g>
	</g>
</g>
</svg>
