<?xml version="1.0" encoding="UTF-8"?>
<svg width="987px" height="687px" viewBox="0 0 987 687" version="1.1" xmlns="http://www.w3.org/2000/svg" xmlns:xlink="http://www.w3.org/1999/xlink">
    <!-- Generator: Sketch 44.1 (41455) - http://www.bohemiancoding.com/sketch -->
    <title>Artboard Copy 6</title>
    <desc>Created with Sketch.</desc>
    <defs></defs>
    <g id="Mockups" stroke="none" stroke-width="1" fill="none" fill-rule="evenodd">
        <g id="Artboard-Copy-6">
            <g id="Group" transform="translate(0.000000, -2.000000)">
                <polygon id="Polygon" fill="#FFFFFF" points="281.5 243 422.229128 324.25 422.229128 486.75 281.5 568 140.770872 486.75 140.770872 324.25"></polygon>
                <polygon id="Polygon" fill="#ECAC2D" points="562.5 243 703.229128 324.25 703.229128 486.75 562.5 568 421.770872 486.75 421.770872 324.25"></polygon>
                <polygon id="Polygon" fill="#FC9003" points="140.729128 486 281.458256 567.25 281.458256 729.75 140.729128 811 7.81597009e-14 729.75 -1.42108547e-14 567.25"></polygon>
                <polygon id="Polygon" fill="#FC9003" points="843.729128 243 984.458256 324.25 984.458256 486.75 843.729128 568 703 486.75 703 324.25"></polygon>
                <polygon id="Polygon" fill="#FFEE86" points="703.5 486 844.229128 567.25 844.229128 729.75 703.5 811 562.770872 729.75 562.770872 567.25"></polygon>
                <polygon id="Polygon" fill="#FFE335" points="703.5 0 844.229128 81.25 844.229128 243.75 703.5 325 562.770872 243.75 562.770872 81.25"></polygon>
            </g>
        </g>
    </g>
</svg>