<svg fill="none" height="370" viewBox="0 0 657 370" width="657" xmlns="http://www.w3.org/2000/svg" xmlns:xlink="http://www.w3.org/1999/xlink"><mask id="a" height="40" maskUnits="userSpaceOnUse" width="40" x="92" y="276"><path clip-rule="evenodd" d="m107.455 280.141 15.455-4.141 4.141 15.455 4.141 15.455-15.455 4.141-15.455 4.141-4.1409-15.455 15.4549-4.141z" fill="#fff" fill-rule="evenodd"/></mask><path d="m0 0h657v370h-657z" fill="#ebebeb"/><path clip-rule="evenodd" d="m69 25h520v320h-520z" fill="#fff" fill-rule="evenodd"/><g stroke="#8ab6ec" stroke-linecap="round" stroke-width="2"><path d="m69 15v340"/><path d="m589 15v340"/><path d="m58 25h542"/><path d="m58 345h542"/></g><rect fill="#336dc2" height="41" rx="5" width="97" x="92" y="54"/><path clip-rule="evenodd" d="m123.605 80h-1.843v-7.25c0-.5938.036-1.3203.109-2.1797h-.031c-.115.4896-.216.8412-.305 1.0547l-3.344 8.375h-1.281l-3.351-8.3125c-.094-.2448-.193-.6172-.297-1.1172h-.032c.042.4479.063 1.1797.063 2.1953v7.2344h-1.719v-11.2031h2.617l2.946 7.4609c.224.5729.37 1 .437 1.2813h.039c.193-.5886.349-1.0261.469-1.3125l3-7.4297h2.523zm9.329-3.5078h-5.454c.021.7396.249 1.3099.684 1.7109.435.4011 1.033.6016 1.793.6016.854 0 1.638-.2552 2.352-.7656v1.4609c-.73.4583-1.693.6875-2.891.6875-1.177 0-2.1-.3633-2.77-1.0898-.669-.7266-1.003-1.7487-1.003-3.0665 0-1.2447.368-2.2591 1.105-3.0429.737-.7839 1.652-1.1758 2.746-1.1758s1.94.3516 2.539 1.0547.899 1.6797.899 2.9297zm-1.75-1.2813c-.006-.651-.159-1.1575-.461-1.5195s-.719-.543-1.25-.543c-.521 0-.963.1901-1.325.5704-.362.3802-.584.8776-.668 1.4921zm10.75 4.7891h-1.813v-1.3594h-.031c-.583 1.0313-1.482 1.5469-2.695 1.5469-.985 0-1.773-.3581-2.364-1.0742-.591-.7162-.886-1.6914-.886-2.9258 0-1.3229.326-2.3828.98-3.1797s1.525-1.1953 2.613-1.1953c1.078 0 1.862.4323 2.352 1.2969h.031v-4.9532h1.813zm-1.789-3.6562v-1.0469c0-.5677-.185-1.0495-.555-1.4453-.37-.3959-.841-.5938-1.414-.5938-.677 0-1.21.2526-1.598.7578s-.582 1.2057-.582 2.1016c0 .8125.186 1.4544.559 1.9258.372.4713.873.707 1.504.707.619 0 1.122-.2279 1.507-.6836.386-.4557.579-1.0299.579-1.7226zm5.07-6.0235c-.297 0-.551-.0963-.762-.2891-.211-.1927-.316-.4374-.316-.7343s.105-.5443.316-.7422.465-.2969.762-.2969c.307 0 .568.099.781.2969.214.1979.32.4453.32.7422 0 .2812-.106.5221-.32.7226-.213.2006-.474.3008-.781.3008zm.898 9.6797h-1.812v-8h1.812zm9.344 0h-1.812v-1.2656h-.032c-.526.9687-1.343 1.4531-2.453 1.4531-1.89 0-2.836-1.1354-2.836-3.4063v-4.7812h1.813v4.5938c0 1.4375.554 2.1562 1.664 2.1562.536 0 .978-.1979 1.324-.5938.346-.3958.52-.914.52-1.5546v-4.6016h1.812zm14.32 0h-1.812v-4.3594c0-.8385-.119-1.4453-.356-1.8203s-.636-.5625-1.199-.5625c-.474 0-.876.237-1.207.711-.331.4739-.496 1.0416-.496 1.7031v4.3281h-1.82v-4.5078c0-1.4896-.526-2.2344-1.578-2.2344-.49 0-.892.224-1.207.6719-.316.4479-.473 1.0286-.473 1.7422v4.3281h-1.813v-8h1.813v1.2656h.031c.578-.9687 1.419-1.4531 2.524-1.4531.552 0 1.035.1523 1.449.457s.696.7045.847 1.1993c.594-1.1042 1.48-1.6563 2.657-1.6563 1.76 0 2.64 1.0859 2.64 3.2578z" fill="#fff" fill-rule="evenodd"/><rect fill="#193558" height="41" rx="5" width="97" x="217" y="54"/><path clip-rule="evenodd" d="m248.605 80h-1.843v-7.25c0-.5938.036-1.3203.109-2.1797h-.031c-.115.4896-.216.8412-.305 1.0547l-3.344 8.375h-1.281l-3.351-8.3125c-.094-.2448-.193-.6172-.297-1.1172h-.032c.042.4479.063 1.1797.063 2.1953v7.2344h-1.719v-11.2031h2.617l2.946 7.4609c.224.5729.37 1 .437 1.2813h.039c.193-.5886.349-1.0261.469-1.3125l3-7.4297h2.523zm9.329-3.5078h-5.454c.021.7396.249 1.3099.684 1.7109.435.4011 1.033.6016 1.793.6016.854 0 1.638-.2552 2.352-.7656v1.4609c-.73.4583-1.693.6875-2.891.6875-1.177 0-2.1-.3633-2.77-1.0898-.669-.7266-1.003-1.7487-1.003-3.0665 0-1.2447.368-2.2591 1.105-3.0429.737-.7839 1.652-1.1758 2.746-1.1758s1.94.3516 2.539 1.0547.899 1.6797.899 2.9297zm-1.75-1.2813c-.006-.651-.159-1.1575-.461-1.5195s-.719-.543-1.25-.543c-.521 0-.963.1901-1.325.5704-.362.3802-.584.8776-.668 1.4921zm10.75 4.7891h-1.813v-1.3594h-.031c-.583 1.0313-1.482 1.5469-2.695 1.5469-.985 0-1.773-.3581-2.364-1.0742-.591-.7162-.886-1.6914-.886-2.9258 0-1.3229.326-2.3828.98-3.1797s1.525-1.1953 2.613-1.1953c1.078 0 1.862.4323 2.352 1.2969h.031v-4.9532h1.813zm-1.789-3.6562v-1.0469c0-.5677-.185-1.0495-.555-1.4453-.37-.3959-.841-.5938-1.414-.5938-.677 0-1.21.2526-1.598.7578s-.582 1.2057-.582 2.1016c0 .8125.186 1.4544.559 1.9258.372.4713.873.707 1.504.707.619 0 1.122-.2279 1.507-.6836.386-.4557.579-1.0299.579-1.7226zm5.07-6.0235c-.297 0-.551-.0963-.762-.2891-.211-.1927-.316-.4374-.316-.7343s.105-.5443.316-.7422.465-.2969.762-.2969c.307 0 .568.099.781.2969.214.1979.32.4453.32.7422 0 .2812-.106.5221-.32.7226-.213.2006-.474.3008-.781.3008zm.898 9.6797h-1.812v-8h1.812zm9.344 0h-1.812v-1.2656h-.032c-.526.9687-1.343 1.4531-2.453 1.4531-1.89 0-2.836-1.1354-2.836-3.4063v-4.7812h1.813v4.5938c0 1.4375.554 2.1562 1.664 2.1562.536 0 .978-.1979 1.324-.5938.346-.3958.52-.914.52-1.5546v-4.6016h1.812zm14.32 0h-1.812v-4.3594c0-.8385-.119-1.4453-.356-1.8203s-.636-.5625-1.199-.5625c-.474 0-.876.237-1.207.711-.331.4739-.496 1.0416-.496 1.7031v4.3281h-1.82v-4.5078c0-1.4896-.526-2.2344-1.578-2.2344-.49 0-.892.224-1.207.6719-.316.4479-.473 1.0286-.473 1.7422v4.3281h-1.813v-8h1.813v1.2656h.031c.578-.9687 1.419-1.4531 2.524-1.4531.552 0 1.035.1523 1.449.457s.696.7045.847 1.1993c.594-1.1042 1.48-1.6563 2.657-1.6563 1.76 0 2.64 1.0859 2.64 3.2578z" fill="#fff" fill-rule="evenodd"/><path d="m97 215.5h463c2.485 0 4.5 2.015 4.5 4.5v31c0 2.485-2.015 4.5-4.5 4.5h-463c-2.4853 0-4.5-2.015-4.5-4.5v-31c0-2.485 2.0147-4.5 4.5-4.5z" stroke="#333"/><path clip-rule="evenodd" d="m98.877 203.933h-3.9375v4.067h-2.0508v-9.953h6.4804v1.661h-4.4296v2.57h3.9375zm9.857-.684c0 .98-.173 1.839-.519 2.577-.347.738-.842 1.308-1.487 1.709s-1.384.602-2.218.602c-.825 0-1.561-.199-2.208-.595s-1.149-.963-1.504-1.699c-.356-.736-.536-1.582-.54-2.539v-.492c0-.98.176-1.843.53-2.588.353-.745.852-1.317 1.497-1.716.645-.398 1.382-.598 2.211-.598.83 0 1.567.2 2.212.598.644.399 1.143.971 1.497 1.716.353.745.529 1.605.529 2.581zm-2.078-.451c0-1.044-.187-1.837-.56-2.379-.374-.542-.907-.814-1.6-.814-.688 0-1.219.268-1.593.804-.373.535-.563 1.32-.567 2.355v.485c0 1.016.187 1.805.56 2.365.374.561.912.841 1.614.841.688 0 1.217-.27 1.586-.81s.556-1.327.56-2.362zm7.253 1.558h-1.634v3.644h-2.05v-9.953h3.698c1.176 0 2.083.262 2.721.786s.957 1.265.957 2.222c0 .679-.147 1.245-.441 1.698-.294.454-.74.815-1.337 1.084l2.154 4.067v.096h-2.202zm-1.634-1.661h1.655c.515 0 .913-.131 1.196-.393s.424-.623.424-1.083c0-.47-.133-.839-.4-1.108s-.676-.403-1.227-.403h-1.648zm9.564-4.648 2.557 7.219 2.542-7.219h2.694v9.953h-2.058v-2.721l.205-4.696-2.686 7.417h-1.408l-2.68-7.41.205 4.689v2.721h-2.051v-9.953zm15.121 8.306h4.354v1.647h-6.405v-9.953h2.051zm11.279-.404h-3.595l-.684 2.051h-2.181l3.705-9.953h1.901l3.725 9.953h-2.18zm-3.042-1.661h2.489l-1.251-3.726zm6.843 3.712v-9.953h3.486c1.208 0 2.124.231 2.748.694.625.462.937 1.14.937 2.033 0 .488-.125.918-.376 1.289s-.599.644-1.046.817c.51.127.913.385 1.207.772.294.388.441.862.441 1.422 0 .957-.306 1.682-.916 2.174-.611.492-1.482.743-2.612.752zm2.051-4.334v2.687h1.757c.483 0 .86-.116 1.131-.346s.407-.548.407-.953c0-.912-.472-1.374-1.415-1.388zm0-1.449h1.517c1.035-.018 1.552-.431 1.552-1.238 0-.451-.131-.775-.393-.974-.262-.198-.676-.297-1.241-.297h-1.435zm12.872 1.47h-3.938v2.666h4.621v1.647h-6.671v-9.953h6.658v1.661h-4.608v2.372h3.938zm3.937 2.666h4.355v1.647h-6.405v-9.953h2.05z" fill="#222" fill-rule="evenodd"/><path clip-rule="evenodd" d="m111.18 230.859h-3.657v10.141h-1.492v-10.141h-3.648v-1.234h8.797zm4.195 10.297c-1.146 0-2.078-.376-2.797-1.129-.719-.752-1.078-1.759-1.078-3.019v-.266c0-.838.16-1.587.48-2.246.321-.659.769-1.174 1.344-1.547.576-.372 1.199-.558 1.871-.558 1.099 0 1.953.362 2.563 1.086.609.724.914 1.76.914 3.109v.602h-5.727c.021.833.265 1.506.731 2.019s1.058.77 1.777.77c.511 0 .943-.105 1.297-.313s.664-.484.93-.828l.882.687c-.708 1.089-1.77 1.633-3.187 1.633zm-.18-7.578c-.583 0-1.073.212-1.468.637-.396.424-.641 1.019-.735 1.785h4.235v-.109c-.042-.735-.24-1.304-.594-1.707-.354-.404-.834-.606-1.438-.606zm7.985 2.055 1.875-3.086h1.687l-2.765 4.18 2.851 4.273h-1.672l-1.953-3.164-1.953 3.164h-1.68l2.852-4.273-2.766-4.18h1.672zm7.054-5.133v2.047h1.578v1.117h-1.578v5.242c0 .339.071.593.211.762.141.169.381.254.719.254.167 0 .396-.031.688-.094v1.172c-.381.104-.75.156-1.11.156-.646 0-1.133-.195-1.461-.586-.328-.39-.492-.945-.492-1.664v-5.242h-1.539v-1.117h1.539v-2.047zm8.797 10.5h-1.445v-8.453h1.445zm-1.562-10.695c0-.235.071-.433.215-.594.143-.162.355-.242.636-.242.282 0 .495.08.641.242.146.161.219.359.219.594 0 .234-.073.429-.219.586-.146.156-.359.234-.641.234-.281 0-.493-.078-.636-.234-.144-.157-.215-.352-.215-.586zm5.242 2.242.047 1.062c.646-.812 1.489-1.218 2.531-1.218 1.787 0 2.688 1.007 2.703 3.023v5.586h-1.445v-5.594c-.005-.609-.145-1.06-.418-1.351-.274-.292-.699-.438-1.277-.438-.469 0-.881.125-1.235.375s-.63.578-.828.985v6.023h-1.445v-8.453zm14.601 4.32c0 1.287-.294 2.323-.882 3.11-.589.786-1.386 1.179-2.391 1.179-1.026 0-1.833-.325-2.422-.976v4.07h-1.445v-11.703h1.32l.07.937c.589-.729 1.407-1.093 2.454-1.093 1.015 0 1.819.382 2.41 1.148s.886 1.831.886 3.195zm-1.445-.164c0-.953-.203-1.706-.609-2.258s-.964-.828-1.672-.828c-.875 0-1.531.388-1.969 1.164v4.039c.432.771 1.094 1.157 1.985 1.157.692 0 1.243-.275 1.652-.825.409-.549.613-1.366.613-2.449zm8.5 3.461c-.562.662-1.388.992-2.476.992-.901 0-1.588-.261-2.059-.785-.471-.523-.71-1.298-.715-2.324v-5.5h1.445v5.461c0 1.281.521 1.922 1.563 1.922 1.104 0 1.839-.412 2.203-1.235v-6.148h1.445v8.453h-1.375zm5.563-9.664v2.047h1.578v1.117h-1.578v5.242c0 .339.07.593.211.762.14.169.38.254.718.254.167 0 .396-.031.688-.094v1.172c-.38.104-.75.156-1.109.156-.646 0-1.133-.195-1.461-.586-.329-.39-.493-.945-.493-1.664v-5.242h-1.539v-1.117h1.539v-2.047z" fill="#222" fill-rule="evenodd"/><g mask="url(#a)"><path clip-rule="evenodd" d="m96.5274 299.634c2.2299 8.322 10.7836 13.26 19.1056 11.03 8.323-2.23 13.261-10.784 11.031-19.106s-10.784-13.26-19.106-11.031c-8.3218 2.23-13.2604 10.784-11.0306 19.107zm25.3076-6.782c1.515 5.655-1.841 11.468-7.496 12.983-5.654 1.515-11.467-1.841-12.982-7.496-1.5151-5.654 1.841-11.467 7.495-12.982 5.655-1.515 11.468 1.841 12.983 7.495z" fill="#3c85df" fill-rule="evenodd"/></g><path clip-rule="evenodd" d="m150.125 301.234c-1.167.636-2.466.954-3.898.954-1.657 0-2.998-.516-4.024-1.547-1.026-1.032-1.539-2.396-1.539-4.094 0-1.735.561-3.158 1.684-4.27 1.122-1.112 2.548-1.668 4.277-1.668 1.245 0 2.292.183 3.141.547v1.914c-.86-.573-1.883-.859-3.071-.859-1.192 0-2.17.393-2.933 1.18-.763.786-1.145 1.804-1.145 3.054 0 1.287.328 2.298.985 3.035.656.737 1.546 1.106 2.671 1.106.771 0 1.438-.148 2-.445v-2.664h-2.359v-1.563h4.211zm8.984-2.742h-5.453c.021.74.249 1.31.684 1.711s1.032.602 1.793.602c.854 0 1.638-.256 2.351-.766v1.461c-.729.458-1.692.688-2.89.688-1.177 0-2.101-.364-2.77-1.09-.669-.727-1.004-1.749-1.004-3.067 0-1.245.369-2.259 1.106-3.043s1.652-1.176 2.746-1.176 1.94.352 2.539 1.055.898 1.68.898 2.93zm-1.75-1.281c-.005-.651-.158-1.158-.461-1.52-.302-.362-.718-.543-1.25-.543-.52 0-.962.191-1.324.571s-.584.877-.668 1.492zm2.977 4.539v-1.68c.677.516 1.424.774 2.242.774 1.094 0 1.641-.323 1.641-.969 0-.182-.047-.337-.141-.465-.094-.127-.22-.241-.379-.34s-.346-.187-.562-.265-.457-.167-.723-.266c-.328-.13-.624-.268-.887-.414s-.481-.311-.656-.496c-.174-.185-.306-.395-.394-.629-.089-.234-.133-.508-.133-.82 0-.386.091-.726.273-1.02s.427-.542.735-.742c.307-.201.656-.352 1.046-.453.391-.102.795-.153 1.211-.153.74 0 1.401.112 1.985.336v1.586c-.563-.385-1.209-.578-1.938-.578-.229 0-.436.024-.621.071-.185.046-.342.112-.473.195-.13.083-.231.183-.304.301-.073.117-.11.246-.11.386 0 .172.037.318.11.438s.181.225.324.316.315.175.516.25c.2.076.431.158.691.246.344.141.652.284.926.43.273.146.506.311.699.496s.341.399.445.641c.105.242.157.53.157.863 0 .406-.094.76-.282 1.063-.187.302-.437.552-.75.75-.312.197-.673.345-1.082.441s-.839.145-1.293.145c-.875 0-1.632-.146-2.273-.438zm11.617.164c-.354.177-.82.266-1.398.266-1.552 0-2.328-.745-2.328-2.235v-4.523h-1.336v-1.422h1.336v-1.852l1.812-.515v2.367h1.914v1.422h-1.914v4c0 .474.086.812.258 1.016.172.203.458.304.859.304.308 0 .573-.088.797-.265zm2.477-9.594c-.297 0-.551-.096-.762-.289-.211-.192-.316-.437-.316-.734s.105-.544.316-.742.465-.297.762-.297c.307 0 .567.099.781.297.213.198.32.445.32.742 0 .281-.107.522-.32.723-.214.2-.474.3-.781.3zm.898 9.68h-1.812v-8h1.812zm8.094-.367c-.641.37-1.399.555-2.274.555-1.187 0-2.145-.372-2.875-1.114-.729-.742-1.093-1.704-1.093-2.886 0-1.318.392-2.377 1.175-3.176.784-.8 1.832-1.2 3.145-1.2.729 0 1.372.128 1.93.383v1.688c-.558-.417-1.151-.625-1.782-.625-.765 0-1.393.259-1.882.777-.49.518-.735 1.197-.735 2.035 0 .828.231 1.482.692 1.961s1.079.719 1.855.719c.651 0 1.266-.232 1.844-.695zm8.773.367h-1.812v-1.266h-.031c-.526.969-1.344 1.454-2.454 1.454-1.89 0-2.836-1.136-2.836-3.407v-4.781h1.813v4.594c0 1.437.555 2.156 1.664 2.156.537 0 .978-.198 1.324-.594.347-.396.52-.914.52-1.554v-4.602h1.812zm4.18 0h-1.82v-11.844h1.82zm8.5 0h-1.758v-1.25h-.031c-.552.958-1.362 1.438-2.43 1.438-.786 0-1.402-.214-1.847-.641-.446-.427-.668-.992-.668-1.695 0-1.511.869-2.391 2.609-2.641l2.375-.336c0-1.141-.542-1.711-1.625-1.711-.953 0-1.812.328-2.578.984v-1.586c.844-.5 1.818-.75 2.922-.75 2.021 0 3.031.995 3.031 2.985zm-1.75-3.93-1.68.235c-.521.067-.912.194-1.175.379-.263.184-.395.509-.395.972 0 .339.121.616.363.832s.567.324.973.324c.552 0 1.009-.194 1.371-.582s.543-.876.543-1.464zm8.18 3.844c-.354.177-.821.266-1.399.266-1.552 0-2.328-.745-2.328-2.235v-4.523h-1.336v-1.422h1.336v-1.852l1.813-.515v2.367h1.914v1.422h-1.914v4c0 .474.086.812.257 1.016.172.203.459.304.86.304.307 0 .573-.088.797-.265zm2.476-9.594c-.297 0-.551-.096-.761-.289-.211-.192-.317-.437-.317-.734s.106-.544.317-.742c.21-.198.464-.297.761-.297.308 0 .568.099.781.297.214.198.321.445.321.742 0 .281-.107.522-.321.723-.213.2-.473.3-.781.3zm.899 9.68h-1.813v-8h1.813zm9.492 0h-1.813v-4.508c0-1.495-.528-2.242-1.586-2.242-.552 0-1.007.207-1.367.621-.359.414-.539.936-.539 1.567v4.562h-1.82v-8h1.82v1.328h.031c.599-1.01 1.464-1.516 2.594-1.516.87 0 1.534.283 1.992.848.459.565.688 1.382.688 2.449zm9.492-.641c0 2.938-1.476 4.407-4.43 4.407-1.041 0-1.95-.175-2.726-.524v-1.656c.875.5 1.706.75 2.492.75 1.901 0 2.852-.935 2.852-2.805v-.875h-.032c-.599 1.021-1.5 1.532-2.703 1.532-.974 0-1.759-.356-2.355-1.067-.597-.711-.895-1.665-.895-2.863 0-1.36.32-2.44.961-3.242s1.521-1.204 2.641-1.204c1.057 0 1.841.433 2.351 1.297h.032v-1.109h1.812zm-1.797-3.023v-1.039c0-.563-.186-1.043-.558-1.442-.373-.398-.838-.597-1.395-.597-.687 0-1.225.254-1.613.762-.388.507-.582 1.217-.582 2.128 0 .787.186 1.416.558 1.887.373.472.866.707 1.481.707.625 0 1.133-.225 1.523-.676.391-.45.586-1.027.586-1.73zm20.789 3.664h-1.844v-7.25c0-.594.037-1.32.11-2.18h-.031c-.115.49-.217.841-.305 1.055l-3.344 8.375h-1.281l-3.352-8.312c-.093-.245-.192-.618-.297-1.118h-.031c.042.448.063 1.18.063 2.196v7.234h-1.719v-11.203h2.617l2.946 7.461c.223.573.369 1 .437 1.281h.039c.193-.588.349-1.026.469-1.312l3-7.43h2.523zm3.469-9.68c-.297 0-.551-.096-.762-.289-.211-.192-.316-.437-.316-.734s.105-.544.316-.742.465-.297.762-.297c.307 0 .568.099.781.297.214.198.321.445.321.742 0 .281-.107.522-.321.723-.213.2-.474.3-.781.3zm.898 9.68h-1.812v-8h1.812zm14.329 0h-1.813v-4.359c0-.839-.118-1.446-.355-1.821s-.637-.562-1.2-.562c-.474 0-.876.237-1.207.711-.33.474-.496 1.041-.496 1.703v4.328h-1.82v-4.508c0-1.489-.526-2.234-1.578-2.234-.49 0-.892.224-1.207.672s-.473 1.028-.473 1.742v4.328h-1.812v-8h1.812v1.266h.031c.579-.969 1.42-1.454 2.524-1.454.552 0 1.035.153 1.449.458.414.304.697.704.848 1.199.593-1.104 1.479-1.657 2.656-1.657 1.76 0 2.641 1.086 2.641 3.258zm8.984-3.508h-5.453c.021.74.249 1.31.683 1.711.435.401 1.033.602 1.793.602.855 0 1.638-.256 2.352-.766v1.461c-.729.458-1.693.688-2.891.688-1.177 0-2.1-.364-2.769-1.09-.669-.727-1.004-1.749-1.004-3.067 0-1.245.368-2.259 1.105-3.043s1.653-1.176 2.746-1.176c1.094 0 1.941.352 2.54 1.055.598.703.898 1.68.898 2.93zm-1.75-1.281c-.005-.651-.159-1.158-.461-1.52s-.719-.543-1.25-.543c-.521 0-.962.191-1.324.571s-.585.877-.668 1.492zm2.976 4.539v-1.68c.678.516 1.425.774 2.243.774 1.093 0 1.64-.323 1.64-.969 0-.182-.047-.337-.14-.465-.094-.127-.22-.241-.379-.34s-.347-.187-.563-.265-.457-.167-.722-.266c-.329-.13-.624-.268-.887-.414s-.482-.311-.656-.496c-.175-.185-.306-.395-.395-.629-.088-.234-.133-.508-.133-.82 0-.386.091-.726.274-1.02.182-.294.427-.542.734-.742.307-.201.656-.352 1.047-.453.391-.102.794-.153 1.211-.153.74 0 1.401.112 1.984.336v1.586c-.562-.385-1.208-.578-1.937-.578-.229 0-.436.024-.621.071-.185.046-.343.112-.473.195s-.232.183-.305.301c-.073.117-.109.246-.109.386 0 .172.036.318.109.438s.181.225.325.316c.143.091.315.175.515.25.201.076.431.158.692.246.343.141.652.284.925.43.274.146.507.311.7.496.192.185.341.399.445.641s.156.53.156.863c0 .406-.094.76-.281 1.063-.188.302-.438.552-.75.75-.313.197-.673.345-1.082.441s-.84.145-1.293.145c-.875 0-1.633-.146-2.274-.438z" fill="#222" fill-rule="evenodd"/><rect fill="#b6b6b6" height="40" rx="5" width="97" x="343" y="54"/><path clip-rule="evenodd" d="m374.605 80h-1.843v-7.25c0-.5938.036-1.3203.109-2.1797h-.031c-.115.4896-.216.8412-.305 1.0547l-3.344 8.375h-1.281l-3.351-8.3125c-.094-.2448-.193-.6172-.297-1.1172h-.032c.042.4479.063 1.1797.063 2.1953v7.2344h-1.719v-11.2031h2.617l2.946 7.4609c.224.5729.37 1 .437 1.2813h.039c.193-.5886.349-1.0261.469-1.3125l3-7.4297h2.523zm9.329-3.5078h-5.454c.021.7396.249 1.3099.684 1.7109.435.4011 1.033.6016 1.793.6016.854 0 1.638-.2552 2.352-.7656v1.4609c-.73.4583-1.693.6875-2.891.6875-1.177 0-2.1-.3633-2.77-1.0898-.669-.7266-1.003-1.7487-1.003-3.0665 0-1.2447.368-2.2591 1.105-3.0429.737-.7839 1.652-1.1758 2.746-1.1758s1.94.3516 2.539 1.0547.899 1.6797.899 2.9297zm-1.75-1.2813c-.006-.651-.159-1.1575-.461-1.5195s-.719-.543-1.25-.543c-.521 0-.963.1901-1.325.5704-.362.3802-.584.8776-.668 1.4921zm10.75 4.7891h-1.813v-1.3594h-.031c-.583 1.0313-1.482 1.5469-2.695 1.5469-.985 0-1.773-.3581-2.364-1.0742-.591-.7162-.886-1.6914-.886-2.9258 0-1.3229.326-2.3828.98-3.1797s1.525-1.1953 2.613-1.1953c1.078 0 1.862.4323 2.352 1.2969h.031v-4.9532h1.813zm-1.789-3.6562v-1.0469c0-.5677-.185-1.0495-.555-1.4453-.37-.3959-.841-.5938-1.414-.5938-.677 0-1.21.2526-1.598.7578s-.582 1.2057-.582 2.1016c0 .8125.186 1.4544.559 1.9258.372.4713.873.707 1.504.707.619 0 1.122-.2279 1.507-.6836.386-.4557.579-1.0299.579-1.7226zm5.07-6.0235c-.297 0-.551-.0963-.762-.2891-.211-.1927-.316-.4374-.316-.7343s.105-.5443.316-.7422.465-.2969.762-.2969c.307 0 .568.099.781.2969.214.1979.32.4453.32.7422 0 .2812-.106.5221-.32.7226-.213.2006-.474.3008-.781.3008zm.898 9.6797h-1.812v-8h1.812zm9.344 0h-1.812v-1.2656h-.032c-.526.9687-1.343 1.4531-2.453 1.4531-1.89 0-2.836-1.1354-2.836-3.4063v-4.7812h1.813v4.5938c0 1.4375.554 2.1562 1.664 2.1562.536 0 .978-.1979 1.324-.5938.346-.3958.52-.914.52-1.5546v-4.6016h1.812zm14.32 0h-1.812v-4.3594c0-.8385-.119-1.4453-.356-1.8203s-.636-.5625-1.199-.5625c-.474 0-.876.237-1.207.711-.331.4739-.496 1.0416-.496 1.7031v4.3281h-1.82v-4.5078c0-1.4896-.526-2.2344-1.578-2.2344-.49 0-.892.224-1.207.6719-.316.4479-.473 1.0286-.473 1.7422v4.3281h-1.813v-8h1.813v1.2656h.031c.578-.9687 1.419-1.4531 2.524-1.4531.552 0 1.035.1523 1.449.457s.696.7045.847 1.1993c.594-1.1042 1.48-1.6563 2.657-1.6563 1.76 0 2.64 1.0859 2.64 3.2578z" fill="#373737" fill-rule="evenodd"/><rect fill="#ebebeb" height="40" rx="5" width="97" x="468" y="54"/><path clip-rule="evenodd" d="m499.605 80h-1.843v-7.25c0-.5938.036-1.3203.109-2.1797h-.031c-.115.4896-.216.8412-.305 1.0547l-3.344 8.375h-1.281l-3.351-8.3125c-.094-.2448-.193-.6172-.297-1.1172h-.032c.042.4479.063 1.1797.063 2.1953v7.2344h-1.719v-11.2031h2.617l2.946 7.4609c.224.5729.37 1 .437 1.2813h.039c.193-.5886.349-1.0261.469-1.3125l3-7.4297h2.523zm9.329-3.5078h-5.454c.021.7396.249 1.3099.684 1.7109.435.4011 1.033.6016 1.793.6016.854 0 1.638-.2552 2.352-.7656v1.4609c-.73.4583-1.693.6875-2.891.6875-1.177 0-2.1-.3633-2.77-1.0898-.669-.7266-1.003-1.7487-1.003-3.0665 0-1.2447.368-2.2591 1.105-3.0429.737-.7839 1.652-1.1758 2.746-1.1758s1.94.3516 2.539 1.0547.899 1.6797.899 2.9297zm-1.75-1.2813c-.006-.651-.159-1.1575-.461-1.5195s-.719-.543-1.25-.543c-.521 0-.963.1901-1.325.5704-.362.3802-.584.8776-.668 1.4921zm10.75 4.7891h-1.813v-1.3594h-.031c-.583 1.0313-1.482 1.5469-2.695 1.5469-.985 0-1.773-.3581-2.364-1.0742-.591-.7162-.886-1.6914-.886-2.9258 0-1.3229.326-2.3828.98-3.1797s1.525-1.1953 2.613-1.1953c1.078 0 1.862.4323 2.352 1.2969h.031v-4.9532h1.813zm-1.789-3.6562v-1.0469c0-.5677-.185-1.0495-.555-1.4453-.37-.3959-.841-.5938-1.414-.5938-.677 0-1.21.2526-1.598.7578s-.582 1.2057-.582 2.1016c0 .8125.186 1.4544.559 1.9258.372.4713.873.707 1.504.707.619 0 1.122-.2279 1.507-.6836.386-.4557.579-1.0299.579-1.7226zm5.07-6.0235c-.297 0-.551-.0963-.762-.2891-.211-.1927-.316-.4374-.316-.7343s.105-.5443.316-.7422.465-.2969.762-.2969c.307 0 .568.099.781.2969.214.1979.32.4453.32.7422 0 .2812-.106.5221-.32.7226-.213.2006-.474.3008-.781.3008zm.898 9.6797h-1.812v-8h1.812zm9.344 0h-1.812v-1.2656h-.032c-.526.9687-1.343 1.4531-2.453 1.4531-1.89 0-2.836-1.1354-2.836-3.4063v-4.7812h1.813v4.5938c0 1.4375.554 2.1562 1.664 2.1562.536 0 .978-.1979 1.324-.5938.346-.3958.52-.914.52-1.5546v-4.6016h1.812zm14.32 0h-1.812v-4.3594c0-.8385-.119-1.4453-.356-1.8203s-.636-.5625-1.199-.5625c-.474 0-.876.237-1.207.711-.331.4739-.496 1.0416-.496 1.7031v4.3281h-1.82v-4.5078c0-1.4896-.526-2.2344-1.578-2.2344-.49 0-.892.224-1.207.6719-.316.4479-.473 1.0286-.473 1.7422v4.3281h-1.813v-8h1.813v1.2656h.031c.578-.9687 1.419-1.4531 2.524-1.4531.552 0 1.035.1523 1.449.457s.696.7045.847 1.1993c.594-1.1042 1.48-1.6563 2.657-1.6563 1.76 0 2.64 1.0859 2.64 3.2578z" fill="#b6b6b6" fill-rule="evenodd"/><path clip-rule="evenodd" d="m92 115h473v60h-473z" fill="#f2f2f2" fill-rule="evenodd"/><path clip-rule="evenodd" d="m550 145.817-3.817-3.817 3.817-3.817-2.183-2.183-3.817 3.817-3.817-3.817-2.183 2.183 3.817 3.817-3.817 3.817 2.183 2.183 3.817-3.817 3.817 3.817z" fill="#333" fill-rule="evenodd"/><path d="m92 115h10v60h-10z" fill="#1aac1e"/><path clip-rule="evenodd" d="m161.688 146.328c-.141 1.203-.585 2.132-1.333 2.785-.747.654-1.74.981-2.98.981-1.344 0-2.421-.482-3.23-1.446-.81-.963-1.215-2.252-1.215-3.867v-1.093c0-1.058.188-1.987.566-2.79.378-.802.913-1.418 1.606-1.847.692-.43 1.494-.645 2.406-.645 1.208 0 2.177.337 2.906 1.012.729.674 1.154 1.608 1.274 2.801h-1.508c-.131-.907-.413-1.563-.848-1.969s-1.043-.609-1.824-.609c-.959 0-1.71.354-2.254 1.062s-.816 1.716-.816 3.024v1.101c0 1.235.257 2.216.773 2.945.516.73 1.237 1.094 2.164 1.094.833 0 1.473-.189 1.918-.566.445-.378.741-1.035.887-1.973zm3.265-3.82c.641-.787 1.474-1.18 2.5-1.18 1.787 0 2.688 1.008 2.703 3.024v5.586h-1.445v-5.594c-.005-.61-.145-1.06-.418-1.352-.273-.291-.699-.437-1.277-.437-.469 0-.881.125-1.235.375s-.63.578-.828.984v6.024h-1.445v-12h1.445zm12.586 7.43c-.083-.167-.151-.464-.203-.891-.672.698-1.474 1.047-2.406 1.047-.834 0-1.517-.236-2.051-.707-.534-.472-.801-1.069-.801-1.793 0-.88.335-1.564 1.004-2.051s1.611-.731 2.824-.731h1.406v-.664c0-.505-.151-.907-.453-1.207-.302-.299-.747-.449-1.336-.449-.515 0-.947.13-1.296.391-.349.26-.524.575-.524.945h-1.453c0-.422.15-.829.449-1.223.3-.393.706-.704 1.219-.933s1.077-.344 1.691-.344c.974 0 1.737.244 2.289.731.553.487.839 1.157.86 2.011v3.891c0 .776.099 1.393.297 1.851v.126zm-2.398-1.102c.453 0 .882-.117 1.289-.352.406-.234.7-.539.882-.914v-1.734h-1.132c-1.771 0-2.657.518-2.657 1.555 0 .453.151.807.454 1.062.302.255.69.383 1.164.383zm7.25-7.352.047 1.063c.645-.813 1.489-1.219 2.531-1.219 1.786 0 2.687 1.008 2.703 3.024v5.586h-1.445v-5.594c-.006-.61-.145-1.06-.418-1.352-.274-.291-.7-.437-1.278-.437-.469 0-.88.125-1.234.375s-.63.578-.828.984v6.024h-1.446v-8.454zm7.117 4.157c0-1.318.304-2.366.914-3.145.609-.779 1.417-1.168 2.422-1.168 1.031 0 1.836.365 2.414 1.094l.07-.938h1.32v8.25c0 1.094-.324 1.956-.972 2.586-.649.631-1.52.946-2.614.946-.609 0-1.205-.131-1.789-.391-.583-.26-1.028-.617-1.335-1.07l.75-.867c.619.765 1.377 1.148 2.273 1.148.703 0 1.251-.198 1.644-.594.394-.396.59-.953.59-1.672v-.726c-.578.666-1.367 1-2.367 1-.989 0-1.79-.399-2.402-1.196-.612-.796-.918-1.882-.918-3.257zm1.453.164c0 .953.195 1.702.586 2.246s.937.816 1.641.816c.911 0 1.58-.414 2.007-1.242v-3.859c-.442-.808-1.106-1.211-1.992-1.211-.703 0-1.252.273-1.648.82s-.594 1.357-.594 2.43zm11.375 4.289c-1.146 0-2.078-.377-2.797-1.129-.719-.753-1.078-1.759-1.078-3.02v-.265c0-.839.16-1.588.48-2.246.321-.659.769-1.175 1.344-1.547.576-.373 1.199-.559 1.871-.559 1.099 0 1.953.362 2.563 1.086.609.724.914 1.76.914 3.109v.602h-5.727c.021.833.265 1.507.731 2.02s1.058.769 1.777.769c.51 0 .943-.104 1.297-.312.354-.209.664-.485.93-.829l.882.688c-.708 1.088-1.77 1.633-3.187 1.633zm-.18-7.578c-.583 0-1.073.212-1.468.636-.396.425-.641 1.02-.735 1.786h4.235v-.11c-.042-.734-.24-1.303-.594-1.707s-.834-.605-1.438-.605zm10.071 5.179c0-.39-.148-.694-.442-.91s-.807-.402-1.539-.558c-.732-.157-1.312-.344-1.742-.563s-.747-.479-.953-.781-.309-.662-.309-1.078c0-.693.293-1.279.879-1.758s1.335-.719 2.246-.719c.959 0 1.736.248 2.332.742.597.495.895 1.128.895 1.899h-1.453c0-.396-.168-.737-.504-1.024-.336-.286-.759-.429-1.27-.429-.526 0-.937.114-1.234.343-.297.23-.445.529-.445.899 0 .349.138.612.414.789s.774.346 1.496.508c.721.161 1.306.354 1.754.578.447.224.78.493.996.808.216.316.324.7.324 1.153 0 .755-.302 1.36-.906 1.816-.605.456-1.388.684-2.352.684-.677 0-1.276-.12-1.797-.36-.521-.239-.928-.574-1.222-1.004-.295-.429-.442-.894-.442-1.394h1.445c.026.484.22.868.582 1.152s.84.426 1.434.426c.547 0 .986-.111 1.316-.332.331-.221.497-.517.497-.887zm12.211 0c0-.39-.148-.694-.442-.91s-.807-.402-1.539-.558c-.732-.157-1.312-.344-1.742-.563s-.748-.479-.953-.781c-.206-.302-.309-.662-.309-1.078 0-.693.293-1.279.879-1.758s1.335-.719 2.246-.719c.958 0 1.736.248 2.332.742.597.495.895 1.128.895 1.899h-1.453c0-.396-.168-.737-.504-1.024-.336-.286-.759-.429-1.27-.429-.526 0-.937.114-1.234.343-.297.23-.446.529-.446.899 0 .349.138.612.414.789.277.177.775.346 1.497.508.721.161 1.306.354 1.753.578.448.224.78.493.997.808.216.316.324.7.324 1.153 0 .755-.302 1.36-.906 1.816-.605.456-1.388.684-2.352.684-.677 0-1.276-.12-1.797-.36-.521-.239-.928-.574-1.223-1.004-.294-.429-.441-.894-.441-1.394h1.445c.026.484.22.868.582 1.152s.84.426 1.434.426c.547 0 .986-.111 1.316-.332.331-.221.497-.517.497-.887zm8.546 2.243c-.083-.167-.151-.464-.203-.891-.672.698-1.474 1.047-2.406 1.047-.833 0-1.517-.236-2.051-.707-.534-.472-.801-1.069-.801-1.793 0-.88.335-1.564 1.004-2.051.67-.487 1.611-.731 2.825-.731h1.406v-.664c0-.505-.151-.907-.453-1.207-.302-.299-.748-.449-1.336-.449-.516 0-.948.13-1.297.391-.349.26-.524.575-.524.945h-1.453c0-.422.15-.829.45-1.223.299-.393.705-.704 1.218-.933s1.077-.344 1.692-.344c.974 0 1.737.244 2.289.731s.838 1.157.859 2.011v3.891c0 .776.099 1.393.297 1.851v.126zm-2.398-1.102c.453 0 .883-.117 1.289-.352.406-.234.701-.539.883-.914v-1.734h-1.133c-1.771 0-2.656.518-2.656 1.555 0 .453.151.807.453 1.062s.69.383 1.164.383zm8.555-.859 2.093-6.493h1.477l-3.031 8.454h-1.102l-3.062-8.454h1.476zm8.367 2.117c-1.146 0-2.078-.377-2.797-1.129-.719-.753-1.078-1.759-1.078-3.02v-.265c0-.839.16-1.588.48-2.246.321-.659.769-1.175 1.344-1.547.576-.373 1.199-.559 1.871-.559 1.099 0 1.953.362 2.563 1.086.609.724.914 1.76.914 3.109v.602h-5.727c.021.833.264 1.507.731 2.02.466.513 1.058.769 1.777.769.51 0 .943-.104 1.297-.312.354-.209.664-.485.929-.829l.883.688c-.708 1.088-1.771 1.633-3.187 1.633zm-.18-7.578c-.583 0-1.073.212-1.469.636-.395.425-.64 1.02-.734 1.786h4.234v-.11c-.041-.734-.239-1.303-.593-1.707-.355-.404-.834-.605-1.438-.605zm4.797 3.125c0-1.297.307-2.34.922-3.129.614-.789 1.419-1.184 2.414-1.184.99 0 1.773.339 2.351 1.016v-4.406h1.446v12h-1.328l-.071-.907c-.578.709-1.382 1.063-2.414 1.063-.979 0-1.777-.401-2.394-1.203s-.926-1.849-.926-3.141zm1.445.164c0 .958.198 1.708.594 2.25.396.541.943.812 1.641.812.916 0 1.586-.411 2.007-1.234v-3.883c-.432-.797-1.096-1.195-1.992-1.195-.708 0-1.26.273-1.656.82s-.594 1.357-.594 2.43zm16.813 1.89c0-.39-.147-.694-.442-.91-.294-.216-.807-.402-1.539-.558-.731-.157-1.312-.344-1.742-.563s-.747-.479-.953-.781-.309-.662-.309-1.078c0-.693.293-1.279.879-1.758s1.335-.719 2.246-.719c.959 0 1.736.248 2.332.742.597.495.895 1.128.895 1.899h-1.453c0-.396-.168-.737-.504-1.024-.336-.286-.759-.429-1.27-.429-.526 0-.937.114-1.234.343-.297.23-.445.529-.445.899 0 .349.138.612.414.789s.775.346 1.496.508c.721.161 1.306.354 1.754.578s.78.493.996.808c.216.316.324.7.324 1.153 0 .755-.302 1.36-.906 1.816s-1.388.684-2.352.684c-.677 0-1.276-.12-1.797-.36-.52-.239-.928-.574-1.222-1.004-.294-.429-.442-.894-.442-1.394h1.446c.026.484.22.868.582 1.152s.84.426 1.433.426c.547 0 .986-.111 1.317-.332.33-.221.496-.517.496-.887zm8.547 1.407c-.563.661-1.388.992-2.477.992-.901 0-1.587-.262-2.058-.785-.472-.524-.71-1.299-.715-2.325v-5.5h1.445v5.461c0 1.282.521 1.922 1.563 1.922 1.104 0 1.838-.411 2.203-1.234v-6.149h1.445v8.454h-1.375zm6.992-.188c.516 0 .966-.156 1.351-.469.386-.312.599-.703.641-1.172h1.367c-.026.485-.192.946-.5 1.383-.307.438-.717.787-1.23 1.047-.513.261-1.056.391-1.629.391-1.151 0-2.067-.384-2.746-1.153-.68-.768-1.02-1.819-1.02-3.152v-.242c0-.823.151-1.555.453-2.195.302-.641.736-1.138 1.301-1.493.565-.354 1.233-.531 2.004-.531.948 0 1.736.284 2.363.852.628.567.963 1.304 1.004 2.211h-1.367c-.042-.547-.249-.996-.621-1.348s-.832-.527-1.379-.527c-.734 0-1.303.264-1.707.793-.404.528-.605 1.293-.605 2.293v.273c0 .974.2 1.724.601 2.25s.974.789 1.719.789zm8.375 0c.516 0 .966-.156 1.351-.469.386-.312.599-.703.641-1.172h1.367c-.026.485-.192.946-.5 1.383-.307.438-.717.787-1.23 1.047-.513.261-1.056.391-1.629.391-1.151 0-2.067-.384-2.746-1.153-.68-.768-1.02-1.819-1.02-3.152v-.242c0-.823.151-1.555.453-2.195.302-.641.736-1.138 1.301-1.493.565-.354 1.233-.531 2.004-.531.948 0 1.736.284 2.363.852.628.567.963 1.304 1.004 2.211h-1.367c-.042-.547-.249-.996-.621-1.348s-.832-.527-1.379-.527c-.734 0-1.303.264-1.707.793-.404.528-.605 1.293-.605 2.293v.273c0 .974.2 1.724.601 2.25s.974.789 1.719.789zm8.492 1.18c-1.146 0-2.078-.377-2.797-1.129-.719-.753-1.078-1.759-1.078-3.02v-.265c0-.839.16-1.588.481-2.246.32-.659.768-1.175 1.343-1.547.576-.373 1.199-.559 1.871-.559 1.099 0 1.953.362 2.563 1.086.609.724.914 1.76.914 3.109v.602h-5.727c.021.833.265 1.507.731 2.02s1.058.769 1.777.769c.511 0 .943-.104 1.297-.312.354-.209.664-.485.93-.829l.883.688c-.709 1.088-1.771 1.633-3.188 1.633zm-.18-7.578c-.583 0-1.073.212-1.468.636-.396.425-.641 1.02-.735 1.786h4.235v-.11c-.042-.734-.24-1.303-.594-1.707s-.833-.605-1.438-.605zm10.071 5.179c0-.39-.147-.694-.442-.91-.294-.216-.807-.402-1.539-.558-.732-.157-1.312-.344-1.742-.563s-.747-.479-.953-.781-.309-.662-.309-1.078c0-.693.293-1.279.879-1.758s1.335-.719 2.246-.719c.959 0 1.736.248 2.332.742.597.495.895 1.128.895 1.899h-1.453c0-.396-.168-.737-.504-1.024-.336-.286-.759-.429-1.27-.429-.526 0-.937.114-1.234.343-.297.23-.445.529-.445.899 0 .349.138.612.414.789s.774.346 1.496.508c.721.161 1.306.354 1.754.578s.78.493.996.808c.216.316.324.7.324 1.153 0 .755-.302 1.36-.906 1.816s-1.388.684-2.352.684c-.677 0-1.276-.12-1.797-.36-.521-.239-.928-.574-1.222-1.004-.295-.429-.442-.894-.442-1.394h1.446c.026.484.22.868.582 1.152s.839.426 1.433.426c.547 0 .986-.111 1.317-.332.33-.221.496-.517.496-.887zm8.25 0c0-.39-.147-.694-.442-.91-.294-.216-.807-.402-1.539-.558-.732-.157-1.312-.344-1.742-.563s-.747-.479-.953-.781-.309-.662-.309-1.078c0-.693.293-1.279.879-1.758s1.335-.719 2.246-.719c.959 0 1.736.248 2.332.742.597.495.895 1.128.895 1.899h-1.453c0-.396-.168-.737-.504-1.024-.336-.286-.759-.429-1.27-.429-.526 0-.937.114-1.234.343-.297.23-.445.529-.445.899 0 .349.138.612.414.789s.774.346 1.496.508c.721.161 1.306.354 1.754.578s.78.493.996.808c.216.316.324.7.324 1.153 0 .755-.302 1.36-.906 1.816s-1.388.684-2.352.684c-.677 0-1.276-.12-1.797-.36-.521-.239-.928-.574-1.222-1.004-.295-.429-.442-.894-.442-1.394h1.446c.026.484.22.868.582 1.152s.839.426 1.433.426c.547 0 .986-.111 1.317-.332.33-.221.496-.517.496-.887zm4.039 2.243v-7.336h-1.336v-1.118h1.336v-.867c0-.906.242-1.607.726-2.101.485-.495 1.17-.743 2.055-.743.333 0 .664.045.992.133l-.078 1.172c-.245-.047-.505-.07-.781-.07-.469 0-.831.137-1.086.41s-.383.665-.383 1.176v.89h1.805v1.118h-1.805v7.336zm10.062-.836c-.562.661-1.388.992-2.476.992-.901 0-1.588-.262-2.059-.785-.471-.524-.71-1.299-.715-2.325v-5.5h1.446v5.461c0 1.282.52 1.922 1.562 1.922 1.104 0 1.839-.411 2.203-1.234v-6.149h1.446v8.454h-1.376zm5.172.836h-1.445v-12h1.445zm3.883 0h-1.445v-12h1.445zm5.078-2.118 1.969-6.336h1.547l-3.399 9.758c-.526 1.406-1.362 2.11-2.508 2.11l-.273-.024-.539-.101v-1.172l.391.031c.489 0 .871-.099 1.144-.297.274-.198.499-.56.676-1.086l.32-.859-3.015-8.36h1.578zm6.422-1.093h-1.305l-.101-8.165h1.515zm-1.461 2.484c0-.234.072-.431.215-.59s.355-.238.637-.238c.281 0 .494.079.64.238s.219.356.219.59-.073.428-.219.582-.359.23-.64.23c-.282 0-.494-.076-.637-.23s-.215-.348-.215-.582z" fill="#373737" fill-rule="evenodd"/><path d="m118 145.15 5.29 5.2c.39.388 1.02.388 1.41 0l10.6-10.6-2.8-2.75-8.5 8.5-3.1-3.2z" fill="#1aac1e"/><rect fill="#dcdcdc" height="18" rx="9" width="222" x="343" y="287"/><path clip-rule="evenodd" d="m343 296c0-4.971 4.029-9 9-9h143.504v18h-143.504c-4.971 0-9-4.029-9-9z" fill="#3c85df" fill-rule="evenodd"/></svg>