<?xml version="1.0" encoding="UTF-8"?>
<svg width="657px" height="370px" viewBox="0 0 657 370" version="1.1" xmlns="http://www.w3.org/2000/svg" xmlns:xlink="http://www.w3.org/1999/xlink">
    <!-- Generator: Sketch 44.1 (41455) - http://www.bohemiancoding.com/sketch -->
    <title>ReadyRoll Getting started graphic Copy 4</title>
    <desc>Created with Sketch.</desc>
    <defs>
        <path d="M16,-1.04805054e-13 L32,-1.04805054e-13 L32,16 L16,16 L16,-1.04805054e-13 Z M16,16 L32,16 L32,32 L16,32 L16,16 Z M-3.8191672e-14,16 L16,16 L16,32 L-3.8191672e-14,32 L-3.8191672e-14,16 Z" id="path-1"></path>
    </defs>
    <g id="Mockups" stroke="none" stroke-width="1" fill="none" fill-rule="evenodd">
        <g id="ReadyRoll-Getting-started-graphic-Copy-4">
            <rect id="Rectangle-5" x="0" y="0" width="657" height="370"></rect>
            <g id="Group-2" transform="translate(58.000000, 15.000000)">
                <g id="Group-5">
                    <rect id="Rectangle-8" fill="#FFFFFF" x="11" y="10" width="520" height="320"></rect>
                    <path d="M11,0 L11,340" id="Line" stroke="#8AB6EC" stroke-width="2" stroke-linecap="round"></path>
                    <path d="M531,0 L531,340" id="Line" stroke="#8AB6EC" stroke-width="2" stroke-linecap="round"></path>
                    <path d="M0,10 L542,10" id="Line" stroke="#8AB6EC" stroke-width="2" stroke-linecap="round"></path>
                    <path d="M0,330 L542,330" id="Line-Copy" stroke="#8AB6EC" stroke-width="2" stroke-linecap="round"></path>
                </g>
            </g>
            <g id="Group-3" transform="translate(58.000000, 24.000000)"></g>
            <g id="Group" transform="translate(92.000000, 54.000000)">
                <g id="Button-new-/Medium/Primary">
                    <rect id="Rectangle" fill="#336DC2" x="0" y="0" width="97" height="41" rx="5"></rect>
                    <path d="M31.6054688,26 L29.7617188,26 L29.7617188,18.75 C29.7617188,18.156247 29.7981767,17.4296918 29.8710938,16.5703125 L29.8398438,16.5703125 C29.7252598,17.0598983 29.6236984,17.4114573 29.5351562,17.625 L26.1914062,26 L24.9101562,26 L21.5585938,17.6875 C21.4648433,17.4427071 21.3658859,17.070315 21.2617188,16.5703125 L21.2304688,16.5703125 C21.2721356,17.0182314 21.2929688,17.7499949 21.2929688,18.765625 L21.2929688,26 L19.5742188,26 L19.5742188,14.796875 L22.1914062,14.796875 L25.1367188,22.2578125 C25.3606782,22.830732 25.5065101,23.2578111 25.5742188,23.5390625 L25.6132812,23.5390625 C25.8059905,22.9505179 25.962239,22.5130223 26.0820312,22.2265625 L29.0820312,14.796875 L31.6054688,14.796875 L31.6054688,26 Z M40.9335938,22.4921875 L35.4804688,22.4921875 C35.5013022,23.2317745 35.7291645,23.8020813 36.1640625,24.203125 C36.5989605,24.6041687 37.1966108,24.8046875 37.9570312,24.8046875 C38.8112022,24.8046875 39.5950485,24.5494817 40.3085938,24.0390625 L40.3085938,25.5 C39.5794234,25.9583356 38.6158914,26.1875 37.4179688,26.1875 C36.2408795,26.1875 35.3177117,25.8242224 34.6484375,25.0976562 C33.9791633,24.3710901 33.6445312,23.3489649 33.6445312,22.03125 C33.6445312,20.7864521 34.0130171,19.7721393 34.75,18.9882812 C35.4869829,18.2044232 36.4023383,17.8125 37.4960938,17.8125 C38.5898492,17.8125 39.4361949,18.164059 40.0351562,18.8671875 C40.6341176,19.570316 40.9335938,20.5468688 40.9335938,21.796875 L40.9335938,22.4921875 Z M39.1835938,21.2109375 C39.1783854,20.5598926 39.0247411,20.0533872 38.7226562,19.6914062 C38.4205714,19.3294253 38.0039089,19.1484375 37.4726562,19.1484375 C36.9518203,19.1484375 36.5104185,19.3385398 36.1484375,19.71875 C35.7864565,20.0989602 35.5638025,20.5963511 35.4804688,21.2109375 L39.1835938,21.2109375 Z M49.9335937,26 L48.1210937,26 L48.1210937,24.640625 L48.0898438,24.640625 C47.5065075,25.6718802 46.608079,26.1875 45.3945312,26.1875 C44.4101513,26.1875 43.6223988,25.8294307 43.03125,25.1132812 C42.4401012,24.3971318 42.1445312,23.4218812 42.1445312,22.1875 C42.1445312,20.8645767 42.4713509,19.8046915 43.125,19.0078125 C43.7786491,18.2109335 44.6497341,17.8125 45.7382812,17.8125 C46.8164116,17.8125 47.600258,18.2447873 48.0898438,19.109375 L48.1210937,19.109375 L48.1210937,14.15625 L49.9335937,14.15625 L49.9335937,26 Z M48.1445312,22.34375 L48.1445312,21.296875 C48.1445312,20.7291638 47.9596373,20.2473978 47.5898438,19.8515625 C47.2200502,19.4557272 46.7487008,19.2578125 46.1757812,19.2578125 C45.4986945,19.2578125 44.9661478,19.5104141 44.578125,20.015625 C44.1901022,20.5208359 43.9960938,21.2213497 43.9960938,22.1171875 C43.9960938,22.9296916 44.1822898,23.5716122 44.5546875,24.0429688 C44.9270852,24.5143253 45.4283823,24.75 46.0585938,24.75 C46.6783885,24.75 47.1809877,24.5221377 47.5664062,24.0664062 C47.9518248,23.6106748 48.1445312,23.0364618 48.1445312,22.34375 Z M53.2148438,16.3203125 C52.9179673,16.3203125 52.6640636,16.2239593 52.453125,16.03125 C52.2421864,15.8385407 52.1367188,15.5937515 52.1367188,15.296875 C52.1367188,14.9999985 52.2421864,14.7526052 52.453125,14.5546875 C52.6640636,14.3567698 52.9179673,14.2578125 53.2148438,14.2578125 C53.522137,14.2578125 53.782551,14.3567698 53.9960938,14.5546875 C54.2096365,14.7526052 54.3164062,14.9999985 54.3164062,15.296875 C54.3164062,15.5781264 54.2096365,15.8190094 53.9960938,16.0195312 C53.782551,16.2200531 53.522137,16.3203125 53.2148438,16.3203125 Z M54.1132812,26 L52.3007812,26 L52.3007812,18 L54.1132812,18 L54.1132812,26 Z M63.4570312,26 L61.6445312,26 L61.6445312,24.734375 L61.6132812,24.734375 C61.087237,25.7031298 60.2695368,26.1875 59.1601562,26.1875 C57.2695218,26.1875 56.3242188,25.0520947 56.3242188,22.78125 L56.3242188,18 L58.1367188,18 L58.1367188,22.59375 C58.1367188,24.0312572 58.6914007,24.75 59.8007812,24.75 C60.3372423,24.75 60.7786441,24.5520853 61.125,24.15625 C61.4713559,23.7604147 61.6445312,23.2421907 61.6445312,22.6015625 L61.6445312,18 L63.4570312,18 L63.4570312,26 Z M77.7773438,26 L75.9648438,26 L75.9648438,21.640625 C75.9648438,20.8020791 75.8463554,20.1953144 75.609375,19.8203125 C75.3723946,19.4453106 74.9726591,19.2578125 74.4101562,19.2578125 C73.9361955,19.2578125 73.5338558,19.4947893 73.203125,19.96875 C72.8723942,20.4427107 72.7070312,21.0104134 72.7070312,21.671875 L72.7070312,26 L70.8867188,26 L70.8867188,21.4921875 C70.8867188,20.0025967 70.3606823,19.2578125 69.3085938,19.2578125 C68.819008,19.2578125 68.4166682,19.4817686 68.1015625,19.9296875 C67.7864568,20.3776064 67.6289062,20.9583298 67.6289062,21.671875 L67.6289062,26 L65.8164062,26 L65.8164062,18 L67.6289062,18 L67.6289062,19.265625 L67.6601562,19.265625 C68.2382841,18.2968702 69.0794216,17.8125 70.1835938,17.8125 C70.7356798,17.8125 71.2187479,17.9648422 71.6328125,18.2695312 C72.0468771,18.5742203 72.3294263,18.9739559 72.4804688,19.46875 C73.0742217,18.3645778 73.9596295,17.8125 75.1367188,17.8125 C76.8971442,17.8125 77.7773438,18.8984266 77.7773438,21.0703125 L77.7773438,26 Z" id="Medium" fill="#FFFFFF"></path>
                </g>
                <g id="Button-new-/Medium/Primary-active" transform="translate(125.000000, 0.000000)">
                    <rect id="Rectangle" fill="#193558" x="0" y="0" width="97" height="41" rx="5"></rect>
                    <path d="M31.6054688,26 L29.7617188,26 L29.7617188,18.75 C29.7617188,18.156247 29.7981767,17.4296918 29.8710938,16.5703125 L29.8398438,16.5703125 C29.7252598,17.0598983 29.6236984,17.4114573 29.5351562,17.625 L26.1914062,26 L24.9101562,26 L21.5585938,17.6875 C21.4648433,17.4427071 21.3658859,17.070315 21.2617188,16.5703125 L21.2304688,16.5703125 C21.2721356,17.0182314 21.2929688,17.7499949 21.2929688,18.765625 L21.2929688,26 L19.5742188,26 L19.5742188,14.796875 L22.1914062,14.796875 L25.1367188,22.2578125 C25.3606782,22.830732 25.5065101,23.2578111 25.5742188,23.5390625 L25.6132812,23.5390625 C25.8059905,22.9505179 25.962239,22.5130223 26.0820312,22.2265625 L29.0820312,14.796875 L31.6054688,14.796875 L31.6054688,26 Z M40.9335938,22.4921875 L35.4804688,22.4921875 C35.5013022,23.2317745 35.7291645,23.8020813 36.1640625,24.203125 C36.5989605,24.6041687 37.1966108,24.8046875 37.9570312,24.8046875 C38.8112022,24.8046875 39.5950485,24.5494817 40.3085938,24.0390625 L40.3085938,25.5 C39.5794234,25.9583356 38.6158914,26.1875 37.4179688,26.1875 C36.2408795,26.1875 35.3177117,25.8242224 34.6484375,25.0976562 C33.9791633,24.3710901 33.6445312,23.3489649 33.6445312,22.03125 C33.6445312,20.7864521 34.0130171,19.7721393 34.75,18.9882812 C35.4869829,18.2044232 36.4023383,17.8125 37.4960938,17.8125 C38.5898492,17.8125 39.4361949,18.164059 40.0351562,18.8671875 C40.6341176,19.570316 40.9335938,20.5468688 40.9335938,21.796875 L40.9335938,22.4921875 Z M39.1835938,21.2109375 C39.1783854,20.5598926 39.0247411,20.0533872 38.7226562,19.6914062 C38.4205714,19.3294253 38.0039089,19.1484375 37.4726562,19.1484375 C36.9518203,19.1484375 36.5104185,19.3385398 36.1484375,19.71875 C35.7864565,20.0989602 35.5638025,20.5963511 35.4804688,21.2109375 L39.1835938,21.2109375 Z M49.9335937,26 L48.1210937,26 L48.1210937,24.640625 L48.0898438,24.640625 C47.5065075,25.6718802 46.608079,26.1875 45.3945312,26.1875 C44.4101513,26.1875 43.6223988,25.8294307 43.03125,25.1132812 C42.4401012,24.3971318 42.1445312,23.4218812 42.1445312,22.1875 C42.1445312,20.8645767 42.4713509,19.8046915 43.125,19.0078125 C43.7786491,18.2109335 44.6497341,17.8125 45.7382812,17.8125 C46.8164116,17.8125 47.600258,18.2447873 48.0898438,19.109375 L48.1210937,19.109375 L48.1210937,14.15625 L49.9335937,14.15625 L49.9335937,26 Z M48.1445312,22.34375 L48.1445312,21.296875 C48.1445312,20.7291638 47.9596373,20.2473978 47.5898438,19.8515625 C47.2200502,19.4557272 46.7487008,19.2578125 46.1757812,19.2578125 C45.4986945,19.2578125 44.9661478,19.5104141 44.578125,20.015625 C44.1901022,20.5208359 43.9960938,21.2213497 43.9960938,22.1171875 C43.9960938,22.9296916 44.1822898,23.5716122 44.5546875,24.0429688 C44.9270852,24.5143253 45.4283823,24.75 46.0585938,24.75 C46.6783885,24.75 47.1809877,24.5221377 47.5664062,24.0664062 C47.9518248,23.6106748 48.1445312,23.0364618 48.1445312,22.34375 Z M53.2148438,16.3203125 C52.9179673,16.3203125 52.6640636,16.2239593 52.453125,16.03125 C52.2421864,15.8385407 52.1367188,15.5937515 52.1367188,15.296875 C52.1367188,14.9999985 52.2421864,14.7526052 52.453125,14.5546875 C52.6640636,14.3567698 52.9179673,14.2578125 53.2148438,14.2578125 C53.522137,14.2578125 53.782551,14.3567698 53.9960938,14.5546875 C54.2096365,14.7526052 54.3164062,14.9999985 54.3164062,15.296875 C54.3164062,15.5781264 54.2096365,15.8190094 53.9960938,16.0195312 C53.782551,16.2200531 53.522137,16.3203125 53.2148438,16.3203125 Z M54.1132812,26 L52.3007812,26 L52.3007812,18 L54.1132812,18 L54.1132812,26 Z M63.4570312,26 L61.6445312,26 L61.6445312,24.734375 L61.6132812,24.734375 C61.087237,25.7031298 60.2695368,26.1875 59.1601562,26.1875 C57.2695218,26.1875 56.3242188,25.0520947 56.3242188,22.78125 L56.3242188,18 L58.1367188,18 L58.1367188,22.59375 C58.1367188,24.0312572 58.6914007,24.75 59.8007812,24.75 C60.3372423,24.75 60.7786441,24.5520853 61.125,24.15625 C61.4713559,23.7604147 61.6445312,23.2421907 61.6445312,22.6015625 L61.6445312,18 L63.4570312,18 L63.4570312,26 Z M77.7773438,26 L75.9648438,26 L75.9648438,21.640625 C75.9648438,20.8020791 75.8463554,20.1953144 75.609375,19.8203125 C75.3723946,19.4453106 74.9726591,19.2578125 74.4101562,19.2578125 C73.9361955,19.2578125 73.5338558,19.4947893 73.203125,19.96875 C72.8723942,20.4427107 72.7070312,21.0104134 72.7070312,21.671875 L72.7070312,26 L70.8867188,26 L70.8867188,21.4921875 C70.8867188,20.0025967 70.3606823,19.2578125 69.3085938,19.2578125 C68.819008,19.2578125 68.4166682,19.4817686 68.1015625,19.9296875 C67.7864568,20.3776064 67.6289062,20.9583298 67.6289062,21.671875 L67.6289062,26 L65.8164062,26 L65.8164062,18 L67.6289062,18 L67.6289062,19.265625 L67.6601562,19.265625 C68.2382841,18.2968702 69.0794216,17.8125 70.1835938,17.8125 C70.7356798,17.8125 71.2187479,17.9648422 71.6328125,18.2695312 C72.0468771,18.5742203 72.3294263,18.9739559 72.4804688,19.46875 C73.0742217,18.3645778 73.9596295,17.8125 75.1367188,17.8125 C76.8971442,17.8125 77.7773438,18.8984266 77.7773438,21.0703125 L77.7773438,26 Z" id="Medium" fill="#FFFFFF"></path>
                </g>
                <g id="Form/Text-entry" transform="translate(0.000000, 141.000000)">
                    <rect id="Rectangle-4" stroke="#333333" x="0.5" y="20.5" width="472" height="40" rx="5"></rect>
                    <path d="M6.87695312,8.93261719 L2.93945312,8.93261719 L2.93945312,13 L0.888671875,13 L0.888671875,3.046875 L7.36914062,3.046875 L7.36914062,4.70800781 L2.93945312,4.70800781 L2.93945312,7.27832031 L6.87695312,7.27832031 L6.87695312,8.93261719 Z M16.734375,8.24902344 C16.734375,9.22884604 16.5611996,10.0878869 16.2148438,10.8261719 C15.8684879,11.5644568 15.3728873,12.1341126 14.7280273,12.5351562 C14.0831673,12.9361999 13.3437542,13.1367188 12.5097656,13.1367188 C11.6848917,13.1367188 10.9488965,12.9384785 10.3017578,12.5419922 C9.65461916,12.1455058 9.15332209,11.579268 8.79785156,10.8432617 C8.44238104,10.1072554 8.26236981,9.26074697 8.2578125,8.30371094 L8.2578125,7.81152344 C8.2578125,6.83170083 8.43440579,5.96924201 8.78759766,5.22412109 C9.14078953,4.47900018 9.63980797,3.9070658 10.284668,3.50830078 C10.929528,3.10953577 11.6666625,2.91015625 12.4960938,2.91015625 C13.325525,2.91015625 14.0626595,3.10953577 14.7075195,3.50830078 C15.3523795,3.9070658 15.851398,4.47900018 16.2045898,5.22412109 C16.5577817,5.96924201 16.734375,6.82942221 16.734375,7.8046875 L16.734375,8.24902344 Z M14.65625,7.79785156 C14.65625,6.75422655 14.4694029,5.96126573 14.0957031,5.41894531 C13.7220033,4.87662489 13.1888055,4.60546875 12.4960938,4.60546875 C11.8079393,4.60546875 11.2770201,4.87320696 10.9033203,5.40869141 C10.5296205,5.94417585 10.3404948,6.72916149 10.3359375,7.76367188 L10.3359375,8.24902344 C10.3359375,9.26530456 10.5227846,10.0537081 10.8964844,10.6142578 C11.2701842,11.1748075 11.8079392,11.4550781 12.5097656,11.4550781 C13.1979201,11.4550781 13.7265607,11.1850613 14.0957031,10.6450195 C14.4648456,10.1049778 14.6516927,9.31771351 14.65625,8.28320312 L14.65625,7.79785156 Z M21.9091797,9.35644531 L20.2753906,9.35644531 L20.2753906,13 L18.2246094,13 L18.2246094,3.046875 L21.9228516,3.046875 C23.0986387,3.046875 24.0055307,3.30891665 24.6435547,3.83300781 C25.2815787,4.35709897 25.6005859,5.09765146 25.6005859,6.0546875 C25.6005859,6.73372735 25.4536148,7.29996518 25.159668,7.75341797 C24.8657212,8.20687076 24.4202504,8.56803251 23.8232422,8.83691406 L25.9765625,12.9042969 L25.9765625,13 L23.7753906,13 L21.9091797,9.35644531 Z M20.2753906,7.6953125 L21.9296875,7.6953125 C22.444664,7.6953125 22.8434231,7.56429167 23.1259766,7.30224609 C23.4085301,7.04020051 23.5498047,6.67903876 23.5498047,6.21875 C23.5498047,5.74934661 23.4165052,5.38020968 23.1499023,5.11132812 C22.8832994,4.84244657 22.4742866,4.70800781 21.9228516,4.70800781 L20.2753906,4.70800781 L20.2753906,7.6953125 Z M29.8388672,3.046875 L32.3955078,10.265625 L34.9384766,3.046875 L37.6318359,3.046875 L37.6318359,13 L35.5742188,13 L35.5742188,10.2792969 L35.7792969,5.58300781 L33.0927734,13 L31.6845703,13 L29.0048828,5.58984375 L29.2099609,10.2792969 L29.2099609,13 L27.1591797,13 L27.1591797,3.046875 L29.8388672,3.046875 Z M44.9599609,11.3525391 L49.3144531,11.3525391 L49.3144531,13 L42.9091797,13 L42.9091797,3.046875 L44.9599609,3.046875 L44.9599609,11.3525391 Z M56.2392578,10.9492188 L52.6435547,10.9492188 L51.9599609,13 L49.7792969,13 L53.484375,3.046875 L55.3847656,3.046875 L59.1103516,13 L56.9296875,13 L56.2392578,10.9492188 Z M53.1972656,9.28808594 L55.6855469,9.28808594 L54.4345703,5.5625 L53.1972656,9.28808594 Z M60.0400391,13 L60.0400391,3.046875 L63.5263672,3.046875 C64.7340555,3.046875 65.650062,3.27815524 66.2744141,3.74072266 C66.8987661,4.20329007 67.2109375,4.88118043 67.2109375,5.77441406 C67.2109375,6.26204671 67.0856132,6.69156715 66.8349609,7.06298828 C66.5843086,7.43440941 66.2356793,7.70670486 65.7890625,7.87988281 C66.2994817,8.00748762 66.7016587,8.26497202 66.9956055,8.65234375 C67.2895523,9.03971548 67.4365234,9.51366907 67.4365234,10.0742188 C67.4365234,11.0312548 67.1311879,11.7558569 66.5205078,12.2480469 C65.9098277,12.7402368 65.0393937,12.9908854 63.9091797,13 L60.0400391,13 Z M62.0908203,8.66601562 L62.0908203,11.3525391 L63.8476562,11.3525391 C64.3307316,11.3525391 64.7078437,11.2374686 64.9790039,11.0073242 C65.2501641,10.7771798 65.3857422,10.4593119 65.3857422,10.0537109 C65.3857422,9.14224805 64.9140672,8.67968757 63.9707031,8.66601562 L62.0908203,8.66601562 Z M62.0908203,7.21679688 L63.6083984,7.21679688 C64.6429088,7.19856762 65.1601562,6.78613685 65.1601562,5.97949219 C65.1601562,5.52831806 65.0291354,5.20361427 64.7670898,5.00537109 C64.5050443,4.80712792 64.0914742,4.70800781 63.5263672,4.70800781 L62.0908203,4.70800781 L62.0908203,7.21679688 Z M74.9628906,8.68652344 L71.0253906,8.68652344 L71.0253906,11.3525391 L75.6464844,11.3525391 L75.6464844,13 L68.9746094,13 L68.9746094,3.046875 L75.6328125,3.046875 L75.6328125,4.70800781 L71.0253906,4.70800781 L71.0253906,7.08007812 L74.9628906,7.08007812 L74.9628906,8.68652344 Z M78.9003906,11.3525391 L83.2548828,11.3525391 L83.2548828,13 L76.8496094,13 L76.8496094,3.046875 L78.9003906,3.046875 L78.9003906,11.3525391 Z" id="Label" fill="#222222"></path>
                    <path d="M19.1796875,35.859375 L15.5234375,35.859375 L15.5234375,46 L14.03125,46 L14.03125,35.859375 L10.3828125,35.859375 L10.3828125,34.625 L19.1796875,34.625 L19.1796875,35.859375 Z M23.375,46.15625 C22.2291609,46.15625 21.2968786,45.7799517 20.578125,45.0273438 C19.8593714,44.2747358 19.5,43.2682355 19.5,42.0078125 L19.5,41.7421875 C19.5,40.9036416 19.6601546,40.1549512 19.9804688,39.4960938 C20.3007829,38.8372363 20.748695,38.3216164 21.3242188,37.9492188 C21.8997425,37.5768211 22.5234341,37.390625 23.1953125,37.390625 C24.2942763,37.390625 25.1484345,37.7526005 25.7578125,38.4765625 C26.3671905,39.2005245 26.671875,40.2369724 26.671875,41.5859375 L26.671875,42.1875 L20.9453125,42.1875 C20.9661459,43.0208375 21.2096331,43.6940079 21.6757812,44.2070312 C22.1419294,44.7200546 22.7343714,44.9765625 23.453125,44.9765625 C23.9635442,44.9765625 24.3958316,44.8723969 24.75,44.6640625 C25.1041684,44.4557281 25.4140612,44.1796892 25.6796875,43.8359375 L26.5625,44.5234375 C25.8541631,45.6119846 24.7916738,46.15625 23.375,46.15625 Z M23.1953125,38.578125 C22.6119763,38.578125 22.1223978,38.7903625 21.7265625,39.2148438 C21.3307272,39.639325 21.085938,40.2343712 20.9921875,41 L25.2265625,41 L25.2265625,40.890625 C25.1848956,40.1562463 24.9869809,39.5872416 24.6328125,39.1835938 C24.2786441,38.7799459 23.7994822,38.578125 23.1953125,38.578125 Z M31.1796875,40.6328125 L33.0546875,37.546875 L34.7421875,37.546875 L31.9765625,41.7265625 L34.828125,46 L33.15625,46 L31.203125,42.8359375 L29.25,46 L27.5703125,46 L30.421875,41.7265625 L27.65625,37.546875 L29.328125,37.546875 L31.1796875,40.6328125 Z M38.234375,35.5 L38.234375,37.546875 L39.8125,37.546875 L39.8125,38.6640625 L38.234375,38.6640625 L38.234375,43.90625 C38.234375,44.2447934 38.3046868,44.4986971 38.4453125,44.6679688 C38.5859382,44.8372404 38.8255191,44.921875 39.1640625,44.921875 C39.33073,44.921875 39.5598944,44.8906253 39.8515625,44.828125 L39.8515625,46 C39.4713523,46.1041672 39.1015643,46.15625 38.7421875,46.15625 C38.0963509,46.15625 37.6093766,45.9609395 37.28125,45.5703125 C36.9531234,45.1796855 36.7890625,44.6250036 36.7890625,43.90625 L36.7890625,38.6640625 L35.25,38.6640625 L35.25,37.546875 L36.7890625,37.546875 L36.7890625,35.5 L38.234375,35.5 Z M47.03125,46 L45.5859375,46 L45.5859375,37.546875 L47.03125,37.546875 L47.03125,46 Z M45.46875,35.3046875 C45.46875,35.0703113 45.5403639,34.8723966 45.6835938,34.7109375 C45.8268236,34.5494784 46.0390611,34.46875 46.3203125,34.46875 C46.6015639,34.46875 46.8151034,34.5494784 46.9609375,34.7109375 C47.1067716,34.8723966 47.1796875,35.0703113 47.1796875,35.3046875 C47.1796875,35.5390637 47.1067716,35.7343742 46.9609375,35.890625 C46.8151034,36.0468758 46.6015639,36.125 46.3203125,36.125 C46.0390611,36.125 45.8268236,36.0468758 45.6835938,35.890625 C45.5403639,35.7343742 45.46875,35.5390637 45.46875,35.3046875 Z M50.7109375,37.546875 L50.7578125,38.609375 C51.4036491,37.7968709 52.2473906,37.390625 53.2890625,37.390625 C55.0755298,37.390625 55.9765624,38.3984274 55.9921875,40.4140625 L55.9921875,46 L54.546875,46 L54.546875,40.40625 C54.5416666,39.796872 54.4023451,39.3463556 54.1289062,39.0546875 C53.8554674,38.7630194 53.4296904,38.6171875 52.8515625,38.6171875 C52.3828102,38.6171875 51.9713559,38.7421863 51.6171875,38.9921875 C51.2630191,39.2421887 50.9869802,39.5703105 50.7890625,39.9765625 L50.7890625,46 L49.34375,46 L49.34375,37.546875 L50.7109375,37.546875 Z M65.3125,41.8671875 C65.3125,43.1536523 65.0182321,44.1901002 64.4296875,44.9765625 C63.8411429,45.7630248 63.0442759,46.15625 62.0390625,46.15625 C61.0130157,46.15625 60.2057321,45.8307324 59.6171875,45.1796875 L59.6171875,49.25 L58.171875,49.25 L58.171875,37.546875 L59.4921875,37.546875 L59.5625,38.484375 C60.1510446,37.7552047 60.9687448,37.390625 62.015625,37.390625 C63.0312551,37.390625 63.8346325,37.7734337 64.4257812,38.5390625 C65.01693,39.3046913 65.3125,40.3697848 65.3125,41.734375 L65.3125,41.8671875 Z M63.8671875,41.703125 C63.8671875,40.7499952 63.6640645,39.9973986 63.2578125,39.4453125 C62.8515605,38.8932264 62.2942744,38.6171875 61.5859375,38.6171875 C60.7109331,38.6171875 60.0546897,39.0052045 59.6171875,39.78125 L59.6171875,43.8203125 C60.0494813,44.5911497 60.710933,44.9765625 61.6015625,44.9765625 C62.2942743,44.9765625 62.84505,44.7018257 63.2539062,44.1523438 C63.6627625,43.6028618 63.8671875,42.7864637 63.8671875,41.703125 Z M72.3671875,45.1640625 C71.8046847,45.8255241 70.9791721,46.15625 69.890625,46.15625 C68.9895788,46.15625 68.3033878,45.8945339 67.8320312,45.3710938 C67.3606747,44.8476536 67.1223959,44.0729218 67.1171875,43.046875 L67.1171875,37.546875 L68.5625,37.546875 L68.5625,43.0078125 C68.5625,44.2890689 69.0833281,44.9296875 70.125,44.9296875 C71.2291722,44.9296875 71.9635398,44.5182333 72.328125,43.6953125 L72.328125,37.546875 L73.7734375,37.546875 L73.7734375,46 L72.3984375,46 L72.3671875,45.1640625 Z M77.9296875,35.5 L77.9296875,37.546875 L79.5078125,37.546875 L79.5078125,38.6640625 L77.9296875,38.6640625 L77.9296875,43.90625 C77.9296875,44.2447934 77.9999993,44.4986971 78.140625,44.6679688 C78.2812507,44.8372404 78.5208316,44.921875 78.859375,44.921875 C79.0260425,44.921875 79.2552069,44.8906253 79.546875,44.828125 L79.546875,46 C79.1666648,46.1041672 78.7968768,46.15625 78.4375,46.15625 C77.7916634,46.15625 77.3046891,45.9609395 76.9765625,45.5703125 C76.6484359,45.1796855 76.484375,44.6250036 76.484375,43.90625 L76.484375,38.6640625 L74.9453125,38.6640625 L74.9453125,37.546875 L76.484375,37.546875 L76.484375,35.5 L77.9296875,35.5 Z" id="Text-input" fill="#222222"></path>
                </g>
                <g id="Progress-indicators/spinners/desktop-spinner-32px-with-text-Copy" transform="translate(0.000000, 222.000000)">
                    <g id="Progress-indicators/spinners/32px">
                        <g id="Oval-4" transform="translate(19.595918, 19.595918) rotate(-15.000000) translate(-19.595918, -19.595918) translate(3.595918, 3.595918)">
                            <mask id="mask-2" fill="white">
                                <use xlink:href="#path-1"></use>
                            </mask>
                            <g id="Mask"></g>
                            <path d="M16,26.6 C21.8542183,26.6 26.6,21.8542183 26.6,16 C26.6,10.1457817 21.8542183,5.4 16,5.4 C10.1457817,5.4 5.4,10.1457817 5.4,16 C5.4,21.8542183 10.1457817,26.6 16,26.6 Z M16,31.6 C7.3843579,31.6 0.4,24.6156421 0.4,16 C0.4,7.3843579 7.3843579,0.4 16,0.4 C24.6156421,0.4 31.6,7.3843579 31.6,16 C31.6,24.6156421 24.6156421,31.6 16,31.6 Z" fill="#3C85DF" fill-rule="nonzero" mask="url(#mask-2)"></path>
                        </g>
                    </g>
                    <path d="M58.125,25.234375 C56.9583275,25.8697948 55.6588613,26.1875 54.2265625,26.1875 C52.5703042,26.1875 51.2291718,25.6718802 50.203125,24.640625 C49.1770782,23.6093698 48.6640625,22.2448002 48.6640625,20.546875 C48.6640625,18.8124913 49.2252548,17.3893285 50.3476562,16.2773438 C51.4700577,15.165359 52.8958247,14.609375 54.625,14.609375 C55.8697979,14.609375 56.9166624,14.7916648 57.765625,15.15625 L57.765625,17.0703125 C56.9062457,16.497393 55.8828184,16.2109375 54.6953125,16.2109375 C53.5025982,16.2109375 52.5247434,16.6041627 51.7617188,17.390625 C50.9986941,18.1770873 50.6171875,19.1953063 50.6171875,20.4453125 C50.6171875,21.7317773 50.9453092,22.7434859 51.6015625,23.4804688 C52.2578158,24.2174516 53.1484319,24.5859375 54.2734375,24.5859375 C55.0442747,24.5859375 55.7109347,24.4375015 56.2734375,24.140625 L56.2734375,21.4765625 L53.9140625,21.4765625 L53.9140625,19.9140625 L58.125,19.9140625 L58.125,25.234375 Z M67.109375,22.4921875 L61.65625,22.4921875 C61.6770834,23.2317745 61.9049457,23.8020813 62.3398438,24.203125 C62.7747418,24.6041687 63.372392,24.8046875 64.1328125,24.8046875 C64.9869834,24.8046875 65.7708298,24.5494817 66.484375,24.0390625 L66.484375,25.5 C65.7552047,25.9583356 64.7916727,26.1875 63.59375,26.1875 C62.4166608,26.1875 61.4934929,25.8242224 60.8242188,25.0976562 C60.1549446,24.3710901 59.8203125,23.3489649 59.8203125,22.03125 C59.8203125,20.7864521 60.1887984,19.7721393 60.9257812,18.9882812 C61.6627641,18.2044232 62.5781195,17.8125 63.671875,17.8125 C64.7656305,17.8125 65.6119762,18.164059 66.2109375,18.8671875 C66.8098988,19.570316 67.109375,20.5468688 67.109375,21.796875 L67.109375,22.4921875 Z M65.359375,21.2109375 C65.3541666,20.5598926 65.2005223,20.0533872 64.8984375,19.6914062 C64.5963527,19.3294253 64.1796902,19.1484375 63.6484375,19.1484375 C63.1276016,19.1484375 62.6861997,19.3385398 62.3242188,19.71875 C61.9622378,20.0989602 61.7395838,20.5963511 61.65625,21.2109375 L65.359375,21.2109375 Z M68.3359375,25.75 L68.3359375,24.0703125 C69.0130242,24.5859401 69.7604126,24.84375 70.578125,24.84375 C71.6718805,24.84375 72.21875,24.5208366 72.21875,23.875 C72.21875,23.6927074 72.1718755,23.5377611 72.078125,23.4101562 C71.9843745,23.2825514 71.8580737,23.1692713 71.6992188,23.0703125 C71.5403638,22.9713537 71.3528657,22.8828129 71.1367188,22.8046875 C70.9205718,22.7265621 70.6796888,22.6380213 70.4140625,22.5390625 C70.0859359,22.4088535 69.7903659,22.2708341 69.5273438,22.125 C69.2643216,21.9791659 69.0455738,21.813803 68.8710938,21.6289062 C68.6966137,21.4440095 68.5651046,21.2343762 68.4765625,21 C68.3880204,20.7656238 68.34375,20.4921891 68.34375,20.1796875 C68.34375,19.7942689 68.4348949,19.4544286 68.6171875,19.1601562 C68.7994801,18.8658839 69.0442693,18.6184906 69.3515625,18.4179688 C69.6588557,18.2174469 70.0078105,18.0664068 70.3984375,17.9648438 C70.7890645,17.8632807 71.1927063,17.8125 71.609375,17.8125 C72.348962,17.8125 73.0104137,17.924478 73.59375,18.1484375 L73.59375,19.734375 C73.0312472,19.3489564 72.3854203,19.15625 71.65625,19.15625 C71.4270822,19.15625 71.220053,19.1796873 71.0351562,19.2265625 C70.8502595,19.2734377 70.692709,19.3385412 70.5625,19.421875 C70.432291,19.5052088 70.3307295,19.6054682 70.2578125,19.7226562 C70.1848955,19.8398443 70.1484375,19.9687493 70.1484375,20.109375 C70.1484375,20.2812509 70.1848955,20.4270827 70.2578125,20.546875 C70.3307295,20.6666673 70.4388014,20.772135 70.5820312,20.8632812 C70.7252611,20.9544275 70.8971344,21.03776 71.0976562,21.1132812 C71.2981781,21.1888025 71.5286445,21.2708329 71.7890625,21.359375 C72.1328142,21.5000007 72.4414049,21.6432284 72.7148438,21.7890625 C72.9882826,21.9348966 73.2213532,22.1002595 73.4140625,22.2851562 C73.6067718,22.470053 73.7552078,22.6835925 73.859375,22.9257812 C73.9635422,23.16797 74.015625,23.4557275 74.015625,23.7890625 C74.015625,24.1953145 73.9218759,24.5494777 73.734375,24.8515625 C73.5468741,25.1536473 73.2968766,25.4036448 72.984375,25.6015625 C72.6718734,25.7994802 72.3112,25.9466141 71.9023438,26.0429688 C71.4934875,26.1393234 71.0625023,26.1875 70.609375,26.1875 C69.7343706,26.1875 68.9765657,26.0416681 68.3359375,25.75 Z M79.953125,25.9140625 C79.5989566,26.0911467 79.1328154,26.1796875 78.5546875,26.1796875 C77.0025964,26.1796875 76.2265625,25.4349033 76.2265625,23.9453125 L76.2265625,19.421875 L74.890625,19.421875 L74.890625,18 L76.2265625,18 L76.2265625,16.1484375 L78.0390625,15.6328125 L78.0390625,18 L79.953125,18 L79.953125,19.421875 L78.0390625,19.421875 L78.0390625,23.421875 C78.0390625,23.8958357 78.1249991,24.234374 78.296875,24.4375 C78.4687509,24.640626 78.7552063,24.7421875 79.15625,24.7421875 C79.4635432,24.7421875 79.7291655,24.6536467 79.953125,24.4765625 L79.953125,25.9140625 Z M82.4296875,16.3203125 C82.132811,16.3203125 81.8789073,16.2239593 81.6679688,16.03125 C81.4570302,15.8385407 81.3515625,15.5937515 81.3515625,15.296875 C81.3515625,14.9999985 81.4570302,14.7526052 81.6679688,14.5546875 C81.8789073,14.3567698 82.132811,14.2578125 82.4296875,14.2578125 C82.7369807,14.2578125 82.9973948,14.3567698 83.2109375,14.5546875 C83.4244802,14.7526052 83.53125,14.9999985 83.53125,15.296875 C83.53125,15.5781264 83.4244802,15.8190094 83.2109375,16.0195312 C82.9973948,16.2200531 82.7369807,16.3203125 82.4296875,16.3203125 Z M83.328125,26 L81.515625,26 L81.515625,18 L83.328125,18 L83.328125,26 Z M91.421875,25.6328125 C90.7812468,26.002606 90.0234419,26.1875 89.1484375,26.1875 C87.9609316,26.1875 87.0026078,25.81641 86.2734375,25.0742188 C85.5442672,24.3320275 85.1796875,23.3697976 85.1796875,22.1875 C85.1796875,20.8697851 85.5716107,19.8112019 86.3554688,19.0117188 C87.1393268,18.2122356 88.1874934,17.8125 89.5,17.8125 C90.2291703,17.8125 90.872393,17.9401029 91.4296875,18.1953125 L91.4296875,19.8828125 C90.872393,19.4661438 90.278649,19.2578125 89.6484375,19.2578125 C88.8828087,19.2578125 88.2552108,19.5169245 87.765625,20.0351562 C87.2760392,20.553388 87.03125,21.2317666 87.03125,22.0703125 C87.03125,22.8984416 87.2617164,23.5520809 87.7226562,24.03125 C88.1835961,24.5104191 88.8020795,24.75 89.578125,24.75 C90.2291699,24.75 90.8437471,24.5182315 91.421875,24.0546875 L91.421875,25.6328125 Z M100.195312,26 L98.3828125,26 L98.3828125,24.734375 L98.3515625,24.734375 C97.8255182,25.7031298 97.007818,26.1875 95.8984375,26.1875 C94.007803,26.1875 93.0625,25.0520947 93.0625,22.78125 L93.0625,18 L94.875,18 L94.875,22.59375 C94.875,24.0312572 95.429682,24.75 96.5390625,24.75 C97.0755235,24.75 97.5169254,24.5520853 97.8632812,24.15625 C98.2096371,23.7604147 98.3828125,23.2421907 98.3828125,22.6015625 L98.3828125,18 L100.195312,18 L100.195312,26 Z M104.375,26 L102.554688,26 L102.554688,14.15625 L104.375,14.15625 L104.375,26 Z M112.875,26 L111.117188,26 L111.117188,24.75 L111.085938,24.75 C110.533851,25.7083381 109.723964,26.1875 108.65625,26.1875 C107.869788,26.1875 107.253908,25.9739605 106.808594,25.546875 C106.363279,25.1197895 106.140625,24.554691 106.140625,23.8515625 C106.140625,22.3411383 107.010408,21.4609388 108.75,21.2109375 L111.125,20.875 C111.125,19.7343693 110.583339,19.1640625 109.5,19.1640625 C108.54687,19.1640625 107.687504,19.4921842 106.921875,20.1484375 L106.921875,18.5625 C107.765629,18.0624975 108.739578,17.8125 109.84375,17.8125 C111.864593,17.8125 112.875,18.8072817 112.875,20.796875 L112.875,26 Z M111.125,22.0703125 L109.445312,22.3046875 C108.924477,22.3723962 108.532553,22.498697 108.269531,22.6835938 C108.006509,22.8684905 107.875,23.192706 107.875,23.65625 C107.875,23.9947934 107.996093,24.2721343 108.238281,24.4882812 C108.48047,24.7044282 108.804685,24.8125 109.210938,24.8125 C109.763024,24.8125 110.22005,24.6184915 110.582031,24.2304688 C110.944012,23.842446 111.125,23.3541696 111.125,22.765625 L111.125,22.0703125 Z M119.304688,25.9140625 C118.950519,26.0911467 118.484378,26.1796875 117.90625,26.1796875 C116.354159,26.1796875 115.578125,25.4349033 115.578125,23.9453125 L115.578125,19.421875 L114.242188,19.421875 L114.242188,18 L115.578125,18 L115.578125,16.1484375 L117.390625,15.6328125 L117.390625,18 L119.304688,18 L119.304688,19.421875 L117.390625,19.421875 L117.390625,23.421875 C117.390625,23.8958357 117.476562,24.234374 117.648438,24.4375 C117.820313,24.640626 118.106769,24.7421875 118.507812,24.7421875 C118.815106,24.7421875 119.080728,24.6536467 119.304688,24.4765625 L119.304688,25.9140625 Z M121.78125,16.3203125 C121.484374,16.3203125 121.23047,16.2239593 121.019531,16.03125 C120.808593,15.8385407 120.703125,15.5937515 120.703125,15.296875 C120.703125,14.9999985 120.808593,14.7526052 121.019531,14.5546875 C121.23047,14.3567698 121.484374,14.2578125 121.78125,14.2578125 C122.088543,14.2578125 122.348957,14.3567698 122.5625,14.5546875 C122.776043,14.7526052 122.882812,14.9999985 122.882812,15.296875 C122.882812,15.5781264 122.776043,15.8190094 122.5625,16.0195312 C122.348957,16.2200531 122.088543,16.3203125 121.78125,16.3203125 Z M122.679688,26 L120.867188,26 L120.867188,18 L122.679688,18 L122.679688,26 Z M132.171875,26 L130.359375,26 L130.359375,21.4921875 C130.359375,19.9973884 129.830734,19.25 128.773438,19.25 C128.221351,19.25 127.765627,19.4570292 127.40625,19.8710938 C127.046873,20.2851583 126.867188,20.8072885 126.867188,21.4375 L126.867188,26 L125.046875,26 L125.046875,18 L126.867188,18 L126.867188,19.328125 L126.898438,19.328125 C127.497399,18.3177033 128.361974,17.8125 129.492188,17.8125 C130.361984,17.8125 131.026039,18.0950493 131.484375,18.6601562 C131.942711,19.2252632 132.171875,20.0416613 132.171875,21.109375 L132.171875,26 Z M141.664062,25.359375 C141.664062,28.2968897 140.187515,29.765625 137.234375,29.765625 C136.192703,29.765625 135.283858,29.5911476 134.507812,29.2421875 L134.507812,27.5859375 C135.382817,28.08594 136.213538,28.3359375 137,28.3359375 C138.901051,28.3359375 139.851562,27.401051 139.851562,25.53125 L139.851562,24.65625 L139.820312,24.65625 C139.221351,25.6770884 138.320319,26.1875 137.117188,26.1875 C136.143224,26.1875 135.358076,25.8320348 134.761719,25.1210938 C134.165362,24.4101527 133.867188,23.4557352 133.867188,22.2578125 C133.867188,20.8984307 134.187497,19.8177123 134.828125,19.015625 C135.468753,18.2135377 136.348953,17.8125 137.46875,17.8125 C138.526047,17.8125 139.309893,18.2447873 139.820312,19.109375 L139.851562,19.109375 L139.851562,18 L141.664062,18 L141.664062,25.359375 Z M139.867188,22.3359375 L139.867188,21.296875 C139.867188,20.7343722 139.680991,20.2539082 139.308594,19.8554688 C138.936196,19.4570293 138.471357,19.2578125 137.914062,19.2578125 C137.226559,19.2578125 136.688804,19.5117162 136.300781,20.0195312 C135.912758,20.5273463 135.71875,21.2369746 135.71875,22.1484375 C135.71875,22.9348998 135.904946,23.5637997 136.277344,24.0351562 C136.649741,24.5065128 137.143226,24.7421875 137.757812,24.7421875 C138.382816,24.7421875 138.890623,24.5169293 139.28125,24.0664062 C139.671877,23.6158832 139.867188,23.039066 139.867188,22.3359375 Z M160.65625,26 L158.8125,26 L158.8125,18.75 C158.8125,18.156247 158.848958,17.4296918 158.921875,16.5703125 L158.890625,16.5703125 C158.776041,17.0598983 158.67448,17.4114573 158.585938,17.625 L155.242188,26 L153.960938,26 L150.609375,17.6875 C150.515625,17.4427071 150.416667,17.070315 150.3125,16.5703125 L150.28125,16.5703125 C150.322917,17.0182314 150.34375,17.7499949 150.34375,18.765625 L150.34375,26 L148.625,26 L148.625,14.796875 L151.242188,14.796875 L154.1875,22.2578125 C154.411459,22.830732 154.557291,23.2578111 154.625,23.5390625 L154.664062,23.5390625 C154.856772,22.9505179 155.01302,22.5130223 155.132812,22.2265625 L158.132812,14.796875 L160.65625,14.796875 L160.65625,26 Z M164.125,16.3203125 C163.828124,16.3203125 163.57422,16.2239593 163.363281,16.03125 C163.152343,15.8385407 163.046875,15.5937515 163.046875,15.296875 C163.046875,14.9999985 163.152343,14.7526052 163.363281,14.5546875 C163.57422,14.3567698 163.828124,14.2578125 164.125,14.2578125 C164.432293,14.2578125 164.692707,14.3567698 164.90625,14.5546875 C165.119793,14.7526052 165.226562,14.9999985 165.226562,15.296875 C165.226562,15.5781264 165.119793,15.8190094 164.90625,16.0195312 C164.692707,16.2200531 164.432293,16.3203125 164.125,16.3203125 Z M165.023438,26 L163.210938,26 L163.210938,18 L165.023438,18 L165.023438,26 Z M179.351562,26 L177.539062,26 L177.539062,21.640625 C177.539062,20.8020791 177.420574,20.1953144 177.183594,19.8203125 C176.946613,19.4453106 176.546878,19.2578125 175.984375,19.2578125 C175.510414,19.2578125 175.108075,19.4947893 174.777344,19.96875 C174.446613,20.4427107 174.28125,21.0104134 174.28125,21.671875 L174.28125,26 L172.460938,26 L172.460938,21.4921875 C172.460938,20.0025967 171.934901,19.2578125 170.882812,19.2578125 C170.393227,19.2578125 169.990887,19.4817686 169.675781,19.9296875 C169.360676,20.3776064 169.203125,20.9583298 169.203125,21.671875 L169.203125,26 L167.390625,26 L167.390625,18 L169.203125,18 L169.203125,19.265625 L169.234375,19.265625 C169.812503,18.2968702 170.65364,17.8125 171.757812,17.8125 C172.309899,17.8125 172.792967,17.9648422 173.207031,18.2695312 C173.621096,18.5742203 173.903645,18.9739559 174.054688,19.46875 C174.64844,18.3645778 175.533848,17.8125 176.710937,17.8125 C178.471363,17.8125 179.351562,18.8984266 179.351562,21.0703125 L179.351562,26 Z M188.335938,22.4921875 L182.882812,22.4921875 C182.903646,23.2317745 183.131508,23.8020813 183.566406,24.203125 C184.001304,24.6041687 184.598955,24.8046875 185.359375,24.8046875 C186.213546,24.8046875 186.997392,24.5494817 187.710938,24.0390625 L187.710938,25.5 C186.981767,25.9583356 186.018235,26.1875 184.820312,26.1875 C183.643223,26.1875 182.720055,25.8242224 182.050781,25.0976562 C181.381507,24.3710901 181.046875,23.3489649 181.046875,22.03125 C181.046875,20.7864521 181.415361,19.7721393 182.152344,18.9882812 C182.889327,18.2044232 183.804682,17.8125 184.898438,17.8125 C185.992193,17.8125 186.838539,18.164059 187.4375,18.8671875 C188.036461,19.570316 188.335938,20.5468688 188.335938,21.796875 L188.335938,22.4921875 Z M186.585938,21.2109375 C186.580729,20.5598926 186.427085,20.0533872 186.125,19.6914062 C185.822915,19.3294253 185.406253,19.1484375 184.875,19.1484375 C184.354164,19.1484375 183.912762,19.3385398 183.550781,19.71875 C183.1888,20.0989602 182.966146,20.5963511 182.882812,21.2109375 L186.585938,21.2109375 Z M189.5625,25.75 L189.5625,24.0703125 C190.239587,24.5859401 190.986975,24.84375 191.804688,24.84375 C192.898443,24.84375 193.445312,24.5208366 193.445312,23.875 C193.445312,23.6927074 193.398438,23.5377611 193.304688,23.4101562 C193.210937,23.2825514 193.084636,23.1692713 192.925781,23.0703125 C192.766926,22.9713537 192.579428,22.8828129 192.363281,22.8046875 C192.147134,22.7265621 191.906251,22.6380213 191.640625,22.5390625 C191.312498,22.4088535 191.016928,22.2708341 190.753906,22.125 C190.490884,21.9791659 190.272136,21.813803 190.097656,21.6289062 C189.923176,21.4440095 189.791667,21.2343762 189.703125,21 C189.614583,20.7656238 189.570312,20.4921891 189.570312,20.1796875 C189.570312,19.7942689 189.661457,19.4544286 189.84375,19.1601562 C190.026043,18.8658839 190.270832,18.6184906 190.578125,18.4179688 C190.885418,18.2174469 191.234373,18.0664068 191.625,17.9648438 C192.015627,17.8632807 192.419269,17.8125 192.835938,17.8125 C193.575525,17.8125 194.236976,17.924478 194.820312,18.1484375 L194.820312,19.734375 C194.25781,19.3489564 193.611983,19.15625 192.882812,19.15625 C192.653645,19.15625 192.446616,19.1796873 192.261719,19.2265625 C192.076822,19.2734377 191.919271,19.3385412 191.789062,19.421875 C191.658854,19.5052088 191.557292,19.6054682 191.484375,19.7226562 C191.411458,19.8398443 191.375,19.9687493 191.375,20.109375 C191.375,20.2812509 191.411458,20.4270827 191.484375,20.546875 C191.557292,20.6666673 191.665364,20.772135 191.808594,20.8632812 C191.951824,20.9544275 192.123697,21.03776 192.324219,21.1132812 C192.524741,21.1888025 192.755207,21.2708329 193.015625,21.359375 C193.359377,21.5000007 193.667967,21.6432284 193.941406,21.7890625 C194.214845,21.9348966 194.447916,22.1002595 194.640625,22.2851562 C194.833334,22.470053 194.98177,22.6835925 195.085938,22.9257812 C195.190105,23.16797 195.242188,23.4557275 195.242188,23.7890625 C195.242188,24.1953145 195.148438,24.5494777 194.960938,24.8515625 C194.773437,25.1536473 194.523439,25.4036448 194.210938,25.6015625 C193.898436,25.7994802 193.537762,25.9466141 193.128906,26.0429688 C192.72005,26.1393234 192.289065,26.1875 191.835938,26.1875 C190.960933,26.1875 190.203128,26.0416681 189.5625,25.75 Z" id="Gesticulating-Mimes" fill="#222222"></path>
                </g>
                <g id="Button-new-/Medium/Secondary-hover" transform="translate(251.000000, 0.000000)">
                    <rect id="Rectangle" fill="#B6B6B6" x="0" y="0" width="97" height="40" rx="5"></rect>
                    <path d="M31.6054688,26 L29.7617188,26 L29.7617188,18.75 C29.7617188,18.156247 29.7981767,17.4296918 29.8710938,16.5703125 L29.8398438,16.5703125 C29.7252598,17.0598983 29.6236984,17.4114573 29.5351562,17.625 L26.1914062,26 L24.9101562,26 L21.5585938,17.6875 C21.4648433,17.4427071 21.3658859,17.070315 21.2617188,16.5703125 L21.2304688,16.5703125 C21.2721356,17.0182314 21.2929688,17.7499949 21.2929688,18.765625 L21.2929688,26 L19.5742188,26 L19.5742188,14.796875 L22.1914062,14.796875 L25.1367188,22.2578125 C25.3606782,22.830732 25.5065101,23.2578111 25.5742188,23.5390625 L25.6132812,23.5390625 C25.8059905,22.9505179 25.962239,22.5130223 26.0820312,22.2265625 L29.0820312,14.796875 L31.6054688,14.796875 L31.6054688,26 Z M40.9335938,22.4921875 L35.4804688,22.4921875 C35.5013022,23.2317745 35.7291645,23.8020813 36.1640625,24.203125 C36.5989605,24.6041687 37.1966108,24.8046875 37.9570312,24.8046875 C38.8112022,24.8046875 39.5950485,24.5494817 40.3085938,24.0390625 L40.3085938,25.5 C39.5794234,25.9583356 38.6158914,26.1875 37.4179688,26.1875 C36.2408795,26.1875 35.3177117,25.8242224 34.6484375,25.0976562 C33.9791633,24.3710901 33.6445312,23.3489649 33.6445312,22.03125 C33.6445312,20.7864521 34.0130171,19.7721393 34.75,18.9882812 C35.4869829,18.2044232 36.4023383,17.8125 37.4960938,17.8125 C38.5898492,17.8125 39.4361949,18.164059 40.0351562,18.8671875 C40.6341176,19.570316 40.9335938,20.5468688 40.9335938,21.796875 L40.9335938,22.4921875 Z M39.1835938,21.2109375 C39.1783854,20.5598926 39.0247411,20.0533872 38.7226562,19.6914062 C38.4205714,19.3294253 38.0039089,19.1484375 37.4726562,19.1484375 C36.9518203,19.1484375 36.5104185,19.3385398 36.1484375,19.71875 C35.7864565,20.0989602 35.5638025,20.5963511 35.4804688,21.2109375 L39.1835938,21.2109375 Z M49.9335937,26 L48.1210937,26 L48.1210937,24.640625 L48.0898438,24.640625 C47.5065075,25.6718802 46.608079,26.1875 45.3945312,26.1875 C44.4101513,26.1875 43.6223988,25.8294307 43.03125,25.1132812 C42.4401012,24.3971318 42.1445312,23.4218812 42.1445312,22.1875 C42.1445312,20.8645767 42.4713509,19.8046915 43.125,19.0078125 C43.7786491,18.2109335 44.6497341,17.8125 45.7382812,17.8125 C46.8164116,17.8125 47.600258,18.2447873 48.0898438,19.109375 L48.1210937,19.109375 L48.1210937,14.15625 L49.9335937,14.15625 L49.9335937,26 Z M48.1445312,22.34375 L48.1445312,21.296875 C48.1445312,20.7291638 47.9596373,20.2473978 47.5898438,19.8515625 C47.2200502,19.4557272 46.7487008,19.2578125 46.1757812,19.2578125 C45.4986945,19.2578125 44.9661478,19.5104141 44.578125,20.015625 C44.1901022,20.5208359 43.9960938,21.2213497 43.9960938,22.1171875 C43.9960938,22.9296916 44.1822898,23.5716122 44.5546875,24.0429688 C44.9270852,24.5143253 45.4283823,24.75 46.0585938,24.75 C46.6783885,24.75 47.1809877,24.5221377 47.5664062,24.0664062 C47.9518248,23.6106748 48.1445312,23.0364618 48.1445312,22.34375 Z M53.2148438,16.3203125 C52.9179673,16.3203125 52.6640636,16.2239593 52.453125,16.03125 C52.2421864,15.8385407 52.1367188,15.5937515 52.1367188,15.296875 C52.1367188,14.9999985 52.2421864,14.7526052 52.453125,14.5546875 C52.6640636,14.3567698 52.9179673,14.2578125 53.2148438,14.2578125 C53.522137,14.2578125 53.782551,14.3567698 53.9960938,14.5546875 C54.2096365,14.7526052 54.3164062,14.9999985 54.3164062,15.296875 C54.3164062,15.5781264 54.2096365,15.8190094 53.9960938,16.0195312 C53.782551,16.2200531 53.522137,16.3203125 53.2148438,16.3203125 Z M54.1132812,26 L52.3007812,26 L52.3007812,18 L54.1132812,18 L54.1132812,26 Z M63.4570312,26 L61.6445312,26 L61.6445312,24.734375 L61.6132812,24.734375 C61.087237,25.7031298 60.2695368,26.1875 59.1601562,26.1875 C57.2695218,26.1875 56.3242188,25.0520947 56.3242188,22.78125 L56.3242188,18 L58.1367188,18 L58.1367188,22.59375 C58.1367188,24.0312572 58.6914007,24.75 59.8007812,24.75 C60.3372423,24.75 60.7786441,24.5520853 61.125,24.15625 C61.4713559,23.7604147 61.6445312,23.2421907 61.6445312,22.6015625 L61.6445312,18 L63.4570312,18 L63.4570312,26 Z M77.7773438,26 L75.9648438,26 L75.9648438,21.640625 C75.9648438,20.8020791 75.8463554,20.1953144 75.609375,19.8203125 C75.3723946,19.4453106 74.9726591,19.2578125 74.4101562,19.2578125 C73.9361955,19.2578125 73.5338558,19.4947893 73.203125,19.96875 C72.8723942,20.4427107 72.7070312,21.0104134 72.7070312,21.671875 L72.7070312,26 L70.8867188,26 L70.8867188,21.4921875 C70.8867188,20.0025967 70.3606823,19.2578125 69.3085938,19.2578125 C68.819008,19.2578125 68.4166682,19.4817686 68.1015625,19.9296875 C67.7864568,20.3776064 67.6289062,20.9583298 67.6289062,21.671875 L67.6289062,26 L65.8164062,26 L65.8164062,18 L67.6289062,18 L67.6289062,19.265625 L67.6601562,19.265625 C68.2382841,18.2968702 69.0794216,17.8125 70.1835938,17.8125 C70.7356798,17.8125 71.2187479,17.9648422 71.6328125,18.2695312 C72.0468771,18.5742203 72.3294263,18.9739559 72.4804688,19.46875 C73.0742217,18.3645778 73.9596295,17.8125 75.1367188,17.8125 C76.8971442,17.8125 77.7773438,18.8984266 77.7773438,21.0703125 L77.7773438,26 Z" id="Medium" fill="#373737"></path>
                </g>
                <g id="Button-new-/Medium/Disabled" transform="translate(376.000000, 0.000000)">
                    <rect id="Rectangle" fill="#EBEBEB" x="0" y="0" width="97" height="40" rx="5"></rect>
                    <path d="M31.6054688,26 L29.7617188,26 L29.7617188,18.75 C29.7617188,18.156247 29.7981767,17.4296918 29.8710938,16.5703125 L29.8398438,16.5703125 C29.7252598,17.0598983 29.6236984,17.4114573 29.5351562,17.625 L26.1914062,26 L24.9101562,26 L21.5585938,17.6875 C21.4648433,17.4427071 21.3658859,17.070315 21.2617188,16.5703125 L21.2304688,16.5703125 C21.2721356,17.0182314 21.2929688,17.7499949 21.2929688,18.765625 L21.2929688,26 L19.5742188,26 L19.5742188,14.796875 L22.1914062,14.796875 L25.1367188,22.2578125 C25.3606782,22.830732 25.5065101,23.2578111 25.5742188,23.5390625 L25.6132812,23.5390625 C25.8059905,22.9505179 25.962239,22.5130223 26.0820312,22.2265625 L29.0820312,14.796875 L31.6054688,14.796875 L31.6054688,26 Z M40.9335938,22.4921875 L35.4804688,22.4921875 C35.5013022,23.2317745 35.7291645,23.8020813 36.1640625,24.203125 C36.5989605,24.6041687 37.1966108,24.8046875 37.9570312,24.8046875 C38.8112022,24.8046875 39.5950485,24.5494817 40.3085938,24.0390625 L40.3085938,25.5 C39.5794234,25.9583356 38.6158914,26.1875 37.4179688,26.1875 C36.2408795,26.1875 35.3177117,25.8242224 34.6484375,25.0976562 C33.9791633,24.3710901 33.6445312,23.3489649 33.6445312,22.03125 C33.6445312,20.7864521 34.0130171,19.7721393 34.75,18.9882812 C35.4869829,18.2044232 36.4023383,17.8125 37.4960938,17.8125 C38.5898492,17.8125 39.4361949,18.164059 40.0351562,18.8671875 C40.6341176,19.570316 40.9335938,20.5468688 40.9335938,21.796875 L40.9335938,22.4921875 Z M39.1835938,21.2109375 C39.1783854,20.5598926 39.0247411,20.0533872 38.7226562,19.6914062 C38.4205714,19.3294253 38.0039089,19.1484375 37.4726562,19.1484375 C36.9518203,19.1484375 36.5104185,19.3385398 36.1484375,19.71875 C35.7864565,20.0989602 35.5638025,20.5963511 35.4804688,21.2109375 L39.1835938,21.2109375 Z M49.9335937,26 L48.1210937,26 L48.1210937,24.640625 L48.0898438,24.640625 C47.5065075,25.6718802 46.608079,26.1875 45.3945312,26.1875 C44.4101513,26.1875 43.6223988,25.8294307 43.03125,25.1132812 C42.4401012,24.3971318 42.1445312,23.4218812 42.1445312,22.1875 C42.1445312,20.8645767 42.4713509,19.8046915 43.125,19.0078125 C43.7786491,18.2109335 44.6497341,17.8125 45.7382812,17.8125 C46.8164116,17.8125 47.600258,18.2447873 48.0898438,19.109375 L48.1210937,19.109375 L48.1210937,14.15625 L49.9335937,14.15625 L49.9335937,26 Z M48.1445312,22.34375 L48.1445312,21.296875 C48.1445312,20.7291638 47.9596373,20.2473978 47.5898438,19.8515625 C47.2200502,19.4557272 46.7487008,19.2578125 46.1757812,19.2578125 C45.4986945,19.2578125 44.9661478,19.5104141 44.578125,20.015625 C44.1901022,20.5208359 43.9960938,21.2213497 43.9960938,22.1171875 C43.9960938,22.9296916 44.1822898,23.5716122 44.5546875,24.0429688 C44.9270852,24.5143253 45.4283823,24.75 46.0585938,24.75 C46.6783885,24.75 47.1809877,24.5221377 47.5664062,24.0664062 C47.9518248,23.6106748 48.1445312,23.0364618 48.1445312,22.34375 Z M53.2148438,16.3203125 C52.9179673,16.3203125 52.6640636,16.2239593 52.453125,16.03125 C52.2421864,15.8385407 52.1367188,15.5937515 52.1367188,15.296875 C52.1367188,14.9999985 52.2421864,14.7526052 52.453125,14.5546875 C52.6640636,14.3567698 52.9179673,14.2578125 53.2148438,14.2578125 C53.522137,14.2578125 53.782551,14.3567698 53.9960938,14.5546875 C54.2096365,14.7526052 54.3164062,14.9999985 54.3164062,15.296875 C54.3164062,15.5781264 54.2096365,15.8190094 53.9960938,16.0195312 C53.782551,16.2200531 53.522137,16.3203125 53.2148438,16.3203125 Z M54.1132812,26 L52.3007812,26 L52.3007812,18 L54.1132812,18 L54.1132812,26 Z M63.4570312,26 L61.6445312,26 L61.6445312,24.734375 L61.6132812,24.734375 C61.087237,25.7031298 60.2695368,26.1875 59.1601562,26.1875 C57.2695218,26.1875 56.3242188,25.0520947 56.3242188,22.78125 L56.3242188,18 L58.1367188,18 L58.1367188,22.59375 C58.1367188,24.0312572 58.6914007,24.75 59.8007812,24.75 C60.3372423,24.75 60.7786441,24.5520853 61.125,24.15625 C61.4713559,23.7604147 61.6445312,23.2421907 61.6445312,22.6015625 L61.6445312,18 L63.4570312,18 L63.4570312,26 Z M77.7773438,26 L75.9648438,26 L75.9648438,21.640625 C75.9648438,20.8020791 75.8463554,20.1953144 75.609375,19.8203125 C75.3723946,19.4453106 74.9726591,19.2578125 74.4101562,19.2578125 C73.9361955,19.2578125 73.5338558,19.4947893 73.203125,19.96875 C72.8723942,20.4427107 72.7070312,21.0104134 72.7070312,21.671875 L72.7070312,26 L70.8867188,26 L70.8867188,21.4921875 C70.8867188,20.0025967 70.3606823,19.2578125 69.3085938,19.2578125 C68.819008,19.2578125 68.4166682,19.4817686 68.1015625,19.9296875 C67.7864568,20.3776064 67.6289062,20.9583298 67.6289062,21.671875 L67.6289062,26 L65.8164062,26 L65.8164062,18 L67.6289062,18 L67.6289062,19.265625 L67.6601562,19.265625 C68.2382841,18.2968702 69.0794216,17.8125 70.1835938,17.8125 C70.7356798,17.8125 71.2187479,17.9648422 71.6328125,18.2695312 C72.0468771,18.5742203 72.3294263,18.9739559 72.4804688,19.46875 C73.0742217,18.3645778 73.9596295,17.8125 75.1367188,17.8125 C76.8971442,17.8125 77.7773438,18.8984266 77.7773438,21.0703125 L77.7773438,26 Z" id="Medium" fill="#B6B6B6"></path>
                </g>
                <g id="Block-notification/Success" transform="translate(0.000000, 61.000000)">
                    <rect id="Rectangle-2" fill="#F2F2F2" x="0" y="0" width="473" height="60"></rect>
                    <polygon id="Shape" fill="#333333" points="458 30.8174807 454.182519 27 458 23.1825193 455.817481 21 452 24.8174807 448.182519 21 446 23.1825193 449.817481 27 446 30.8174807 448.182519 33 452 29.1825193 455.817481 33"></polygon>
                    <rect id="Rectangle-2" fill="#1AAC1E" x="0" y="0" width="10" height="60"></rect>
                    <g id="Page-1" transform="translate(60.000000, 19.000000)" fill="#373737">
                        <path d="M9.6875,12.328125 C9.5468743,13.531256 9.10286832,14.4596321 8.35546875,15.1132812 C7.60806918,15.7669304 6.61458953,16.09375 5.375,16.09375 C4.03124328,16.09375 2.95443113,15.611984 2.14453125,14.6484375 C1.33463137,13.684891 0.9296875,12.3958414 0.9296875,10.78125 L0.9296875,9.6875 C0.9296875,8.63020305 1.1184877,7.70052484 1.49609375,6.8984375 C1.8736998,6.09635016 2.4088507,5.4804709 3.1015625,5.05078125 C3.7942743,4.6210916 4.59634961,4.40625 5.5078125,4.40625 C6.71615188,4.40625 7.68489219,4.74348621 8.4140625,5.41796875 C9.14323281,6.09245129 9.56770773,7.0260357 9.6875,8.21875 L8.1796875,8.21875 C8.04947852,7.31249547 7.76692926,6.65625203 7.33203125,6.25 C6.89713324,5.84374797 6.28906641,5.640625 5.5078125,5.640625 C4.54947437,5.640625 3.7981798,5.99478812 3.25390625,6.703125 C2.7096327,7.41146188 2.4375,8.4192643 2.4375,9.7265625 L2.4375,10.828125 C2.4375,12.0625062 2.69530992,13.0442672 3.2109375,13.7734375 C3.72656508,14.5026078 4.44791203,14.8671875 5.375,14.8671875 C6.2083375,14.8671875 6.84765402,14.6783873 7.29296875,14.3007812 C7.73828348,13.9231752 8.03385344,13.2656297 8.1796875,12.328125 L9.6875,12.328125 Z M12.953125,8.5078125 C13.5937532,7.72135023 14.4270782,7.328125 15.453125,7.328125 C17.2395923,7.328125 18.1406249,8.33592742 18.15625,10.3515625 L18.15625,15.9375 L16.7109375,15.9375 L16.7109375,10.34375 C16.7057291,9.73437195 16.5664076,9.28385562 16.2929688,8.9921875 C16.0195299,8.70051938 15.5937529,8.5546875 15.015625,8.5546875 C14.5468727,8.5546875 14.1354184,8.67968625 13.78125,8.9296875 C13.4270816,9.17968875 13.1510427,9.50781047 12.953125,9.9140625 L12.953125,15.9375 L11.5078125,15.9375 L11.5078125,3.9375 L12.953125,3.9375 L12.953125,8.5078125 Z M25.5390625,15.9375 C25.4557287,15.7708325 25.3880211,15.4739605 25.3359375,15.046875 C24.6640591,15.7447952 23.8619838,16.09375 22.9296875,16.09375 C22.09635,16.09375 21.4127631,15.8580753 20.8789062,15.3867188 C20.3450494,14.9153622 20.078125,14.317712 20.078125,13.59375 C20.078125,12.7135373 20.4127571,12.0299504 21.0820312,11.5429688 C21.7513054,11.0559871 22.6927023,10.8125 23.90625,10.8125 L25.3125,10.8125 L25.3125,10.1484375 C25.3125,9.64322664 25.1614598,9.24088691 24.859375,8.94140625 C24.5572902,8.64192559 24.1119821,8.4921875 23.5234375,8.4921875 C23.0078099,8.4921875 22.5755226,8.62239453 22.2265625,8.8828125 C21.8776024,9.14323047 21.703125,9.45833148 21.703125,9.828125 L20.25,9.828125 C20.25,9.40624789 20.3997381,8.99869988 20.6992188,8.60546875 C20.9986994,8.21223762 21.4049454,7.90104281 21.9179688,7.671875 C22.4309921,7.44270719 22.9947886,7.328125 23.609375,7.328125 C24.5833382,7.328125 25.3463514,7.57161215 25.8984375,8.05859375 C26.4505236,8.54557535 26.7369791,9.21614156 26.7578125,10.0703125 L26.7578125,13.9609375 C26.7578125,14.736983 26.8567698,15.3541644 27.0546875,15.8125 L27.0546875,15.9375 L25.5390625,15.9375 Z M23.140625,14.8359375 C23.5937523,14.8359375 24.0234355,14.7187512 24.4296875,14.484375 C24.8359395,14.2499988 25.1302074,13.9453144 25.3125,13.5703125 L25.3125,11.8359375 L24.1796875,11.8359375 C22.4088453,11.8359375 21.5234375,12.3541615 21.5234375,13.390625 C21.5234375,13.8437523 21.6744777,14.1979154 21.9765625,14.453125 C22.2786473,14.7083346 22.6666643,14.8359375 23.140625,14.8359375 Z M30.390625,7.484375 L30.4375,8.546875 C31.0833366,7.73437094 31.9270781,7.328125 32.96875,7.328125 C34.7552173,7.328125 35.6562499,8.33592742 35.671875,10.3515625 L35.671875,15.9375 L34.2265625,15.9375 L34.2265625,10.34375 C34.2213541,9.73437195 34.0820326,9.28385562 33.8085938,8.9921875 C33.5351549,8.70051938 33.1093779,8.5546875 32.53125,8.5546875 C32.0624977,8.5546875 31.6510434,8.67968625 31.296875,8.9296875 C30.9427066,9.17968875 30.6666677,9.50781047 30.46875,9.9140625 L30.46875,15.9375 L29.0234375,15.9375 L29.0234375,7.484375 L30.390625,7.484375 Z M37.5078125,11.640625 C37.5078125,10.3229101 37.812497,9.27474348 38.421875,8.49609375 C39.031253,7.71744402 39.8385366,7.328125 40.84375,7.328125 C41.8750052,7.328125 42.6796846,7.69270469 43.2578125,8.421875 L43.328125,7.484375 L44.6484375,7.484375 L44.6484375,15.734375 C44.6484375,16.8281305 44.324222,17.690101 43.6757812,18.3203125 C43.0273405,18.950524 42.1562555,19.265625 41.0625,19.265625 C40.453122,19.265625 39.8567738,19.135418 39.2734375,18.875 C38.6901012,18.614582 38.2447932,18.2578148 37.9375,17.8046875 L38.6875,16.9375 C39.3072948,17.7031288 40.0650997,18.0859375 40.9609375,18.0859375 C41.664066,18.0859375 42.2122376,17.8880228 42.6054688,17.4921875 C42.9986999,17.0963522 43.1953125,16.5390661 43.1953125,15.8203125 L43.1953125,15.09375 C42.6171846,15.76042 41.82813,16.09375 40.828125,16.09375 C39.8385367,16.09375 39.0377635,15.6953165 38.4257812,14.8984375 C37.813799,14.1015585 37.5078125,13.0156319 37.5078125,11.640625 Z M38.9609375,11.8046875 C38.9609375,12.7578173 39.156248,13.5065077 39.546875,14.0507812 C39.937502,14.5950548 40.4843715,14.8671875 41.1875,14.8671875 C42.0989629,14.8671875 42.768227,14.4531291 43.1953125,13.625 L43.1953125,9.765625 C42.752602,8.9583293 42.0885461,8.5546875 41.203125,8.5546875 C40.4999965,8.5546875 39.9505228,8.82812227 39.5546875,9.375 C39.1588522,9.92187773 38.9609375,10.7317655 38.9609375,11.8046875 Z M50.3359375,16.09375 C49.1900984,16.09375 48.2578161,15.7174517 47.5390625,14.9648438 C46.8203089,14.2122358 46.4609375,13.2057355 46.4609375,11.9453125 L46.4609375,11.6796875 C46.4609375,10.8411416 46.6210921,10.0924512 46.9414062,9.43359375 C47.2617204,8.77473629 47.7096325,8.25911645 48.2851562,7.88671875 C48.86068,7.51432105 49.4843716,7.328125 50.15625,7.328125 C51.2552138,7.328125 52.109372,7.69010055 52.71875,8.4140625 C53.328128,9.13802445 53.6328125,10.1744724 53.6328125,11.5234375 L53.6328125,12.125 L47.90625,12.125 C47.9270834,12.9583375 48.1705706,13.6315079 48.6367188,14.1445312 C49.1028669,14.6575546 49.6953089,14.9140625 50.4140625,14.9140625 C50.9244817,14.9140625 51.3567691,14.8098969 51.7109375,14.6015625 C52.0651059,14.3932281 52.3749987,14.1171892 52.640625,13.7734375 L53.5234375,14.4609375 C52.8151006,15.5494846 51.7526113,16.09375 50.3359375,16.09375 Z M50.15625,8.515625 C49.5729137,8.515625 49.0833353,8.72786246 48.6875,9.15234375 C48.2916647,9.57682504 48.0468755,10.1718712 47.953125,10.9375 L52.1875,10.9375 L52.1875,10.828125 C52.1458331,10.0937463 51.9479184,9.5247416 51.59375,9.12109375 C51.2395816,8.7174459 50.7604197,8.515625 50.15625,8.515625 Z M60.2265625,13.6953125 C60.2265625,13.3046855 60.0794286,13.0013032 59.7851562,12.7851562 C59.4908839,12.5690093 58.9778682,12.3828133 58.2460938,12.2265625 C57.5143193,12.0703117 56.9335959,11.8828136 56.5039062,11.6640625 C56.0742166,11.4453114 55.7565114,11.1848973 55.5507812,10.8828125 C55.3450511,10.5807277 55.2421875,10.2213562 55.2421875,9.8046875 C55.2421875,9.1119757 55.5351533,8.52604406 56.1210938,8.046875 C56.7070342,7.56770594 57.4557246,7.328125 58.3671875,7.328125 C59.3255256,7.328125 60.1028616,7.57551836 60.6992188,8.0703125 C61.2955759,8.56510664 61.59375,9.19791281 61.59375,9.96875 L60.140625,9.96875 C60.140625,9.57291469 59.9726579,9.23177227 59.6367188,8.9453125 C59.3007796,8.65885273 58.8776067,8.515625 58.3671875,8.515625 C57.8411432,8.515625 57.429689,8.63020719 57.1328125,8.859375 C56.835936,9.08854281 56.6875,9.38801898 56.6875,9.7578125 C56.6875,10.1067726 56.8255195,10.3697908 57.1015625,10.546875 C57.3776055,10.7239592 57.8762985,10.8932284 58.5976562,11.0546875 C59.319014,11.2161466 59.9036436,11.408853 60.3515625,11.6328125 C60.7994814,11.856772 61.1315093,12.1263005 61.3476562,12.4414062 C61.5638032,12.756512 61.671875,13.1406227 61.671875,13.59375 C61.671875,14.3489621 61.3697947,14.9544248 60.765625,15.4101562 C60.1614553,15.8658877 59.377609,16.09375 58.4140625,16.09375 C57.7369758,16.09375 57.1380234,15.9739595 56.6171875,15.734375 C56.0963516,15.4947905 55.6888036,15.1601584 55.3945312,14.7304688 C55.1002589,14.3007791 54.953125,13.83594 54.953125,13.3359375 L56.3984375,13.3359375 C56.4244793,13.8203149 56.6184878,14.2044257 56.9804688,14.4882812 C57.3424497,14.7721368 57.8203095,14.9140625 58.4140625,14.9140625 C58.9609402,14.9140625 59.3997379,14.8033865 59.7304688,14.5820312 C60.0611996,14.360676 60.2265625,14.065106 60.2265625,13.6953125 Z M72.4375,13.6953125 C72.4375,13.3046855 72.2903661,13.0013032 71.9960938,12.7851562 C71.7018214,12.5690093 71.1888057,12.3828133 70.4570312,12.2265625 C69.7252568,12.0703117 69.1445334,11.8828136 68.7148438,11.6640625 C68.2851541,11.4453114 67.9674489,11.1848973 67.7617188,10.8828125 C67.5559886,10.5807277 67.453125,10.2213562 67.453125,9.8046875 C67.453125,9.1119757 67.7460908,8.52604406 68.3320312,8.046875 C68.9179717,7.56770594 69.6666621,7.328125 70.578125,7.328125 C71.5364631,7.328125 72.3137991,7.57551836 72.9101562,8.0703125 C73.5065134,8.56510664 73.8046875,9.19791281 73.8046875,9.96875 L72.3515625,9.96875 C72.3515625,9.57291469 72.1835954,9.23177227 71.8476562,8.9453125 C71.5117171,8.65885273 71.0885442,8.515625 70.578125,8.515625 C70.0520807,8.515625 69.6406265,8.63020719 69.34375,8.859375 C69.0468735,9.08854281 68.8984375,9.38801898 68.8984375,9.7578125 C68.8984375,10.1067726 69.036457,10.3697908 69.3125,10.546875 C69.588543,10.7239592 70.087236,10.8932284 70.8085938,11.0546875 C71.5299515,11.2161466 72.1145811,11.408853 72.5625,11.6328125 C73.0104189,11.856772 73.3424468,12.1263005 73.5585938,12.4414062 C73.7747407,12.756512 73.8828125,13.1406227 73.8828125,13.59375 C73.8828125,14.3489621 73.5807322,14.9544248 72.9765625,15.4101562 C72.3723928,15.8658877 71.5885465,16.09375 70.625,16.09375 C69.9479133,16.09375 69.3489609,15.9739595 68.828125,15.734375 C68.3072891,15.4947905 67.8997411,15.1601584 67.6054688,14.7304688 C67.3111964,14.3007791 67.1640625,13.83594 67.1640625,13.3359375 L68.609375,13.3359375 C68.6354168,13.8203149 68.8294253,14.2044257 69.1914062,14.4882812 C69.5533872,14.7721368 70.031247,14.9140625 70.625,14.9140625 C71.1718777,14.9140625 71.6106754,14.8033865 71.9414062,14.5820312 C72.2721371,14.360676 72.4375,14.065106 72.4375,13.6953125 Z M80.984375,15.9375 C80.9010412,15.7708325 80.8333336,15.4739605 80.78125,15.046875 C80.1093716,15.7447952 79.3072963,16.09375 78.375,16.09375 C77.5416625,16.09375 76.8580756,15.8580753 76.3242188,15.3867188 C75.7903619,14.9153622 75.5234375,14.317712 75.5234375,13.59375 C75.5234375,12.7135373 75.8580696,12.0299504 76.5273438,11.5429688 C77.1966179,11.0559871 78.1380148,10.8125 79.3515625,10.8125 L80.7578125,10.8125 L80.7578125,10.1484375 C80.7578125,9.64322664 80.6067723,9.24088691 80.3046875,8.94140625 C80.0026027,8.64192559 79.5572946,8.4921875 78.96875,8.4921875 C78.4531224,8.4921875 78.0208351,8.62239453 77.671875,8.8828125 C77.3229149,9.14323047 77.1484375,9.45833148 77.1484375,9.828125 L75.6953125,9.828125 C75.6953125,9.40624789 75.8450506,8.99869988 76.1445312,8.60546875 C76.4440119,8.21223762 76.8502579,7.90104281 77.3632812,7.671875 C77.8763046,7.44270719 78.4401011,7.328125 79.0546875,7.328125 C80.0286507,7.328125 80.7916639,7.57161215 81.34375,8.05859375 C81.8958361,8.54557535 82.1822916,9.21614156 82.203125,10.0703125 L82.203125,13.9609375 C82.203125,14.736983 82.3020823,15.3541644 82.5,15.8125 L82.5,15.9375 L80.984375,15.9375 Z M78.5859375,14.8359375 C79.0390648,14.8359375 79.468748,14.7187512 79.875,14.484375 C80.281252,14.2499988 80.5755199,13.9453144 80.7578125,13.5703125 L80.7578125,11.8359375 L79.625,11.8359375 C77.8541578,11.8359375 76.96875,12.3541615 76.96875,13.390625 C76.96875,13.8437523 77.1197902,14.1979154 77.421875,14.453125 C77.7239598,14.7083346 78.1119768,14.8359375 78.5859375,14.8359375 Z M87.140625,13.9765625 L89.234375,7.484375 L90.7109375,7.484375 L87.6796875,15.9375 L86.578125,15.9375 L83.515625,7.484375 L84.9921875,7.484375 L87.140625,13.9765625 Z M95.5078125,16.09375 C94.3619734,16.09375 93.4296911,15.7174517 92.7109375,14.9648438 C91.9921839,14.2122358 91.6328125,13.2057355 91.6328125,11.9453125 L91.6328125,11.6796875 C91.6328125,10.8411416 91.7929671,10.0924512 92.1132812,9.43359375 C92.4335954,8.77473629 92.8815075,8.25911645 93.4570312,7.88671875 C94.032555,7.51432105 94.6562466,7.328125 95.328125,7.328125 C96.4270888,7.328125 97.281247,7.69010055 97.890625,8.4140625 C98.500003,9.13802445 98.8046875,10.1744724 98.8046875,11.5234375 L98.8046875,12.125 L93.078125,12.125 C93.0989584,12.9583375 93.3424456,13.6315079 93.8085938,14.1445312 C94.2747419,14.6575546 94.8671839,14.9140625 95.5859375,14.9140625 C96.0963567,14.9140625 96.5286441,14.8098969 96.8828125,14.6015625 C97.2369809,14.3932281 97.5468737,14.1171892 97.8125,13.7734375 L98.6953125,14.4609375 C97.9869756,15.5494846 96.9244863,16.09375 95.5078125,16.09375 Z M95.328125,8.515625 C94.7447887,8.515625 94.2552103,8.72786246 93.859375,9.15234375 C93.4635397,9.57682504 93.2187505,10.1718712 93.125,10.9375 L97.359375,10.9375 L97.359375,10.828125 C97.3177081,10.0937463 97.1197934,9.5247416 96.765625,9.12109375 C96.4114566,8.7174459 95.9322947,8.515625 95.328125,8.515625 Z M100.125,11.640625 C100.125,10.3437435 100.432289,9.3007852 101.046875,8.51171875 C101.661461,7.7226523 102.466141,7.328125 103.460938,7.328125 C104.450526,7.328125 105.234372,7.66666328 105.8125,8.34375 L105.8125,3.9375 L107.257812,3.9375 L107.257812,15.9375 L105.929688,15.9375 L105.859375,15.03125 C105.281247,15.7395869 104.476568,16.09375 103.445312,16.09375 C102.466141,16.09375 101.667972,15.6927123 101.050781,14.890625 C100.433591,14.0885377 100.125,13.0416731 100.125,11.75 L100.125,11.640625 Z M101.570312,11.8046875 C101.570312,12.7630256 101.768227,13.5130181 102.164062,14.0546875 C102.559898,14.5963569 103.106767,14.8671875 103.804688,14.8671875 C104.721359,14.8671875 105.390623,14.4557333 105.8125,13.6328125 L105.8125,9.75 C105.380206,8.95312102 104.71615,8.5546875 103.820312,8.5546875 C103.111976,8.5546875 102.559898,8.82812227 102.164062,9.375 C101.768227,9.92187773 101.570312,10.7317655 101.570312,11.8046875 Z M118.382812,13.6953125 C118.382812,13.3046855 118.235679,13.0013032 117.941406,12.7851562 C117.647134,12.5690093 117.134118,12.3828133 116.402344,12.2265625 C115.670569,12.0703117 115.089846,11.8828136 114.660156,11.6640625 C114.230467,11.4453114 113.912761,11.1848973 113.707031,10.8828125 C113.501301,10.5807277 113.398438,10.2213562 113.398438,9.8046875 C113.398438,9.1119757 113.691403,8.52604406 114.277344,8.046875 C114.863284,7.56770594 115.611975,7.328125 116.523438,7.328125 C117.481776,7.328125 118.259112,7.57551836 118.855469,8.0703125 C119.451826,8.56510664 119.75,9.19791281 119.75,9.96875 L118.296875,9.96875 C118.296875,9.57291469 118.128908,9.23177227 117.792969,8.9453125 C117.45703,8.65885273 117.033857,8.515625 116.523438,8.515625 C115.997393,8.515625 115.585939,8.63020719 115.289062,8.859375 C114.992186,9.08854281 114.84375,9.38801898 114.84375,9.7578125 C114.84375,10.1067726 114.981769,10.3697908 115.257812,10.546875 C115.533856,10.7239592 116.032548,10.8932284 116.753906,11.0546875 C117.475264,11.2161466 118.059894,11.408853 118.507812,11.6328125 C118.955731,11.856772 119.287759,12.1263005 119.503906,12.4414062 C119.720053,12.756512 119.828125,13.1406227 119.828125,13.59375 C119.828125,14.3489621 119.526045,14.9544248 118.921875,15.4101562 C118.317705,15.8658877 117.533859,16.09375 116.570312,16.09375 C115.893226,16.09375 115.294273,15.9739595 114.773438,15.734375 C114.252602,15.4947905 113.845054,15.1601584 113.550781,14.7304688 C113.256509,14.3007791 113.109375,13.83594 113.109375,13.3359375 L114.554688,13.3359375 C114.580729,13.8203149 114.774738,14.2044257 115.136719,14.4882812 C115.4987,14.7721368 115.97656,14.9140625 116.570312,14.9140625 C117.11719,14.9140625 117.555988,14.8033865 117.886719,14.5820312 C118.21745,14.360676 118.382812,14.065106 118.382812,13.6953125 Z M126.929688,15.1015625 C126.367185,15.7630241 125.541672,16.09375 124.453125,16.09375 C123.552079,16.09375 122.865888,15.8320339 122.394531,15.3085938 C121.923175,14.7851536 121.684896,14.0104218 121.679688,12.984375 L121.679688,7.484375 L123.125,7.484375 L123.125,12.9453125 C123.125,14.2265689 123.645828,14.8671875 124.6875,14.8671875 C125.791672,14.8671875 126.52604,14.4557333 126.890625,13.6328125 L126.890625,7.484375 L128.335938,7.484375 L128.335938,15.9375 L126.960938,15.9375 L126.929688,15.1015625 Z M133.921875,14.9140625 C134.437503,14.9140625 134.888019,14.7578141 135.273438,14.4453125 C135.658856,14.1328109 135.872396,13.7421898 135.914062,13.2734375 L137.28125,13.2734375 C137.255208,13.7578149 137.088543,14.2187478 136.78125,14.65625 C136.473957,15.0937522 136.063805,15.442707 135.550781,15.703125 C135.037758,15.963543 134.494795,16.09375 133.921875,16.09375 C132.770828,16.09375 131.855472,15.7096393 131.175781,14.9414062 C130.49609,14.1731732 130.15625,13.1224025 130.15625,11.7890625 L130.15625,11.546875 C130.15625,10.7239542 130.30729,9.9921907 130.609375,9.3515625 C130.91146,8.7109343 131.345049,8.21354344 131.910156,7.859375 C132.475263,7.50520656 133.143225,7.328125 133.914062,7.328125 C134.861984,7.328125 135.649736,7.61197633 136.277344,8.1796875 C136.904951,8.74739867 137.239583,9.48437047 137.28125,10.390625 L135.914062,10.390625 C135.872396,9.84374727 135.665366,9.39453301 135.292969,9.04296875 C134.920571,8.69140449 134.46094,8.515625 133.914062,8.515625 C133.179684,8.515625 132.610679,8.77994527 132.207031,9.30859375 C131.803383,9.83724223 131.601562,10.6015575 131.601562,11.6015625 L131.601562,11.875 C131.601562,12.8489632 131.802081,13.5989557 132.203125,14.125 C132.604169,14.6510443 133.17708,14.9140625 133.921875,14.9140625 Z M142.296875,14.9140625 C142.812503,14.9140625 143.263019,14.7578141 143.648438,14.4453125 C144.033856,14.1328109 144.247396,13.7421898 144.289062,13.2734375 L145.65625,13.2734375 C145.630208,13.7578149 145.463543,14.2187478 145.15625,14.65625 C144.848957,15.0937522 144.438805,15.442707 143.925781,15.703125 C143.412758,15.963543 142.869795,16.09375 142.296875,16.09375 C141.145828,16.09375 140.230472,15.7096393 139.550781,14.9414062 C138.87109,14.1731732 138.53125,13.1224025 138.53125,11.7890625 L138.53125,11.546875 C138.53125,10.7239542 138.68229,9.9921907 138.984375,9.3515625 C139.28646,8.7109343 139.720049,8.21354344 140.285156,7.859375 C140.850263,7.50520656 141.518225,7.328125 142.289062,7.328125 C143.236984,7.328125 144.024736,7.61197633 144.652344,8.1796875 C145.279951,8.74739867 145.614583,9.48437047 145.65625,10.390625 L144.289062,10.390625 C144.247396,9.84374727 144.040366,9.39453301 143.667969,9.04296875 C143.295571,8.69140449 142.83594,8.515625 142.289062,8.515625 C141.554684,8.515625 140.985679,8.77994527 140.582031,9.30859375 C140.178383,9.83724223 139.976562,10.6015575 139.976562,11.6015625 L139.976562,11.875 C139.976562,12.8489632 140.177081,13.5989557 140.578125,14.125 C140.979169,14.6510443 141.55208,14.9140625 142.296875,14.9140625 Z M150.789062,16.09375 C149.643223,16.09375 148.710941,15.7174517 147.992188,14.9648438 C147.273434,14.2122358 146.914062,13.2057355 146.914062,11.9453125 L146.914062,11.6796875 C146.914062,10.8411416 147.074217,10.0924512 147.394531,9.43359375 C147.714845,8.77473629 148.162758,8.25911645 148.738281,7.88671875 C149.313805,7.51432105 149.937497,7.328125 150.609375,7.328125 C151.708339,7.328125 152.562497,7.69010055 153.171875,8.4140625 C153.781253,9.13802445 154.085938,10.1744724 154.085938,11.5234375 L154.085938,12.125 L148.359375,12.125 C148.380208,12.9583375 148.623696,13.6315079 149.089844,14.1445312 C149.555992,14.6575546 150.148434,14.9140625 150.867188,14.9140625 C151.377607,14.9140625 151.809894,14.8098969 152.164062,14.6015625 C152.518231,14.3932281 152.828124,14.1171892 153.09375,13.7734375 L153.976562,14.4609375 C153.268226,15.5494846 152.205736,16.09375 150.789062,16.09375 Z M150.609375,8.515625 C150.026039,8.515625 149.53646,8.72786246 149.140625,9.15234375 C148.74479,9.57682504 148.5,10.1718712 148.40625,10.9375 L152.640625,10.9375 L152.640625,10.828125 C152.598958,10.0937463 152.401043,9.5247416 152.046875,9.12109375 C151.692707,8.7174459 151.213545,8.515625 150.609375,8.515625 Z M160.679688,13.6953125 C160.679688,13.3046855 160.532554,13.0013032 160.238281,12.7851562 C159.944009,12.5690093 159.430993,12.3828133 158.699219,12.2265625 C157.967444,12.0703117 157.386721,11.8828136 156.957031,11.6640625 C156.527342,11.4453114 156.209636,11.1848973 156.003906,10.8828125 C155.798176,10.5807277 155.695312,10.2213562 155.695312,9.8046875 C155.695312,9.1119757 155.988278,8.52604406 156.574219,8.046875 C157.160159,7.56770594 157.90885,7.328125 158.820312,7.328125 C159.778651,7.328125 160.555987,7.57551836 161.152344,8.0703125 C161.748701,8.56510664 162.046875,9.19791281 162.046875,9.96875 L160.59375,9.96875 C160.59375,9.57291469 160.425783,9.23177227 160.089844,8.9453125 C159.753905,8.65885273 159.330732,8.515625 158.820312,8.515625 C158.294268,8.515625 157.882814,8.63020719 157.585938,8.859375 C157.289061,9.08854281 157.140625,9.38801898 157.140625,9.7578125 C157.140625,10.1067726 157.278644,10.3697908 157.554688,10.546875 C157.830731,10.7239592 158.329423,10.8932284 159.050781,11.0546875 C159.772139,11.2161466 160.356769,11.408853 160.804688,11.6328125 C161.252606,11.856772 161.584634,12.1263005 161.800781,12.4414062 C162.016928,12.756512 162.125,13.1406227 162.125,13.59375 C162.125,14.3489621 161.82292,14.9544248 161.21875,15.4101562 C160.61458,15.8658877 159.830734,16.09375 158.867188,16.09375 C158.190101,16.09375 157.591148,15.9739595 157.070312,15.734375 C156.549477,15.4947905 156.141929,15.1601584 155.847656,14.7304688 C155.553384,14.3007791 155.40625,13.83594 155.40625,13.3359375 L156.851562,13.3359375 C156.877604,13.8203149 157.071613,14.2044257 157.433594,14.4882812 C157.795575,14.7721368 158.273435,14.9140625 158.867188,14.9140625 C159.414065,14.9140625 159.852863,14.8033865 160.183594,14.5820312 C160.514325,14.360676 160.679688,14.065106 160.679688,13.6953125 Z M168.929688,13.6953125 C168.929688,13.3046855 168.782554,13.0013032 168.488281,12.7851562 C168.194009,12.5690093 167.680993,12.3828133 166.949219,12.2265625 C166.217444,12.0703117 165.636721,11.8828136 165.207031,11.6640625 C164.777342,11.4453114 164.459636,11.1848973 164.253906,10.8828125 C164.048176,10.5807277 163.945312,10.2213562 163.945312,9.8046875 C163.945312,9.1119757 164.238278,8.52604406 164.824219,8.046875 C165.410159,7.56770594 166.15885,7.328125 167.070312,7.328125 C168.028651,7.328125 168.805987,7.57551836 169.402344,8.0703125 C169.998701,8.56510664 170.296875,9.19791281 170.296875,9.96875 L168.84375,9.96875 C168.84375,9.57291469 168.675783,9.23177227 168.339844,8.9453125 C168.003905,8.65885273 167.580732,8.515625 167.070312,8.515625 C166.544268,8.515625 166.132814,8.63020719 165.835938,8.859375 C165.539061,9.08854281 165.390625,9.38801898 165.390625,9.7578125 C165.390625,10.1067726 165.528644,10.3697908 165.804688,10.546875 C166.080731,10.7239592 166.579423,10.8932284 167.300781,11.0546875 C168.022139,11.2161466 168.606769,11.408853 169.054688,11.6328125 C169.502606,11.856772 169.834634,12.1263005 170.050781,12.4414062 C170.266928,12.756512 170.375,13.1406227 170.375,13.59375 C170.375,14.3489621 170.07292,14.9544248 169.46875,15.4101562 C168.86458,15.8658877 168.080734,16.09375 167.117188,16.09375 C166.440101,16.09375 165.841148,15.9739595 165.320312,15.734375 C164.799477,15.4947905 164.391929,15.1601584 164.097656,14.7304688 C163.803384,14.3007791 163.65625,13.83594 163.65625,13.3359375 L165.101562,13.3359375 C165.127604,13.8203149 165.321613,14.2044257 165.683594,14.4882812 C166.045575,14.7721368 166.523435,14.9140625 167.117188,14.9140625 C167.664065,14.9140625 168.102863,14.8033865 168.433594,14.5820312 C168.764325,14.360676 168.929688,14.065106 168.929688,13.6953125 Z M172.96875,15.9375 L172.96875,8.6015625 L171.632812,8.6015625 L171.632812,7.484375 L172.96875,7.484375 L172.96875,6.6171875 C172.96875,5.71093297 173.210935,5.01041914 173.695312,4.515625 C174.17969,4.02083086 174.864579,3.7734375 175.75,3.7734375 C176.083335,3.7734375 176.414061,3.81770789 176.742188,3.90625 L176.664062,5.078125 C176.41927,5.03124977 176.158856,5.0078125 175.882812,5.0078125 C175.41406,5.0078125 175.052085,5.14452988 174.796875,5.41796875 C174.541665,5.69140762 174.414062,6.08333078 174.414062,6.59375 L174.414062,7.484375 L176.21875,7.484375 L176.21875,8.6015625 L174.414062,8.6015625 L174.414062,15.9375 L172.96875,15.9375 Z M183.03125,15.1015625 C182.468747,15.7630241 181.643235,16.09375 180.554688,16.09375 C179.653641,16.09375 178.96745,15.8320339 178.496094,15.3085938 C178.024737,14.7851536 177.786458,14.0104218 177.78125,12.984375 L177.78125,7.484375 L179.226562,7.484375 L179.226562,12.9453125 C179.226562,14.2265689 179.747391,14.8671875 180.789062,14.8671875 C181.893235,14.8671875 182.627602,14.4557333 182.992188,13.6328125 L182.992188,7.484375 L184.4375,7.484375 L184.4375,15.9375 L183.0625,15.9375 L183.03125,15.1015625 Z M188.203125,15.9375 L186.757812,15.9375 L186.757812,3.9375 L188.203125,3.9375 L188.203125,15.9375 Z M192.085938,15.9375 L190.640625,15.9375 L190.640625,3.9375 L192.085938,3.9375 L192.085938,15.9375 Z M197.164062,13.8203125 L199.132812,7.484375 L200.679688,7.484375 L197.28125,17.2421875 C196.755206,18.6484445 195.919277,19.3515625 194.773438,19.3515625 L194.5,19.328125 L193.960938,19.2265625 L193.960938,18.0546875 L194.351562,18.0859375 C194.841148,18.0859375 195.222655,17.9869802 195.496094,17.7890625 C195.769533,17.5911448 195.994791,17.2291693 196.171875,16.703125 L196.492188,15.84375 L193.476562,7.484375 L195.054688,7.484375 L197.164062,13.8203125 Z M203.585938,12.7265625 L202.28125,12.7265625 L202.179688,4.5625 L203.695312,4.5625 L203.585938,12.7265625 Z M202.125,15.2109375 C202.125,14.9765613 202.196614,14.7799487 202.339844,14.6210938 C202.483074,14.4622388 202.695311,14.3828125 202.976562,14.3828125 C203.257814,14.3828125 203.471353,14.4622388 203.617188,14.6210938 C203.763022,14.7799487 203.835938,14.9765613 203.835938,15.2109375 C203.835938,15.4453137 203.763022,15.6393221 203.617188,15.7929688 C203.471353,15.9466154 203.257814,16.0234375 202.976562,16.0234375 C202.695311,16.0234375 202.483074,15.9466154 202.339844,15.7929688 C202.196614,15.6393221 202.125,15.4453137 202.125,15.2109375 Z" id="Changes-saved-succes"></path>
                    </g>
                    <g id="tick.svg" transform="translate(26.000000, 22.000000)" fill-rule="nonzero" fill="#1AAC1E">
                        <g id="tick">
                            <g id="Shape">
                                <path d="M0,8.15 L5.29,13.35 C5.68003745,13.7377236 6.30996255,13.7377236 6.7,13.35 L17.3,2.75 L14.5,0 L6,8.5 L2.9,5.3 L0,8.15 Z"></path>
                            </g>
                        </g>
                    </g>
                </g>
            </g>
            <g id="small-progress-bar" transform="translate(343.000000, 287.000000)">
                <g id="Rectangle-5">
                    <rect fill="#DCDCDC" x="0" y="0" width="222" height="18" rx="9"></rect>
                    <path d="M9,0 L152.504348,0 L152.504348,18 L9,18 L9,18 C4.02943725,18 6.08718376e-16,13.9705627 0,9 L0,9 L0,9 C-6.08718376e-16,4.02943725 4.02943725,9.13077564e-16 9,0 Z" fill="#3C85DF"></path>
                </g>
            </g>
        </g>
    </g>
</svg>