<svg height="687" viewBox="0 0 987 687" width="987" xmlns="http://www.w3.org/2000/svg"><g fill="none" fill-rule="evenodd" transform="translate(0 -2)"><path d="m281.5 243 140.729128 81.25v162.5l-140.729128 81.25-140.729128-81.25v-162.5z" fill="#fff"/><path d="m562.5 243 140.729128 81.25v162.5l-140.729128 81.25-140.729128-81.25v-162.5z" fill="#ecac2d"/><path d="m140.729128 486 140.729128 81.25v162.5l-140.729128 81.25-140.729128-81.25v-162.5z" fill="#fc9003"/><path d="m843.729128 243 140.729128 81.25v162.5l-140.729128 81.25-140.729128-81.25v-162.5z" fill="#fc9003"/><path d="m703.5 486 140.729128 81.25v162.5l-140.729128 81.25-140.729128-81.25v-162.5z" fill="#ffee86"/><path d="m703.5 0 140.729128 81.25v162.5l-140.729128 81.25-140.729128-81.25v-162.5z" fill="#ffe335"/></g></svg>