<?xml version="1.0" encoding="UTF-8"?>
<svg width="1170px" height="659px" viewBox="0 0 1170 659" version="1.1" xmlns="http://www.w3.org/2000/svg" xmlns:xlink="http://www.w3.org/1999/xlink">
    <!-- Generator: Sketch 44.1 (41455) - http://www.bohemiancoding.com/sketch -->
    <title>Visual Studio in the box</title>
    <desc>Created with Sketch.</desc>
    <defs></defs>
    <g id="Mockups" stroke="none" stroke-width="1" fill="none" fill-rule="evenodd">
        <g id="Visual-Studio-in-the-box">
            <rect id="Rectangle-5" fill="#865FC5" x="-38" y="-33" width="683" height="721"></rect>
            <rect id="Rectangle-5" fill="#CC0000" x="585" y="-33" width="623" height="721"></rect>
            <g id="Visual_Studio_2017_logo_and_wordmark" transform="translate(178.000000, 214.000000)" fill-rule="nonzero" fill="#FFFFFF">
                <path d="M172.4885,0 L172.4885,197.54125 L0,171.91925 L172.4885,230 L229.98275,206.08 L229.98275,23.92 L172.4885,0 Z M59.271,110.653 L112.09625,162.91475 L143.72125,149.45975 L143.72125,46.99475 L112.09625,33.53975 L59.271,85.80725 L27.462,61.82975 L14.35775,66.217 L14.35775,130.24325 L27.462,134.6305 L59.271,110.653 Z M112.09625,70.83425 L112.09625,125.63175 L75.7505,98.233 L112.09625,70.83425 Z M27.462,79.18325 L46.713,98.22725 L27.462,117.277 L27.462,79.18325 Z" id="iconBg"></path>
            </g>
            <g id="Red-RG-Logo-Copy" transform="translate(789.000000, 215.000000)" fill="#FFFFFF">
                <g id="White-RG-Logo">
                    <polygon id="Fill-5" points="132.717674 104.205638 68.2358739 102.60622 90.6878546 126.332925 132.717674 125.286689"></polygon>
                    <polygon id="Fill-6" points="122.946793 160.411352 132.711661 159.389168 132.711661 139.198018 104.403165 140.821488"></polygon>
                    <polygon id="Fill-7" points="1.63274026 173.14777 106.112017 162.180333 86.0651758 141.868926 1.63274026 146.727309"></polygon>
                    <polygon id="Fill-8" points="46.7820261 102.074684 1.63755054 100.956294 1.63755054 128.543249 71.1941959 126.811548"></polygon>
                    <polygon id="Fill-9" points="52.2020088 85.6740355 132.714066 90.3039298 132.714066 70.1127805 26.9600658 59.0010342"></polygon>
                    <polygon id="Fill-10" points="1.63274026 56.3493675 1.63274026 82.7698291 29.2798232 84.3572214"></polygon>
                    <path d="M138.828326,174.468847 C141.317646,174.120102 144.348122,171.017471 144.348122,166.038832 L144.348122,63.8203868 C144.348122,58.9860556 141.47398,55.7631681 138.828326,55.3903715 L2.07207207,35.9808926 L2.07207207,18.7721168 C17.5611729,7.67239622 50.283101,0 88.2722854,0 C126.26147,0 158.983398,7.67239622 174.472499,18.7721168 L174.472499,211.087102 C158.983398,222.186822 126.26147,229.859218 88.2722854,229.859218 C50.283101,229.859218 17.5611729,222.186822 2.07207207,211.087102 L2.07207207,193.878326 L138.828326,174.468847" id="Fill-11"></path>
                </g>
            </g>
            <g id="Group" transform="translate(524.000000, 270.000000)" fill="#FFFFFF">
                <rect id="Rectangle-6" x="46" y="0" width="30" height="120"></rect>
                <rect id="Rectangle-6" transform="translate(61.000000, 60.000000) rotate(90.000000) translate(-61.000000, -60.000000) " x="46" y="0" width="30" height="120"></rect>
            </g>
        </g>
    </g>
</svg>