<?xml version="1.0" encoding="UTF-8"?>
<svg width="657px" height="370px" viewBox="0 0 657 370" version="1.1" xmlns="http://www.w3.org/2000/svg" xmlns:xlink="http://www.w3.org/1999/xlink" style="background: #FFFFFF;">
    <!-- Generator: Sketch 44.1 (41455) - http://www.bohemiancoding.com/sketch -->
    <title>ReadyRoll Getting started graphic Copy 5</title>
    <desc>Created with Sketch.</desc>
    <defs>
        <path d="M385.56088,32.3172456 L385.56088,8.23643748 C385.56088,3.82637956 381.975272,0.240986732 377.552201,0.240986732 L8.0086788,0.240986732 C3.58580545,0.240986732 0,3.82067197 0,8.23643748 L0,91.7480235 C0,96.1580815 3.58560763,99.7434743 8.0086788,99.7434743 L377.552201,99.7434743 C381.975075,99.7434743 385.56088,96.1637891 385.56088,91.7480235 L385.56088,67.6672154 L395.770918,49.9922305 L385.56088,32.3172456 Z" id="path-1"></path>
        <filter x="-9.7%" y="-36.7%" width="119.5%" height="177.4%" filterUnits="objectBoundingBox" id="filter-2">
            <feOffset dx="0" dy="2" in="SourceAlpha" result="shadowOffsetOuter1"></feOffset>
            <feGaussianBlur stdDeviation="12.5" in="shadowOffsetOuter1" result="shadowBlurOuter1"></feGaussianBlur>
            <feColorMatrix values="0 0 0 0 0   0 0 0 0 0   0 0 0 0 0  0 0 0 0.15 0" type="matrix" in="shadowBlurOuter1"></feColorMatrix>
        </filter>
    </defs>
    <g id="Mockups" stroke="none" stroke-width="1" fill="none" fill-rule="evenodd">
        <g id="ReadyRoll-Getting-started-graphic-Copy-5">
            <rect id="Rectangle-5" stroke="#DCDCDC" x="0.5" y="0.5" width="656" height="369"></rect>
            <g id="Group-7" transform="translate(87.000000, 135.000000)">
                <g id="Group-4" fill="#CC0000">
                    <path d="M60.0504073,23.046532 C49.2096644,23.046532 38.9828243,27.2924593 31.2578814,34.9990245 C23.542683,42.6958346 19.2940862,52.8680129 19.2940862,63.6401327 L19.2940862,81.053068 C19.2940862,83.747927 17.2769772,85.8574773 14.7019963,85.8574773 C12.1708655,85.8574773 10.1099063,83.7967028 10.1099063,81.2603648 L10.1099063,63.8474295 C10.1099063,50.548727 15.3207713,38.0109258 24.780233,28.5386792 C34.2396947,19.0688713 46.766234,13.8547459 60.0504073,13.8547459 C62.5815381,13.8547459 64.6424973,15.9155204 64.6424973,18.4494196 C64.6424973,20.8565018 62.4524236,23.046532 60.0504073,23.046532 M60.0504073,43.7274412 C49.0829861,43.7274412 40.1594712,52.660716 40.1594712,63.6401327 L40.1594712,81.053068 C40.1594712,83.6308653 37.9840142,85.8087016 35.4090333,85.8087016 C32.9046999,85.8087016 30.8656657,83.7698761 30.8656657,81.2603648 L30.8656657,63.8474295 C30.8656657,56.0774559 33.9108182,48.7489025 39.4383791,43.2152961 C44.9659399,37.6792508 52.2864865,34.6332065 60.0504073,34.6332065 C62.5547407,34.6332065 64.5937748,36.672032 64.5937748,39.1791045 C64.5937748,41.5593601 62.4280624,43.7274412 60.0504073,43.7274412 M37.2726666,0 C20.9141074,0 6.62625184,3.31674959 0,8.08457711 L0,91.4179104 C6.62625184,96.185738 20.9141074,99.5024876 37.2726666,99.5024876 C53.6312258,99.5024876 67.9190814,96.185738 74.5453332,91.4179104 L74.5453332,8.08457711 C67.9190814,3.31674959 53.6312258,0 37.2726666,0" id="Fill-17"></path>
                </g>
                <g id="Group-6" transform="translate(87.009938, 0.000000)">
                    <g id="Combined-Shape" transform="translate(197.885459, 49.992231) scale(-1, 1) translate(-197.885459, -49.992231) ">
                        <use fill="black" fill-opacity="1" filter="url(#filter-2)" xlink:href="#path-1"></use>
                        <use fill="#FFFFFF" fill-rule="evenodd" xlink:href="#path-1"></use>
                    </g>
                    <g id="Group-5" transform="translate(52.703162, 25.870647)">
                        <g id="Group" transform="translate(134.621090, 0.000000)" fill="#B7B6B6">
                            <path d="M34.5663298,13.3491252 L34.5663298,13.3491252 C31.2961298,15.6906002 24.7568591,17.3300856 17.2826003,17.3300856 C9.80947067,17.3300856 3.26907075,15.6906002 0,13.5834991 L0,3.74771877 C3.26907075,1.40511148 9.80947067,0 17.2826003,0 C24.7568591,0 31.2961298,1.63948543 34.5663298,3.74771877 L34.5663298,13.3491252 Z M17.2826003,32.0843223 C9.80947067,32.0843223 3.26907075,30.4448368 0,28.3366035 L0,18.5008232 C4.20405886,20.6090565 10.5095825,21.779794 17.2826003,21.779794 C24.055618,21.779794 30.3622709,20.6090565 34.5663298,18.5008232 L34.5663298,28.3366035 C31.2961298,30.4448368 24.7568591,32.0843223 17.2826003,32.0843223 L17.2826003,32.0843223 Z M17.2826003,46.6030527 C9.80947067,46.6030527 3.26907075,44.9646995 0,42.8564662 L0,33.0206858 C4.20405886,35.1289192 10.5095825,36.2996567 17.2826003,36.2996567 C24.055618,36.2996567 30.3622709,35.1289192 34.5663298,33.0206858 L34.5663298,42.8564662 C31.2961298,44.9646995 24.7568591,46.6030527 17.2826003,46.6030527 L17.2826003,46.6030527 Z" id="Fill-28"></path>
                        </g>
                        <polygon id="Fill-40" fill="#B7B6B6" points="92.3137549 24.1515431 85.4326151 36.040077 94.3116145 36.040077 101.193601 24.1515431 94.3116145 12.2630093 85.4326151 12.2630093"></polygon>
                        <polygon id="Fill-42" fill="#B7B6B6" points="210.107209 24.1515431 203.226069 36.040077 212.105069 36.040077 218.987055 24.1515431 212.105069 12.2630093 203.226069 12.2630093"></polygon>
                        <g id="Group-3" transform="translate(252.414545, 0.000000)" fill="#2FA836">
                            <path d="M19.523297,35.1900602 L10.0379104,25.8385395 L14.6217235,21.2400546 L19.523297,26.3140808 L32.9617185,12.8396166 L37.3866514,17.2787951 L19.523297,35.1900602 Z M23.7134666,0 C10.67106,0 -1.13686838e-13,10.6996805 -1.13686838e-13,23.7770677 C-1.13686838e-13,36.8544549 10.67106,47.5541354 23.7134666,47.5541354 C36.7558732,47.5541354 47.4269331,36.8544549 47.4269331,23.7770677 C47.4269331,10.6996805 36.7558732,0 23.7134666,0 L23.7134666,0 Z" id="Fill-143"></path>
                        </g>
                        <g id="Group-2">
                            <path d="M4.70063547,37.7050459 L37.6041889,37.7050459 L37.6041889,11.7826586 L4.70063547,11.7826586 L4.70063547,37.7050459 Z M0,0 L0,37.7050459 C0,40.2971949 2.11542019,42.4182888 4.70063547,42.4182888 L37.6041889,42.4182888 C40.1894042,42.4182888 42.3048243,40.2971949 42.3048243,37.7050459 L42.3048243,0 L0,0 Z" id="Fill-138" fill="#B7B6B6"></path>
                            <path d="M27.6257411,17.8713824 C24.5420956,17.8713824 21.6338403,19.0808725 19.4369889,21.276438 C17.2428222,23.4684144 16.0338828,26.366525 16.0338828,29.4351126 L16.0338828,34.3950986 C16.0338828,35.1622455 15.4602853,35.7634016 14.7282999,35.7634016 C14.0079474,35.7634016 13.4227169,35.1766015 13.4227169,34.454317 L13.4227169,29.4943309 C13.4227169,25.7061506 14.9045849,22.1342069 17.5944973,19.4361827 C20.2853047,16.7381584 23.8476937,15.2532132 27.6257411,15.2532132 C28.3460936,15.2532132 28.931324,15.8400133 28.931324,16.5622978 C28.931324,17.2468979 28.3094048,17.8713824 27.6257411,17.8713824 M27.6257411,23.7627117 C24.5063017,23.7627117 21.9685134,26.3073066 21.9685134,29.4351126 L21.9685134,34.3950986 C21.9685134,35.1290473 21.3501735,35.7499428 20.6172932,35.7499428 C19.9049943,35.7499428 19.325133,35.1685262 19.325133,34.454317 L19.325133,29.4943309 C19.325133,27.2799233 20.1913456,25.1929248 21.7635932,23.6164603 C23.3358408,22.0399959 25.4181516,21.17146 27.6257411,21.17146 C28.33804,21.17146 28.9179013,21.7528766 28.9179013,22.4670859 C28.9179013,23.1454052 28.302246,23.7627117 27.6257411,23.7627117" id="Fill-139" fill="#B7B6B6"></path>
                            <path d="M51.7445737,35.8109557 C51.7445737,42.20923 46.5714586,47.3962198 40.190299,47.3962198 C33.8082445,47.3962198 28.6351294,42.20923 28.6351294,35.8109557 C28.6351294,29.4126814 33.8082445,24.2256916 40.190299,24.2256916 C46.5714586,24.2256916 51.7445737,29.4126814 51.7445737,35.8109557" id="Fill-140" fill="#FFFFFF"></path>
                            <path d="M45.3276202,36.5736164 L40.9500248,36.5736164 L40.9500248,40.9629528 L39.1988076,40.9629528 L39.1988076,36.5736164 L34.8212122,36.5736164 L34.8212122,34.8177023 L39.1988076,34.8177023 L39.1988076,30.4283659 L40.9500248,30.4283659 L40.9500248,34.8177023 L45.3276202,34.8177023 L45.3276202,36.5736164 Z M40.0748636,26.9174351 C35.2596877,26.9174351 31.3196728,30.8680174 31.3196728,35.696108 C31.3196728,40.5241986 35.2596877,44.4738836 40.0748636,44.4738836 C44.8900396,44.4738836 48.8300545,40.5241986 48.8300545,35.696108 C48.8300545,30.8680174 44.8900396,26.9174351 40.0748636,26.9174351 L40.0748636,26.9174351 Z" id="Fill-141" fill="#B7B6B6"></path>
                        </g>
                    </g>
                </g>
            </g>
        </g>
    </g>
</svg>