<?xml version="1.0" encoding="UTF-8"?>
<svg width="1129px" height="292px" viewBox="0 0 1129 292" version="1.1" xmlns="http://www.w3.org/2000/svg" xmlns:xlink="http://www.w3.org/1999/xlink" style="background: #FFFFFF;">
    <!-- Generator: Sketch 44.1 (41455) - http://www.bohemiancoding.com/sketch -->
    <title>Artboard Copy 2</title>
    <desc>Created with Sketch.</desc>
    <defs></defs>
    <g id="Mockups" stroke="none" stroke-width="1" fill="none" fill-rule="evenodd">
        <g id="Artboard-Copy-2">
            <g id="overlay">
                <path d="M1118.12,253.969 L911.167,253.969 C908.313,253.969 906,251.656 906,248.802 L906,71.167 C906,68.314 908.313,66 911.167,66 L1118.12,66 C1120.974,66 1123.287,68.314 1123.287,71.167 L1123.287,248.802 C1123.287,251.656 1120.974,253.969 1118.12,253.969" id="Fill-5" fill="#FFFFFF"></path>
                <path d="M527.12,253.969 L320.167,253.969 C317.313,253.969 315,251.656 315,248.802 L315,71.167 C315,68.314 317.313,66 320.167,66 L527.12,66 C529.974,66 532.287,68.314 532.287,71.167 L532.287,248.802 C532.287,251.656 529.974,253.969 527.12,253.969" id="Fill-19" fill="#FFFFFF"></path>
                <path d="M616.167,253.969 C613.313,253.969 611,251.656 611,248.802 L611,71.167 C611,68.314 613.313,66 616.167,66 L823.12,66 C825.974,66 828.287,68.314 828.287,71.167 L828.287,248.802 C828.287,251.656 825.974,253.969 823.12,253.969 L616.167,253.969 Z" id="Fill-26" fill="#FFFFFF"></path>
                <g id="Getting-started-left-hand-intro" transform="translate(0.000000, 8.000000)">
                    <g id="welcome-to-ReadyRoll">
                        <g id="left-dark-area" fill="#373737">
                            <polygon id="Fill-3" points="0.647 283.063 275.487 283.063 275.487 0.3 0.647 0.3"></polygon>
                            <polygon id="Fill-4" points="273.125 149 265 163 275.484 163 283.61 149 275.484 135 265 135"></polygon>
                        </g>
                        <text id="Welcome-to-ReadyRoll" font-family="SegoeUI-SemiBold, Segoe UI" font-size="18" font-weight="500" fill="#FFFFFF">
                            <tspan x="27.9458" y="91.5644937">Welcome to ReadyRoll</tspan>
                        </text>
                        <text id="Getting-started" font-family="SegoeUI, Segoe UI" font-size="12" font-weight="normal" fill="#67A9F1">
                            <tspan x="27.9468" y="195.319363">Getting sta</tspan>
                            <tspan x="85.9018781" y="195.319363" letter-spacing="0.3372">r</tspan>
                            <tspan x="90.7566562" y="195.319363" letter-spacing="-0.096">t</tspan>
                            <tspan x="94.6333125" y="195.319363">ed</tspan>
                        </text>
                        <text id="To-start,-create-a-n" font-family="SegoeUI, Segoe UI" font-size="12" font-weight="normal" fill="#DCDCDC">
                            <tspan x="27.9468" y="141.895362">To start, create a new project or open</tspan>
                            <tspan x="27.9468" y="157.895362">an existing project in Visual Studio</tspan>
                        </text>
                    </g>
                </g>
                <g id="Group-2" transform="translate(395.000000, 129.000000)">
                    <path d="M5.253,42.023 L42.023,42.023 L42.023,13.132 L5.253,13.132 L5.253,42.023 Z M0,0 L0,42.023 C0,44.912 2.364,47.276 5.253,47.276 L42.023,47.276 C44.912,47.276 47.276,44.912 47.276,42.023 L47.276,0 L0,0 Z" id="Fill-138" fill="#B7B6B6"></path>
                    <path d="M30.872,19.918 C27.426,19.918 24.176,21.266 21.721,23.713 C19.269,26.156 17.918,29.386 17.918,32.806 L17.918,38.334 C17.918,39.189 17.277,39.859 16.459,39.859 C15.654,39.859 15,39.205 15,38.4 L15,32.872 C15,28.65 16.656,24.669 19.662,21.662 C22.669,18.655 26.65,17 30.872,17 C31.677,17 32.331,17.654 32.331,18.459 C32.331,19.222 31.636,19.918 30.872,19.918 M30.872,26.484 C27.386,26.484 24.55,29.32 24.55,32.806 L24.55,38.334 C24.55,39.152 23.859,39.844 23.04,39.844 C22.244,39.844 21.596,39.196 21.596,38.4 L21.596,32.872 C21.596,30.404 22.564,28.078 24.321,26.321 C26.078,24.564 28.405,23.596 30.872,23.596 C31.668,23.596 32.316,24.244 32.316,25.04 C32.316,25.796 31.628,26.484 30.872,26.484" id="Fill-139" fill="#B7B6B6"></path>
                    <path d="M57.825,39.912 C57.825,47.043 52.044,52.824 44.913,52.824 C37.781,52.824 32,47.043 32,39.912 C32,32.781 37.781,27 44.913,27 C52.044,27 57.825,32.781 57.825,39.912" id="Fill-140" fill="#FFFFFF"></path>
                    <path d="M50.654,40.762 L45.762,40.762 L45.762,45.654 L43.805,45.654 L43.805,40.762 L38.913,40.762 L38.913,38.805 L43.805,38.805 L43.805,33.913 L45.762,33.913 L45.762,38.805 L50.654,38.805 L50.654,40.762 Z M44.784,30 C39.403,30 35,34.403 35,39.784 C35,45.165 39.403,49.567 44.784,49.567 C50.165,49.567 54.568,45.165 54.568,39.784 C54.568,34.403 50.165,30 44.784,30 L44.784,30 Z" id="Fill-141" fill="#B7B6B6"></path>
                </g>
                <g id="Group-3" transform="translate(334.000000, 86.000000)">
                    <text id="CREATE-A-NEW-PROJECT" font-family="SegoeUI-SemiBold, Segoe UI" font-size="14" font-weight="500" letter-spacing="-0.1764" fill="#8C8C8C">
                        <tspan x="25" y="15">CREATE A NEW PROJECT</tspan>
                    </text>
                    <path d="M8.233,14.8 L4.233,10.867 L6.166,8.933 L8.233,11.067 L13.9,5.4 L15.766,7.267 L8.233,14.8 Z M10,0 C4.5,0 0,4.5 0,10 C0,15.5 4.5,20 10,20 C15.5,20 20,15.5 20,10 C20,4.5 15.5,0 10,0 L10,0 Z" id="Fill-143" fill="#2FA836"></path>
                </g>
                <g id="Group-3" transform="translate(630.000000, 86.000000)">
                    <text id="CONNECT-TO-DATABASE" font-family="SegoeUI-SemiBold, Segoe UI" font-size="14" font-weight="500" letter-spacing="-0.1764" fill="#8C8C8C">
                        <tspan x="25" y="15">CONNECT TO DATABASE</tspan>
                    </text>
                    <path d="M8.233,14.8 L4.233,10.867 L6.166,8.933 L8.233,11.067 L13.9,5.4 L15.766,7.267 L8.233,14.8 Z M10,0 C4.5,0 0,4.5 0,10 C0,15.5 4.5,20 10,20 C15.5,20 20,15.5 20,10 C20,4.5 15.5,0 10,0 L10,0 Z" id="Fill-143" fill="#2FA836"></path>
                </g>
                <text id="MyNewReadyRollProject" font-family="SegoeUI, Segoe UI" font-size="12" font-weight="normal" fill="#3A3A3A">
                    <tspan x="359" y="204">MyNewReadyRollProject</tspan>
                </text>
                <g id="Group-44" transform="translate(562.000000, 135.000000)">
                    <path d="M124.1865,12.3925 L124.1865,12.3925 C121.2905,14.4605 115.4995,15.9085 108.8805,15.9085 C102.2625,15.9085 96.4705,14.4605 93.5755,12.5995 L93.5755,3.9125 C96.4705,1.8435 102.2625,0.6025 108.8805,0.6025 C115.4995,0.6025 121.2905,2.0505 124.1865,3.9125 L124.1865,12.3925 Z M108.8805,28.9395 C102.2625,28.9395 96.4705,27.4915 93.5755,25.6295 L93.5755,16.9425 C97.2985,18.8045 102.8825,19.8385 108.8805,19.8385 C114.8785,19.8385 120.4635,18.8045 124.1865,16.9425 L124.1865,25.6295 C121.2905,27.4915 115.4995,28.9395 108.8805,28.9395 L108.8805,28.9395 Z M108.8805,41.7625 C102.2625,41.7625 96.4705,40.3155 93.5755,38.4535 L93.5755,29.7665 C97.2985,31.6285 102.8825,32.6625 108.8805,32.6625 C114.8785,32.6625 120.4635,31.6285 124.1865,29.7665 L124.1865,38.4535 C121.2905,40.3155 115.4995,41.7625 108.8805,41.7625 L108.8805,41.7625 Z" id="Fill-28" fill="#B7B6B6"></path>
                    <path d="M168.6094,21.183 C168.6094,23.932 166.3804,26.161 163.6314,26.161 C160.8824,26.161 158.6534,23.932 158.6534,21.183 C158.6534,18.434 160.8824,16.205 163.6314,16.205 C166.3804,16.205 168.6094,18.434 168.6094,21.183" id="Fill-30" fill="#B7B6B6"></path>
                    <path d="M142.7872,21.183 C142.7872,23.932 140.5582,26.161 137.8092,26.161 C135.0602,26.161 132.8312,23.932 132.8312,21.183 C132.8312,18.434 135.0602,16.205 137.8092,16.205 C140.5582,16.205 142.7872,18.434 142.7872,21.183" id="Fill-32" fill="#B7B6B6"></path>
                    <path d="M155.6982,21.183 C155.6982,23.932 153.4692,26.161 150.7202,26.161 C147.9712,26.161 145.7422,23.932 145.7422,21.183 C145.7422,18.434 147.9712,16.205 150.7202,16.205 C153.4692,16.205 155.6982,18.434 155.6982,21.183" id="Fill-34" fill="#B7B6B6"></path>
                    <path d="M181.5299,21.183 C181.5299,23.932 179.3009,26.161 176.5519,26.161 C173.8029,26.161 171.5739,23.932 171.5739,21.183 C171.5739,18.434 173.8029,16.205 176.5519,16.205 C179.3009,16.205 181.5299,18.434 181.5299,21.183" id="Fill-36" fill="#B7B6B6"></path>
                    <path d="M214.825,10.2326 C210.375,10.2326 206.177,11.9736 203.006,15.1336 C199.839,18.2896 198.095,22.4606 198.095,26.8776 L198.095,34.0176 C198.095,35.1226 197.267,35.9876 196.21,35.9876 C195.171,35.9876 194.325,35.1426 194.325,34.1026 L194.325,26.9626 C194.325,21.5096 196.464,16.3686 200.347,12.4846 C204.23,8.6016 209.372,6.4636 214.825,6.4636 C215.864,6.4636 216.71,7.3086 216.71,8.3476 C216.71,9.3346 215.811,10.2326 214.825,10.2326 M214.825,18.7126 C210.323,18.7126 206.66,22.3756 206.66,26.8776 L206.66,34.0176 C206.66,35.0746 205.767,35.9676 204.71,35.9676 C203.682,35.9676 202.845,35.1316 202.845,34.1026 L202.845,26.9626 C202.845,23.7766 204.095,20.7716 206.364,18.5026 C208.634,16.2326 211.638,14.9836 214.825,14.9836 C215.853,14.9836 216.69,15.8196 216.69,16.8476 C216.69,17.8236 215.801,18.7126 214.825,18.7126 M205.475,0.7826 C198.76,0.7826 192.895,2.1426 190.175,4.0976 L190.175,38.2676 C192.895,40.2226 198.76,41.5826 205.475,41.5826 C212.19,41.5826 218.055,40.2226 220.775,38.2676 L220.775,4.0976 C218.055,2.1426 212.19,0.7826 205.475,0.7826" id="Fill-38" fill="#B7B6B6"></path>
                    <polygon id="Fill-40" fill="#DCDCDC" points="8.3212 21.1945 0.1962 35.1945 10.6802 35.1945 18.8062 21.1945 10.6802 7.1945 0.1962 7.1945"></polygon>
                    <polygon id="Fill-42" fill="#DCDCDC" points="303.6696 21.1945 295.5446 35.1945 306.0286 35.1945 314.1546 21.1945 306.0286 7.1945 295.5446 7.1945"></polygon>
                </g>
                <g id="Group" transform="translate(643.000000, 191.000000)" font-size="12" font-family="SegoeUI, Segoe UI" font-weight="normal">
                    <text id="SERVER:" fill="#373737">
                        <tspan x="21" y="13">SERVER:</tspan>
                    </text>
                    <text id="-LocalDBV13" fill="#373737">
                        <tspan x="66" y="13"> LocalDBV13</tspan>
                    </text>
                    <text id="DATABASE:" letter-spacing="-0.1836" fill="#373737">
                        <tspan x="1" y="27">D</tspan>
                        <tspan x="9.03710312" y="27" letter-spacing="-0.846">A</tspan>
                        <tspan x="15.0700094" y="27" letter-spacing="-0.876">T</tspan>
                        <tspan x="19.578775" y="27">ABASE:</tspan>
                    </text>
                    <text id="-AdventureWorks" fill="#373737">
                        <tspan x="61" y="27"> Ad</tspan>
                        <tspan x="79.09375" y="27" letter-spacing="-0.0732">v</tspan>
                        <tspan x="84.6982844" y="27">entu</tspan>
                        <tspan x="108.622113" y="27" letter-spacing="-0.1656">r</tspan>
                        <tspan x="112.470184" y="27">e</tspan>
                        <tspan x="118.745575" y="27" letter-spacing="-0.2868">W</tspan>
                        <tspan x="129.38065" y="27">orks</tspan>
                    </text>
                    <text id="Change-database-connection" fill="#3C85DF">
                        <tspan x="0" y="47">Change database connection</tspan>
                    </text>
                </g>
                <g id="Circular-progress-50" transform="translate(973.000000, 117.000000)">
                    <g id="Group-5">
                        <g id="Group-4" transform="translate(20.000000, 16.000000)" font-family="SegoeUI-SemiBold, Segoe UI" fill="#222222" font-weight="500">
                            <text id="64" font-size="32.9996">
                                <tspan x="0" y="36.6158">64</tspan>
                            </text>
                            <text id="%" font-size="15.1248">
                                <tspan x="37" y="36">%</tspan>
                            </text>
                        </g>
                        <path d="M42.9816,8.1048 C23.9526,8.1048 8.4706,23.5858 8.4706,42.6158 C8.4706,61.6448 23.9526,77.1268 42.9816,77.1268 C62.0106,77.1268 77.4926,61.6448 77.4926,42.6158 C77.4926,23.5858 62.0106,8.1048 42.9816,8.1048 M42.9816,84.6388 C19.8096,84.6388 0.9586,65.7878 0.9586,42.6158 C0.9586,19.4438 19.8096,0.5928 42.9816,0.5928 C66.1536,0.5928 85.0046,19.4438 85.0046,42.6158 C85.0046,65.7878 66.1536,84.6388 42.9816,84.6388" id="Fill-325" fill="#DCDCDC"></path>
                        <path d="M43.0065,0.5927 L43.0065,8.1047 C62.0235,8.1187 77.4925,23.5947 77.4925,42.6157 C77.4925,61.6447 62.0105,77.1267 42.9815,77.1267 C35.4215,77.1267 28.4275,74.6767 22.7355,70.5387 L18.3225,76.6127 C25.2535,81.6547 33.7735,84.6387 42.9815,84.6387 C66.1535,84.6387 85.0045,65.7877 85.0045,42.6157 C85.0045,19.4517 66.1675,0.6067 43.0065,0.5927" id="Fill-327" fill="#3C85DF"></path>
                    </g>
                </g>
                <text id="IMPORTING-DATABASE" font-family="SegoeUI-SemiBold, Segoe UI" font-size="14" font-weight="500" fill="#373737">
                    <tspan x="942" y="101">IMPORTING DATABASE</tspan>
                </text>
                <g id="Toolbar-empty">
                    <g id="Toolbar-base">
                        <polygon id="Fill-45" fill="#373737" points="0 30 1129 30 1129 0 0 0"></polygon>
                        <g id="ReadyRoll-red-badge">
                            <polygon id="Fill-47" fill="#CC0000" points="0 30 90 30 90 0 0 0"></polygon>
                            <g id="Group" transform="translate(9.000000, 5.000000)" fill="#FFFFFF">
                                <g id="ReadyRoll-Logo-white">
                                    <path d="M19.9469,13.6183 L19.9469,12.1603 C19.9469,11.0843 19.9749,9.3713 20.4419,8.2953 C21.5889,7.7293 22.8209,7.4603 24.1799,7.6303 C24.2499,8.1393 24.1799,8.5933 23.9249,9.0033 C23.2309,8.8903 22.5369,8.9753 21.8439,9.2723 C21.5889,10.0653 21.5609,11.3113 21.5609,12.0043 L21.5609,14.9913 C21.0369,15.0763 20.7109,15.0763 20.1029,14.9913 C19.9469,14.5383 19.9469,14.0853 19.9469,13.6183" id="Fill-48"></path>
                                    <path d="M28.0154,8.9326 C27.5344,8.9326 27.0814,9.0596 26.6144,9.3006 C26.4724,9.7256 26.3734,10.3196 26.3454,10.8436 C26.9814,11.0136 27.5054,11.0136 28.0434,11.0136 C28.6664,11.0136 29.1194,10.9706 29.5164,10.8866 C29.6004,10.6176 29.6294,10.3486 29.6294,10.0796 C29.6294,9.1166 28.8364,8.9326 28.0154,8.9326 M28.5674,12.2306 C27.9734,12.2306 27.0104,12.2026 26.3164,12.0756 L26.3164,12.6986 C26.3164,13.8026 27.3924,13.8586 28.2984,13.8586 C28.9354,13.8586 29.8554,13.7456 30.5774,13.4906 C30.8184,13.8166 30.9034,14.1416 30.8464,14.5246 C30.0394,14.9776 29.0914,15.2326 28.0154,15.2326 C26.2604,15.2326 24.7024,14.8076 24.7024,12.7406 L24.7024,11.7776 C24.7024,10.7586 24.9014,9.2726 25.3114,8.3096 C26.2604,7.7996 27.1804,7.5456 28.0294,7.5456 C29.8694,7.5456 31.1864,8.1116 31.1864,10.0366 C31.1864,10.5326 31.0594,11.5376 30.8464,12.0616 C30.2234,12.1316 29.3744,12.2306 28.5674,12.2306" id="Fill-49"></path>
                                    <path d="M49.7431,14.7225 L47.7331,9.8525 C47.5061,9.2865 47.1671,8.5075 47.1531,7.8855 C47.6621,7.7575 48.2571,7.7715 48.7241,7.8705 L50.6211,12.8115 L51.6401,10.5745 C51.9661,9.8525 52.4041,8.6495 52.6171,7.8705 C53.0841,7.7715 53.6791,7.7575 54.1881,7.8705 C54.0891,8.7765 53.5791,9.8385 53.0561,11.0275 L50.0261,17.9925 C49.4601,18.1195 48.8791,18.1055 48.3131,17.9925 L49.7431,14.7225 Z" id="Fill-50"></path>
                                    <path d="M54.867,13.6183 L54.867,12.1603 C54.867,11.0843 54.895,9.3713 55.362,8.2953 C56.509,7.7293 57.741,7.4603 59.1,7.6303 C59.171,8.1393 59.1,8.5933 58.845,9.0033 C58.151,8.8903 57.458,8.9753 56.764,9.2723 C56.509,10.0653 56.481,11.3113 56.481,12.0043 L56.481,14.9913 C55.957,15.0763 55.631,15.0763 55.023,14.9913 C54.867,14.5383 54.867,14.0853 54.867,13.6183" id="Fill-51"></path>
                                    <path d="M67.6629,13.5475 L67.6629,6.0165 C67.6629,5.5205 67.6629,5.0255 67.8189,4.5445 C68.3569,4.4445 68.5969,4.4445 69.1349,4.5445 C69.2769,5.0255 69.2769,5.5345 69.2769,6.0305 L69.2769,13.5335 C69.2769,14.0005 69.2909,14.4395 69.1919,14.9915 C68.7529,15.1045 68.2149,15.0905 67.7479,14.9915 C67.6769,14.5105 67.6629,14.0285 67.6629,13.5475" id="Fill-52"></path>
                                    <path d="M71.0317,13.5475 L71.0317,6.0165 C71.0317,5.5205 71.0317,5.0255 71.1877,4.5445 C71.7257,4.4445 71.9657,4.4445 72.5037,4.5445 C72.6457,5.0255 72.6457,5.5345 72.6457,6.0305 L72.6457,13.5335 C72.6457,14.0005 72.6597,14.4395 72.5607,14.9915 C72.1217,15.1045 71.5837,15.0905 71.1167,14.9915 C71.0457,14.5105 71.0317,14.0285 71.0317,13.5475" id="Fill-53"></path>
                                    <path d="M44.8035,13.4504 C44.5045,13.6884 43.8715,13.8534 43.1365,13.8534 C42.4015,13.8534 41.7685,13.6884 41.4685,13.4504 L41.4685,9.3254 C41.7685,9.0874 42.4015,8.9234 43.1365,8.9234 C43.8715,8.9234 44.5045,9.0874 44.8035,9.3254 L44.8035,13.4504 Z M46.2615,4.5444 C45.7095,4.4304 45.3275,4.4454 44.8035,4.5444 L44.8035,7.9414 C44.4075,7.6444 43.8125,7.5444 43.1475,7.5444 C42.2985,7.5444 41.4065,7.7714 40.3725,8.2814 C39.9765,9.2154 39.8915,10.6874 39.8775,11.6924 L39.8775,12.7394 C39.8775,14.8064 41.3925,15.2314 43.1475,15.2314 C44.2235,15.2314 45.1575,14.9624 45.9505,14.4664 C46.4035,13.3344 46.4175,11.1824 46.4175,10.7294 L46.4175,6.1574 C46.4175,5.6194 46.4175,5.0824 46.2615,4.5444 L46.2615,4.5444 Z" id="Fill-54"></path>
                                    <path d="M64.6345,13.4506 C64.3375,13.6886 63.7085,13.8536 62.9785,13.8536 C62.2485,13.8536 61.6195,13.6886 61.3225,13.4506 L61.3225,9.3256 C61.6195,9.0876 62.2485,8.9236 62.9785,8.9236 C63.7085,8.9236 64.3375,9.0876 64.6345,9.3256 L64.6345,13.4506 Z M62.9925,7.5456 C62.1435,7.5456 61.2515,7.7716 60.2045,8.2816 C59.7515,9.3566 59.7085,11.0556 59.7085,12.1316 L59.7085,12.7396 C59.7085,14.8066 61.2235,15.2316 62.9925,15.2316 C64.0685,15.2316 64.9885,14.9626 65.7955,14.4666 C66.2625,13.2636 66.2625,10.9706 66.2625,10.6306 L66.2625,10.0366 C66.2625,8.0266 64.8185,7.5456 62.9925,7.5456 L62.9925,7.5456 Z" id="Fill-55"></path>
                                    <path d="M37.0325,13.0259 C36.7335,13.2639 36.1005,13.7169 35.3655,13.7169 C34.6305,13.7169 33.9975,13.5519 33.6985,13.3139 L33.6985,9.3259 C33.9975,9.0879 34.6305,8.9229 35.3655,8.9229 C36.1005,8.9229 36.7335,9.0879 37.0325,9.3259 L37.0325,13.0259 Z M35.3905,7.5449 C34.5415,7.5449 33.6495,7.7719 32.6015,8.2809 C32.1495,9.3569 32.1065,11.0559 32.1065,12.1309 L32.1065,12.6839 C32.1065,14.7359 33.8475,15.1459 34.7675,15.1459 C35.7165,15.1459 36.6225,14.8209 37.1315,14.2969 L37.2585,14.9909 C37.7685,15.0899 38.1085,15.1039 38.5475,14.9909 C38.6035,14.5379 38.6605,13.8019 38.6605,13.0229 L38.6605,10.0369 C38.6605,8.0269 37.2165,7.5449 35.3905,7.5449 L35.3905,7.5449 Z" id="Fill-56"></path>
                                    <path d="M11.6526,4.7145 C9.6166,4.7145 7.6966,5.5105 6.2456,6.9565 C4.7966,8.4005 3.9986,10.3085 3.9986,12.3305 L3.9986,15.5965 C3.9986,16.1015 3.6196,16.4975 3.1356,16.4975 C2.6606,16.4975 2.2736,16.1115 2.2736,15.6355 L2.2736,12.3685 C2.2736,9.8745 3.2526,7.5215 5.0286,5.7455 C6.8056,3.9685 9.1576,2.9905 11.6526,2.9905 C12.1276,2.9905 12.5146,3.3765 12.5146,3.8525 C12.5146,4.3035 12.1036,4.7145 11.6526,4.7145 M11.6526,8.5945 C9.5926,8.5945 7.9166,10.2705 7.9166,12.3305 L7.9166,15.5965 C7.9166,16.0805 7.5086,16.4885 7.0246,16.4885 C6.5546,16.4885 6.1716,16.1065 6.1716,15.6355 L6.1716,12.3685 C6.1716,10.9105 6.7436,9.5365 7.7816,8.4985 C8.8196,7.4595 10.1946,6.8885 11.6526,6.8885 C12.1226,6.8885 12.5056,7.2705 12.5056,7.7415 C12.5056,8.1875 12.0986,8.5945 11.6526,8.5945 M7.3746,0.3915 C4.3026,0.3915 1.6196,1.0135 0.3746,1.9075 L0.3746,17.5415 C1.6196,18.4355 4.3026,19.0575 7.3746,19.0575 C10.4466,19.0575 13.1306,18.4355 14.3746,17.5415 L14.3746,1.9075 C13.1306,1.0135 10.4466,0.3915 7.3746,0.3915" id="Fill-57"></path>
                                </g>
                            </g>
                        </g>
                        <polygon id="Fill-45" fill="#B6B6B6" points="0 30 1129 30 1129 29 0 29"></polygon>
                    </g>
                    <g id="Group-2" transform="translate(1016.000000, 6.000000)" fill="#FFFFFF">
                        <g id="Redgate-logo-white" transform="translate(53.000000, 1.000000)">
                            <g id="Layer_1">
                                <g id="Group">
                                    <path d="M0,10.6857143 L0,8.97142857 C0,7.71428571 0.0571428571,5.71428571 0.571428571,4.45714286 C1.88571429,3.77142857 3.37142857,3.48571429 4.91428571,3.65714286 C4.97142857,4.22857143 4.91428571,4.8 4.62857143,5.25714286 C3.82857143,5.14285714 3.02857143,5.25714286 2.22857143,5.6 C1.94285714,6.51428571 1.88571429,8 1.88571429,8.8 L1.88571429,12.2857143 C1.25714286,12.4 0.914285714,12.4 0.171428571,12.2857143 C0,11.7714286 0,11.2 0,10.6857143 L0,10.6857143 Z" id="Shape"></path>
                                    <path d="M9.77142857,9.08571429 C9.08571429,9.08571429 7.94285714,9.02857143 7.14285714,8.91428571 L7.14285714,9.65714286 C7.14285714,10.9714286 8.4,11.0285714 9.42857143,11.0285714 C10.1714286,11.0285714 11.2571429,10.9142857 12.1142857,10.5714286 C12.4,10.9714286 12.5142857,11.3142857 12.4,11.7714286 C11.4857143,12.2857143 10.4,12.5714286 9.14285714,12.5714286 C7.08571429,12.5714286 5.25714286,12.0571429 5.25714286,9.65714286 L5.25714286,8.51428571 C5.25714286,7.31428571 5.48571429,5.6 5.94285714,4.45714286 C7.02857143,3.88571429 8.11428571,3.54285714 9.08571429,3.54285714 C11.2571429,3.54285714 12.7428571,4.22857143 12.7428571,6.45714286 C12.7428571,7.02857143 12.5714286,8.22857143 12.3428571,8.8 C11.7142857,8.97142857 10.7428571,9.08571429 9.77142857,9.08571429 L9.77142857,9.08571429 Z M9.14285714,5.2 C8.57142857,5.2 8.05714286,5.37142857 7.48571429,5.65714286 C7.31428571,6.17142857 7.2,6.85714286 7.2,7.48571429 C7.94285714,7.65714286 8.57142857,7.65714286 9.2,7.65714286 C9.94285714,7.65714286 10.4571429,7.6 10.9142857,7.48571429 C11.0285714,7.2 11.0285714,6.85714286 11.0285714,6.57142857 C11.0285714,5.42857143 10.1142857,5.2 9.14285714,5.2 L9.14285714,5.2 Z" id="Shape"></path>
                                    <path d="M49.8285714,9.08571429 C49.1428571,9.08571429 48,9.02857143 47.2,8.91428571 L47.2,9.65714286 C47.2,10.9714286 48.4571429,11.0285714 49.4857143,11.0285714 C50.2285714,11.0285714 51.3142857,10.9142857 52.1714286,10.5714286 C52.4571429,10.9714286 52.5714286,11.3142857 52.4571429,11.7714286 C51.5428571,12.2857143 50.4,12.5714286 49.1428571,12.5714286 C47.0857143,12.5714286 45.2571429,12.0571429 45.2571429,9.65714286 L45.2571429,8.51428571 C45.2571429,7.31428571 45.4857143,5.6 45.9428571,4.45714286 C47.0285714,3.88571429 48.1142857,3.54285714 49.0857143,3.54285714 C51.2571429,3.54285714 52.7428571,4.22857143 52.7428571,6.45714286 C52.7428571,7.02857143 52.5714286,8.22857143 52.3428571,8.8 C51.7714286,8.97142857 50.8,9.08571429 49.8285714,9.08571429 L49.8285714,9.08571429 Z M49.2,5.2 C48.6285714,5.2 48.1142857,5.37142857 47.5428571,5.65714286 C47.3714286,6.17142857 47.2571429,6.85714286 47.2571429,7.48571429 C48,7.65714286 48.6285714,7.65714286 49.2571429,7.65714286 C50,7.65714286 50.5142857,7.6 50.9714286,7.48571429 C51.0857143,7.2 51.0857143,6.85714286 51.0857143,6.57142857 C51.0857143,5.42857143 50.1714286,5.2 49.2,5.2 L49.2,5.2 Z" id="Shape"></path>
                                    <path d="M44.6285714,11.0857143 C44.2857143,11.1428571 44.1714286,11.1428571 44.0571429,11.1428571 C43.0857143,11.1428571 42.1142857,11.0857143 42.1142857,9.77142857 L42.1142857,5.6 L44.2857143,5.6 C44.4571429,5.08571429 44.4571429,4.51428571 44.2857143,4 L42.1142857,4 L42.1142857,1.88571429 C41.5428571,1.71428571 40.9714286,1.71428571 40.4571429,1.88571429 C40.2857143,2.68571429 40.2857143,3.54285714 40.2857143,4.34285714 L40.2857143,9.88571429 C40.2857143,12.0571429 41.9428571,12.5714286 42.8571429,12.5714286 C44,12.5714286 44.6285714,12.3428571 44.9142857,12.2285714 C44.9142857,12.2285714 44.9714286,12 44.9142857,11.6571429 C44.8,11.2 44.6285714,11.0857143 44.6285714,11.0857143 L44.6285714,11.0857143 Z" id="Shape"></path>
                                    <path d="M26.4571429,3.6 C25.4857143,3.6 24.4,3.88571429 23.2,4.45714286 C22.6857143,5.71428571 22.6285714,7.71428571 22.6285714,8.97142857 L22.6285714,9.65714286 C22.6285714,12.0571429 24.4,12.5714286 26.4,12.5714286 C27.1428571,12.5714286 27.7714286,12.4 28.4,12.1142857 C28.4,12.8 28.2857143,13.6571429 28.1714286,14.0571429 C27.6571429,14.2857143 26.9714286,14.4 26.3428571,14.4 C25.5428571,14.4 24.6285714,14.3428571 23.5428571,13.8857143 C23.2571429,14.2857143 23.0285714,14.8 22.9714286,15.3142857 C24.2285714,15.8857143 25.1428571,16 26.4,16 C28,16 28.9714286,15.6 29.8285714,15.0857143 C30.1714286,13.9428571 30.3428571,12.4571429 30.3428571,10.9714286 L30.3428571,6.45714286 C30.2857143,4.17142857 28.5714286,3.6 26.4571429,3.6 L26.4571429,3.6 Z M28.4,10.4571429 C28.0571429,10.7428571 27.3142857,10.9142857 26.4571429,10.9142857 C25.6,10.9142857 24.8571429,10.7428571 24.5142857,10.4571429 L24.5142857,5.65714286 C24.8571429,5.37142857 25.6,5.2 26.4571429,5.2 C27.3142857,5.2 28.0571429,5.37142857 28.4,5.65714286 L28.4,10.4571429 L28.4,10.4571429 Z" id="Shape"></path>
                                    <path d="M35.2571429,3.6 C34.2857143,3.6 33.2,3.88571429 32,4.45714286 C31.4857143,5.71428571 31.4285714,7.71428571 31.4285714,8.97142857 L31.4285714,9.6 C31.4285714,12 33.4857143,12.4571429 34.5142857,12.4571429 C35.6,12.4571429 36.6857143,12.0571429 37.2571429,11.4857143 L37.4285714,12.2857143 C38,12.4 38.4,12.4 38.9142857,12.2857143 C38.9714286,11.7714286 39.0285714,10.9142857 39.0285714,10 L39.0285714,6.51428571 C39.0857143,4.17142857 37.3714286,3.6 35.2571429,3.6 L35.2571429,3.6 Z M37.2,10.0571429 C36.8571429,10.3428571 36.1142857,10.8 35.2571429,10.8 C34.4,10.8 33.6571429,10.6285714 33.3142857,10.3428571 L33.3142857,5.65714286 C33.6571429,5.37142857 34.4,5.2 35.2571429,5.2 C36.1142857,5.2 36.8571429,5.37142857 37.2,5.65714286 L37.2,10.0571429 L37.2,10.0571429 Z" id="Shape"></path>
                                    <path d="M21.3142857,0.114285714 C20.6857143,6.9388939e-18 20.2285714,6.9388939e-18 19.6,0.114285714 L19.6,4.05714286 C19.1428571,3.71428571 18.4571429,3.6 17.6571429,3.6 C16.6857143,3.6 15.6,3.88571429 14.4,4.45714286 C13.9428571,5.54285714 13.8285714,7.25714286 13.8285714,8.45714286 L13.8285714,9.65714286 C13.8285714,12.0571429 15.6,12.5714286 17.6571429,12.5714286 C18.9142857,12.5714286 20,12.2857143 20.9142857,11.6571429 C21.4285714,10.3428571 21.4857143,7.82857143 21.4857143,7.31428571 L21.4857143,2 C21.4857143,1.37142857 21.4857143,0.742857143 21.3142857,0.114285714 L21.3142857,0.114285714 Z M19.6571429,10.4571429 C19.3142857,10.7428571 18.5714286,10.9142857 17.7142857,10.9142857 C16.8571429,10.9142857 16.1142857,10.7428571 15.7714286,10.4571429 L15.7714286,5.65714286 C16.1142857,5.37142857 16.8571429,5.2 17.7142857,5.2 C18.5714286,5.2 19.3142857,5.37142857 19.6571429,5.65714286 L19.6571429,10.4571429 L19.6571429,10.4571429 Z" id="Shape"></path>
                                </g>
                            </g>
                        </g>
                        <text id="Help" font-family="SegoeUI, Segoe UI" font-size="12" font-weight="normal">
                            <tspan x="0" y="13">Help</tspan>
                        </text>
                        <polyline id="Fill-24" points="35.7091 8.0371 32.3761 11.3701 29.0421 8.0371"></polyline>
                    </g>
                </g>
                <text id="Cancel" font-family="SegoeUI, Segoe UI" font-size="12" font-weight="normal" fill="#3C85DF">
                    <tspan x="998" y="238">Cancel</tspan>
                </text>
            </g>
        </g>
    </g>
</svg>