<?xml version="1.0" encoding="UTF-8"?>
<svg width="1127px" height="257px" viewBox="0 0 1127 257" version="1.1" xmlns="http://www.w3.org/2000/svg" xmlns:xlink="http://www.w3.org/1999/xlink" style="background: #FFFFFF;">
    <!-- Generator: Sketch 44.1 (41455) - http://www.bohemiancoding.com/sketch -->
    <title>Artboard Copy 2</title>
    <desc>Created with Sketch.</desc>
    <defs></defs>
    <g id="Mockups" stroke="none" stroke-width="1" fill="none" fill-rule="evenodd">
        <g id="Artboard-Copy-2">
            <g id="overlay" transform="translate(-2.000000, -30.000000)">
                <path d="M1118.12,253.969 L911.167,253.969 C908.313,253.969 906,251.656 906,248.802 L906,71.167 C906,68.314 908.313,66 911.167,66 L1118.12,66 C1120.974,66 1123.287,68.314 1123.287,71.167 L1123.287,248.802 C1123.287,251.656 1120.974,253.969 1118.12,253.969" id="Fill-5" fill="#FFFFFF"></path>
                <path d="M527.12,253.969 L320.167,253.969 C317.313,253.969 315,251.656 315,248.802 L315,71.167 C315,68.314 317.313,66 320.167,66 L527.12,66 C529.974,66 532.287,68.314 532.287,71.167 L532.287,248.802 C532.287,251.656 529.974,253.969 527.12,253.969" id="Fill-19" fill="#FFFFFF"></path>
                <path d="M616.167,253.969 C613.313,253.969 611,251.656 611,248.802 L611,71.167 C611,68.314 613.313,66 616.167,66 L823.12,66 C825.974,66 828.287,68.314 828.287,71.167 L828.287,248.802 C828.287,251.656 825.974,253.969 823.12,253.969 L616.167,253.969 Z" id="Fill-26" fill="#FFFFFF"></path>
                <g id="Getting-started-left-hand-intro" transform="translate(0.000000, 8.000000)">
                    <g id="welcome-to-ReadyRoll">
                        <g id="left-dark-area" fill="#373737">
                            <polygon id="Fill-3" points="0.647 283.063 275.487 283.063 275.487 0.3 0.647 0.3"></polygon>
                            <polygon id="Fill-4" points="273.125 149 265 163 275.484 163 283.61 149 275.484 135 265 135"></polygon>
                        </g>
                        <text id="Welcome-to-ReadyRoll" font-family="SegoeUI-SemiBold, Segoe UI" font-size="18" font-weight="500" fill="#FFFFFF">
                            <tspan x="27.9458" y="91.5644937">Welcome to ReadyRoll</tspan>
                        </text>
                        <text id="Getting-started" font-family="SegoeUI, Segoe UI" font-size="12" font-weight="normal" fill="#67A9F1">
                            <tspan x="27.9468" y="195.319363">Getting sta</tspan>
                            <tspan x="85.9018781" y="195.319363" letter-spacing="0.3372">r</tspan>
                            <tspan x="90.7566562" y="195.319363" letter-spacing="-0.096">t</tspan>
                            <tspan x="94.6333125" y="195.319363">ed</tspan>
                        </text>
                        <text id="To-start,-create-a-n" font-family="SegoeUI, Segoe UI" font-size="12" font-weight="normal" fill="#DCDCDC">
                            <tspan x="27.9468" y="141.895362">To start, create a new project or open</tspan>
                            <tspan x="27.9468" y="157.895362">an existing project in Visual Studio</tspan>
                        </text>
                    </g>
                </g>
                <g id="Group-2" transform="translate(395.000000, 129.000000)">
                    <path d="M5.253,42.023 L42.023,42.023 L42.023,13.132 L5.253,13.132 L5.253,42.023 Z M0,0 L0,42.023 C0,44.912 2.364,47.276 5.253,47.276 L42.023,47.276 C44.912,47.276 47.276,44.912 47.276,42.023 L47.276,0 L0,0 Z" id="Fill-138" fill="#B7B6B6"></path>
                    <path d="M30.872,19.918 C27.426,19.918 24.176,21.266 21.721,23.713 C19.269,26.156 17.918,29.386 17.918,32.806 L17.918,38.334 C17.918,39.189 17.277,39.859 16.459,39.859 C15.654,39.859 15,39.205 15,38.4 L15,32.872 C15,28.65 16.656,24.669 19.662,21.662 C22.669,18.655 26.65,17 30.872,17 C31.677,17 32.331,17.654 32.331,18.459 C32.331,19.222 31.636,19.918 30.872,19.918 M30.872,26.484 C27.386,26.484 24.55,29.32 24.55,32.806 L24.55,38.334 C24.55,39.152 23.859,39.844 23.04,39.844 C22.244,39.844 21.596,39.196 21.596,38.4 L21.596,32.872 C21.596,30.404 22.564,28.078 24.321,26.321 C26.078,24.564 28.405,23.596 30.872,23.596 C31.668,23.596 32.316,24.244 32.316,25.04 C32.316,25.796 31.628,26.484 30.872,26.484" id="Fill-139" fill="#B7B6B6"></path>
                    <path d="M57.825,39.912 C57.825,47.043 52.044,52.824 44.913,52.824 C37.781,52.824 32,47.043 32,39.912 C32,32.781 37.781,27 44.913,27 C52.044,27 57.825,32.781 57.825,39.912" id="Fill-140" fill="#FFFFFF"></path>
                    <path d="M50.654,40.762 L45.762,40.762 L45.762,45.654 L43.805,45.654 L43.805,40.762 L38.913,40.762 L38.913,38.805 L43.805,38.805 L43.805,33.913 L45.762,33.913 L45.762,38.805 L50.654,38.805 L50.654,40.762 Z M44.784,30 C39.403,30 35,34.403 35,39.784 C35,45.165 39.403,49.567 44.784,49.567 C50.165,49.567 54.568,45.165 54.568,39.784 C54.568,34.403 50.165,30 44.784,30 L44.784,30 Z" id="Fill-141" fill="#B7B6B6"></path>
                </g>
                <g id="Group-3" transform="translate(334.000000, 86.000000)">
                    <text id="CREATE-A-NEW-PROJECT" font-family="SegoeUI-SemiBold, Segoe UI" font-size="14" font-weight="500" letter-spacing="-0.1764" fill="#8C8C8C">
                        <tspan x="25" y="15">CREATE A NEW PROJECT</tspan>
                    </text>
                    <path d="M8.233,14.8 L4.233,10.867 L6.166,8.933 L8.233,11.067 L13.9,5.4 L15.766,7.267 L8.233,14.8 Z M10,0 C4.5,0 0,4.5 0,10 C0,15.5 4.5,20 10,20 C15.5,20 20,15.5 20,10 C20,4.5 15.5,0 10,0 L10,0 Z" id="Fill-143" fill="#2FA836"></path>
                </g>
                <g id="Group-3" transform="translate(630.000000, 86.000000)">
                    <text id="CONNECT-TO-DATABASE" font-family="SegoeUI-SemiBold, Segoe UI" font-size="14" font-weight="500" letter-spacing="-0.1764" fill="#8C8C8C">
                        <tspan x="25" y="15">CONNECT TO DATABASE</tspan>
                    </text>
                    <path d="M8.233,14.8 L4.233,10.867 L6.166,8.933 L8.233,11.067 L13.9,5.4 L15.766,7.267 L8.233,14.8 Z M10,0 C4.5,0 0,4.5 0,10 C0,15.5 4.5,20 10,20 C15.5,20 20,15.5 20,10 C20,4.5 15.5,0 10,0 L10,0 Z" id="Fill-143" fill="#2FA836"></path>
                </g>
                <text id="MyNewReadyRollProject" font-family="SegoeUI, Segoe UI" font-size="12" font-weight="normal" fill="#3A3A3A">
                    <tspan x="359" y="204">MyNewReadyRollProject</tspan>
                </text>
                <g id="Group-44" transform="translate(562.000000, 135.000000)">
                    <path d="M124.1865,12.3925 L124.1865,12.3925 C121.2905,14.4605 115.4995,15.9085 108.8805,15.9085 C102.2625,15.9085 96.4705,14.4605 93.5755,12.5995 L93.5755,3.9125 C96.4705,1.8435 102.2625,0.6025 108.8805,0.6025 C115.4995,0.6025 121.2905,2.0505 124.1865,3.9125 L124.1865,12.3925 Z M108.8805,28.9395 C102.2625,28.9395 96.4705,27.4915 93.5755,25.6295 L93.5755,16.9425 C97.2985,18.8045 102.8825,19.8385 108.8805,19.8385 C114.8785,19.8385 120.4635,18.8045 124.1865,16.9425 L124.1865,25.6295 C121.2905,27.4915 115.4995,28.9395 108.8805,28.9395 L108.8805,28.9395 Z M108.8805,41.7625 C102.2625,41.7625 96.4705,40.3155 93.5755,38.4535 L93.5755,29.7665 C97.2985,31.6285 102.8825,32.6625 108.8805,32.6625 C114.8785,32.6625 120.4635,31.6285 124.1865,29.7665 L124.1865,38.4535 C121.2905,40.3155 115.4995,41.7625 108.8805,41.7625 L108.8805,41.7625 Z" id="Fill-28" fill="#B7B6B6"></path>
                    <path d="M168.6094,21.183 C168.6094,23.932 166.3804,26.161 163.6314,26.161 C160.8824,26.161 158.6534,23.932 158.6534,21.183 C158.6534,18.434 160.8824,16.205 163.6314,16.205 C166.3804,16.205 168.6094,18.434 168.6094,21.183" id="Fill-30" fill="#B7B6B6"></path>
                    <path d="M142.7872,21.183 C142.7872,23.932 140.5582,26.161 137.8092,26.161 C135.0602,26.161 132.8312,23.932 132.8312,21.183 C132.8312,18.434 135.0602,16.205 137.8092,16.205 C140.5582,16.205 142.7872,18.434 142.7872,21.183" id="Fill-32" fill="#B7B6B6"></path>
                    <path d="M155.6982,21.183 C155.6982,23.932 153.4692,26.161 150.7202,26.161 C147.9712,26.161 145.7422,23.932 145.7422,21.183 C145.7422,18.434 147.9712,16.205 150.7202,16.205 C153.4692,16.205 155.6982,18.434 155.6982,21.183" id="Fill-34" fill="#B7B6B6"></path>
                    <path d="M181.5299,21.183 C181.5299,23.932 179.3009,26.161 176.5519,26.161 C173.8029,26.161 171.5739,23.932 171.5739,21.183 C171.5739,18.434 173.8029,16.205 176.5519,16.205 C179.3009,16.205 181.5299,18.434 181.5299,21.183" id="Fill-36" fill="#B7B6B6"></path>
                    <path d="M214.825,10.2326 C210.375,10.2326 206.177,11.9736 203.006,15.1336 C199.839,18.2896 198.095,22.4606 198.095,26.8776 L198.095,34.0176 C198.095,35.1226 197.267,35.9876 196.21,35.9876 C195.171,35.9876 194.325,35.1426 194.325,34.1026 L194.325,26.9626 C194.325,21.5096 196.464,16.3686 200.347,12.4846 C204.23,8.6016 209.372,6.4636 214.825,6.4636 C215.864,6.4636 216.71,7.3086 216.71,8.3476 C216.71,9.3346 215.811,10.2326 214.825,10.2326 M214.825,18.7126 C210.323,18.7126 206.66,22.3756 206.66,26.8776 L206.66,34.0176 C206.66,35.0746 205.767,35.9676 204.71,35.9676 C203.682,35.9676 202.845,35.1316 202.845,34.1026 L202.845,26.9626 C202.845,23.7766 204.095,20.7716 206.364,18.5026 C208.634,16.2326 211.638,14.9836 214.825,14.9836 C215.853,14.9836 216.69,15.8196 216.69,16.8476 C216.69,17.8236 215.801,18.7126 214.825,18.7126 M205.475,0.7826 C198.76,0.7826 192.895,2.1426 190.175,4.0976 L190.175,38.2676 C192.895,40.2226 198.76,41.5826 205.475,41.5826 C212.19,41.5826 218.055,40.2226 220.775,38.2676 L220.775,4.0976 C218.055,2.1426 212.19,0.7826 205.475,0.7826" id="Fill-38" fill="#B7B6B6"></path>
                    <polygon id="Fill-40" fill="#DCDCDC" points="8.3212 21.1945 0.1962 35.1945 10.6802 35.1945 18.8062 21.1945 10.6802 7.1945 0.1962 7.1945"></polygon>
                    <polygon id="Fill-42" fill="#DCDCDC" points="303.6696 21.1945 295.5446 35.1945 306.0286 35.1945 314.1546 21.1945 306.0286 7.1945 295.5446 7.1945"></polygon>
                </g>
                <g id="Group" transform="translate(643.000000, 191.000000)" font-size="12" font-family="SegoeUI, Segoe UI" font-weight="normal">
                    <text id="SERVER:" fill="#373737">
                        <tspan x="21" y="13">SERVER:</tspan>
                    </text>
                    <text id="-LocalDBV13" fill="#373737">
                        <tspan x="66" y="13"> LocalDBV13</tspan>
                    </text>
                    <text id="DATABASE:" letter-spacing="-0.1836" fill="#373737">
                        <tspan x="1" y="27">D</tspan>
                        <tspan x="9.03710312" y="27" letter-spacing="-0.846">A</tspan>
                        <tspan x="15.0700094" y="27" letter-spacing="-0.876">T</tspan>
                        <tspan x="19.578775" y="27">ABASE:</tspan>
                    </text>
                    <text id="-AdventureWorks" fill="#373737">
                        <tspan x="61" y="27"> Ad</tspan>
                        <tspan x="79.09375" y="27" letter-spacing="-0.0732">v</tspan>
                        <tspan x="84.6982844" y="27">entu</tspan>
                        <tspan x="108.622113" y="27" letter-spacing="-0.1656">r</tspan>
                        <tspan x="112.470184" y="27">e</tspan>
                        <tspan x="118.745575" y="27" letter-spacing="-0.2868">W</tspan>
                        <tspan x="129.38065" y="27">orks</tspan>
                    </text>
                    <text id="Change-database-connection" fill="#3C85DF">
                        <tspan x="0" y="47">Change database connection</tspan>
                    </text>
                </g>
                <g id="Circular-progress-50" transform="translate(973.000000, 117.000000)">
                    <g id="Group-5">
                        <g id="Group-4" transform="translate(20.000000, 16.000000)" font-family="SegoeUI-SemiBold, Segoe UI" fill="#222222" font-weight="500">
                            <text id="64" font-size="32.9996">
                                <tspan x="0" y="36.6158">64</tspan>
                            </text>
                            <text id="%" font-size="15.1248">
                                <tspan x="37" y="36">%</tspan>
                            </text>
                        </g>
                        <path d="M42.9816,8.1048 C23.9526,8.1048 8.4706,23.5858 8.4706,42.6158 C8.4706,61.6448 23.9526,77.1268 42.9816,77.1268 C62.0106,77.1268 77.4926,61.6448 77.4926,42.6158 C77.4926,23.5858 62.0106,8.1048 42.9816,8.1048 M42.9816,84.6388 C19.8096,84.6388 0.9586,65.7878 0.9586,42.6158 C0.9586,19.4438 19.8096,0.5928 42.9816,0.5928 C66.1536,0.5928 85.0046,19.4438 85.0046,42.6158 C85.0046,65.7878 66.1536,84.6388 42.9816,84.6388" id="Fill-325" fill="#DCDCDC"></path>
                        <path d="M43.0065,0.5927 L43.0065,8.1047 C62.0235,8.1187 77.4925,23.5947 77.4925,42.6157 C77.4925,61.6447 62.0105,77.1267 42.9815,77.1267 C35.4215,77.1267 28.4275,74.6767 22.7355,70.5387 L18.3225,76.6127 C25.2535,81.6547 33.7735,84.6387 42.9815,84.6387 C66.1535,84.6387 85.0045,65.7877 85.0045,42.6157 C85.0045,19.4517 66.1675,0.6067 43.0065,0.5927" id="Fill-327" fill="#3C85DF"></path>
                    </g>
                </g>
                <text id="IMPORTING-DATABASE" font-family="SegoeUI-SemiBold, Segoe UI" font-size="14" font-weight="500" fill="#373737">
                    <tspan x="942" y="101">IMPORTING DATABASE</tspan>
                </text>
                <text id="Cancel" font-family="SegoeUI, Segoe UI" font-size="12" font-weight="normal" fill="#3C85DF">
                    <tspan x="998" y="238">Cancel</tspan>
                </text>
            </g>
        </g>
    </g>
</svg>