<svg height="659" viewBox="0 0 1170 659" width="1170" xmlns="http://www.w3.org/2000/svg" xmlns:xlink="http://www.w3.org/1999/xlink"><defs><path id="a" d="m775.464913 64.9576637v-56.47863335c0-4.41701864-3.577872-7.99464702-7.9914-7.99464702h-759.48211301c-4.40497861 0-7.99139999 3.57932539-7.99139999 7.99464702v184.01070565c0 4.417019 3.57787165 7.994647 7.99139999 7.994647h759.48211301c4.404978 0 7.9914-3.579325 7.9914-7.994647v-56.478633l20.535087-35.52672z"/><filter id="b" height="158%" width="114.6%" x="-7.3%" y="-28%"><feOffset dx="0" dy="2" in="SourceAlpha" result="shadowOffsetOuter1"/><feGaussianBlur in="shadowOffsetOuter1" result="shadowBlurOuter1" stdDeviation="19"/><feColorMatrix in="shadowBlurOuter1" type="matrix" values="0 0 0 0 0   0 0 0 0 0   0 0 0 0 0  0 0 0 0.15 0"/></filter></defs><g fill="none" fill-rule="evenodd"><path d="m0 1h1170v658h-1170z" fill="#ebebeb"/><path d="m120.777253 46.3235294c-21.8036017 0-42.3724823 8.5343137-57.9093857 24.0245098-15.5173046 15.4705883-24.0623565 35.9166668-24.0623565 57.5686278v35c0 5.416666-4.0569398 9.656862-9.2359075 9.656862-5.0907735 0-9.2359076-4.142156-9.2359076-9.240196v-35c0-26.730392 10.4804277-51.9313722 29.5059073-70.9705879 19.0254796-19.0343137 44.2196635-29.5147059 70.93765-29.5147059 5.090773 0 9.235907 4.1421569 9.235907 9.2352941 0 4.8382353-4.404817 9.2401961-9.235907 9.2401961m0 41.5686275c-22.0583853 0-40.0059341 17.9558821-40.0059341 40.0245101v35c0 5.181372-4.3754193 9.558823-9.5543871 9.558823-5.0368769 0-9.1379139-4.098039-9.1379139-9.142157v-35c0-15.617647 6.1246072-30.3480389 17.241994-41.4705879 11.1173869-11.127451 25.8409421-17.25 41.4562411-17.25 5.036877 0 9.137914 4.0980392 9.137914 9.1372549 0 4.7843137-4.355821 9.1421569-9.137914 9.1421569m-45.8120617-87.8921569c-32.9013895 0-61.6380462 6.66666667-74.9651913 16.25v167.5c13.3271451 9.583333 42.0638018 16.25 74.9651913 16.25 32.9013897 0 61.6380467-6.666667 74.9651917-16.25v-167.5c-13.327145-9.58333333-42.063802-16.25-74.9651917-16.25" fill="#c00" transform="translate(100 230)"/><g transform="matrix(-1 0 0 1 1071 230)"><use fill="#000" filter="url(#b)" xlink:href="#a"/><use fill="#fff" fill-rule="evenodd" xlink:href="#a"/></g><g transform="translate(381 282)"><g fill="#b7b6b6"><path d="m69.5220321 26.8317416c-6.5772371 4.7063648-19.7294402 8.0017305-34.7621516 8.0017305-15.0304403 0-28.18491454-3.2953657-34.7598805-7.5306389v-19.76991848c6.57496596-4.70864065 19.7294402-7.53291472 34.7598805-7.53291472 15.0327114 0 28.1849145 3.29536571 34.7621516 7.53291472zm-34.7621516 37.6577461c-15.0304403 0-28.18491454-3.2953657-34.7598805-7.5329147v-19.7699185c8.45547435 4.237549 21.1375503 6.5907315 34.7598805 6.5907315 13.6223301 0 26.3066772-2.3531825 34.7621516-6.5907315v19.7699185c-6.5772371 4.237549-19.7294402 7.5329147-34.7621516 7.5329147zm0 29.1826482c-15.0304403 0-28.18491454-3.2930899-34.7598805-7.5306389v-19.7699185c8.45547435 4.237549 21.1375503 6.5907314 34.7598805 6.5907314 13.6223301 0 26.3066772-2.3531824 34.7621516-6.5907314v19.7699185c-6.5772371 4.237549-19.7294402 7.5306389-34.7621516 7.5306389z" transform="translate(270.758621)"/><path d="m185.667379 48.5446017-13.839793 23.895953h17.858017l13.841495-23.895953-13.841495-23.8959531h-17.858017z"/><path d="m422.581172 48.5446017-13.839793 23.895953h17.858017l13.841495-23.895953-13.841495-23.8959531h-17.858017z"/></g><path d="m39.2665143 70.732021-19.0776214-18.7965567 9.2192605-9.2429546 9.8583609 10.1987928 27.0282202-27.0836732 8.8997104 8.9227488zm8.4275393-70.732021c-26.2317295 0-47.6940536 21.5063577-47.6940536 47.7919061 0 26.2855483 21.4623241 47.7919061 47.6940536 47.7919061 26.2317294 0 47.6940535-21.5063578 47.6940535-47.7919061 0-26.2855484-21.4623241-47.7919061-47.6940535-47.7919061z" fill="#2fa836" transform="translate(507.672414)"/><path d="m9.45422126 75.7871422h66.17774904v-52.1039984h-66.17774904zm-9.45422126-75.7871422v75.7871422c0 5.2102195 4.25466953 9.4736182 9.45422126 9.4736182h66.17774904c5.1995517 0 9.4542213-4.2633987 9.4542213-9.4736182v-75.7871422z" fill="#b7b6b6"/><path d="m55.5626725 35.9214787c-6.2020267 0-12.0512974 2.4310751-16.4697466 6.8441616-4.4130497 4.4058727-6.8445466 10.2310749-6.8445466 16.398936v9.9695719c0 1.5419653-1.1536562 2.7502889-2.6258726 2.7502889-1.4488194 0-2.6258726-1.1794681-2.6258726-2.63126v-9.9695719c0-7.6142426 2.9804284-14.7938493 8.3905539-20.2168781 5.4119252-5.4230287 12.5768319-8.4077685 20.1754845-8.4077685 1.4488194 0 2.6258726 1.1794682 2.6258726 2.6312601 0 1.3760462-1.250844 2.63126-2.6258726 2.63126m0 11.8415719c-6.2740177 0-11.3781814 5.1146357-11.3781814 11.4015257v9.9695719c0 1.475237-1.2436449 2.7232369-2.7176611 2.7232369-1.4326214 0-2.598876-1.1686473-2.598876-2.604208v-9.9695719c0-4.4509595 1.7421828-8.6458264 4.9043885-11.8145199 3.1622058-3.1686936 7.3502836-4.9144507 11.79033-4.9144507 1.4326214 0 2.598876 1.1686473 2.598876 2.604208 0 1.3634219-1.2382456 2.604208-2.598876 2.604208" fill="#b7b6b6"/><path d="m104.072024 71.980021c0 12.8605314-10.4045023 23.2863808-23.2387022 23.2863808-12.8359996 0-23.2405024-10.4258494-23.2405024-23.2863808 0-12.8605315 10.4045028-23.2863808 23.2405024-23.2863808 12.8341999 0 23.2387022 10.4258493 23.2387022 23.2863808" fill="#fff"/><path d="m91.1658336 73.5129689h-8.8045023v8.8225662h-3.5221609v-8.8225662h-8.8045022v-3.5293872h8.8045022v-8.8225662h3.5221609v8.8225662h8.8045023zm-10.5646828-19.4089243c-9.6845926 0-17.6090046 7.9406703-17.6090046 17.6451324 0 9.7044622 7.924412 17.643329 17.6090046 17.643329 9.6845925 0 17.6090045-7.9388668 17.6090045-17.643329 0-9.7044621-7.924412-17.6451324-17.6090045-17.6451324z" fill="#b7b6b6"/></g></g></svg>