<?xml version="1.0" encoding="UTF-8"?>
<svg width="2031px" height="1144px" viewBox="0 0 2031 1144" version="1.1" xmlns="http://www.w3.org/2000/svg" xmlns:xlink="http://www.w3.org/1999/xlink" style="background: #27214D;">
    <!-- Generator: Sketch 47.1 (45422) - http://www.bohemiancoding.com/sketch -->
    <title>ux-cambridge-talk-thumb copy 4</title>
    <desc>Created with Sketch.</desc>
    <defs></defs>
    <g id="Talk" stroke="none" stroke-width="1" fill="none" fill-rule="evenodd">
        <g id="ux-cambridge-talk-thumb-copy-4">
            <text id="-" font-family="Europa-Bold" font-size="56.28415" font-weight="bold"></text>
            <g id="Group-2" transform="translate(423.000000, 259.000000)">
                <g id="Group" stroke="#FFFFFF" stroke-width="16" stroke-linecap="round">
                    <path d="M0,625.982283 C72.7449713,582.193212 112.157368,548.344211 118.23719,524.434323 C127.35697,488.56949 42.6752959,498.34889 40.8464151,465.348188 C39.0175392,432.347535 54.2887835,422.049861 96.1553559,426.988578 C138.021976,431.927342 154.092349,434.521257 179.456541,465.348188 C204.820733,496.175263 166.621675,559.369657 146.200614,580.330857 C125.779505,601.291578 42.3335364,636.57991 48.7222165,562.707314 C55.1108821,488.834718 -8.41405772,510.242922 61.0401383,468.480858 C130.494368,426.718841 173.278562,468.480858 146.200614,502.965207 C119.122619,537.449221 270.126289,533.432425 187.862919,555.446386 C108.344605,576.726052 64.6204182,509.876015 90.3035621,468.480858 C115.986754,427.085892 125.189171,399.212973 179.456541,397.961219 C364.198685,393.699914 367.106857,233.211527 430.496834,248.422738 C493.886715,263.633901 543.474193,330.595545 603.351197,313.991142 C640.823966,303.599702 702.102671,219.531303 756.098371,198.027895 C788.381586,185.171174 839.467534,243.052174 884.511217,230.801306 C964.765593,208.973964 1064.34678,132.706878 1183.25479,2" id="Stroke-1"></path>
                    <polyline id="Stroke-3" points="1179.26494 51.4894472 1184.97423 0 1130 14.9638965"></polyline>
                </g>
                <path d="M820.1,474 L820.1,417.6 L840.3,417.6 L840.3,407.3 L788.2,407.3 L788.2,417.6 L808.4,417.6 L808.4,474 L820.1,474 Z M893.1,474 L893.1,439.8 C893.1,429.9 887.9,424.5 877.5,424.5 C869.9,424.5 863.6,428.5 860.4,432.3 L860.4,407.3 L849.9,407.3 L849.9,474 L860.4,474 L860.4,440.3 C862.9,437 867.5,433.8 872.8,433.8 C878.7,433.8 882.6,436.1 882.6,443.6 L882.6,474 L893.1,474 Z M929,475.2 C914.5,475.2 903.7,465.1 903.7,449.8 C903.7,435.8 913.9,424.5 928.2,424.5 C942.7,424.5 952,435.6 952,450.8 L952,453.3 L914.7,453.3 C915.5,460.6 921,466.6 930.1,466.6 C934.8,466.6 940.4,464.7 943.8,461.3 L948.6,468.2 C943.8,472.8 936.7,475.2 929,475.2 Z M941.8,445.9 C941.6,440.2 937.7,433.1 928.2,433.1 C919.2,433.1 915.1,440 914.6,445.9 L941.8,445.9 Z M998.6,474 L998.6,441.1 C1000.7,437.7 1006.6,434.7 1011,434.7 C1012.3,434.7 1013.4,434.8 1014.3,435 L1014.3,424.6 C1008,424.6 1002.2,428.2 998.6,432.8 L998.6,425.7 L988.1,425.7 L988.1,474 L998.6,474 Z M1044.6,475.2 C1029.3,475.2 1019.8,463.7 1019.8,449.8 C1019.8,436 1029.3,424.5 1044.6,424.5 C1060.1,424.5 1069.5,436 1069.5,449.8 C1069.5,463.7 1060.1,475.2 1044.6,475.2 Z M1044.6,465.9 C1053.6,465.9 1058.6,458.4 1058.6,449.8 C1058.6,441.3 1053.6,433.8 1044.6,433.8 C1035.7,433.8 1030.7,441.3 1030.7,449.8 C1030.7,458.4 1035.7,465.9 1044.6,465.9 Z M1120.1,474 L1109.6,474 L1109.6,468.8 C1106,472.9 1100.4,475.2 1094,475.2 C1086.1,475.2 1077.2,469.9 1077.2,459.2 C1077.2,448.1 1086.1,443.5 1094,443.5 C1100.5,443.5 1106.1,445.6 1109.6,449.7 L1109.6,442.5 C1109.6,436.9 1105,433.5 1098.3,433.5 C1092.9,433.5 1088.2,435.5 1084,439.6 L1079.7,432.3 C1085.3,427 1092.3,424.5 1100,424.5 C1110.7,424.5 1120.1,429 1120.1,442 L1120.1,474 Z M1098.1,468 C1102.7,468 1107.2,466.3 1109.6,463 L1109.6,455.7 C1107.2,452.4 1102.7,450.7 1098.1,450.7 C1092.2,450.7 1087.8,454.1 1087.8,459.4 C1087.8,464.6 1092.2,468 1098.1,468 Z M1178.2,474 L1167.7,474 L1167.7,467.4 C1164,472.2 1158.4,475.2 1152.2,475.2 C1139.8,475.2 1130.7,465.8 1130.7,449.9 C1130.7,434.3 1139.7,424.5 1152.2,424.5 C1158.2,424.5 1163.8,427.3 1167.7,432.4 L1167.7,407.3 L1178.2,407.3 L1178.2,474 Z M1155.2,465.9 C1160.2,465.9 1165.3,463.1 1167.7,459.5 L1167.7,440.3 C1165.3,436.7 1160.2,433.8 1155.2,433.8 C1146.9,433.8 1141.6,440.5 1141.6,449.9 C1141.6,459.2 1146.9,465.9 1155.2,465.9 Z M377.2,597.2 C382.1,597.2 385.2,595.9 387.1,594.1 L384.6,586.2 C383.8,587.1 381.9,587.9 379.9,587.9 C376.9,587.9 375.3,585.5 375.3,582.2 L375.3,556.9 L385.1,556.9 L385.1,547.7 L375.3,547.7 L375.3,534.5 L364.8,534.5 L364.8,547.7 L356.8,547.7 L356.8,556.9 L364.8,556.9 L364.8,584.8 C364.8,592.8 369.1,597.2 377.2,597.2 Z M416.4,597.2 C401.1,597.2 391.6,585.7 391.6,571.8 C391.6,558 401.1,546.5 416.4,546.5 C431.9,546.5 441.3,558 441.3,571.8 C441.3,585.7 431.9,597.2 416.4,597.2 Z M416.4,587.9 C425.4,587.9 430.4,580.4 430.4,571.8 C430.4,563.3 425.4,555.8 416.4,555.8 C407.5,555.8 402.5,563.3 402.5,571.8 C402.5,580.4 407.5,587.9 416.4,587.9 Z M490.6,596 L480.1,596 L480.1,556.9 L472.1,556.9 L472.1,547.7 L480.1,547.7 L480.1,545 C480.1,534.5 486.2,528.3 495.4,528.3 C499.7,528.3 504,529.4 507,532.5 L502.9,539 C501.5,537.7 499.7,536.9 497.3,536.9 C493.2,536.9 490.6,539.6 490.6,545 L490.6,547.7 L500.4,547.7 L500.4,556.9 L490.6,556.9 L490.6,596 Z M548.4,596 L537.9,596 L537.9,590.8 C534.3,594.9 528.7,597.2 522.3,597.2 C514.4,597.2 505.5,591.9 505.5,581.2 C505.5,570.1 514.4,565.5 522.3,565.5 C528.8,565.5 534.4,567.6 537.9,571.7 L537.9,564.5 C537.9,558.9 533.3,555.5 526.6,555.5 C521.2,555.5 516.5,557.5 512.3,561.6 L508,554.3 C513.6,549 520.6,546.5 528.3,546.5 C539,546.5 548.4,551 548.4,564 L548.4,596 Z M526.4,590 C531,590 535.5,588.3 537.9,585 L537.9,577.7 C535.5,574.4 531,572.7 526.4,572.7 C520.5,572.7 516.1,576.1 516.1,581.4 C516.1,586.6 520.5,590 526.4,590 Z M578.5,597.2 C591.5,597.2 598.6,590.7 598.6,582.2 C598.6,563 569.4,569.4 569.4,560.8 C569.4,557.4 572.9,554.9 578.4,554.9 C584.4,554.9 589.8,557.4 592.7,560.7 L597.1,553.3 C592.7,549.4 586.5,546.5 578.3,546.5 C566.1,546.5 559.3,553.3 559.3,561.2 C559.3,579.7 588.5,572.9 588.5,582.4 C588.5,586.2 585.3,588.9 579,588.9 C572.7,588.9 566,585.6 562.6,582.1 L557.8,589.7 C562.8,594.6 570.3,597.2 578.5,597.2 Z M623.7,597.2 C628.6,597.2 631.7,595.9 633.6,594.1 L631.1,586.2 C630.3,587.1 628.4,587.9 626.4,587.9 C623.4,587.9 621.8,585.5 621.8,582.2 L621.8,556.9 L631.6,556.9 L631.6,547.7 L621.8,547.7 L621.8,534.5 L611.3,534.5 L611.3,547.7 L603.3,547.7 L603.3,556.9 L611.3,556.9 L611.3,584.8 C611.3,592.8 615.6,597.2 623.7,597.2 Z M663.4,597.2 C648.9,597.2 638.1,587.1 638.1,571.8 C638.1,557.8 648.3,546.5 662.6,546.5 C677.1,546.5 686.4,557.6 686.4,572.8 L686.4,575.3 L649.1,575.3 C649.9,582.6 655.4,588.6 664.5,588.6 C669.2,588.6 674.8,586.7 678.2,583.3 L683,590.2 C678.2,594.8 671.1,597.2 663.4,597.2 Z M676.2,567.9 C676,562.2 672.1,555.1 662.6,555.1 C653.6,555.1 649.5,562 649,567.9 L676.2,567.9 Z M707.3,596 L707.3,563.1 C709.4,559.7 715.3,556.7 719.7,556.7 C721,556.7 722.1,556.8 723,557 L723,546.6 C716.7,546.6 710.9,550.2 707.3,554.8 L707.3,547.7 L696.8,547.7 L696.8,596 L707.3,596 Z M826.9,596 L826.9,561.1 C826.9,551.3 821.9,546.5 813,546.5 C805.8,546.5 799.4,551 796.6,555.4 C795,550.1 790.6,546.5 783.4,546.5 C776.1,546.5 769.7,551.3 767.7,554.3 L767.7,547.7 L757.2,547.7 L757.2,596 L767.7,596 L767.7,562.3 C769.9,559.1 774.2,555.8 778.8,555.8 C784.5,555.8 786.8,559.3 786.8,564.5 L786.8,596 L797.3,596 L797.3,562.2 C799.4,559.1 803.8,555.8 808.5,555.8 C814.1,555.8 816.4,559.3 816.4,564.5 L816.4,596 L826.9,596 Z M862.3,597.2 C847,597.2 837.5,585.7 837.5,571.8 C837.5,558 847,546.5 862.3,546.5 C877.8,546.5 887.2,558 887.2,571.8 C887.2,585.7 877.8,597.2 862.3,597.2 Z M862.3,587.9 C871.3,587.9 876.3,580.4 876.3,571.8 C876.3,563.3 871.3,555.8 862.3,555.8 C853.4,555.8 848.4,563.3 848.4,571.8 C848.4,580.4 853.4,587.9 862.3,587.9 Z M919.8,597.2 C929.2,597.2 934.9,593.2 938.3,588.6 L931.4,582.2 C928.7,585.9 925,587.9 920.3,587.9 C911.5,587.9 905.7,581.2 905.7,571.8 C905.7,562.4 911.5,555.8 920.3,555.8 C925,555.8 928.7,557.7 931.4,561.5 L938.3,555.1 C934.9,550.5 929.2,546.5 919.8,546.5 C905.1,546.5 894.8,557.2 894.8,571.8 C894.8,586.5 905.1,597.2 919.8,597.2 Z M992.7,596 L972.2,569.6 L992.3,547.7 L979.3,547.7 L958,571 L958,529.3 L947.5,529.3 L947.5,596 L958,596 L958,583 L964.7,576.1 L979.5,596 L992.7,596 Z M1020.3,576.3 L1020.3,567.3 L996.3,567.3 L996.3,576.3 L1020.3,576.3 Z M1073.2,596 L1073.2,547.7 L1062.7,547.7 L1062.7,581.6 C1060.2,584.9 1055.6,587.9 1050.3,587.9 C1044.4,587.9 1040.6,585.6 1040.6,578.1 L1040.6,547.7 L1030.1,547.7 L1030.1,581.9 C1030.1,591.8 1035.2,597.2 1045.6,597.2 C1053.2,597.2 1059.2,593.5 1062.7,589.6 L1062.7,596 L1073.2,596 Z M1112.8,597.2 C1106.7,597.2 1101.2,594.5 1097.3,589.3 L1097.3,614.4 L1086.8,614.4 L1086.8,547.7 L1097.3,547.7 L1097.3,554.3 C1100.9,549.5 1106.5,546.5 1112.8,546.5 C1125.3,546.5 1134.2,555.9 1134.2,571.8 C1134.2,587.7 1125.3,597.2 1112.8,597.2 Z M1109.7,587.9 C1118,587.9 1123.3,581.2 1123.3,571.8 C1123.3,562.5 1118,555.8 1109.7,555.8 C1104.8,555.8 1099.6,558.7 1097.3,562.3 L1097.3,581.4 C1099.6,584.9 1104.8,587.9 1109.7,587.9 Z M1161.1,597.2 C1174.1,597.2 1181.2,590.7 1181.2,582.2 C1181.2,563 1152,569.4 1152,560.8 C1152,557.4 1155.5,554.9 1161,554.9 C1167,554.9 1172.4,557.4 1175.3,560.7 L1179.7,553.3 C1175.3,549.4 1169.1,546.5 1160.9,546.5 C1148.7,546.5 1141.9,553.3 1141.9,561.2 C1141.9,579.7 1171.1,572.9 1171.1,582.4 C1171.1,586.2 1167.9,588.9 1161.6,588.9 C1155.3,588.9 1148.6,585.6 1145.2,582.1 L1140.4,589.7 C1145.4,594.6 1152.9,597.2 1161.1,597.2 Z" id="The-road-to-faster-m" fill="#FFFFFF"></path>
            </g>
            <g id="uxcam" transform="translate(423.000000, 259.000000)" fill-rule="nonzero" fill="#FFFFFF">
                <path d="M373.221509,39.7594751 C375.513087,39.7594751 377.563446,37.9503113 377.563446,35.417482 C377.563446,33.1258746 375.754306,31.075489 373.221509,31.075489 C370.929931,31.075489 368.879572,32.8846528 368.879572,35.417482 C369.120791,37.9503113 370.929931,39.7594751 373.221509,39.7594751 Z M478.151654,67.499986 C474.050936,67.7412078 473.086061,73.28931 468.502905,73.0480882 C466.452546,73.0480882 464.402187,71.4801463 462.954875,69.5503716 C464.764015,69.5503716 468.020468,69.3091497 471.759358,66.7763205 C477.789826,63.2786039 481.166888,59.6602764 480.322623,52.6648432 C479.357748,45.0663554 467.899858,41.327417 460.301469,46.6342973 C454.271001,50.7350685 452.220641,58.2129454 452.46186,64.1228803 L452.46186,65.6908222 C452.703079,72.8068663 449.687845,75.5809174 446.431392,77.2694703 C446.672611,76.3045829 446.672611,75.2190847 446.672611,74.736641 C447.396267,69.6709825 448.72297,56.0419489 448.240532,53.0266759 C447.758095,50.4938467 445.707736,50.2526248 444.98408,50.011403 C444.501642,47.9610174 442.933721,45.1869663 438.953612,44.222079 C432.078878,42.4129152 423.998051,47.7197956 420.982817,55.3182834 C420.017942,57.6098908 418.932458,60.6251637 418.45002,63.8816585 C418.45002,63.8816585 415.193567,73.7717537 411.092849,72.9274773 C409.524927,72.6862554 408.318834,71.1183135 407.595177,69.1885388 L407.595177,68.947317 C413.625646,59.9014982 417.967583,49.7701812 420.741598,41.0861951 C423.515613,32.4022091 423.274395,23.838834 420.741598,18.5319537 C418.208801,13.2250733 411.334068,13.707517 406.871521,17.3258445 C402.529584,20.8235611 398.549475,30.9548781 397.463991,39.880086 C397.222772,41.6892497 396.981554,43.6190244 396.981554,45.66941 C396.016679,45.1869663 394.448757,44.4633008 392.157179,44.4633008 C388.418289,44.4633008 384.558789,46.0312427 381.302337,50.011403 C378.76954,53.0266759 376.477962,59.0572218 376.477962,65.2083786 C376.236743,68.4648733 374.427603,71.841979 372.739072,71.841979 C369.723838,71.6007572 370.447494,67.0175423 371.17115,63.5198257 C371.653588,60.0221091 373.221509,53.8709524 373.703947,50.3732358 C374.186384,46.6342973 373.703947,44.8251336 370.929931,44.5839117 C368.155916,44.1014681 366.587994,45.0663554 364.899463,51.2175122 C364.417026,53.2678978 363.934588,55.800727 363.331542,58.3335563 C363.331542,58.3335563 361.76362,63.8816585 360.075089,67.3793751 C359.110214,69.4297607 355.733152,73.4099209 353.200355,71.7213681 C350.185121,69.6709825 352.717918,64.3641021 353.924011,61.8312729 C355.130105,59.2984436 361.76362,50.7350685 357.662902,46.8755192 C354.406449,43.8602462 348.858418,47.5991847 344.998919,46.6342973 C341.260028,45.66941 341.983685,41.0861951 337.15931,41.0861951 C332.334936,41.0861951 331.370061,44.1014681 330.525795,49.1671266 C330.284577,51.6999559 328.957874,53.7503414 327.510561,55.1976724 C327.028124,53.1472869 325.701421,51.0969013 324.01289,49.1671266 C318.947297,43.6190244 312.67561,44.1014681 307.851235,47.5991847 L307.610017,47.8404065 C308.092454,45.0663554 308.574891,42.5335262 308.81611,40.9655842 C310.022204,35.417482 312.072563,29.628158 311.831344,25.5273868 C311.590125,22.0296702 307.489407,21.1853938 304.956611,22.9945576 C302.423814,24.5624995 301.941376,27.5777724 301.700158,29.2663253 C300.976502,33.6083183 299.649799,39.6388641 298.926142,43.7396353 C298.443705,46.2724646 297.961268,50.6144576 297.720049,54.8358397 C297.720049,54.8358397 295.187252,66.7763205 292.895674,70.0328152 C290.604096,73.28931 288.794956,70.9977026 289.156784,68.4648733 C289.398003,65.9320441 291.689581,56.8862253 292.172018,53.7503414 C292.413237,50.7350685 292.413237,46.3930755 287.588862,45.4281882 C283.005707,44.4633008 280.714129,47.2373519 277.940113,53.0266759 C275.166098,58.816 274.683661,59.9014982 274.683661,59.9014982 C274.683661,59.9014982 275.166098,53.0266759 275.166098,50.4938467 C274.924879,47.9610174 273.960005,44.9457445 269.859286,44.9457445 C265.758568,44.9457445 264.311256,47.9610174 262.502115,51.2175122 C260.692975,54.4740069 257.677741,61.5900511 257.677741,61.5900511 C257.677741,61.5900511 258.883834,52.5442323 258.642616,48.9259048 C258.401397,45.66941 256.351038,44.8251336 255.144944,44.5839117 C253.577022,44.5839117 251.647273,45.0663554 250.561788,49.6495703 C250.079351,51.6999559 249.596913,55.6801161 249.355695,59.2984436 C249.355695,59.2984436 246.340461,72.4450336 243.084008,72.2038118 C239.827555,71.9625899 241.516086,65.0877676 242.119133,63.6404366 C242.360352,62.0724947 243.687055,56.0419489 243.325227,53.5091196 C243.084008,51.458734 242.360352,50.4938467 240.79243,50.2526248 L240.068774,50.2526248 C239.586336,49.0465157 237.777196,45.4281882 231.987947,44.7045227 C224.871994,43.9808572 219.806401,49.5289593 217.876651,52.5442323 C216.670558,54.1121742 215.102636,56.8862253 214.37898,60.14272 C212.087402,66.1732659 208.107293,69.7915934 205.333278,72.0832008 C202.076825,74.3748083 197.976107,76.183972 193.392951,76.183972 C187.362483,75.9427502 180.487749,72.6862554 177.713734,61.2282183 C174.939718,49.8907921 180.728968,38.1915331 186.03578,32.1609873 C192.307467,25.0449432 196.890622,21.5472266 202.92109,22.0296702 C206.177543,22.2708921 207.986684,24.3212777 207.504246,28.6632707 C207.021809,31.6785436 202.197434,37.2266458 209.795824,37.2266458 C217.394214,36.985424 219.444573,31.1960999 218.841526,26.8541069 C218.359089,22.5121139 215.102636,13.9487388 203.885965,13.707517 C192.789904,13.4662951 182.658718,21.3060047 177.110687,28.4220489 C171.562656,35.538093 163.964267,47.8404065 166.979501,62.5549384 C170.235953,77.2694703 183.623592,85.3504017 193.031123,85.3504017 C198.820372,85.3504017 204.97145,83.0587943 208.71034,80.525965 C211.484355,78.9580231 213.534714,76.7870266 215.343855,74.9778628 C217.394214,79.3198559 220.891885,81.8526851 225.233822,82.093907 C229.816978,82.3351288 232.590993,79.8022995 234.038306,77.7519139 C234.038306,77.9931358 234.279524,77.9931358 234.279524,78.2343576 C237.535977,83.3000161 243.084008,81.4908524 244.65193,80.525965 C245.858023,79.8022995 247.667164,77.2694703 248.752648,75.4603065 C248.993867,77.2694703 249.235085,79.1992449 250.32057,80.2847432 C252.370929,82.5763506 256.109819,81.4908524 258.160178,78.7168013 C259.969319,75.7015284 265.758568,62.3137166 265.758568,62.3137166 C265.758568,62.3137166 264.552474,73.6511428 264.793693,75.7015284 C265.27613,79.4404668 266.844052,81.0084087 270.341724,81.2496305 C273.839395,81.4908524 275.648536,77.7519139 277.216457,73.4099209 C278.784379,69.0679279 282.764488,59.5396655 282.764488,59.5396655 C282.764488,59.5396655 280.231691,70.6358698 280.714129,74.736641 C281.196566,78.8374122 283.729363,82.3351288 288.794956,82.3351288 C293.860549,82.5763506 296.152127,77.9931358 298.443705,74.2541973 C298.926142,73.28931 299.40858,71.9625899 299.649799,71.2389244 C300.855892,74.736641 302.665033,78.3549685 305.439048,80.0435214 C310.987079,83.3000161 317.861812,81.8526851 322.324359,77.7519139 C326.666296,74.0129755 328.113608,68.3442624 328.354827,64.8465458 C332.937982,63.0373821 336.918091,59.5396655 338.727232,54.7152288 C338.727232,54.7152288 340.295154,57.248058 345.843184,56.7656144 C345.843184,56.7656144 341.501247,64.3641021 341.742466,70.8770917 C341.983685,77.7519139 346.808059,81.4908524 352.597308,81.973296 C357.90412,82.2145179 361.401792,80.1641323 363.69337,76.6664157 C364.899463,79.1992449 367.191041,81.4908524 371.050541,81.7320742 C375.633697,81.973296 378.166493,79.6816886 379.855024,77.1488594 C382.870258,81.2496305 387.212195,81.973296 389.986211,81.973296 C392.519007,81.973296 397.343382,80.4053541 401.926537,76.4251939 C404.218115,80.1641323 406.992131,82.2145179 410.489802,82.2145179 C415.072958,82.2145179 417.364536,79.9229104 419.897332,76.4251939 L420.138551,76.6664157 C421.706473,78.9580231 424.480488,81.4908524 428.460597,81.7320742 C432.802534,82.2145179 436.058987,80.7671869 438.350565,78.4755794 C438.350565,79.4404668 438.109346,80.7671869 438.109346,82.2145179 C433.043753,84.2649035 426.530847,86.5565109 422.430129,89.0893401 C417.123317,92.3458349 409.524927,98.9794353 413.022599,110.558083 C416.037833,120.6894 425.686582,120.6894 432.199487,118.397793 C438.833002,116.106186 442.813111,108.507698 443.777986,101.994708 C444.260424,98.4969917 444.98408,93.1901113 445.587126,87.883231 C448.602361,86.3152891 451.135157,85.1091799 452.944298,83.7824598 C455.718313,81.7320742 457.286235,79.6816886 458.251109,77.9931358 C460.783906,80.2847432 464.281578,81.7320742 468.864733,81.7320742 C478.272264,81.7320742 481.528716,76.6664157 482.252372,73.8923646 C482.73481,70.0328152 482.372982,67.2587642 478.151654,67.499986 L478.151654,67.499986 Z M233.797087,57.368669 C233.31465,59.6602764 232.832212,63.157993 232.590993,66.7763205 C231.867337,68.8267061 230.058197,72.8068663 227.284181,72.5656445 C223.183463,72.5656445 222.459807,67.9824297 222.701026,63.7610476 C222.942244,59.6602764 225.71626,52.4236214 230.058197,52.4236214 C234.400134,52.4236214 234.038306,56.6450035 233.797087,57.368669 L233.797087,57.368669 Z M317.741203,70.0328152 C315.690844,72.8068663 310.866469,75.5809174 307.368798,69.5503716 C305.800876,66.7763205 305.559657,61.9518838 305.800876,56.8862253 C306.042095,56.1625598 306.524532,55.3182834 307.368798,54.5946179 C307.368798,56.8862253 308.333673,59.6602764 311.951954,62.4343275 C314.002313,64.2434912 316.776328,64.9671567 319.550343,65.2083786 C319.067906,67.2587642 318.585468,69.0679279 317.741203,70.0328152 Z M315.811453,54.353396 C315.087797,52.7854541 316.052672,52.3030104 316.776328,52.5442323 C318.34425,53.2678978 319.309125,55.0770615 319.791562,56.8862253 C317.741203,56.6450035 316.535109,55.6801161 315.811453,54.353396 Z M388.659508,72.0832008 C383.352696,70.0328152 383.593914,60.5045528 386.850367,56.1625598 C389.624383,52.0617886 393.725101,51.0969013 396.981554,53.6297305 C396.981554,58.695389 397.463991,63.7610476 398.790694,67.7412078 C395.413632,71.1183135 392.157179,73.6511428 388.659508,72.0832008 L388.659508,72.0832008 Z M405.062381,58.695389 C404.821162,55.1976724 404.579943,46.0312427 405.544818,40.0006969 C406.509693,33.1258746 408.560052,24.3212777 412.901989,24.5624995 C417.243926,24.5624995 412.660771,41.2068061 411.937115,43.4984135 C411.092849,45.3075772 408.077615,53.3885087 405.062381,58.695389 C405.062381,58.9366109 405.062381,58.9366109 405.062381,58.695389 Z M435.697159,99.1000463 C434.732284,104.406927 431.355222,110.437472 426.651457,110.437472 C421.827082,110.437472 420.37977,106.095479 420.620989,103.080207 C420.862207,100.064934 423.153785,97.2908825 428.219378,94.5168314 C430.028519,93.5519441 433.284972,91.9840022 436.782643,90.4160602 C436.420815,94.1549987 435.938378,97.4114934 435.697159,99.1000463 L435.697159,99.1000463 Z M438.712393,67.499986 C436.662034,70.7564808 433.888018,73.7717537 430.149128,72.5656445 C422.550738,70.0328152 426.651457,59.9014982 428.098769,57.1274471 C430.631566,52.3030104 437.747518,48.0816283 439.436049,55.5595052 L438.712393,67.499986 L438.712393,67.499986 Z M461.145734,60.9869965 C462.110609,54.353396 467.779249,50.8556794 470.794483,52.6648432 C475.618858,55.4388943 468.502905,62.3137166 460.904515,62.7961602 C460.904515,61.9518838 461.145734,61.4694401 461.145734,60.9869965 Z M133.691317,2.85253443 C77.0049166,-2.69556775 25.9871565,1.28459251 10.0667208,2.85253443 C7.05148671,3.09375627 4.75990884,4.7823091 4.15686203,6.83269469 C-3.92396522,46.0312427 1.86528415,81.4908524 4.15686203,92.3458349 C4.63929948,94.3962205 6.93087735,96.0847733 9.9461114,96.4466061 C66.6325115,101.994708 117.650272,98.014548 133.570707,96.4466061 C136.585941,96.2053843 138.877519,94.3962205 139.359957,92.3458349 C147.440784,53.1472869 141.651535,17.6876772 139.359957,6.83269469 C138.998129,4.7823091 136.706551,3.09375627 133.691317,2.85253443 L133.691317,2.85253443 Z M62.1699651,79.1992449 L60.6020434,79.1992449 C58.0692468,78.9580231 56.0188876,76.9076375 54.5715753,73.6511428 L54.0891378,72.9274773 L53.6067004,73.6511428 C52.6418255,75.2190847 51.3151225,76.4251939 50.1090289,77.3900812 C47.5762323,79.4404668 44.5609983,80.4053541 41.3045455,80.4053541 C33.464937,80.4053541 24.0574067,74.3748083 22.1276569,62.9167711 C19.5948603,47.7197956 25.8665472,27.8189943 27.9169063,24.9243323 C29.1229999,23.1151685 32.9824995,21.1853938 35.5152961,21.1853938 C36.2389523,21.1853938 36.7213897,21.4266157 37.3244365,21.6678375 C38.2893114,22.6327248 37.0832178,26.9747178 35.7565148,31.3167109 C34.7916399,34.3319838 33.7061557,37.5884786 33.2237182,40.9655842 C30.4497029,54.8358397 31.1733591,63.5198257 35.5152961,67.499986 C37.5656553,69.3091497 39.6160144,70.2740371 41.5457642,70.2740371 C45.8877012,70.2740371 49.3853727,65.9320441 51.1945132,58.695389 C53.9685285,46.7549083 53.7273098,32.1609873 53.2448723,26.8541069 C53.0036536,23.5976122 53.486091,22.0296702 53.9685285,21.5472266 C54.6921847,20.8235611 56.0188876,20.8235611 57.4662,21.5472266 C61.808137,23.5976122 63.7378868,29.628158 63.0142306,39.2770314 C62.7730119,41.8098606 62.5317932,44.1014681 62.2905745,46.3930755 C62.2905745,46.8755192 62.2905745,47.3579628 62.0493557,47.9610174 C59.9989966,61.3488292 62.2905745,69.6709825 65.0645898,70.7564808 C66.0294647,70.9977026 66.6325115,70.9977026 67.3561677,70.9977026 C68.3210425,70.9977026 68.3210425,70.9977026 68.3210425,73.0480882 C68.4416519,75.0984738 67.2355583,79.1992449 62.1699651,79.1992449 L62.1699651,79.1992449 Z M121.027334,75.0984738 C120.786115,76.3045829 117.770881,78.8374122 114.1526,78.8374122 C113.187725,78.8374122 112.34346,78.5961904 111.378585,78.3549685 C106.312992,76.5458048 101.971055,70.5152589 97.9909456,64.9671567 C97.0260707,63.3992148 95.9405864,61.9518838 94.9757115,60.6251637 C94.2520553,59.4190545 92.6841336,57.6098908 90.8749932,55.0770615 L90.6337745,54.5946179 L90.151337,55.0770615 C87.8597592,57.1274471 85.5681813,59.1778327 84.8445251,59.9014982 L84.3620877,60.3839419 C82.0705098,62.6755493 77.2461353,67.2587642 73.5072451,67.2587642 C72.7835889,67.2587642 71.9393234,67.0175423 71.2156672,66.5350987 C69.1653081,65.3289895 68.4416519,64.0022694 68.2004332,63.0373821 C68.2004332,61.8312729 69.4065268,60.7457746 70.4920111,60.0221091 L70.7332298,59.7808873 C71.6981047,59.0572218 73.2660264,57.4892799 74.8339481,56.2831707 C76.4018698,54.7152288 78.0904009,53.5091196 79.6583226,52.1823995 C80.3819787,51.6999559 82.1911192,50.1320139 85.2063532,47.3579628 L85.4475719,47.116741 L83.1559941,43.6190244 C77.8491821,35.538093 72.7835889,27.9396052 70.9744485,26.1304414 C69.1653081,24.0800558 69.1653081,23.3563903 69.1653081,23.1151685 C69.4065268,22.8739467 69.8889643,22.391503 72.4217608,22.1502812 L73.3866357,22.1502812 C74.9545574,22.1502812 79.6583226,22.1502812 86.2918375,31.1960999 C87.8597592,33.2464855 89.5482902,36.0205366 92.0810868,39.2770314 L92.3223056,39.7594751 L92.804743,39.2770314 C95.5787583,36.7442021 98.3527737,34.2113729 100.88557,31.6785436 C104.383242,28.4220489 107.519085,25.6479978 108.725179,24.3212777 C109.690054,23.3563903 113.067116,20.2205065 114.514428,18.5319537 C114.996866,18.04951 115.720522,17.5670663 116.564787,17.5670663 C117.770881,17.5670663 119.097584,18.7731755 119.82124,21.3060047 C121.027334,25.6479978 117.288443,29.3869362 114.031991,32.643431 C113.549553,33.1258746 113.067116,33.3670965 112.825897,33.8495401 C111.016757,35.6587039 104.262632,41.6892497 98.3527737,46.9961301 L98.1115549,47.2373519 L99.9206954,50.011403 C104.503851,56.6450035 108.242741,62.4343275 110.051882,64.4847131 C114.1526,69.5503716 117.409053,73.28931 120.424287,74.3748083 C121.027334,74.8572519 121.027334,75.0984738 121.027334,75.0984738 L121.027334,75.0984738 Z" id="Shape"></path>
            </g>
        </g>
    </g>
</svg>