<svg height="1144" viewBox="0 0 2031 1144" width="2031" xmlns="http://www.w3.org/2000/svg"><g fill="none" fill-rule="evenodd"><text/><g transform="translate(423 259)"><g><g stroke="#fff" stroke-linecap="round" stroke-width="16"><path d="m0 625.982283c72.7449713-43.789071 112.157368-77.638072 118.23719-101.54796 9.11978-35.864833-75.5618941-26.085433-77.3907749-59.086135-1.8288759-33.000653 13.4423684-43.298327 55.3089408-38.35961 41.8666201 4.938764 57.9369931 7.532679 83.3011851 38.35961 25.364192 30.827075-12.834866 94.021469-33.255927 114.982669-20.421109 20.960721-103.8670776 56.249053-97.4783975-17.623543 6.3886656-73.872596-57.13627422-52.464392 12.3179218-94.226456 69.4542297-41.762017 112.2384237 0 85.1604757 34.484349-27.077995 34.484014 123.925675 30.467218 41.662305 52.481179-79.518314 21.279666-123.2425008-45.570371-97.5593569-86.965528 25.6831919-41.394966 34.8856089-69.267885 89.1529789-70.519639 184.742144-4.261305 187.650316-164.749692 251.040293-149.538481 63.389881 15.211163 112.977359 82.172807 172.854363 65.568404 37.472769-10.39144 98.751474-94.459839 152.747174-115.963247 32.283215-12.856721 83.369163 45.024279 128.412846 32.773411 80.254376-21.827342 179.835563-98.094428 298.743573-228.801306"/><path d="m1179.26494 51.4894472 5.70929-51.4894472-54.97423 14.9638965"/></g><path d="m820.1 474v-56.4h20.2v-10.3h-52.1v10.3h20.2v56.4zm73 0v-34.2c0-9.9-5.2-15.3-15.6-15.3-7.6 0-13.9 4-17.1 7.8v-25h-10.5v66.7h10.5v-33.7c2.5-3.3 7.1-6.5 12.4-6.5 5.9 0 9.8 2.3 9.8 9.8v30.4zm35.9 1.2c-14.5 0-25.3-10.1-25.3-25.4 0-14 10.2-25.3 24.5-25.3 14.5 0 23.8 11.1 23.8 26.3v2.5h-37.3c.8 7.3 6.3 13.3 15.4 13.3 4.7 0 10.3-1.9 13.7-5.3l4.8 6.9c-4.8 4.6-11.9 7-19.6 7zm12.8-29.3c-.2-5.7-4.1-12.8-13.6-12.8-9 0-13.1 6.9-13.6 12.8zm56.8 28.1v-32.9c2.1-3.4 8-6.4 12.4-6.4 1.3 0 2.4.1 3.3.3v-10.4c-6.3 0-12.1 3.6-15.7 8.2v-7.1h-10.5v48.3zm46 1.2c-15.3 0-24.8-11.5-24.8-25.4 0-13.8 9.5-25.3 24.8-25.3 15.5 0 24.9 11.5 24.9 25.3 0 13.9-9.4 25.4-24.9 25.4zm0-9.3c9 0 14-7.5 14-16.1 0-8.5-5-16-14-16-8.9 0-13.9 7.5-13.9 16 0 8.6 5 16.1 13.9 16.1zm75.5 8.1h-10.5v-5.2c-3.6 4.1-9.2 6.4-15.6 6.4-7.9 0-16.8-5.3-16.8-16 0-11.1 8.9-15.7 16.8-15.7 6.5 0 12.1 2.1 15.6 6.2v-7.2c0-5.6-4.6-9-11.3-9-5.4 0-10.1 2-14.3 6.1l-4.3-7.3c5.6-5.3 12.6-7.8 20.3-7.8 10.7 0 20.1 4.5 20.1 17.5zm-22-6c4.6 0 9.1-1.7 11.5-5v-7.3c-2.4-3.3-6.9-5-11.5-5-5.9 0-10.3 3.4-10.3 8.7 0 5.2 4.4 8.6 10.3 8.6zm80.1 6h-10.5v-6.6c-3.7 4.8-9.3 7.8-15.5 7.8-12.4 0-21.5-9.4-21.5-25.3 0-15.6 9-25.4 21.5-25.4 6 0 11.6 2.8 15.5 7.9v-25.1h10.5zm-23-8.1c5 0 10.1-2.8 12.5-6.4v-19.2c-2.4-3.6-7.5-6.5-12.5-6.5-8.3 0-13.6 6.7-13.6 16.1 0 9.3 5.3 16 13.6 16zm-778 131.3c4.9 0 8-1.3 9.9-3.1l-2.5-7.9c-.8.9-2.7 1.7-4.7 1.7-3 0-4.6-2.4-4.6-5.7v-25.3h9.8v-9.2h-9.8v-13.2h-10.5v13.2h-8v9.2h8v27.9c0 8 4.3 12.4 12.4 12.4zm39.2 0c-15.3 0-24.8-11.5-24.8-25.4 0-13.8 9.5-25.3 24.8-25.3 15.5 0 24.9 11.5 24.9 25.3 0 13.9-9.4 25.4-24.9 25.4zm0-9.3c9 0 14-7.5 14-16.1 0-8.5-5-16-14-16-8.9 0-13.9 7.5-13.9 16 0 8.6 5 16.1 13.9 16.1zm74.2 8.1h-10.5v-39.1h-8v-9.2h8v-2.7c0-10.5 6.1-16.7 15.3-16.7 4.3 0 8.6 1.1 11.6 4.2l-4.1 6.5c-1.4-1.3-3.2-2.1-5.6-2.1-4.1 0-6.7 2.7-6.7 8.1v2.7h9.8v9.2h-9.8zm57.8 0h-10.5v-5.2c-3.6 4.1-9.2 6.4-15.6 6.4-7.9 0-16.8-5.3-16.8-16 0-11.1 8.9-15.7 16.8-15.7 6.5 0 12.1 2.1 15.6 6.2v-7.2c0-5.6-4.6-9-11.3-9-5.4 0-10.1 2-14.3 6.1l-4.3-7.3c5.6-5.3 12.6-7.8 20.3-7.8 10.7 0 20.1 4.5 20.1 17.5zm-22-6c4.6 0 9.1-1.7 11.5-5v-7.3c-2.4-3.3-6.9-5-11.5-5-5.9 0-10.3 3.4-10.3 8.7 0 5.2 4.4 8.6 10.3 8.6zm52.1 7.2c13 0 20.1-6.5 20.1-15 0-19.2-29.2-12.8-29.2-21.4 0-3.4 3.5-5.9 9-5.9 6 0 11.4 2.5 14.3 5.8l4.4-7.4c-4.4-3.9-10.6-6.8-18.8-6.8-12.2 0-19 6.8-19 14.7 0 18.5 29.2 11.7 29.2 21.2 0 3.8-3.2 6.5-9.5 6.5s-13-3.3-16.4-6.8l-4.8 7.6c5 4.9 12.5 7.5 20.7 7.5zm45.2 0c4.9 0 8-1.3 9.9-3.1l-2.5-7.9c-.8.9-2.7 1.7-4.7 1.7-3 0-4.6-2.4-4.6-5.7v-25.3h9.8v-9.2h-9.8v-13.2h-10.5v13.2h-8v9.2h8v27.9c0 8 4.3 12.4 12.4 12.4zm39.7 0c-14.5 0-25.3-10.1-25.3-25.4 0-14 10.2-25.3 24.5-25.3 14.5 0 23.8 11.1 23.8 26.3v2.5h-37.3c.8 7.3 6.3 13.3 15.4 13.3 4.7 0 10.3-1.9 13.7-5.3l4.8 6.9c-4.8 4.6-11.9 7-19.6 7zm12.8-29.3c-.2-5.7-4.1-12.8-13.6-12.8-9 0-13.1 6.9-13.6 12.8zm31.1 28.1v-32.9c2.1-3.4 8-6.4 12.4-6.4 1.3 0 2.4.1 3.3.3v-10.4c-6.3 0-12.1 3.6-15.7 8.2v-7.1h-10.5v48.3zm119.6 0v-34.9c0-9.8-5-14.6-13.9-14.6-7.2 0-13.6 4.5-16.4 8.9-1.6-5.3-6-8.9-13.2-8.9-7.3 0-13.7 4.8-15.7 7.8v-6.6h-10.5v48.3h10.5v-33.7c2.2-3.2 6.5-6.5 11.1-6.5 5.7 0 8 3.5 8 8.7v31.5h10.5v-33.8c2.1-3.1 6.5-6.4 11.2-6.4 5.6 0 7.9 3.5 7.9 8.7v31.5zm35.4 1.2c-15.3 0-24.8-11.5-24.8-25.4 0-13.8 9.5-25.3 24.8-25.3 15.5 0 24.9 11.5 24.9 25.3 0 13.9-9.4 25.4-24.9 25.4zm0-9.3c9 0 14-7.5 14-16.1 0-8.5-5-16-14-16-8.9 0-13.9 7.5-13.9 16 0 8.6 5 16.1 13.9 16.1zm57.5 9.3c9.4 0 15.1-4 18.5-8.6l-6.9-6.4c-2.7 3.7-6.4 5.7-11.1 5.7-8.8 0-14.6-6.7-14.6-16.1s5.8-16 14.6-16c4.7 0 8.4 1.9 11.1 5.7l6.9-6.4c-3.4-4.6-9.1-8.6-18.5-8.6-14.7 0-25 10.7-25 25.3 0 14.7 10.3 25.4 25 25.4zm72.9-1.2-20.5-26.4 20.1-21.9h-13l-21.3 23.3v-41.7h-10.5v66.7h10.5v-13l6.7-6.9 14.8 19.9zm27.6-19.7v-9h-24v9zm52.9 19.7v-48.3h-10.5v33.9c-2.5 3.3-7.1 6.3-12.4 6.3-5.9 0-9.7-2.3-9.7-9.8v-30.4h-10.5v34.2c0 9.9 5.1 15.3 15.5 15.3 7.6 0 13.6-3.7 17.1-7.6v6.4zm39.6 1.2c-6.1 0-11.6-2.7-15.5-7.9v25.1h-10.5v-66.7h10.5v6.6c3.6-4.8 9.2-7.8 15.5-7.8 12.5 0 21.4 9.4 21.4 25.3s-8.9 25.4-21.4 25.4zm-3.1-9.3c8.3 0 13.6-6.7 13.6-16.1 0-9.3-5.3-16-13.6-16-4.9 0-10.1 2.9-12.4 6.5v19.1c2.3 3.5 7.5 6.5 12.4 6.5zm51.4 9.3c13 0 20.1-6.5 20.1-15 0-19.2-29.2-12.8-29.2-21.4 0-3.4 3.5-5.9 9-5.9 6 0 11.4 2.5 14.3 5.8l4.4-7.4c-4.4-3.9-10.6-6.8-18.8-6.8-12.2 0-19 6.8-19 14.7 0 18.5 29.2 11.7 29.2 21.2 0 3.8-3.2 6.5-9.5 6.5s-13-3.3-16.4-6.8l-4.8 7.6c5 4.9 12.5 7.5 20.7 7.5z" fill="#fff"/></g><path d="m373.221509 39.7594751c2.291578 0 4.341937-1.8091638 4.341937-4.3419931 0-2.2916074-1.80914-4.341993-4.341937-4.341993-2.291578 0-4.341937 1.8091638-4.341937 4.341993.241219 2.5328293 2.050359 4.3419931 4.341937 4.3419931zm104.930145 27.7405109c-4.100718.2412218-5.065593 5.789324-9.648749 5.5481022-2.050359 0-4.100718-1.5679419-5.54803-3.4977166 1.80914 0 5.065593-.2412219 8.804483-2.7740511 6.030468-3.4977166 9.40753-7.1160441 8.563265-14.1114773-.964875-7.5984878-12.422765-11.3374262-20.021154-6.0305459-6.030468 4.1007712-8.080828 11.5786481-7.839609 17.488583v1.5679419c.241219 7.1160441-2.774015 9.8900952-6.030468 11.5786481.241219-.9648874.241219-2.0503856.241219-2.5328293.723656-5.0656585 2.050359-18.6946921 1.567921-21.7099651-.482437-2.5328292-2.532796-2.7740511-3.256452-3.0152729-.482438-2.0503856-2.050359-4.8244367-6.030468-5.789324-6.874734-1.8091638-14.955561 3.4977166-17.970795 11.0962044-.964875 2.2916074-2.050359 5.3068803-2.532797 8.5633751 0 0-3.256453 9.8900952-7.357171 9.0458188-1.567922-.2412219-2.774015-1.8091638-3.497672-3.7389385v-.2412218c6.030469-9.0458188 10.372406-19.1771358 13.146421-27.8611219 2.774015-8.683986 2.532797-17.2473611 0-22.5542414-2.532797-5.3068804-9.40753-4.8244367-13.870077-1.2061092-4.341937 3.4977166-8.322046 13.6290336-9.40753 22.5542415-.241219 1.8091637-.482437 3.7389384-.482437 5.789324-.964875-.4824437-2.532797-1.2061092-4.824375-1.2061092-3.73889 0-7.59839 1.5679419-10.854842 5.5481022-2.532797 3.0152729-4.824375 9.0458188-4.824375 15.1969756-.241219 3.2564947-2.050359 6.6336004-3.73889 6.6336004-3.015234-.2412218-2.291578-4.8244367-1.567922-8.3221533.482438-3.4977166 2.050359-9.6488733 2.532797-13.1465899.482437-3.7389385 0-5.5481022-2.774016-5.7893241-2.774015-.4824436-4.341937.4824437-6.030468 6.6336005-.482437 2.0503856-.964875 4.5832148-1.567921 7.1160441 0 0-1.567922 5.5481022-3.256453 9.0458188-.964875 2.0503856-4.341937 6.0305458-6.874734 4.341993-3.015234-2.0503856-.482437-7.357266.723656-9.8900952 1.206094-2.5328293 7.839609-11.0962044 3.738891-14.9557537-3.256453-3.015273-8.804484.7236655-12.663983-.2412219-3.738891-.9648873-3.015234-5.5481022-7.839609-5.5481022-4.824374 0-5.789249 3.015273-6.633515 8.0809315-.241218 2.5328293-1.567921 4.5832148-3.015234 6.0305458-.482437-2.0503855-1.80914-4.1007711-3.497671-6.0305458-5.065593-5.5481022-11.33728-5.0656585-16.161655-1.5679419l-.241218.2412218c.482437-2.7740511.964874-5.3068803 1.206093-6.8748223 1.206094-5.5481022 3.256453-11.3374262 3.015234-15.4381974-.241219-3.4977166-4.341937-4.341993-6.874733-2.5328292-2.532797 1.5679419-3.015235 4.5832148-3.256453 6.2717677-.723656 4.341993-2.050359 10.3725388-2.774016 14.47331-.482437 2.5328293-.964874 6.8748223-1.206093 11.0962044 0 0-2.532797 11.9404808-4.824375 15.1969755-2.291578 3.2564948-4.100718.9648874-3.73889-1.5679419.241219-2.5328292 2.532797-11.578648 3.015234-14.7145319.241219-3.0152729.241219-7.3572659-4.583156-8.3221532-4.583155-.9648874-6.874733 1.8091637-9.648749 7.5984877-2.774015 5.7893241-3.256452 6.8748223-3.256452 6.8748223s.482437-6.8748223.482437-9.4076515c-.241219-2.5328293-1.206093-5.5481022-5.306812-5.5481022-4.100718 0-5.54803 3.0152729-7.357171 6.2717677-1.80914 3.2564947-4.824374 10.3725389-4.824374 10.3725389s1.206093-9.0458188.964875-12.6641463c-.241219-3.2564948-2.291578-4.1007712-3.497672-4.3419931-1.567922 0-3.497671.4824437-4.583156 5.0656586-.482437 2.0503856-.964875 6.0305458-1.206093 9.6488733 0 0-3.015234 13.14659-6.271687 12.9053682-3.256453-.2412219-1.567922-7.1160442-.964875-8.5633752.241219-1.5679419 1.567922-7.5984877 1.206094-10.131317-.241219-2.0503856-.964875-3.0152729-2.532797-3.2564948h-.723656c-.482438-1.2061091-2.291578-4.8244366-8.080827-5.5481021-7.115953-.7236655-12.181546 4.8244366-14.111296 7.8397096-1.206093 1.5679419-2.774015 4.341993-3.497671 7.5984877-2.291578 6.0305459-6.271687 9.6488734-9.045702 11.9404808-3.256453 2.2916075-7.357171 4.1007712-11.940327 4.1007712-6.030468-.2412218-12.905202-3.4977166-15.679217-14.9557537-2.774016-11.3374262 3.015234-23.0366852 8.322046-29.067231 6.271687-7.1160441 10.854842-10.6137607 16.88531-10.1313171 3.256453.2412219 5.065594 2.2916075 4.583156 6.6336005-.482437 3.0152729-5.306812 8.5633751 2.291578 8.5633751 7.59839-.2412218 9.648749-6.0305459 9.045702-10.3725389-.482437-4.341993-3.73889-12.9053681-14.955561-13.1465899-11.096061-.2412219-21.227247 7.5984877-26.775278 14.7145319-5.548031 7.1160441-13.14642 19.4183576-10.131186 34.1328895 3.256452 14.7145319 16.644091 22.7954633 26.051622 22.7954633 5.789249 0 11.940327-2.2916074 15.679217-4.8244367 2.774015-1.5679419 4.824374-3.7389384 6.633515-5.5481022 2.050359 4.3419931 5.54803 6.8748223 9.889967 7.1160442 4.583156.2412218 7.357171-2.2916075 8.804484-4.3419931 0 .2412219.241218.2412219.241218.4824437 3.256453 5.0656585 8.804484 3.2564948 10.372406 2.2916074 1.206093-.7236655 3.015234-3.2564947 4.100718-5.0656585.241219 1.8091638.482437 3.7389384 1.567922 4.8244367 2.050359 2.2916074 5.789249 1.2061092 7.839608-1.5679419 1.809141-3.0152729 7.59839-16.4030847 7.59839-16.4030847s-1.206094 11.3374262-.964875 13.3878118c.482437 3.7389384 2.050359 5.3068803 5.548031 5.5481021 3.497671.2412219 5.306812-3.4977166 6.874733-7.8397096 1.567922-4.341993 5.548031-13.8702554 5.548031-13.8702554s-2.532797 11.0962043-2.050359 15.1969755c.482437 4.1007712 3.015234 7.5984878 8.080827 7.5984878 5.065593.2412218 7.357171-4.341993 9.648749-8.0809315.482437-.9648873.964875-2.2916074 1.206094-3.0152729 1.206093 3.4977166 3.015234 7.1160441 5.789249 8.804597 5.548031 3.2564947 12.422764 1.8091637 16.885311-2.2916075 4.341937-3.7389384 5.789249-9.4076515 6.030468-12.9053681 4.583155-1.8091637 8.563264-5.3068803 10.372405-10.131317 0 0 1.567922 2.5328292 7.115952 2.0503856 0 0-4.341937 7.5984877-4.100718 14.1114773.241219 6.8748222 5.065593 10.6137607 10.854842 11.0962043 5.306812.2412219 8.804484-1.8091637 11.096062-5.3068803 1.206093 2.5328292 3.497671 4.8244367 7.357171 5.0656585 4.583156.2412218 7.115952-2.0503856 8.804483-4.5832148 3.015234 4.1007711 7.357171 4.8244366 10.131187 4.8244366 2.532796 0 7.357171-1.5679419 11.940326-5.5481021 2.291578 3.7389384 5.065594 5.789324 8.563265 5.789324 4.583156 0 6.874734-2.2916075 9.40753-5.789324l.241219.2412218c1.567922 2.2916074 4.341937 4.8244367 8.322046 5.0656585 4.341937.4824437 7.59839-.9648873 9.889968-3.2564948 0 .9648874-.241219 2.2916075-.241219 3.7389385-5.065593 2.0503856-11.578499 4.341993-15.679217 6.8748222-5.306812 3.2564948-12.905202 9.8900952-9.40753 21.4687429 3.015234 10.131317 12.663983 10.131317 19.176888 7.83971 6.633515-2.291607 10.613624-9.890095 11.578499-16.403085.482438-3.4977163 1.206094-8.8045967 1.80914-14.111477 3.015235-1.5679419 5.548031-2.7740511 7.357172-4.1007712 2.774015-2.0503856 4.341937-4.1007712 5.306811-5.789324 2.532797 2.2916074 6.030469 3.7389384 10.613624 3.7389384 9.407531 0 12.663983-5.0656585 13.387639-7.8397096.482438-3.8595494.12061-6.6336004-4.100718-6.3923786zm-244.354567-10.131317c-.482437 2.2916074-.964875 5.789324-1.206094 9.4076515-.723656 2.0503856-2.532796 6.0305458-5.306812 5.789324-4.100718 0-4.824374-4.5832148-4.583155-8.8045969.241218-4.1007712 3.015234-11.3374262 7.357171-11.3374262s3.980109 4.2213821 3.73889 4.9450476zm83.944116 12.6641462c-2.050359 2.7740511-6.874734 5.5481022-10.372405-.4824436-1.567922-2.7740511-1.809141-7.5984878-1.567922-12.6641463.241219-.7236655.723656-1.5679419 1.567922-2.2916074 0 2.2916074.964875 5.0656585 4.583156 7.8397096 2.050359 1.8091637 4.824374 2.5328292 7.598389 2.7740511-.482437 2.0503856-.964875 3.8595493-1.80914 4.8244366zm-1.92975-15.6794192c-.723656-1.5679419.241219-2.0503856.964875-1.8091637 1.567922.7236655 2.532797 2.5328292 3.015234 4.341993-2.050359-.2412218-3.256453-1.2061092-3.980109-2.5328293zm72.848055 17.7298048c-5.306812-2.0503856-5.065594-11.578648-1.809141-15.920641 2.774016-4.1007712 6.874734-5.0656585 10.131187-2.5328293 0 5.0656585.482437 10.1313171 1.80914 14.1114773-3.377062 3.3771057-6.633515 5.909935-10.131186 4.341993zm16.402873-13.3878118c-.241219-3.4977166-.482438-12.6641463.482437-18.6946921.964875-6.8748223 3.015234-15.6794192 7.357171-15.4381974 4.341937 0-.241218 16.6443066-.964874 18.935914-.844266 1.8091637-3.8595 9.8900952-6.874734 15.1969755 0 .2412219 0 .2412219 0 0zm30.634778 40.4046573c-.964875 5.3068807-4.341937 11.3374257-9.045702 11.3374257-4.824375 0-6.271687-4.341993-6.030468-7.357265.241218-3.015273 2.532796-5.7893245 7.598389-8.5633756 1.809141-.9648873 5.065594-2.5328292 8.563265-4.1007712-.361828 3.7389385-.844265 6.9954332-1.085484 8.6839861zm3.015234-31.6000603c-2.050359 3.2564948-4.824375 6.2717677-8.563265 5.0656585-7.59839-2.5328293-3.497671-12.6641463-2.050359-15.4381974 2.532797-4.8244367 9.648749-9.0458188 11.33728-1.5679419zm22.433341-6.5129895c.964875-6.6336005 6.633515-10.1313171 9.648749-8.3221533 4.824375 2.7740511-2.291578 9.6488734-9.889968 10.131317 0-.8442764.241219-1.3267201.241219-1.8091637zm-327.454417-58.13446207c-56.6864004-5.54810218-107.7041605-1.56794192-123.6245962 0-3.01523409.24122184-5.30681196 1.92977467-5.90985877 3.98016026-8.08082725 39.19854801-2.29157788 74.65815771 0 85.51314021.48243745 2.0503856 2.77401532 3.7389384 5.78924937 4.1007712 56.6864001 5.5481019 107.7041606 1.5679419 123.6245956 0 3.015234-.2412218 5.306812-2.0503856 5.78925-4.1007712 8.080827-39.198548 2.291578-74.6581577 0-85.51314021-.361828-2.05038559-2.653406-3.73893842-5.66864-3.98016026zm-71.5213519 76.34671047h-1.5679217c-2.5327966-.2412218-4.5831558-2.2916074-6.0304681-5.5481021l-.4824375-.7236655-.4824374.7236655c-.9648749 1.5679419-2.2915779 2.7740511-3.4976715 3.7389384-2.5327966 2.0503856-5.5480306 3.0152729-8.8044834 3.0152729-7.8396085 0-17.2471388-6.0305458-19.1768886-17.488583-2.5327966-15.1969755 3.7388903-35.0977768 5.7892494-37.9924388 1.2060936-1.8091638 5.0655932-3.7389385 7.5983898-3.7389385.7236562 0 1.2060936.2412219 1.8091404.4824437.9648749.9648873-.2412187 5.3068803-1.5679217 9.6488734-.9648749 3.0152729-2.0503591 6.2717677-2.5327966 9.6488733-2.7740153 13.8702555-2.0503591 22.5542415 2.2915779 26.5344018 2.0503592 1.8091637 4.1007183 2.7740511 6.0304681 2.7740511 4.341937 0 7.8396085-4.341993 9.648749-11.5786481 2.7740153-11.9404807 2.5327966-26.5344017 2.0503591-31.8412821-.2412187-3.2564947.2412187-4.8244367.7236562-5.3068803.7236562-.7236655 2.0503591-.7236655 3.4976715 0 4.341937 2.0503856 6.2716868 8.0809314 5.5480306 17.7298048-.2412187 2.5328292-.4824374 4.8244367-.7236561 7.1160441 0 .4824437 0 .9648873-.2412188 1.5679419-2.0503591 13.3878118.2412188 21.7099651 3.0152341 22.7954634.9648749.2412218 1.5679217.2412218 2.2915779.2412218.9648748 0 .9648748 0 .9648748 2.0503856.1206094 2.0503856-1.0854842 6.1511567-6.1510774 6.1511567zm58.8573689-4.1007711c-.241219 1.2061091-3.256453 3.7389384-6.874734 3.7389384-.964875 0-1.80914-.2412218-2.774015-.4824437-5.065593-1.8091637-9.40753-7.8397096-13.3876394-13.3878118-.9648749-1.5679419-2.0503592-3.0152729-3.0152341-4.341993-.7236562-1.2061092-2.2915779-3.0152729-4.1007183-5.5481022l-.2412187-.4824436-.4824375.4824436c-2.2915778 2.0503856-4.5831557 4.1007712-5.3068119 4.8244367l-.4824374.4824437c-2.2915779 2.2916074-7.1159524 6.8748223-10.8548426 6.8748223-.7236562 0-1.5679217-.2412219-2.2915779-.7236655-2.0503591-1.2061092-2.7740153-2.5328293-3.015234-3.4977166 0-1.2061092 1.2060936-2.2916075 2.2915779-3.015273l.2412187-.2412218c.9648749-.7236655 2.5327966-2.2916074 4.1007183-3.4977166 1.5679217-1.5679419 3.2564528-2.7740511 4.8243745-4.1007712.7236561-.4824436 2.5327966-2.0503856 5.5480306-4.8244367l.2412187-.2412218-2.2915778-3.4977166c-5.306812-8.0809314-10.3724052-15.6794192-12.1815456-17.488583-1.8091404-2.0503856-1.8091404-2.7740511-1.8091404-3.0152729.2412187-.2412218.7236562-.7236655 3.2564527-.9648873h.9648749c1.5679217 0 6.2716869 0 12.9052018 9.0458187 1.5679217 2.0503856 3.2564527 4.8244367 5.7892493 8.0809315l.2412188.4824437.4824374-.4824437c2.7740153-2.5328293 5.5480307-5.0656585 8.080827-7.5984878 3.497672-3.2564947 6.633515-6.0305458 7.839609-7.3572659.964875-.9648874 4.341937-4.1007712 5.789249-5.789324.482438-.4824437 1.206094-.9648874 2.050359-.9648874 1.206094 0 2.532797 1.2061092 3.256453 3.7389384 1.206094 4.3419931-2.532797 8.0809315-5.789249 11.3374263-.482438.4824436-.964875.7236655-1.206094 1.2061091-1.80914 1.8091638-8.563265 7.8397096-14.4731233 13.14659l-.2412188.2412218 1.8091405 2.7740511c4.5831556 6.6336005 8.3220456 12.4229245 10.1311866 14.4733101 4.100718 5.0656585 7.357171 8.8045969 10.372405 9.8900952.603047.4824436.603047.7236655.603047.7236655z" fill="#fff" fill-rule="nonzero"/></g></g></svg>