<?xml version="1.0" encoding="UTF-8"?>
<svg width="788px" height="231px" viewBox="0 0 788 231" version="1.1" xmlns="http://www.w3.org/2000/svg" xmlns:xlink="http://www.w3.org/1999/xlink">
    <!-- Generator: Sketch 44.1 (41455) - http://www.bohemiancoding.com/sketch -->
    <title>Artboard Copy 7</title>
    <desc>Created with Sketch.</desc>
    <defs></defs>
    <g id="Mockups" stroke="none" stroke-width="1" fill="none" fill-rule="evenodd">
        <g id="Artboard-Copy-7" fill="#222222">
            <g id="Visual_Studio_2017_logo_and_wordmark" fill-rule="nonzero">
                <path d="M172.4885,0 L172.4885,197.54125 L0,171.91925 L172.4885,230 L229.98275,206.08 L229.98275,23.92 L172.4885,0 Z M59.271,110.653 L112.09625,162.91475 L143.72125,149.45975 L143.72125,46.99475 L112.09625,33.53975 L59.271,85.80725 L27.462,61.82975 L14.35775,66.217 L14.35775,130.24325 L27.462,134.6305 L59.271,110.653 Z M112.09625,70.83425 L112.09625,125.63175 L75.7505,98.233 L112.09625,70.83425 Z M27.462,79.18325 L46.713,98.22725 L27.462,117.277 L27.462,79.18325 Z" id="iconBg"></path>
            </g>
            <g id="Red-RG-Logo-Copy" transform="translate(612.000000, 1.000000)">
                <g id="White-RG-Logo">
                    <polygon id="Fill-5" points="131.717674 104.205638 67.2358739 102.60622 89.6878546 126.332925 131.717674 125.286689"></polygon>
                    <polygon id="Fill-6" points="121.946793 160.411352 131.711661 159.389168 131.711661 139.198018 103.403165 140.821488"></polygon>
                    <polygon id="Fill-7" points="0.632740257 173.14777 105.112017 162.180333 85.0651758 141.868926 0.632740257 146.727309"></polygon>
                    <polygon id="Fill-8" points="45.7820261 102.074684 0.637550537 100.956294 0.637550537 128.543249 70.1941959 126.811548"></polygon>
                    <polygon id="Fill-9" points="51.2020088 85.6740355 131.714066 90.3039298 131.714066 70.1127805 25.9600658 59.0010342"></polygon>
                    <polygon id="Fill-10" points="0.632740257 56.3493675 0.632740257 82.7698291 28.2798232 84.3572214"></polygon>
                    <path d="M137.828326,174.468847 C140.317646,174.120102 143.348122,171.017471 143.348122,166.038832 L143.348122,63.8203868 C143.348122,58.9860556 140.47398,55.7631681 137.828326,55.3903715 L1.07207207,35.9808926 L1.07207207,18.7721168 C16.5611729,7.67239622 49.283101,0 87.2722854,0 C125.26147,0 157.983398,7.67239622 173.472499,18.7721168 L173.472499,211.087102 C157.983398,222.186822 125.26147,229.859218 87.2722854,229.859218 C49.283101,229.859218 16.5611729,222.186822 1.07207207,211.087102 L1.07207207,193.878326 L137.828326,174.468847" id="Fill-11"></path>
                </g>
            </g>
            <g id="Group" transform="translate(347.000000, 56.000000)">
                <rect id="Rectangle-6" x="45" y="0" width="30" height="120"></rect>
                <rect id="Rectangle-6" transform="translate(60.000000, 60.000000) rotate(90.000000) translate(-60.000000, -60.000000) " x="45" y="0" width="30" height="120"></rect>
            </g>
        </g>
    </g>
</svg>