<svg height="231" viewBox="0 0 788 231" width="788" xmlns="http://www.w3.org/2000/svg"><g fill="#222" fill-rule="evenodd"><path d="m172.4885 0v197.54125l-172.4885-25.622 172.4885 58.08075 57.49425-23.92v-182.16zm-113.2175 110.653 52.82525 52.26175 31.625-13.455v-102.465l-31.625-13.455-52.82525 52.2675-31.809-23.9775-13.10425 4.38725v64.02625l13.10425 4.38725zm52.82525-39.81875v54.7975l-36.34575-27.39875zm-84.63425 8.349 19.251 19.044-19.251 19.04975z" fill-rule="nonzero"/><g transform="translate(612 1)"><path d="m131.717674 104.205638-64.4818001-1.599418 22.4519807 23.726705 42.0298194-1.046236z"/><path d="m121.946793 160.411352 9.764868-1.022184v-20.19115l-28.308496 1.62347z"/><path d="m.63274026 173.14777 104.47927674-10.967437-20.0468412-20.311407-84.43243554 4.858383z"/><path d="m45.7820261 102.074684-45.14447556-1.11839v27.586955l69.55664536-1.731701z"/><path d="m51.2020088 85.6740355 80.5120572 4.6298943v-20.1911493l-105.7540002-11.1117463z"/><path d="m.63274026 56.3493675v26.4204616l27.64708294 1.5873923z"/><path d="m137.828326 174.468847c2.48932-.348745 5.519796-3.451376 5.519796-8.430015v-102.2184452c0-4.8343312-2.874142-8.0572187-5.519796-8.4300153l-136.75625393-19.4094789v-17.2087758c15.48910083-11.09972058 48.21102893-18.7721168 86.20021333-18.7721168 37.9891846 0 70.7111126 7.67239622 86.2002136 18.7721168v192.3149852c-15.489101 11.09972-48.211029 18.772116-86.2002136 18.772116-37.9891844 0-70.7111125-7.672396-86.20021333-18.772116v-17.208776z"/></g><g transform="translate(347 56)"><path d="m45 0h30v120h-30z"/><path d="m45 0h30v120h-30z" transform="matrix(0 1 -1 0 120 0)"/></g></g></svg>