<?xml version="1.0" encoding="UTF-8"?>
<svg width="1718px" height="144px" viewBox="0 0 859 72" version="1.1" xmlns="http://www.w3.org/2000/svg" xmlns:xlink="http://www.w3.org/1999/xlink">
    <!-- Generator: Sketch 44.1 (41455) - http://www.bohemiancoding.com/sketch -->
    <title>Artboard</title>
    <desc>Created with Sketch.</desc>
    <defs></defs>
    <g id="Honeycomb" stroke="none" stroke-width="1" fill="none" fill-rule="evenodd">
        <g id="Artboard">
            <g id="Button-new-/Medium/Primary" transform="translate(254.000000, 0.000000)">
                <rect id="Rectangle" fill="#336DC2" x="0" y="0" width="97" height="40" rx="5"></rect>
                <path d="M31.6054688,26 L29.7617188,26 L29.7617188,18.75 C29.7617188,18.156247 29.7981767,17.4296918 29.8710938,16.5703125 L29.8398438,16.5703125 C29.7252598,17.0598983 29.6236984,17.4114573 29.5351562,17.625 L26.1914062,26 L24.9101562,26 L21.5585938,17.6875 C21.4648433,17.4427071 21.3658859,17.070315 21.2617188,16.5703125 L21.2304688,16.5703125 C21.2721356,17.0182314 21.2929688,17.7499949 21.2929688,18.765625 L21.2929688,26 L19.5742188,26 L19.5742188,14.796875 L22.1914062,14.796875 L25.1367188,22.2578125 C25.3606782,22.830732 25.5065101,23.2578111 25.5742188,23.5390625 L25.6132812,23.5390625 C25.8059905,22.9505179 25.962239,22.5130223 26.0820312,22.2265625 L29.0820312,14.796875 L31.6054688,14.796875 L31.6054688,26 Z M40.9335938,22.4921875 L35.4804688,22.4921875 C35.5013022,23.2317745 35.7291645,23.8020813 36.1640625,24.203125 C36.5989605,24.6041687 37.1966108,24.8046875 37.9570312,24.8046875 C38.8112022,24.8046875 39.5950485,24.5494817 40.3085938,24.0390625 L40.3085938,25.5 C39.5794234,25.9583356 38.6158914,26.1875 37.4179688,26.1875 C36.2408795,26.1875 35.3177117,25.8242224 34.6484375,25.0976562 C33.9791633,24.3710901 33.6445312,23.3489649 33.6445312,22.03125 C33.6445312,20.7864521 34.0130171,19.7721393 34.75,18.9882812 C35.4869829,18.2044232 36.4023383,17.8125 37.4960938,17.8125 C38.5898492,17.8125 39.4361949,18.164059 40.0351562,18.8671875 C40.6341176,19.570316 40.9335938,20.5468688 40.9335938,21.796875 L40.9335938,22.4921875 Z M39.1835938,21.2109375 C39.1783854,20.5598926 39.0247411,20.0533872 38.7226562,19.6914062 C38.4205714,19.3294253 38.0039089,19.1484375 37.4726562,19.1484375 C36.9518203,19.1484375 36.5104185,19.3385398 36.1484375,19.71875 C35.7864565,20.0989602 35.5638025,20.5963511 35.4804688,21.2109375 L39.1835938,21.2109375 Z M49.9335937,26 L48.1210937,26 L48.1210937,24.640625 L48.0898438,24.640625 C47.5065075,25.6718802 46.608079,26.1875 45.3945312,26.1875 C44.4101513,26.1875 43.6223988,25.8294307 43.03125,25.1132812 C42.4401012,24.3971318 42.1445312,23.4218812 42.1445312,22.1875 C42.1445312,20.8645767 42.4713509,19.8046915 43.125,19.0078125 C43.7786491,18.2109335 44.6497341,17.8125 45.7382812,17.8125 C46.8164116,17.8125 47.600258,18.2447873 48.0898438,19.109375 L48.1210937,19.109375 L48.1210937,14.15625 L49.9335937,14.15625 L49.9335937,26 Z M48.1445312,22.34375 L48.1445312,21.296875 C48.1445312,20.7291638 47.9596373,20.2473978 47.5898438,19.8515625 C47.2200502,19.4557272 46.7487008,19.2578125 46.1757812,19.2578125 C45.4986945,19.2578125 44.9661478,19.5104141 44.578125,20.015625 C44.1901022,20.5208359 43.9960938,21.2213497 43.9960938,22.1171875 C43.9960938,22.9296916 44.1822898,23.5716122 44.5546875,24.0429688 C44.9270852,24.5143253 45.4283823,24.75 46.0585938,24.75 C46.6783885,24.75 47.1809877,24.5221377 47.5664062,24.0664062 C47.9518248,23.6106748 48.1445312,23.0364618 48.1445312,22.34375 Z M53.2148438,16.3203125 C52.9179673,16.3203125 52.6640636,16.2239593 52.453125,16.03125 C52.2421864,15.8385407 52.1367188,15.5937515 52.1367188,15.296875 C52.1367188,14.9999985 52.2421864,14.7526052 52.453125,14.5546875 C52.6640636,14.3567698 52.9179673,14.2578125 53.2148438,14.2578125 C53.522137,14.2578125 53.782551,14.3567698 53.9960938,14.5546875 C54.2096365,14.7526052 54.3164062,14.9999985 54.3164062,15.296875 C54.3164062,15.5781264 54.2096365,15.8190094 53.9960938,16.0195312 C53.782551,16.2200531 53.522137,16.3203125 53.2148438,16.3203125 Z M54.1132812,26 L52.3007812,26 L52.3007812,18 L54.1132812,18 L54.1132812,26 Z M63.4570312,26 L61.6445312,26 L61.6445312,24.734375 L61.6132812,24.734375 C61.087237,25.7031298 60.2695368,26.1875 59.1601562,26.1875 C57.2695218,26.1875 56.3242188,25.0520947 56.3242188,22.78125 L56.3242188,18 L58.1367188,18 L58.1367188,22.59375 C58.1367188,24.0312572 58.6914007,24.75 59.8007812,24.75 C60.3372423,24.75 60.7786441,24.5520853 61.125,24.15625 C61.4713559,23.7604147 61.6445312,23.2421907 61.6445312,22.6015625 L61.6445312,18 L63.4570312,18 L63.4570312,26 Z M77.7773438,26 L75.9648438,26 L75.9648438,21.640625 C75.9648438,20.8020791 75.8463554,20.1953144 75.609375,19.8203125 C75.3723946,19.4453106 74.9726591,19.2578125 74.4101562,19.2578125 C73.9361955,19.2578125 73.5338558,19.4947893 73.203125,19.96875 C72.8723942,20.4427107 72.7070312,21.0104134 72.7070312,21.671875 L72.7070312,26 L70.8867188,26 L70.8867188,21.4921875 C70.8867188,20.0025967 70.3606823,19.2578125 69.3085938,19.2578125 C68.819008,19.2578125 68.4166682,19.4817686 68.1015625,19.9296875 C67.7864568,20.3776064 67.6289062,20.9583298 67.6289062,21.671875 L67.6289062,26 L65.8164062,26 L65.8164062,18 L67.6289062,18 L67.6289062,19.265625 L67.6601562,19.265625 C68.2382841,18.2968702 69.0794216,17.8125 70.1835938,17.8125 C70.7356798,17.8125 71.2187479,17.9648422 71.6328125,18.2695312 C72.0468771,18.5742203 72.3294263,18.9739559 72.4804688,19.46875 C73.0742217,18.3645778 73.9596295,17.8125 75.1367188,17.8125 C76.8971442,17.8125 77.7773438,18.8984266 77.7773438,21.0703125 L77.7773438,26 Z" id="Medium" fill="#FFFFFF"></path>
            </g>
            <g id="Button-new-/Medium/Primary-Copy-5" transform="translate(762.000000, 0.000000)">
                <rect id="Rectangle" fill="#336DC2" x="0" y="0" width="97" height="40"></rect>
                <path d="M31.6054688,26 L29.7617188,26 L29.7617188,18.75 C29.7617188,18.156247 29.7981767,17.4296918 29.8710938,16.5703125 L29.8398438,16.5703125 C29.7252598,17.0598983 29.6236984,17.4114573 29.5351562,17.625 L26.1914062,26 L24.9101562,26 L21.5585938,17.6875 C21.4648433,17.4427071 21.3658859,17.070315 21.2617188,16.5703125 L21.2304688,16.5703125 C21.2721356,17.0182314 21.2929688,17.7499949 21.2929688,18.765625 L21.2929688,26 L19.5742188,26 L19.5742188,14.796875 L22.1914062,14.796875 L25.1367188,22.2578125 C25.3606782,22.830732 25.5065101,23.2578111 25.5742188,23.5390625 L25.6132812,23.5390625 C25.8059905,22.9505179 25.962239,22.5130223 26.0820312,22.2265625 L29.0820312,14.796875 L31.6054688,14.796875 L31.6054688,26 Z M40.9335938,22.4921875 L35.4804688,22.4921875 C35.5013022,23.2317745 35.7291645,23.8020813 36.1640625,24.203125 C36.5989605,24.6041687 37.1966108,24.8046875 37.9570312,24.8046875 C38.8112022,24.8046875 39.5950485,24.5494817 40.3085938,24.0390625 L40.3085938,25.5 C39.5794234,25.9583356 38.6158914,26.1875 37.4179688,26.1875 C36.2408795,26.1875 35.3177117,25.8242224 34.6484375,25.0976562 C33.9791633,24.3710901 33.6445312,23.3489649 33.6445312,22.03125 C33.6445312,20.7864521 34.0130171,19.7721393 34.75,18.9882812 C35.4869829,18.2044232 36.4023383,17.8125 37.4960938,17.8125 C38.5898492,17.8125 39.4361949,18.164059 40.0351562,18.8671875 C40.6341176,19.570316 40.9335938,20.5468688 40.9335938,21.796875 L40.9335938,22.4921875 Z M39.1835938,21.2109375 C39.1783854,20.5598926 39.0247411,20.0533872 38.7226562,19.6914062 C38.4205714,19.3294253 38.0039089,19.1484375 37.4726562,19.1484375 C36.9518203,19.1484375 36.5104185,19.3385398 36.1484375,19.71875 C35.7864565,20.0989602 35.5638025,20.5963511 35.4804688,21.2109375 L39.1835938,21.2109375 Z M49.9335937,26 L48.1210937,26 L48.1210937,24.640625 L48.0898438,24.640625 C47.5065075,25.6718802 46.608079,26.1875 45.3945312,26.1875 C44.4101513,26.1875 43.6223988,25.8294307 43.03125,25.1132812 C42.4401012,24.3971318 42.1445312,23.4218812 42.1445312,22.1875 C42.1445312,20.8645767 42.4713509,19.8046915 43.125,19.0078125 C43.7786491,18.2109335 44.6497341,17.8125 45.7382812,17.8125 C46.8164116,17.8125 47.600258,18.2447873 48.0898438,19.109375 L48.1210937,19.109375 L48.1210937,14.15625 L49.9335937,14.15625 L49.9335937,26 Z M48.1445312,22.34375 L48.1445312,21.296875 C48.1445312,20.7291638 47.9596373,20.2473978 47.5898438,19.8515625 C47.2200502,19.4557272 46.7487008,19.2578125 46.1757812,19.2578125 C45.4986945,19.2578125 44.9661478,19.5104141 44.578125,20.015625 C44.1901022,20.5208359 43.9960938,21.2213497 43.9960938,22.1171875 C43.9960938,22.9296916 44.1822898,23.5716122 44.5546875,24.0429688 C44.9270852,24.5143253 45.4283823,24.75 46.0585938,24.75 C46.6783885,24.75 47.1809877,24.5221377 47.5664062,24.0664062 C47.9518248,23.6106748 48.1445312,23.0364618 48.1445312,22.34375 Z M53.2148438,16.3203125 C52.9179673,16.3203125 52.6640636,16.2239593 52.453125,16.03125 C52.2421864,15.8385407 52.1367188,15.5937515 52.1367188,15.296875 C52.1367188,14.9999985 52.2421864,14.7526052 52.453125,14.5546875 C52.6640636,14.3567698 52.9179673,14.2578125 53.2148438,14.2578125 C53.522137,14.2578125 53.782551,14.3567698 53.9960938,14.5546875 C54.2096365,14.7526052 54.3164062,14.9999985 54.3164062,15.296875 C54.3164062,15.5781264 54.2096365,15.8190094 53.9960938,16.0195312 C53.782551,16.2200531 53.522137,16.3203125 53.2148438,16.3203125 Z M54.1132812,26 L52.3007812,26 L52.3007812,18 L54.1132812,18 L54.1132812,26 Z M63.4570312,26 L61.6445312,26 L61.6445312,24.734375 L61.6132812,24.734375 C61.087237,25.7031298 60.2695368,26.1875 59.1601562,26.1875 C57.2695218,26.1875 56.3242188,25.0520947 56.3242188,22.78125 L56.3242188,18 L58.1367188,18 L58.1367188,22.59375 C58.1367188,24.0312572 58.6914007,24.75 59.8007812,24.75 C60.3372423,24.75 60.7786441,24.5520853 61.125,24.15625 C61.4713559,23.7604147 61.6445312,23.2421907 61.6445312,22.6015625 L61.6445312,18 L63.4570312,18 L63.4570312,26 Z M77.7773438,26 L75.9648438,26 L75.9648438,21.640625 C75.9648438,20.8020791 75.8463554,20.1953144 75.609375,19.8203125 C75.3723946,19.4453106 74.9726591,19.2578125 74.4101562,19.2578125 C73.9361955,19.2578125 73.5338558,19.4947893 73.203125,19.96875 C72.8723942,20.4427107 72.7070312,21.0104134 72.7070312,21.671875 L72.7070312,26 L70.8867188,26 L70.8867188,21.4921875 C70.8867188,20.0025967 70.3606823,19.2578125 69.3085938,19.2578125 C68.819008,19.2578125 68.4166682,19.4817686 68.1015625,19.9296875 C67.7864568,20.3776064 67.6289062,20.9583298 67.6289062,21.671875 L67.6289062,26 L65.8164062,26 L65.8164062,18 L67.6289062,18 L67.6289062,19.265625 L67.6601562,19.265625 C68.2382841,18.2968702 69.0794216,17.8125 70.1835938,17.8125 C70.7356798,17.8125 71.2187479,17.9648422 71.6328125,18.2695312 C72.0468771,18.5742203 72.3294263,18.9739559 72.4804688,19.46875 C73.0742217,18.3645778 73.9596295,17.8125 75.1367188,17.8125 C76.8971442,17.8125 77.7773438,18.8984266 77.7773438,21.0703125 L77.7773438,26 Z" id="Medium" fill="#FFFFFF"></path>
            </g>
            <g id="Button-new-/Medium/Primary-Copy-3" transform="translate(127.000000, 0.000000)">
                <rect id="Rectangle" fill="#336DC2" x="0" y="0" width="97" height="40" rx="2"></rect>
                <path d="M31.1679688,26 L28.6757812,26 L28.6757812,19.296875 C28.6757812,18.572913 28.7070309,17.7734419 28.7695312,16.8984375 L28.7070312,16.8984375 C28.5768223,17.5859409 28.4596359,18.0807277 28.3554688,18.3828125 L25.7304688,26 L23.6679688,26 L20.9960938,18.4609375 C20.9231767,18.2578115 20.8059904,17.7369834 20.6445312,16.8984375 L20.5742188,16.8984375 C20.6419274,18.0026097 20.6757812,18.97135 20.6757812,19.8046875 L20.6757812,26 L18.4023438,26 L18.4023438,14.796875 L22.0976562,14.796875 L24.3867188,21.4375 C24.5690113,21.9687527 24.7018225,22.5026015 24.7851562,23.0390625 L24.8320312,23.0390625 C24.972657,22.4192677 25.121093,21.8802106 25.2773438,21.421875 L27.5664062,14.796875 L31.1679688,14.796875 L31.1679688,26 Z M40.6601562,22.703125 L35.4414062,22.703125 C35.52474,23.8645891 36.2565035,24.4453125 37.6367188,24.4453125 C38.5169315,24.4453125 39.2903613,24.2369812 39.9570312,23.8203125 L39.9570312,25.6015625 C39.2174442,25.9973978 38.2565163,26.1953125 37.0742188,26.1953125 C35.7825456,26.1953125 34.7799515,25.8372432 34.0664062,25.1210937 C33.352861,24.4049443 32.9960938,23.4062564 32.9960938,22.125 C32.9960938,20.7968684 33.3815066,19.7447955 34.1523438,18.96875 C34.9231809,18.1927045 35.8710881,17.8046875 36.9960938,17.8046875 C38.1627663,17.8046875 39.065101,18.1510382 39.703125,18.84375 C40.341149,19.5364618 40.6601562,20.4765566 40.6601562,21.6640625 L40.6601562,22.703125 Z M38.3710938,21.1875 C38.3710938,20.0416609 37.9075567,19.46875 36.9804688,19.46875 C36.5846334,19.46875 36.2421889,19.6328109 35.953125,19.9609375 C35.6640611,20.2890641 35.4882816,20.6979142 35.4257812,21.1875 L38.3710938,21.1875 Z M49.9570312,26 L47.4882812,26 L47.4882812,24.8984375 L47.4570312,24.8984375 C46.8945284,25.7630252 46.0690159,26.1953125 44.9804688,26.1953125 C43.9804637,26.1953125 43.1757843,25.8424514 42.5664062,25.1367188 C41.9570282,24.4309861 41.6523438,23.4453188 41.6523438,22.1796875 C41.6523438,20.8567642 41.9882779,19.796879 42.6601562,19 C43.3320346,18.203121 44.2122341,17.8046875 45.3007812,17.8046875 C46.3320364,17.8046875 47.0507792,18.1744755 47.4570312,18.9140625 L47.4882812,18.9140625 L47.4882812,14.15625 L49.9570312,14.15625 L49.9570312,26 Z M47.5351562,22.109375 L47.5351562,21.5078125 C47.5351562,20.9869766 47.3841161,20.5546892 47.0820312,20.2109375 C46.7799464,19.8671858 46.3867212,19.6953125 45.9023438,19.6953125 C45.355466,19.6953125 44.928387,19.9101541 44.6210938,20.3398438 C44.3138005,20.7695334 44.1601562,21.3593713 44.1601562,22.109375 C44.1601562,22.8125035 44.3085923,23.3541648 44.6054688,23.734375 C44.9023452,24.1145852 45.3137995,24.3046875 45.8398438,24.3046875 C46.3398463,24.3046875 46.7473943,24.1041687 47.0625,23.703125 C47.3776057,23.3020813 47.5351562,22.7708366 47.5351562,22.109375 Z M53.2851562,16.734375 C52.8684875,16.734375 52.5273451,16.6106783 52.2617188,16.3632812 C51.9960924,16.1158842 51.8632812,15.8125018 51.8632812,15.453125 C51.8632812,15.0833315 51.9960924,14.7812512 52.2617188,14.546875 C52.5273451,14.3124988 52.8684875,14.1953125 53.2851562,14.1953125 C53.7070334,14.1953125 54.0494779,14.3124988 54.3125,14.546875 C54.5755221,14.7812512 54.7070312,15.0833315 54.7070312,15.453125 C54.7070312,15.8281269 54.5755221,16.1354155 54.3125,16.375 C54.0494779,16.6145845 53.7070334,16.734375 53.2851562,16.734375 Z M54.5039062,26 L52.0351562,26 L52.0351562,18 L54.5039062,18 L54.5039062,26 Z M64.1835938,26 L61.7226562,26 L61.7226562,24.78125 L61.6835938,24.78125 C61.0742157,25.723963 60.2591197,26.1953125 59.2382812,26.1953125 C57.3841053,26.1953125 56.4570312,25.0729279 56.4570312,22.828125 L56.4570312,18 L58.9179688,18 L58.9179688,22.609375 C58.9179688,23.739589 59.3658809,24.3046875 60.2617188,24.3046875 C60.7044293,24.3046875 61.0585924,24.1497411 61.3242188,23.8398438 C61.5898451,23.5299464 61.7226562,23.1093777 61.7226562,22.578125 L61.7226562,18 L64.1835938,18 L64.1835938,26 Z M78.9648438,26 L76.5039062,26 L76.5039062,21.4375 C76.5039062,20.2760359 76.0768272,19.6953125 75.2226562,19.6953125 C74.8164042,19.6953125 74.4856784,19.8697899 74.2304688,20.21875 C73.9752591,20.5677101 73.8476562,21.0026016 73.8476562,21.5234375 L73.8476562,26 L71.3789062,26 L71.3789062,21.390625 C71.3789062,20.260411 70.9596396,19.6953125 70.1210938,19.6953125 C69.6992166,19.6953125 69.3619804,19.8619775 69.109375,20.1953125 C68.8567696,20.5286475 68.7304688,20.981768 68.7304688,21.5546875 L68.7304688,26 L66.2617188,26 L66.2617188,18 L68.7304688,18 L68.7304688,19.25 L68.7617188,19.25 C69.0169284,18.8229145 69.3749977,18.4752618 69.8359375,18.2070312 C70.2968773,17.9388007 70.8007785,17.8046875 71.3476562,17.8046875 C72.4778702,17.8046875 73.2513,18.3020784 73.6679688,19.296875 C74.2773468,18.3020784 75.1731712,17.8046875 76.3554688,17.8046875 C78.0950608,17.8046875 78.9648438,18.8775934 78.9648438,21.0234375 L78.9648438,26 Z" id="Medium" fill="#FFFFFF"></path>
            </g>
            <g id="Button-new-/Medium/Primary-Copy" transform="translate(381.000000, 0.000000)">
                <rect id="Rectangle" fill="#336DC2" x="0" y="0" width="97" height="40" rx="5"></rect>
                <path d="M24.875,26 L24.875,19.859375 C24.875,19.2812471 24.893229,18.6458368 24.9296875,17.953125 L24.953125,17.4375 L24.859375,17.4375 C24.6927075,18.3177127 24.5651046,18.9270816 24.4765625,19.265625 L22.828125,26 L19.65625,26 L17.9296875,19.34375 C17.8828123,19.1770825 17.7604177,18.5416722 17.5625,17.4375 L17.46875,17.4375 C17.541667,19.1875087 17.578125,20.2812478 17.578125,20.71875 L17.578125,26 L14.6171875,26 L14.6171875,14.796875 L19.671875,14.796875 L21.2109375,20.8828125 C21.247396,21.0078131 21.2955726,21.2617168 21.3554688,21.6445312 C21.4153649,22.0273457 21.4531249,22.3229156 21.46875,22.53125 L21.515625,22.53125 C21.572917,22.0572893 21.6640619,21.4973991 21.7890625,20.8515625 L23.2265625,14.796875 L28.203125,14.796875 L28.203125,26 L24.875,26 Z M30.40625,26 L30.40625,14.796875 L37.3828125,14.796875 L37.3828125,17.4375 L33.78125,17.4375 L33.78125,19.0703125 L37.1640625,19.0703125 L37.1640625,21.7109375 L33.78125,21.7109375 L33.78125,23.359375 L37.640625,23.359375 L37.640625,26 L30.40625,26 Z M49.796875,20.2578125 C49.796875,21.3932348 49.5585961,22.3971311 49.0820312,23.2695312 C48.6054664,24.1419314 47.9244836,24.8151018 47.0390625,25.2890625 C46.1536414,25.7630232 45.1328183,26 43.9765625,26 L39.234375,26 L39.234375,14.796875 L43.875,14.796875 C47.8229364,14.796875 49.796875,16.6171693 49.796875,20.2578125 Z M46.2109375,20.2890625 C46.2109375,19.7421848 46.1002615,19.2500022 45.8789062,18.8125 C45.657551,18.3749978 45.3411479,18.0364595 44.9296875,17.796875 C44.5182271,17.5572905 44.033857,17.4375 43.4765625,17.4375 L42.609375,17.4375 L42.609375,23.359375 L43.5546875,23.359375 C44.3619832,23.359375 45.006508,23.082034 45.4882812,22.5273438 C45.9700545,21.9726535 46.2109375,21.2265672 46.2109375,20.2890625 Z M51.375,26 L51.375,14.796875 L54.75,14.796875 L54.75,26 L51.375,26 Z M66.71875,20.8828125 C66.71875,22.6796965 66.3085979,24.0143186 65.4882812,24.8867188 C64.6679646,25.7591189 63.4036544,26.1953125 61.6953125,26.1953125 C60.1015545,26.1953125 58.8919312,25.7591189 58.0664062,24.8867188 C57.2408813,24.0143186 56.828125,22.7005296 56.828125,20.9453125 L56.828125,14.796875 L60.21875,14.796875 L60.21875,21.0703125 C60.21875,21.7890661 60.3528632,22.342446 60.6210938,22.7304688 C60.8893243,23.1184915 61.273435,23.3125 61.7734375,23.3125 C62.2786484,23.3125 62.6627591,23.1302102 62.9257812,22.765625 C63.1888034,22.4010398 63.3203125,21.8619827 63.3203125,21.1484375 L63.3203125,14.796875 L66.71875,14.796875 L66.71875,20.8828125 Z M79.0546875,26 L79.0546875,19.859375 C79.0546875,19.2812471 79.0729165,18.6458368 79.109375,17.953125 L79.1328125,17.4375 L79.0390625,17.4375 C78.872395,18.3177127 78.7447921,18.9270816 78.65625,19.265625 L77.0078125,26 L73.8359375,26 L72.109375,19.34375 C72.0624998,19.1770825 71.9401052,18.5416722 71.7421875,17.4375 L71.6484375,17.4375 C71.7213545,19.1875087 71.7578125,20.2812478 71.7578125,20.71875 L71.7578125,26 L68.796875,26 L68.796875,14.796875 L73.8515625,14.796875 L75.390625,20.8828125 C75.4270835,21.0078131 75.4752601,21.2617168 75.5351562,21.6445312 C75.5950524,22.0273457 75.6328124,22.3229156 75.6484375,22.53125 L75.6953125,22.53125 C75.7526045,22.0572893 75.8437494,21.4973991 75.96875,20.8515625 L77.40625,14.796875 L82.3828125,14.796875 L82.3828125,26 L79.0546875,26 Z" id="Medium" fill="#FFFFFF"></path>
            </g>
            <g id="Button-new-/Medium/Primary-Copy-2" transform="translate(508.000000, 0.000000)">
                <rect id="Rectangle" fill="#336DC2" x="0" y="0" width="97" height="40" rx="10"></rect>
                <path d="M29.3085938,26 L27.4648438,26 L27.4648438,18.75 C27.4648438,18.156247 27.5013017,17.4296918 27.5742188,16.5703125 L27.5429688,16.5703125 C27.4283848,17.0598983 27.3268234,17.4114573 27.2382812,17.625 L23.8945312,26 L22.6132812,26 L19.2617188,17.6875 C19.1679683,17.4427071 19.0690109,17.070315 18.9648438,16.5703125 L18.9335938,16.5703125 C18.9752606,17.0182314 18.9960938,17.7499949 18.9960938,18.765625 L18.9960938,26 L17.2773438,26 L17.2773438,14.796875 L19.8945312,14.796875 L22.8398438,22.2578125 C23.0638032,22.830732 23.2096351,23.2578111 23.2773438,23.5390625 L23.3164062,23.5390625 C23.5091155,22.9505179 23.665364,22.5130223 23.7851562,22.2265625 L26.7851562,14.796875 L29.3085938,14.796875 L29.3085938,26 Z M38.3554688,26 L32.0664062,26 L32.0664062,14.796875 L38.1054688,14.796875 L38.1054688,16.375 L33.9257812,16.375 L33.9257812,19.546875 L37.7773438,19.546875 L37.7773438,21.1171875 L33.9257812,21.1171875 L33.9257812,24.4296875 L38.3554688,24.4296875 L38.3554688,26 Z M40.3476562,26 L40.3476562,14.796875 L43.5820312,14.796875 C47.7122602,14.796875 49.7773438,16.6171693 49.7773438,20.2578125 C49.7773438,21.9869878 49.2044328,23.3762968 48.0585938,24.4257812 C46.9127547,25.4752657 45.3763117,26 43.4492188,26 L40.3476562,26 Z M42.1992188,16.375 L42.1992188,24.4296875 L43.6835938,24.4296875 C44.990892,24.4296875 46.0078089,24.0703161 46.734375,23.3515625 C47.4609411,22.6328089 47.8242188,21.6171941 47.8242188,20.3046875 C47.8242188,17.6848827 46.4674615,16.375 43.7539062,16.375 L42.1992188,16.375 Z M54.7070312,14.796875 L54.7070312,16.296875 L53.6835938,16.296875 L53.6835938,24.5 L54.7070312,24.5 L54.7070312,26 L50.8007812,26 L50.8007812,24.5 L51.8242188,24.5 L51.8242188,16.296875 L50.8007812,16.296875 L50.8007812,14.796875 L54.7070312,14.796875 Z M65.0664062,21.46875 C65.0664062,24.6145991 63.5768378,26.1875 60.5976562,26.1875 C57.7434753,26.1875 56.3164062,24.6744943 56.3164062,21.6484375 L56.3164062,14.796875 L58.1757812,14.796875 L58.1757812,21.265625 C58.1757812,23.4635527 59.0299394,24.5625 60.7382812,24.5625 C62.3841228,24.5625 63.2070312,23.5026148 63.2070312,21.3828125 L63.2070312,14.796875 L65.0664062,14.796875 L65.0664062,21.46875 Z M79.7304688,26 L77.8867188,26 L77.8867188,18.75 C77.8867188,18.156247 77.9231767,17.4296918 77.9960938,16.5703125 L77.9648438,16.5703125 C77.8502598,17.0598983 77.7486984,17.4114573 77.6601562,17.625 L74.3164062,26 L73.0351562,26 L69.6835938,17.6875 C69.5898433,17.4427071 69.4908859,17.070315 69.3867188,16.5703125 L69.3554688,16.5703125 C69.3971356,17.0182314 69.4179688,17.7499949 69.4179688,18.765625 L69.4179688,26 L67.6992188,26 L67.6992188,14.796875 L70.3164062,14.796875 L73.2617188,22.2578125 C73.4856782,22.830732 73.6315101,23.2578111 73.6992188,23.5390625 L73.7382812,23.5390625 C73.9309905,22.9505179 74.087239,22.5130223 74.2070312,22.2265625 L77.2070312,14.796875 L79.7304688,14.796875 L79.7304688,26 Z" id="Medium" fill="#FFFFFF"></path>
            </g>
            <g id="Button-new-/Medium/Primary">
                <rect id="Rectangle" fill="#3C85DF" x="0" y="0" width="97" height="40" rx="5"></rect>
                <path d="M31.6054688,26 L29.7617188,26 L29.7617188,18.75 C29.7617188,18.156247 29.7981767,17.4296918 29.8710938,16.5703125 L29.8398438,16.5703125 C29.7252598,17.0598983 29.6236984,17.4114573 29.5351562,17.625 L26.1914062,26 L24.9101562,26 L21.5585938,17.6875 C21.4648433,17.4427071 21.3658859,17.070315 21.2617188,16.5703125 L21.2304688,16.5703125 C21.2721356,17.0182314 21.2929688,17.7499949 21.2929688,18.765625 L21.2929688,26 L19.5742188,26 L19.5742188,14.796875 L22.1914062,14.796875 L25.1367188,22.2578125 C25.3606782,22.830732 25.5065101,23.2578111 25.5742188,23.5390625 L25.6132812,23.5390625 C25.8059905,22.9505179 25.962239,22.5130223 26.0820312,22.2265625 L29.0820312,14.796875 L31.6054688,14.796875 L31.6054688,26 Z M40.9335938,22.4921875 L35.4804688,22.4921875 C35.5013022,23.2317745 35.7291645,23.8020813 36.1640625,24.203125 C36.5989605,24.6041687 37.1966108,24.8046875 37.9570312,24.8046875 C38.8112022,24.8046875 39.5950485,24.5494817 40.3085938,24.0390625 L40.3085938,25.5 C39.5794234,25.9583356 38.6158914,26.1875 37.4179688,26.1875 C36.2408795,26.1875 35.3177117,25.8242224 34.6484375,25.0976562 C33.9791633,24.3710901 33.6445312,23.3489649 33.6445312,22.03125 C33.6445312,20.7864521 34.0130171,19.7721393 34.75,18.9882812 C35.4869829,18.2044232 36.4023383,17.8125 37.4960938,17.8125 C38.5898492,17.8125 39.4361949,18.164059 40.0351562,18.8671875 C40.6341176,19.570316 40.9335938,20.5468688 40.9335938,21.796875 L40.9335938,22.4921875 Z M39.1835938,21.2109375 C39.1783854,20.5598926 39.0247411,20.0533872 38.7226562,19.6914062 C38.4205714,19.3294253 38.0039089,19.1484375 37.4726562,19.1484375 C36.9518203,19.1484375 36.5104185,19.3385398 36.1484375,19.71875 C35.7864565,20.0989602 35.5638025,20.5963511 35.4804688,21.2109375 L39.1835938,21.2109375 Z M49.9335937,26 L48.1210937,26 L48.1210937,24.640625 L48.0898438,24.640625 C47.5065075,25.6718802 46.608079,26.1875 45.3945312,26.1875 C44.4101513,26.1875 43.6223988,25.8294307 43.03125,25.1132812 C42.4401012,24.3971318 42.1445312,23.4218812 42.1445312,22.1875 C42.1445312,20.8645767 42.4713509,19.8046915 43.125,19.0078125 C43.7786491,18.2109335 44.6497341,17.8125 45.7382812,17.8125 C46.8164116,17.8125 47.600258,18.2447873 48.0898438,19.109375 L48.1210937,19.109375 L48.1210937,14.15625 L49.9335937,14.15625 L49.9335937,26 Z M48.1445312,22.34375 L48.1445312,21.296875 C48.1445312,20.7291638 47.9596373,20.2473978 47.5898438,19.8515625 C47.2200502,19.4557272 46.7487008,19.2578125 46.1757812,19.2578125 C45.4986945,19.2578125 44.9661478,19.5104141 44.578125,20.015625 C44.1901022,20.5208359 43.9960938,21.2213497 43.9960938,22.1171875 C43.9960938,22.9296916 44.1822898,23.5716122 44.5546875,24.0429688 C44.9270852,24.5143253 45.4283823,24.75 46.0585938,24.75 C46.6783885,24.75 47.1809877,24.5221377 47.5664062,24.0664062 C47.9518248,23.6106748 48.1445312,23.0364618 48.1445312,22.34375 Z M53.2148438,16.3203125 C52.9179673,16.3203125 52.6640636,16.2239593 52.453125,16.03125 C52.2421864,15.8385407 52.1367188,15.5937515 52.1367188,15.296875 C52.1367188,14.9999985 52.2421864,14.7526052 52.453125,14.5546875 C52.6640636,14.3567698 52.9179673,14.2578125 53.2148438,14.2578125 C53.522137,14.2578125 53.782551,14.3567698 53.9960938,14.5546875 C54.2096365,14.7526052 54.3164062,14.9999985 54.3164062,15.296875 C54.3164062,15.5781264 54.2096365,15.8190094 53.9960938,16.0195312 C53.782551,16.2200531 53.522137,16.3203125 53.2148438,16.3203125 Z M54.1132812,26 L52.3007812,26 L52.3007812,18 L54.1132812,18 L54.1132812,26 Z M63.4570312,26 L61.6445312,26 L61.6445312,24.734375 L61.6132812,24.734375 C61.087237,25.7031298 60.2695368,26.1875 59.1601562,26.1875 C57.2695218,26.1875 56.3242188,25.0520947 56.3242188,22.78125 L56.3242188,18 L58.1367188,18 L58.1367188,22.59375 C58.1367188,24.0312572 58.6914007,24.75 59.8007812,24.75 C60.3372423,24.75 60.7786441,24.5520853 61.125,24.15625 C61.4713559,23.7604147 61.6445312,23.2421907 61.6445312,22.6015625 L61.6445312,18 L63.4570312,18 L63.4570312,26 Z M77.7773438,26 L75.9648438,26 L75.9648438,21.640625 C75.9648438,20.8020791 75.8463554,20.1953144 75.609375,19.8203125 C75.3723946,19.4453106 74.9726591,19.2578125 74.4101562,19.2578125 C73.9361955,19.2578125 73.5338558,19.4947893 73.203125,19.96875 C72.8723942,20.4427107 72.7070312,21.0104134 72.7070312,21.671875 L72.7070312,26 L70.8867188,26 L70.8867188,21.4921875 C70.8867188,20.0025967 70.3606823,19.2578125 69.3085938,19.2578125 C68.819008,19.2578125 68.4166682,19.4817686 68.1015625,19.9296875 C67.7864568,20.3776064 67.6289062,20.9583298 67.6289062,21.671875 L67.6289062,26 L65.8164062,26 L65.8164062,18 L67.6289062,18 L67.6289062,19.265625 L67.6601562,19.265625 C68.2382841,18.2968702 69.0794216,17.8125 70.1835938,17.8125 C70.7356798,17.8125 71.2187479,17.9648422 71.6328125,18.2695312 C72.0468771,18.5742203 72.3294263,18.9739559 72.4804688,19.46875 C73.0742217,18.3645778 73.9596295,17.8125 75.1367188,17.8125 C76.8971442,17.8125 77.7773438,18.8984266 77.7773438,21.0703125 L77.7773438,26 Z" id="Medium" fill="#FFFFFF"></path>
            </g>
            <g id="Button-new-/Medium/Primary-Copy-4" transform="translate(635.000000, 0.000000)">
                <rect id="Rectangle" fill="#3C85DF" x="0" y="0" width="97" height="40" rx="5"></rect>
                <path d="M29.168457,26 L29.168457,17.2988281 C29.168457,16.8535134 29.2036129,16.1357471 29.2739258,15.1455078 L29.2387695,15.1455078 C29.1567379,15.409181 29.0820316,15.6376943 29.0146484,15.8310547 C28.9472653,16.024415 28.8842776,16.1826166 28.8256836,16.3056641 L24.4311523,26 L23.9301758,26 L19.5268555,16.3671875 C19.3979486,16.0742173 19.266114,15.6611355 19.1313477,15.1279297 L19.0961914,15.1279297 C19.119629,15.3974623 19.1357421,15.7050764 19.1445312,16.0507812 C19.1533204,16.3964861 19.1577148,16.7802713 19.1577148,17.2021484 L19.1577148,26 L18.0151367,26 L18.0151367,13.3964844 L19.3950195,13.3964844 L23.675293,22.8710938 C23.763184,23.0703135 23.849609,23.2739247 23.9345703,23.4819336 C24.0195317,23.6899424 24.0971676,23.9111316 24.1674805,24.1455078 L24.2202148,24.1455078 C24.3022465,23.9111316 24.3769528,23.6972666 24.4443359,23.5039062 C24.5117191,23.3105459 24.5952143,23.1025402 24.6948242,22.8798828 L29.0102539,13.3964844 L30.3198242,13.3964844 L30.3198242,26 L29.168457,26 Z M33.940918,21.7021484 C33.9467774,22.2529324 34.0200188,22.7480447 34.1606445,23.1875 C34.3012702,23.6269553 34.5034167,23.9990219 34.7670898,24.3037109 C35.030763,24.6084 35.3515606,24.8413078 35.7294922,25.0024414 C36.1074238,25.163575 36.533689,25.2441406 37.0083008,25.2441406 C38.0219777,25.2441406 38.979976,24.889652 39.8823242,24.1806641 L39.8823242,25.2880859 C39.0209918,25.9033234 37.9780335,26.2109375 36.753418,26.2109375 C36.1498993,26.2109375 35.6020532,26.1054698 35.1098633,25.8945312 C34.6176733,25.6835927 34.1987322,25.3774434 33.8530273,24.9760742 C33.5073225,24.574705 33.2407236,24.0810576 33.0532227,23.4951172 C32.8657217,22.9091768 32.7719727,22.2412147 32.7719727,21.4912109 C32.7719727,20.8173794 32.8745107,20.1933622 33.0795898,19.6191406 C33.284669,19.044919 33.5688458,18.5483419 33.9321289,18.1293945 C34.295412,17.7104471 34.7260717,17.3823254 35.2241211,17.1450195 C35.7221705,16.9077137 36.2670869,16.7890625 36.8588867,16.7890625 C37.4389677,16.7890625 37.9516579,16.8901357 38.3969727,17.0922852 C38.8422874,17.2944346 39.2158188,17.5830059 39.5175781,17.9580078 C39.8193374,18.3330097 40.0493156,18.7900364 40.2075195,19.3291016 C40.3657234,19.8681668 40.4448242,20.4716763 40.4448242,21.1396484 L40.4448242,21.7021484 L33.940918,21.7021484 Z M39.284668,20.7177734 C39.2670898,19.7802687 39.0444357,19.0537135 38.6166992,18.5380859 C38.1889627,18.0224584 37.5942421,17.7646484 36.8325195,17.7646484 C36.4516583,17.7646484 36.0986344,17.8320306 35.7734375,17.9667969 C35.4482406,18.1015632 35.1625989,18.2963854 34.9165039,18.5512695 C34.6704089,18.8061536 34.4667977,19.1166974 34.3056641,19.4829102 C34.1445304,19.8491229 34.0317386,20.2607399 33.9672852,20.7177734 L39.284668,20.7177734 Z M48.9614258,26 L48.9614258,24.4179688 L48.9262695,24.4179688 C48.6274399,24.986331 48.2011746,25.4272445 47.6474609,25.7407227 C47.0937472,26.0542008 46.4653355,26.2109375 45.762207,26.2109375 C45.1997042,26.2109375 44.6884789,26.1069346 44.2285156,25.8989258 C43.7685524,25.6909169 43.3745134,25.390627 43.0463867,24.9980469 C42.7182601,24.6054668 42.4648446,24.1308622 42.2861328,23.5742188 C42.107421,23.0175753 42.0180664,22.3876988 42.0180664,21.6845703 C42.0180664,20.9580042 42.11621,20.2944366 42.3125,19.6938477 C42.50879,19.0932587 42.7871076,18.5776389 43.1474609,18.1469727 C43.5078143,17.7163064 43.9414037,17.3823254 44.4482422,17.1450195 C44.9550807,16.9077137 45.5190399,16.7890625 46.1401367,16.7890625 C47.4350651,16.7890625 48.3637667,17.307612 48.9262695,18.3447266 L48.9614258,18.3447266 L48.9614258,12.6757812 L50.0864258,12.6757812 L50.0864258,26 L48.9614258,26 Z M48.9614258,20.5683594 C48.9614258,20.1757793 48.8940436,19.809572 48.7592773,19.4697266 C48.624511,19.1298811 48.4370129,18.8339856 48.1967773,18.5820312 C47.9565418,18.3300769 47.6679704,18.1308601 47.3310547,17.984375 C46.9941389,17.8378899 46.6235372,17.7646484 46.2192383,17.7646484 C45.7739236,17.7646484 45.3637714,17.8525382 44.9887695,18.0283203 C44.6137677,18.2041024 44.2929701,18.4575179 44.0263672,18.7885742 C43.7597643,19.1196306 43.5517586,19.5224586 43.4023438,19.9970703 C43.2529289,20.4716821 43.1782227,21.0107392 43.1782227,21.6142578 C43.1782227,22.18262 43.2456048,22.6923806 43.3803711,23.1435547 C43.5151374,23.5947288 43.70703,23.9755844 43.9560547,24.2861328 C44.2050794,24.5966812 44.5024397,24.8339836 44.8481445,24.9980469 C45.1938494,25.1621102 45.5776346,25.2441406 45.9995117,25.2441406 C46.4565453,25.2441406 46.8681622,25.1621102 47.234375,24.9980469 C47.6005878,24.8339836 47.9111315,24.6083999 48.1660156,24.3212891 C48.4208997,24.0341783 48.6171868,23.6972676 48.7548828,23.3105469 C48.8925788,22.9238262 48.9614258,22.5107444 48.9614258,22.0712891 L48.9614258,20.5683594 Z M53.5405273,14.7236328 C53.3237294,14.7236328 53.1362313,14.6474617 52.9780273,14.4951172 C52.8198234,14.3427727 52.7407227,14.1494152 52.7407227,13.9150391 C52.7407227,13.6865223 52.8198234,13.4975593 52.9780273,13.3481445 C53.1362313,13.1987297 53.3237294,13.1240234 53.5405273,13.1240234 C53.651856,13.1240234 53.7573237,13.1430662 53.8569336,13.1811523 C53.9565435,13.2192385 54.0429684,13.2734371 54.1162109,13.34375 C54.1894535,13.4140629 54.2480467,13.4975581 54.2919922,13.5942383 C54.3359377,13.6909185 54.3579102,13.797851 54.3579102,13.9150391 C54.3579102,14.0263677 54.3374025,14.1318354 54.2963867,14.2314453 C54.2553709,14.3310552 54.1967777,14.4174801 54.1206055,14.4907227 C54.0444332,14.5639652 53.9580083,14.6210935 53.8613281,14.6621094 C53.764648,14.7031252 53.6577154,14.7236328 53.5405273,14.7236328 Z M52.9868164,26 L52.9868164,17 L54.1118164,17 L54.1118164,26 L52.9868164,26 Z M62.9008789,26 L62.9008789,24.4707031 L62.8657227,24.4707031 C62.2563446,25.6308652 61.310065,26.2109375 60.0268555,26.2109375 C57.8881729,26.2109375 56.8188477,24.9043099 56.8188477,22.2910156 L56.8188477,17 L57.9438477,17 L57.9438477,22.0800781 C57.9438477,23.1582085 58.1357403,23.9550755 58.5195312,24.4707031 C58.9033222,24.9863307 59.4907187,25.2441406 60.2817383,25.2441406 C60.668459,25.2441406 61.0214828,25.1694343 61.3408203,25.0200195 C61.6601578,24.8706047 61.9355457,24.6596693 62.1669922,24.387207 C62.3984387,24.1147447 62.5786126,23.7880878 62.7075195,23.4072266 C62.8364264,23.0263653 62.9008789,22.6044945 62.9008789,22.1416016 L62.9008789,17 L64.0258789,17 L64.0258789,26 L62.9008789,26 Z M78.237793,26 L78.237793,20.7089844 C78.237793,20.1699192 78.1967778,19.7143573 78.1147461,19.3422852 C78.0327144,18.970213 77.9052743,18.6669934 77.7324219,18.4326172 C77.5595694,18.198241 77.3398451,18.0283208 77.0732422,17.9228516 C76.8066393,17.8173823 76.4887714,17.7646484 76.1196289,17.7646484 C75.7915023,17.7646484 75.4809585,17.8422844 75.1879883,17.9975586 C74.8950181,18.1528328 74.638673,18.3666979 74.4189453,18.6391602 C74.1992177,18.9116225 74.0263678,19.23242 73.9003906,19.6015625 C73.7744134,19.970705 73.7114258,20.3691385 73.7114258,20.796875 L73.7114258,26 L72.5864258,26 L72.5864258,20.5947266 C72.5864258,18.7079984 71.8628002,17.7646484 70.4155273,17.7646484 C70.0815413,17.7646484 69.7709975,17.8393547 69.4838867,17.9887695 C69.1967759,18.1381843 68.9462901,18.3476549 68.7324219,18.6171875 C68.5185536,18.8867201 68.3515631,19.2104473 68.2314453,19.5883789 C68.1113275,19.9663105 68.0512695,20.3837868 68.0512695,20.8408203 L68.0512695,26 L66.9262695,26 L66.9262695,17 L68.0512695,17 L68.0512695,18.4589844 L68.0864258,18.4589844 C68.7192414,17.3456976 69.6420838,16.7890625 70.8549805,16.7890625 C71.1713883,16.7890625 71.4702134,16.8374019 71.7514648,16.934082 C72.0327162,17.0307622 72.2846669,17.1655265 72.5073242,17.3383789 C72.7299816,17.5112313 72.9218742,17.7177722 73.0830078,17.9580078 C73.2441414,18.1982434 73.3657222,18.4619126 73.4477539,18.7490234 C73.7641617,18.1103484 74.1757787,17.6240251 74.6826172,17.2900391 C75.1894557,16.956053 75.7622038,16.7890625 76.4008789,16.7890625 C78.3754982,16.7890625 79.362793,18.0078003 79.362793,20.4453125 L79.362793,26 L78.237793,26 Z" id="Medium" fill="#FFFFFF"></path>
            </g>
            <g id="tick.svg" transform="translate(293.000000, 56.000000)" fill-rule="nonzero" fill="#128024">
                <path d="M0.35,8.15 L5.64,13.35 C6.03003745,13.7377236 6.65996255,13.7377236 7.05,13.35 L17.65,2.75 L14.85,0 L6.35,8.5 L3.25,5.3 L0.35,8.15 Z" id="Shape"></path>
            </g>
            <g id="clear-cross.svg" transform="translate(167.000000, 56.000000)" fill-rule="nonzero" fill="#CC0000">
                <polygon id="Shape" points="15.78 12.95 10.83 8 15.78 3.05 12.95 0.22 8 5.17 3.05 0.22 0.22 3.05 5.17 8 0.22 12.95 3.05 15.78 8 10.83 12.95 15.78"></polygon>
            </g>
            <g id="clear-cross.svg" transform="translate(40.000000, 56.000000)" fill-rule="nonzero" fill="#CC0000">
                <polygon id="Shape" points="15.78 12.95 10.83 8 15.78 3.05 12.95 0.22 8 5.17 3.05 0.22 0.22 3.05 5.17 8 0.22 12.95 3.05 15.78 8 10.83 12.95 15.78"></polygon>
            </g>
            <g id="clear-cross.svg" transform="translate(422.000000, 56.000000)" fill-rule="nonzero" fill="#CC0000">
                <polygon id="Shape" points="15.78 12.95 10.83 8 15.78 3.05 12.95 0.22 8 5.17 3.05 0.22 0.22 3.05 5.17 8 0.22 12.95 3.05 15.78 8 10.83 12.95 15.78"></polygon>
            </g>
            <g id="clear-cross.svg-copy" transform="translate(549.000000, 56.000000)" fill-rule="nonzero" fill="#CC0000">
                <polygon id="Shape" points="15.78 12.95 10.83 8 15.78 3.05 12.95 0.22 8 5.17 3.05 0.22 0.22 3.05 5.17 8 0.22 12.95 3.05 15.78 8 10.83 12.95 15.78"></polygon>
            </g>
            <g id="clear-cross.svg-copy-2" transform="translate(676.000000, 56.000000)" fill-rule="nonzero" fill="#CC0000">
                <polygon id="Shape" points="15.78 12.95 10.83 8 15.78 3.05 12.95 0.22 8 5.17 3.05 0.22 0.22 3.05 5.17 8 0.22 12.95 3.05 15.78 8 10.83 12.95 15.78"></polygon>
            </g>
            <g id="clear-cross.svg-copy-3" transform="translate(803.000000, 56.000000)" fill-rule="nonzero" fill="#CC0000">
                <polygon id="Shape" points="15.78 12.95 10.83 8 15.78 3.05 12.95 0.22 8 5.17 3.05 0.22 0.22 3.05 5.17 8 0.22 12.95 3.05 15.78 8 10.83 12.95 15.78"></polygon>
            </g>
        </g>
    </g>
</svg>