<svg height="144" viewBox="0 0 859 72" width="1718" xmlns="http://www.w3.org/2000/svg"><g fill="none" fill-rule="evenodd"><g transform="translate(254)"><rect fill="#336dc2" height="40" rx="5" width="97"/><path d="m31.6054688 26h-1.84375v-7.25c0-.593753.0364579-1.3203082.109375-2.1796875h-.03125c-.114584.4895858-.2161454.8411448-.3046876 1.0546875l-3.34375 8.375h-1.28125l-3.3515624-8.3125c-.0937505-.2447929-.1927079-.617185-.296875-1.1171875h-.03125c.0416668.4479189.0625 1.1796824.0625 2.1953125v7.234375h-1.71875v-11.203125h2.6171874l2.9453126 7.4609375c.2239594.5729195.3697913.9999986.4375 1.28125h.0390624c.1927093-.5885446.3489578-1.0260402.46875-1.3125l3-7.4296875h2.5234376zm9.328125-3.5078125h-5.453125c.0208334.739587.2486957 1.3098938.6835937 1.7109375s1.0325483.6015625 1.7929687.6015625c.854171 0 1.6380173-.2552058 2.3515626-.765625v1.4609375c-.7291704.4583356-1.6927024.6875-2.890625.6875-1.1770893 0-2.1002571-.3632776-2.7695313-1.0898438-.6692742-.7265661-1.0039063-1.7486913-1.0039063-3.0664062 0-1.2447979.3684859-2.2591107 1.1054688-3.0429688.7369829-.783858 1.6523383-1.1757812 2.7460938-1.1757812 1.0937554 0 1.9401011.351559 2.5390624 1.0546875.5989614.7031285.8984376 1.6796813.8984376 2.9296875zm-1.75-1.28125c-.0052084-.6510449-.1588527-1.1575503-.4609376-1.5195313-.3020848-.3619809-.7187473-.5429687-1.25-.5429687-.5208359 0-.9622377.1901023-1.3242187.5703125s-.584635.8776011-.6679687 1.4921875zm10.7499999 4.7890625h-1.8125v-1.359375h-.0312499c-.5833363 1.0312552-1.4817648 1.546875-2.6953126 1.546875-.9843799 0-1.7721324-.3580693-2.3632812-1.0742188-.5911488-.7161494-.8867188-1.6914-.8867188-2.9257812 0-1.3229233.3268197-2.3828085.9804688-3.1796875s1.5247341-1.1953125 2.6132812-1.1953125c1.0781304 0 1.8619768.4322873 2.3515626 1.296875h.0312499v-4.953125h1.8125zm-1.7890625-3.65625v-1.046875c0-.5677112-.1848939-1.0494772-.5546874-1.4453125-.3697936-.3958353-.841143-.59375-1.4140626-.59375-.6770867 0-1.2096334.2526016-1.5976562.7578125s-.5820312 1.2057247-.5820312 2.1015625c0 .8125041.186196 1.4544247.5585937 1.9257813.3723977.4713565.8736948.7070312 1.5039063.7070312.6197947 0 1.1223939-.2278623 1.5078124-.6835938.3854186-.4557314.578125-1.0299444.578125-1.7226562zm5.0703126-6.0234375c-.2968765 0-.5507802-.0963532-.7617188-.2890625s-.3164062-.4374985-.3164062-.734375.1054676-.5442698.3164062-.7421875.4648423-.296875.7617188-.296875c.3072932 0 .5677072.0989573.78125.296875.2135427.1979177.3203124.445311.3203124.7421875 0 .2812514-.1067697.5221344-.3203124.7226562-.2135428.2005219-.4739568.3007813-.78125.3007813zm.8984374 9.6796875h-1.8125v-8h1.8125zm9.34375 0h-1.8125v-1.265625h-.03125c-.5260442.9687548-1.3437444 1.453125-2.453125 1.453125-1.8906344 0-2.8359374-1.1354053-2.8359374-3.40625v-4.78125h1.8125v4.59375c0 1.4375072.5546819 2.15625 1.6640624 2.15625.5364611 0 .9778629-.1979147 1.3242188-.59375s.5195312-.9140593.5195312-1.5546875v-4.6015625h1.8125zm14.3203126 0h-1.8125v-4.359375c0-.8385459-.1184884-1.4453106-.3554688-1.8203125s-.6367159-.5625-1.1992188-.5625c-.4739607 0-.8763004.2369768-1.2070312.7109375s-.4960938 1.0416634-.4960938 1.703125v4.328125h-1.8203124v-4.5078125c0-1.4895908-.5260365-2.234375-1.578125-2.234375-.4895858 0-.8919256.2239561-1.2070313.671875s-.4726563 1.0286423-.4726563 1.7421875v4.328125h-1.8125v-8h1.8125v1.265625h.03125c.5781279-.9687548 1.4192654-1.453125 2.5234376-1.453125.552086 0 1.0351541.1523422 1.4492187.4570312.4140646.3046891.6966138.7044247.8476563 1.1992188.5937529-1.1041722 1.4791607-1.65625 2.65625-1.65625 1.7604254 0 2.640625 1.0859266 2.640625 3.2578125z" fill="#fff"/></g><g transform="translate(762)"><path d="m0 0h97v40h-97z" fill="#336dc2"/><path d="m31.6054688 26h-1.84375v-7.25c0-.593753.0364579-1.3203082.109375-2.1796875h-.03125c-.114584.4895858-.2161454.8411448-.3046876 1.0546875l-3.34375 8.375h-1.28125l-3.3515624-8.3125c-.0937505-.2447929-.1927079-.617185-.296875-1.1171875h-.03125c.0416668.4479189.0625 1.1796824.0625 2.1953125v7.234375h-1.71875v-11.203125h2.6171874l2.9453126 7.4609375c.2239594.5729195.3697913.9999986.4375 1.28125h.0390624c.1927093-.5885446.3489578-1.0260402.46875-1.3125l3-7.4296875h2.5234376zm9.328125-3.5078125h-5.453125c.0208334.739587.2486957 1.3098938.6835937 1.7109375s1.0325483.6015625 1.7929687.6015625c.854171 0 1.6380173-.2552058 2.3515626-.765625v1.4609375c-.7291704.4583356-1.6927024.6875-2.890625.6875-1.1770893 0-2.1002571-.3632776-2.7695313-1.0898438-.6692742-.7265661-1.0039063-1.7486913-1.0039063-3.0664062 0-1.2447979.3684859-2.2591107 1.1054688-3.0429688.7369829-.783858 1.6523383-1.1757812 2.7460938-1.1757812 1.0937554 0 1.9401011.351559 2.5390624 1.0546875.5989614.7031285.8984376 1.6796813.8984376 2.9296875zm-1.75-1.28125c-.0052084-.6510449-.1588527-1.1575503-.4609376-1.5195313-.3020848-.3619809-.7187473-.5429687-1.25-.5429687-.5208359 0-.9622377.1901023-1.3242187.5703125s-.584635.8776011-.6679687 1.4921875zm10.7499999 4.7890625h-1.8125v-1.359375h-.0312499c-.5833363 1.0312552-1.4817648 1.546875-2.6953126 1.546875-.9843799 0-1.7721324-.3580693-2.3632812-1.0742188-.5911488-.7161494-.8867188-1.6914-.8867188-2.9257812 0-1.3229233.3268197-2.3828085.9804688-3.1796875s1.5247341-1.1953125 2.6132812-1.1953125c1.0781304 0 1.8619768.4322873 2.3515626 1.296875h.0312499v-4.953125h1.8125zm-1.7890625-3.65625v-1.046875c0-.5677112-.1848939-1.0494772-.5546874-1.4453125-.3697936-.3958353-.841143-.59375-1.4140626-.59375-.6770867 0-1.2096334.2526016-1.5976562.7578125s-.5820312 1.2057247-.5820312 2.1015625c0 .8125041.186196 1.4544247.5585937 1.9257813.3723977.4713565.8736948.7070312 1.5039063.7070312.6197947 0 1.1223939-.2278623 1.5078124-.6835938.3854186-.4557314.578125-1.0299444.578125-1.7226562zm5.0703126-6.0234375c-.2968765 0-.5507802-.0963532-.7617188-.2890625s-.3164062-.4374985-.3164062-.734375.1054676-.5442698.3164062-.7421875.4648423-.296875.7617188-.296875c.3072932 0 .5677072.0989573.78125.296875.2135427.1979177.3203124.445311.3203124.7421875 0 .2812514-.1067697.5221344-.3203124.7226562-.2135428.2005219-.4739568.3007813-.78125.3007813zm.8984374 9.6796875h-1.8125v-8h1.8125zm9.34375 0h-1.8125v-1.265625h-.03125c-.5260442.9687548-1.3437444 1.453125-2.453125 1.453125-1.8906344 0-2.8359374-1.1354053-2.8359374-3.40625v-4.78125h1.8125v4.59375c0 1.4375072.5546819 2.15625 1.6640624 2.15625.5364611 0 .9778629-.1979147 1.3242188-.59375s.5195312-.9140593.5195312-1.5546875v-4.6015625h1.8125zm14.3203126 0h-1.8125v-4.359375c0-.8385459-.1184884-1.4453106-.3554688-1.8203125s-.6367159-.5625-1.1992188-.5625c-.4739607 0-.8763004.2369768-1.2070312.7109375s-.4960938 1.0416634-.4960938 1.703125v4.328125h-1.8203124v-4.5078125c0-1.4895908-.5260365-2.234375-1.578125-2.234375-.4895858 0-.8919256.2239561-1.2070313.671875s-.4726563 1.0286423-.4726563 1.7421875v4.328125h-1.8125v-8h1.8125v1.265625h.03125c.5781279-.9687548 1.4192654-1.453125 2.5234376-1.453125.552086 0 1.0351541.1523422 1.4492187.4570312.4140646.3046891.6966138.7044247.8476563 1.1992188.5937529-1.1041722 1.4791607-1.65625 2.65625-1.65625 1.7604254 0 2.640625 1.0859266 2.640625 3.2578125z" fill="#fff"/></g><g transform="translate(127)"><rect fill="#336dc2" height="40" rx="2" width="97"/><path d="m31.1679688 26h-2.4921876v-6.703125c0-.723962.0312497-1.5234331.09375-2.3984375h-.0625c-.1302089.6875034-.2473953 1.1822902-.3515624 1.484375l-2.625 7.6171875h-2.0625l-2.671875-7.5390625c-.0729171-.203126-.1901034-.7239541-.3515626-1.5625h-.0703124c.0677086 1.1041722.1015624 2.0729125.1015624 2.90625v6.1953125h-2.2734374v-11.203125h3.6953124l2.2890626 6.640625c.1822925.5312527.3151037 1.0651015.3984374 1.6015625h.046875c.1406258-.6197948.2890618-1.1588519.4453126-1.6171875l2.2890624-6.625h3.6015626zm9.4921874-3.296875h-5.21875c.0833338 1.1614641.8150973 1.7421875 2.1953126 1.7421875.8802127 0 1.6536425-.2083313 2.3203124-.625v1.78125c-.739587.3958353-1.7005149.59375-2.8828124.59375-1.2916732 0-2.2942673-.3580693-3.0078126-1.0742188-.7135452-.7161494-1.0703124-1.7148373-1.0703124-2.9960937 0-1.3281316.3854128-2.3802045 1.15625-3.15625.7708371-.7760455 1.7187443-1.1640625 2.84375-1.1640625 1.1666725 0 2.0690072.3463507 2.7070312 1.0390625s.9570312 1.6328066.9570312 2.8203125zm-2.2890624-1.515625c0-1.1458391-.4635371-1.71875-1.390625-1.71875-.3958354 0-.7382799.1640609-1.0273438.4921875s-.4648434.7369767-.5273438 1.2265625zm11.5859374 4.8125h-2.46875v-1.1015625h-.03125c-.5625028.8645877-1.3880153 1.296875-2.4765624 1.296875-1.0000051 0-1.8046845-.3528611-2.4140626-1.0585937-.609378-.7057327-.9140624-1.6914-.9140624-2.9570313 0-1.3229233.3359341-2.3828085 1.0078124-3.1796875.6718784-.796879 1.5520779-1.1953125 2.640625-1.1953125 1.0312552 0 1.749998.369788 2.15625 1.109375h.03125v-4.7578125h2.46875zm-2.421875-3.890625v-.6015625c0-.5208359-.1510401-.9531233-.453125-1.296875-.3020848-.3437517-.69531-.515625-1.1796874-.515625-.5468778 0-.9739568.2148416-1.28125.6445313-.3072933.4296896-.4609376 1.0195275-.4609376 1.7695312 0 .7031285.1484361 1.2447898.4453126 1.625.2968764.3802102.7083307.5703125 1.234375.5703125.5000025 0 .9075505-.2005188 1.2226562-.6015625s.4726562-.9322884.4726562-1.59375zm5.75-5.375c-.4166687 0-.7578111-.1236967-1.0234374-.3710938-.2656264-.247397-.3984376-.5507794-.3984376-.9101562 0-.3697935.1328112-.6718738.3984376-.90625.2656263-.2343762.6067687-.3515625 1.0234374-.3515625.4218772 0 .7643217.1171863 1.0273438.3515625s.3945312.5364565.3945312.90625c0 .3750019-.1315091.6822905-.3945312.921875s-.6054666.359375-1.0273438.359375zm1.21875 9.265625h-2.46875v-8h2.46875zm9.6796876 0h-2.4609376v-1.21875h-.0390624c-.6093781.942713-1.4244741 1.4140625-2.4453126 1.4140625-1.8541759 0-2.78125-1.1223846-2.78125-3.3671875v-4.828125h2.4609376v4.609375c0 1.130214.4479121 1.6953125 1.34375 1.6953125.4427105 0 .7968736-.1549464 1.0625-.4648437.2656263-.3098974.3984374-.7304661.3984374-1.2617188v-4.578125h2.4609376zm14.78125 0h-2.4609376v-4.5625c0-1.1614641-.427079-1.7421875-1.28125-1.7421875-.406252 0-.7369778.1744774-.9921874.5234375-.2552097.3489601-.3828126.7838516-.3828126 1.3046875v4.4765625h-2.46875v-4.609375c0-1.130214-.4192666-1.6953125-1.2578124-1.6953125-.4218772 0-.7591134.166665-1.0117188.5s-.3789062.7864555-.3789062 1.359375v4.4453125h-2.46875v-8h2.46875v1.25h.03125c.2552096-.4270855.6132789-.7747382 1.0742187-1.0429688.4609398-.2682305.964841-.4023437 1.5117187-.4023437 1.130214 0 1.9036438.4973909 2.3203126 1.4921875.609378-.9947966 1.5052024-1.4921875 2.6875-1.4921875 1.739592 0 2.609375 1.0729059 2.609375 3.21875z" fill="#fff"/></g><g transform="translate(381)"><rect fill="#336dc2" height="40" rx="5" width="97"/><path d="m24.875 26v-6.140625c0-.5781279.018229-1.2135382.0546875-1.90625l.0234375-.515625h-.09375c-.1666675.8802127-.2942704 1.4895816-.3828125 1.828125l-1.6484375 6.734375h-3.171875l-1.7265625-6.65625c-.0468752-.1666675-.1692698-.8020778-.3671875-1.90625h-.09375c.072917 1.7500087.109375 2.8437478.109375 3.28125v5.28125h-2.9609375v-11.203125h5.0546875l1.5390625 6.0859375c.0364585.1250006.0846351.3789043.1445313.7617187.0598961.3828145.0976561.6783844.1132812.8867188h.046875c.057292-.4739607.1484369-1.0338509.2734375-1.6796875l1.4375-6.0546875h4.9765625v11.203125zm5.53125 0v-11.203125h6.9765625v2.640625h-3.6015625v1.6328125h3.3828125v2.640625h-3.3828125v1.6484375h3.859375v2.640625zm19.390625-5.7421875c0 1.1354223-.2382789 2.1393186-.7148438 3.0117187-.4765648.8724002-1.1575476 1.5455706-2.0429687 2.0195313s-1.9062442.7109375-3.0625.7109375h-4.7421875v-11.203125h4.640625c3.9479364 0 5.921875 1.8202943 5.921875 5.4609375zm-3.5859375.03125c0-.5468777-.110676-1.0390603-.3320313-1.4765625-.2213552-.4375022-.5377583-.7760405-.9492187-1.015625s-.8958305-.359375-1.453125-.359375h-.8671875v5.921875h.9453125c.8072957 0 1.4518205-.277341 1.9335937-.8320312.4817733-.5546903.7226563-1.3007766.7226563-2.2382813zm5.1640625 5.7109375v-11.203125h3.375v11.203125zm15.34375-5.1171875c0 1.796884-.4101521 3.1315061-1.2304688 4.0039063-.8203166.8724001-2.0846268 1.3085937-3.7929687 1.3085937-1.593758 0-2.8033813-.4361936-3.6289063-1.3085937-.8255249-.8724002-1.2382812-2.1861892-1.2382812-3.9414063v-6.1484375h3.390625v6.2734375c0 .7187536.1341132 1.2721335.4023438 1.6601563.2682305.3880227.6523412.5820312 1.1523437.5820312.5052109 0 .8893216-.1822898 1.1523437-.546875.2630222-.3645852.3945313-.9036423.3945313-1.6171875v-6.3515625h3.3984375zm12.3359375 5.1171875v-6.140625c0-.5781279.018229-1.2135382.0546875-1.90625l.0234375-.515625h-.09375c-.1666675.8802127-.2942704 1.4895816-.3828125 1.828125l-1.6484375 6.734375h-3.171875l-1.7265625-6.65625c-.0468752-.1666675-.1692698-.8020778-.3671875-1.90625h-.09375c.072917 1.7500087.109375 2.8437478.109375 3.28125v5.28125h-2.9609375v-11.203125h5.0546875l1.5390625 6.0859375c.0364585.1250006.0846351.3789043.1445312.7617187.0598962.3828145.0976562.6783844.1132813.8867188h.046875c.057292-.4739607.1484369-1.0338509.2734375-1.6796875l1.4375-6.0546875h4.9765625v11.203125z" fill="#fff"/></g><g transform="translate(508)"><rect fill="#336dc2" height="40" rx="10" width="97"/><path d="m29.3085938 26h-1.84375v-7.25c0-.593753.0364579-1.3203082.109375-2.1796875h-.03125c-.114584.4895858-.2161454.8411448-.3046876 1.0546875l-3.34375 8.375h-1.28125l-3.3515624-8.3125c-.0937505-.2447929-.1927079-.617185-.296875-1.1171875h-.03125c.0416668.4479189.0625 1.1796824.0625 2.1953125v7.234375h-1.71875v-11.203125h2.6171874l2.9453126 7.4609375c.2239594.5729195.3697913.9999986.4375 1.28125h.0390624c.1927093-.5885446.3489578-1.0260402.46875-1.3125l3-7.4296875h2.5234376zm9.046875 0h-6.2890626v-11.203125h6.0390626v1.578125h-4.1796876v3.171875h3.8515626v1.5703125h-3.8515626v3.3125h4.4296876zm1.9921874 0v-11.203125h3.234375c4.130229 0 6.1953126 1.8202943 6.1953126 5.4609375 0 1.7291753-.572911 3.1184843-1.71875 4.1679687-1.1458391 1.0494845-2.6822821 1.5742188-4.609375 1.5742188zm1.8515626-9.625v8.0546875h1.484375c1.3072982 0 2.3242151-.3593714 3.0507812-1.078125s1.0898438-1.7343684 1.0898438-3.046875c0-2.6198048-1.3567573-3.9296875-4.0703126-3.9296875zm12.5078124-1.578125v1.5h-1.0234374v8.203125h1.0234374v1.5h-3.90625v-1.5h1.0234376v-8.203125h-1.0234376v-1.5zm10.359375 6.671875c0 3.1458491-1.4895684 4.71875-4.46875 4.71875-2.8541809 0-4.28125-1.5130057-4.28125-4.5390625v-6.8515625h1.859375v6.46875c0 2.1979277.8541582 3.296875 2.5625 3.296875 1.6458416 0 2.46875-1.0598852 2.46875-3.1796875v-6.5859375h1.859375zm14.6640626 4.53125h-1.84375v-7.25c0-.593753.0364579-1.3203082.109375-2.1796875h-.03125c-.114584.4895858-.2161454.8411448-.3046876 1.0546875l-3.34375 8.375h-1.28125l-3.3515624-8.3125c-.0937505-.2447929-.1927079-.617185-.296875-1.1171875h-.03125c.0416668.4479189.0625 1.1796824.0625 2.1953125v7.234375h-1.71875v-11.203125h2.6171874l2.9453126 7.4609375c.2239594.5729195.3697913.9999986.4375 1.28125h.0390624c.1927093-.5885446.3489578-1.0260402.46875-1.3125l3-7.4296875h2.5234376z" fill="#fff"/></g><rect fill="#3c85df" height="40" rx="5" width="97"/><path d="m31.6054688 26h-1.84375v-7.25c0-.593753.0364579-1.3203082.109375-2.1796875h-.03125c-.114584.4895858-.2161454.8411448-.3046876 1.0546875l-3.34375 8.375h-1.28125l-3.3515624-8.3125c-.0937505-.2447929-.1927079-.617185-.296875-1.1171875h-.03125c.0416668.4479189.0625 1.1796824.0625 2.1953125v7.234375h-1.71875v-11.203125h2.6171874l2.9453126 7.4609375c.2239594.5729195.3697913.9999986.4375 1.28125h.0390624c.1927093-.5885446.3489578-1.0260402.46875-1.3125l3-7.4296875h2.5234376zm9.328125-3.5078125h-5.453125c.0208334.739587.2486957 1.3098938.6835937 1.7109375s1.0325483.6015625 1.7929687.6015625c.854171 0 1.6380173-.2552058 2.3515626-.765625v1.4609375c-.7291704.4583356-1.6927024.6875-2.890625.6875-1.1770893 0-2.1002571-.3632776-2.7695313-1.0898438-.6692742-.7265661-1.0039063-1.7486913-1.0039063-3.0664062 0-1.2447979.3684859-2.2591107 1.1054688-3.0429688.7369829-.783858 1.6523383-1.1757812 2.7460938-1.1757812 1.0937554 0 1.9401011.351559 2.5390624 1.0546875.5989614.7031285.8984376 1.6796813.8984376 2.9296875zm-1.75-1.28125c-.0052084-.6510449-.1588527-1.1575503-.4609376-1.5195313-.3020848-.3619809-.7187473-.5429687-1.25-.5429687-.5208359 0-.9622377.1901023-1.3242187.5703125s-.584635.8776011-.6679687 1.4921875zm10.7499999 4.7890625h-1.8125v-1.359375h-.0312499c-.5833363 1.0312552-1.4817648 1.546875-2.6953126 1.546875-.9843799 0-1.7721324-.3580693-2.3632812-1.0742188-.5911488-.7161494-.8867188-1.6914-.8867188-2.9257812 0-1.3229233.3268197-2.3828085.9804688-3.1796875s1.5247341-1.1953125 2.6132812-1.1953125c1.0781304 0 1.8619768.4322873 2.3515626 1.296875h.0312499v-4.953125h1.8125zm-1.7890625-3.65625v-1.046875c0-.5677112-.1848939-1.0494772-.5546874-1.4453125-.3697936-.3958353-.841143-.59375-1.4140626-.59375-.6770867 0-1.2096334.2526016-1.5976562.7578125s-.5820312 1.2057247-.5820312 2.1015625c0 .8125041.186196 1.4544247.5585937 1.9257813.3723977.4713565.8736948.7070312 1.5039063.7070312.6197947 0 1.1223939-.2278623 1.5078124-.6835938.3854186-.4557314.578125-1.0299444.578125-1.7226562zm5.0703126-6.0234375c-.2968765 0-.5507802-.0963532-.7617188-.2890625s-.3164062-.4374985-.3164062-.734375.1054676-.5442698.3164062-.7421875.4648423-.296875.7617188-.296875c.3072932 0 .5677072.0989573.78125.296875.2135427.1979177.3203124.445311.3203124.7421875 0 .2812514-.1067697.5221344-.3203124.7226562-.2135428.2005219-.4739568.3007813-.78125.3007813zm.8984374 9.6796875h-1.8125v-8h1.8125zm9.34375 0h-1.8125v-1.265625h-.03125c-.5260442.9687548-1.3437444 1.453125-2.453125 1.453125-1.8906344 0-2.8359374-1.1354053-2.8359374-3.40625v-4.78125h1.8125v4.59375c0 1.4375072.5546819 2.15625 1.6640624 2.15625.5364611 0 .9778629-.1979147 1.3242188-.59375s.5195312-.9140593.5195312-1.5546875v-4.6015625h1.8125zm14.3203126 0h-1.8125v-4.359375c0-.8385459-.1184884-1.4453106-.3554688-1.8203125s-.6367159-.5625-1.1992188-.5625c-.4739607 0-.8763004.2369768-1.2070312.7109375s-.4960938 1.0416634-.4960938 1.703125v4.328125h-1.8203124v-4.5078125c0-1.4895908-.5260365-2.234375-1.578125-2.234375-.4895858 0-.8919256.2239561-1.2070313.671875s-.4726563 1.0286423-.4726563 1.7421875v4.328125h-1.8125v-8h1.8125v1.265625h.03125c.5781279-.9687548 1.4192654-1.453125 2.5234376-1.453125.552086 0 1.0351541.1523422 1.4492187.4570312.4140646.3046891.6966138.7044247.8476563 1.1992188.5937529-1.1041722 1.4791607-1.65625 2.65625-1.65625 1.7604254 0 2.640625 1.0859266 2.640625 3.2578125z" fill="#fff"/><g transform="translate(635)"><rect fill="#3c85df" height="40" rx="5" width="97"/><path d="m29.168457 26v-8.7011719c0-.4453147.0351559-1.163081.1054688-2.1533203h-.0351563c-.0820316.2636732-.1567379.4921865-.2241211.6855469-.0673831.1933603-.1303708.3515619-.1889648.4746094l-4.3945313 9.6943359h-.5009765l-4.4033203-9.6328125c-.1289069-.2929702-.2607415-.706052-.3955078-1.2392578h-.0351563c.0234376.2695326.0395507.5771467.0483398.9228515.0087892.3457049.0131836.7294901.0131836 1.1513672v8.7978516h-1.1425781v-12.6035156h1.3798828l4.2802735 9.4746094c.087891.1992197.174316.4028309.2592773.6108398.0849614.2080088.1625973.429198.2329102.6635742h.0527343c.0820317-.2343762.156738-.4482412.2241211-.6416016.0673832-.1933603.1508784-.401366.2504883-.6240234l4.3154297-9.4833984h1.3095703v12.6035156zm4.772461-4.2978516c.0058594.550784.0791008 1.0458963.2197265 1.4853516s.3427722.8115219.6064453 1.1162109c.2636732.3046891.5844708.5375969.9624024.6987305s.8041968.2416992 1.2788086.2416992c1.0136769 0 1.9716752-.3544886 2.8740234-1.0634765v1.1074218c-.8613324.6152375-1.9042907.9228516-3.1289062.9228516-.6035187 0-1.1513648-.1054677-1.6435547-.3164063-.49219-.2109385-.9111311-.5170878-1.256836-.918457-.3457048-.4013692-.6123037-.8950166-.7998046-1.480957-.187501-.5859404-.28125-1.2539025-.28125-2.0039063 0-.6738315.102538-1.2978487.3076171-1.8720703.2050792-.5742216.489256-1.0707987.8525391-1.4897461s.7939428-.7470691 1.2919922-.984375c.4980494-.2373058 1.0429658-.355957 1.6347656-.355957.580081 0 1.0927712.1010732 1.538086.3032227.4453147.2021494.8188461.4907207 1.1206054.8657226s.5317375.8320286.6899414 1.3710938.2373047 1.1425747.2373047 1.8105468v.5625zm5.34375-.984375c-.0175782-.9375047-.2402323-1.6640599-.6679688-2.1796875-.4277365-.5156275-1.0224571-.7734375-1.7841797-.7734375-.3808612 0-.7338851.0673822-1.059082.2021485s-.6108386.3295885-.8569336.5844726-.4497062.5654279-.6108398.9316407c-.1611337.3662127-.2739255.7778297-.3383789 1.2348632zm9.6767578 5.2822266v-1.5820312h-.0351563c-.2988296.5683622-.7250949 1.0092757-1.2788086 1.3227539-.5537137.3134781-1.1821254.4702148-1.8852539.4702148-.5625028 0-1.0737281-.1040029-1.5336914-.3120117-.4599632-.2080089-.8540022-.5082988-1.1821289-.9008789-.3281266-.3925801-.5815421-.8671847-.7602539-1.4238281-.1787118-.5566435-.2680664-1.18652-.2680664-1.8896485 0-.7265661.0981436-1.3901337.2944336-1.9907226.19629-.600589.4746076-1.1162088.8349609-1.546875.3603534-.4306663.7939428-.7646473 1.3007813-1.0019532.5068385-.2373058 1.0707977-.355957 1.6918945-.355957 1.2949284 0 2.22363.5185495 2.7861328 1.5556641h.0351563v-5.6689454h1.125v13.3242188zm0-5.4316406c0-.3925801-.0673822-.7587874-.2021485-1.0986328-.1347663-.3398455-.3222644-.635741-.5625-.8876954-.2402355-.2519543-.5288069-.4511711-.8657226-.5976562-.3369158-.1464851-.7075175-.2197266-1.1118164-.2197266-.4453147 0-.8554669.0878898-1.2304688.2636719-.3750018.1757821-.6957994.4291976-.9624023.7602539-.2666029.3310564-.4746086.7338844-.6240234 1.2084961-.1494149.4746118-.2241211 1.0136689-.2241211 1.6171875 0 .5683622.0673821 1.0781228.2021484 1.5292969s.3266589.8320297.5756836 1.1425781.546385.5478508.8920898.7119141c.3457049.1640633.7294901.2460937 1.1513672.2460937.4570336 0 .8686505-.0820304 1.2348633-.2460937s.6767565-.389647.9316406-.6767578.4511712-.6240215.5888672-1.0107422.206543-.7998025.206543-1.2392578zm4.5791015-5.8447266c-.2167979 0-.404296-.0761711-.5625-.2285156-.1582039-.1523445-.2373046-.345702-.2373046-.5800781 0-.2285168.0791007-.4174798.2373046-.5668946.158204-.1494148.3457021-.2241211.5625-.2241211.1113287 0 .2167964.0190428.3164063.0571289.0996099.0380862.1860348.0922848.2592773.1625977.0732426.0703129.1318358.1538081.1757813.2504883s.065918.2036127.065918.3208008c0 .1113286-.0205077.2167963-.0615235.3164062s-.099609.1860348-.1757812.2592774c-.0761723.0732425-.1625972.1303708-.2592774.1713867-.0966801.0410158-.2036127.0615234-.3208008.0615234zm-.5537109 11.2763672v-9h1.125v9zm9.9140625 0v-1.5292969h-.0351562c-.6093781 1.1601621-1.5556577 1.7402344-2.8388672 1.7402344-2.1386826 0-3.2080078-1.3066276-3.2080078-3.9199219v-5.2910156h1.125v5.0800781c0 1.0781304.1918926 1.8749974.5756835 2.390625.383791.5156276.9711875.7734375 1.7622071.7734375.3867207 0 .7397445-.0747063 1.059082-.2241211s.5947254-.3603502.8261719-.6328125.4116204-.5991192.5405273-.9799804c.1289069-.3808613.1933594-.8027321.1933594-1.265625v-5.1416016h1.125v9zm15.3369141 0v-5.2910156c0-.5390652-.0410152-.9946271-.1230469-1.3666992-.0820317-.3720722-.2094718-.6752918-.3823242-.909668-.1728525-.2343762-.3925768-.4042964-.6591797-.5097656-.2666029-.1054693-.5844708-.1582032-.9536133-.1582032-.3281266 0-.6386704.077636-.9316406.2329102s-.5493153.3691393-.769043.6416016c-.2197276.2724623-.3925775.5932598-.5185547.9624023s-.1889648.767576-.1889648 1.1953125v5.203125h-1.125v-5.4052734c0-1.8867282-.7236256-2.8300782-2.1708985-2.8300782-.333986 0-.6445298.0747063-.9316406.2241211s-.5375966.3588854-.7514648.628418c-.2138683.2695326-.3808588.5932598-.5009766.9711914s-.1801758.7954079-.1801758 1.2524414v5.1591797h-1.125v-9h1.125v1.4589844h.0351563c.6328156-1.1132868 1.555658-1.6699219 2.7685547-1.6699219.3164078 0 .6152329.0483394.8964843.1450195.2812514.0966802.5332021.2314445.7558594.4042969.2226574.1728524.41455.3793933.5756836.6196289s.2827144.5039048.3647461.7910156c.3164078-.638675.7280248-1.1249983 1.2348633-1.4589843.5068385-.3339861 1.0795866-.5009766 1.7182617-.5009766 1.9746193 0 2.9619141 1.2187378 2.9619141 3.65625v5.5546875z" fill="#fff"/></g><g fill-rule="nonzero"><path d="m.35 8.15 5.29 5.2c.39003745.3877236 1.01996255.3877236 1.41 0l10.6-10.6-2.8-2.75-8.5 8.5-3.1-3.2z" fill="#128024" transform="translate(293 56)"/><path d="m15.78 12.95-4.95-4.95 4.95-4.95-2.83-2.83-4.95 4.95-4.95-4.95-2.83 2.83 4.95 4.95-4.95 4.95 2.83 2.83 4.95-4.95 4.95 4.95z" fill="#c00" transform="translate(167 56)"/><path d="m15.78 12.95-4.95-4.95 4.95-4.95-2.83-2.83-4.95 4.95-4.95-4.95-2.83 2.83 4.95 4.95-4.95 4.95 2.83 2.83 4.95-4.95 4.95 4.95z" fill="#c00" transform="translate(40 56)"/><path d="m15.78 12.95-4.95-4.95 4.95-4.95-2.83-2.83-4.95 4.95-4.95-4.95-2.83 2.83 4.95 4.95-4.95 4.95 2.83 2.83 4.95-4.95 4.95 4.95z" fill="#c00" transform="translate(422 56)"/><path d="m15.78 12.95-4.95-4.95 4.95-4.95-2.83-2.83-4.95 4.95-4.95-4.95-2.83 2.83 4.95 4.95-4.95 4.95 2.83 2.83 4.95-4.95 4.95 4.95z" fill="#c00" transform="translate(549 56)"/><path d="m15.78 12.95-4.95-4.95 4.95-4.95-2.83-2.83-4.95 4.95-4.95-4.95-2.83 2.83 4.95 4.95-4.95 4.95 2.83 2.83 4.95-4.95 4.95 4.95z" fill="#c00" transform="translate(676 56)"/><path d="m15.78 12.95-4.95-4.95 4.95-4.95-2.83-2.83-4.95 4.95-4.95-4.95-2.83 2.83 4.95 4.95-4.95 4.95 2.83 2.83 4.95-4.95 4.95 4.95z" fill="#c00" transform="translate(803 56)"/></g></g></svg>