<?xml version="1.0" encoding="utf-8"?>
<!-- Generator: Adobe Illustrator 19.1.0, SVG Export Plug-In . SVG Version: 6.00 Build 0)  -->
<svg version="1.1" id="Layer_1" xmlns="http://www.w3.org/2000/svg" xmlns:xlink="http://www.w3.org/1999/xlink" x="0px" y="0px"
	 viewBox="0 0 54.5 54.4" enable-background="new 0 0 54.5 54.4" xml:space="preserve">
<g>
	<path fill="#FFFFFF" d="M17.9,30H7.8l-2.3,8.1H0L9.8,8.1h6.3l9.8,30.1h-5.6L17.9,30z M16.7,25.9l-1.1-3.7c-0.5-1.6-1-3.2-1.4-4.9
		c-0.4-1.7-0.9-3.4-1.3-5h-0.2c-0.4,1.7-0.9,3.4-1.3,5c-0.4,1.7-0.9,3.3-1.4,4.9L9,25.9H16.7z"/>
	<path fill="#FFFFFF" d="M29.6,8.1h8.1c4.6,0,8.2,1.2,10.8,3.7C51,14.3,52.3,18,52.3,23c0,2.5-0.3,4.7-1,6.6
		c-0.7,1.9-1.6,3.5-2.9,4.8c-1.2,1.3-2.7,2.2-4.5,2.9c-1.8,0.6-3.8,1-6,1h-8.3V8.1z M37.3,33.9c3.1,0,5.4-0.9,7.1-2.6
		c1.6-1.8,2.5-4.5,2.5-8.2c0-3.7-0.8-6.4-2.5-8c-1.7-1.7-4-2.5-7-2.5h-2.3v21.4H37.3z"/>
</g>
</svg>
